<svg xmlns="http://www.w3.org/2000/svg" xmlns:xlink="http://www.w3.org/1999/xlink" width="710" zoomAndPan="magnify" viewBox="0 0 532.5 299.999988" height="400" preserveAspectRatio="xMidYMid meet" version="1.0"><defs><clipPath id="ea3210b427"><path d="M 118.5625 93 L 196 93 L 196 132 L 118.5625 132 Z M 118.5625 93 " clip-rule="nonzero"/></clipPath><clipPath id="ef279c5508"><path d="M 206 3.296875 L 299 3.296875 L 299 69 L 206 69 Z M 206 3.296875 " clip-rule="nonzero"/></clipPath><clipPath id="dbf7efcba9"><path d="M 351 140 L 413.785156 140 L 413.785156 161 L 351 161 Z M 351 140 " clip-rule="nonzero"/></clipPath><clipPath id="d05c4fc81e"><path d="M 351 140 L 413.785156 140 L 413.785156 162 L 351 162 Z M 351 140 " clip-rule="nonzero"/></clipPath></defs><path fill="#ff7dce" d="M 173.285156 128.128906 C 173.285156 128.128906 155.3125 130.257812 149.222656 139.695312 C 142.367188 150.324219 148.585938 158.355469 145.195312 167.042969 C 143.433594 171.5625 136.371094 177.941406 131.046875 178.914062 C 131.046875 178.914062 161.445312 192.484375 176.484375 181.519531 C 191.527344 170.554688 196.070312 155.679688 196.070312 155.679688 L 173.285156 128.128906 " fill-opacity="1" fill-rule="nonzero"/><path fill="#ffffff" d="M 175.46875 136.652344 C 175.46875 136.652344 166.316406 138.210938 162.804688 143.414062 C 159.730469 147.96875 161.242188 151.621094 162.359375 157.113281 C 163.097656 160.730469 161.707031 165.144531 158.285156 166.761719 C 158.285156 166.761719 168.089844 171.710938 178.421875 164.003906 C 188.019531 156.847656 188.210938 152.058594 188.210938 152.058594 L 175.46875 136.652344 " fill-opacity="1" fill-rule="nonzero"/><path fill="#000000" d="M 210.554688 140.546875 L 184.160156 207.550781 L 224.875 173.796875 C 227.496094 171.621094 228.851562 168.296875 228.492188 164.90625 L 225.773438 139.28125 Z M 183.324219 209.0625 C 183.25 209.0625 183.175781 209.039062 183.113281 208.996094 C 182.984375 208.898438 182.933594 208.726562 182.992188 208.578125 L 209.972656 140.078125 C 210.023438 139.949219 210.140625 139.863281 210.273438 139.851562 L 226.0625 138.542969 C 226.25 138.527344 226.421875 138.667969 226.445312 138.863281 L 229.199219 164.828125 C 229.582031 168.460938 228.136719 172.015625 225.328125 174.347656 L 183.550781 208.980469 C 183.484375 209.035156 183.402344 209.0625 183.324219 209.0625 " fill-opacity="1" fill-rule="nonzero"/><g clip-path="url(#ea3210b427)"><path fill="#000000" d="M 167.421875 94.191406 C 165.09375 94.191406 162.808594 95 160.960938 96.527344 L 120.25 130.28125 L 190.925781 116.8125 L 195 102.078125 L 170.363281 94.628906 C 169.394531 94.335938 168.40625 94.191406 167.421875 94.191406 Z M 118.957031 131.246094 C 118.820312 131.246094 118.695312 131.167969 118.636719 131.042969 C 118.566406 130.894531 118.605469 130.71875 118.730469 130.617188 L 160.507812 95.980469 C 163.316406 93.652344 167.078125 92.890625 170.566406 93.949219 L 195.539062 101.496094 C 195.722656 101.554688 195.832031 101.746094 195.777344 101.933594 L 191.550781 117.214844 C 191.515625 117.347656 191.410156 117.445312 191.273438 117.472656 L 119.023438 131.238281 C 119 131.242188 118.980469 131.246094 118.957031 131.246094 " fill-opacity="1" fill-rule="nonzero"/></g><path fill="#8c7bff" d="M 194.371094 159.503906 L 168.886719 128.691406 C 168.886719 128.691406 190.039062 71.574219 257.308594 44.332031 C 274.359375 37.433594 294.378906 32.453125 317.761719 30.800781 C 317.957031 30.792969 318.148438 30.78125 318.339844 30.765625 L 318.410156 30.765625 L 318.386719 30.835938 C 312.40625 53.769531 303.722656 72.699219 293.683594 88.308594 C 254.398438 149.371094 194.371094 159.503906 194.371094 159.503906 " fill-opacity="1" fill-rule="nonzero"/><path fill="#fed101" d="M 226.433594 127.792969 C 219.625 133.4375 209.53125 132.488281 203.890625 125.671875 C 198.25 118.851562 199.199219 108.746094 206.011719 103.101562 C 212.820312 97.453125 222.914062 98.402344 228.554688 105.222656 C 234.195312 112.042969 233.242188 122.144531 226.433594 127.792969 " fill-opacity="1" fill-rule="nonzero"/><path fill="#ffffff" d="M 222.480469 123.011719 C 218.304688 126.46875 212.121094 125.886719 208.667969 121.710938 C 205.210938 117.53125 205.792969 111.339844 209.964844 107.882812 C 214.136719 104.421875 220.324219 105.003906 223.777344 109.179688 C 227.234375 113.359375 226.652344 119.550781 222.480469 123.011719 " fill-opacity="1" fill-rule="nonzero"/><path fill="#000000" d="M 216.207031 105.980469 C 214.011719 105.980469 211.902344 106.738281 210.191406 108.15625 C 206.175781 111.484375 205.617188 117.464844 208.941406 121.484375 C 210.550781 123.429688 212.824219 124.632812 215.339844 124.871094 C 217.851562 125.105469 220.308594 124.351562 222.25 122.734375 C 226.265625 119.40625 226.828125 113.429688 223.503906 109.410156 C 221.894531 107.460938 219.621094 106.257812 217.105469 106.019531 C 216.804688 105.996094 216.503906 105.980469 216.207031 105.980469 Z M 216.242188 125.625 C 215.917969 125.625 215.597656 125.609375 215.273438 125.578125 C 212.566406 125.324219 210.125 124.03125 208.390625 121.9375 C 204.816406 117.617188 205.421875 111.1875 209.738281 107.609375 C 211.828125 105.875 214.472656 105.058594 217.171875 105.3125 C 219.878906 105.566406 222.320312 106.859375 224.050781 108.953125 C 227.628906 113.277344 227.023438 119.707031 222.707031 123.285156 C 220.867188 124.808594 218.601562 125.625 216.242188 125.625 " fill-opacity="1" fill-rule="nonzero"/><path fill="#fed101" d="M 265.980469 91.757812 C 260.234375 96.523438 251.714844 95.722656 246.957031 89.96875 C 242.195312 84.214844 242.996094 75.683594 248.746094 70.917969 C 254.492188 66.152344 263.011719 66.953125 267.773438 72.710938 C 272.53125 78.464844 271.730469 86.992188 265.980469 91.757812 " fill-opacity="1" fill-rule="nonzero"/><path fill="#ffffff" d="M 262.644531 87.722656 C 259.121094 90.644531 253.90625 90.152344 250.984375 86.625 C 248.070312 83.097656 248.558594 77.875 252.082031 74.953125 C 255.605469 72.035156 260.824219 72.527344 263.742188 76.050781 C 266.65625 79.578125 266.167969 84.800781 262.644531 87.722656 " fill-opacity="1" fill-rule="nonzero"/><path fill="#000000" d="M 257.351562 73.402344 C 255.511719 73.402344 253.746094 74.039062 252.308594 75.226562 C 248.945312 78.015625 248.472656 83.027344 251.261719 86.398438 C 252.613281 88.03125 254.515625 89.039062 256.625 89.234375 C 258.730469 89.433594 260.789062 88.796875 262.417969 87.445312 C 265.785156 84.660156 266.253906 79.648438 263.46875 76.277344 C 262.117188 74.644531 260.210938 73.636719 258.105469 73.4375 C 257.851562 73.414062 257.601562 73.402344 257.351562 73.402344 Z M 257.378906 89.984375 C 257.105469 89.984375 256.832031 89.972656 256.554688 89.945312 C 254.257812 89.726562 252.183594 88.628906 250.714844 86.851562 C 247.675781 83.179688 248.1875 77.71875 251.855469 74.679688 C 253.632812 73.207031 255.875 72.515625 258.171875 72.730469 C 260.46875 72.945312 262.542969 74.042969 264.015625 75.824219 C 267.054688 79.496094 266.539062 84.957031 262.871094 87.996094 C 261.3125 89.292969 259.386719 89.984375 257.378906 89.984375 " fill-opacity="1" fill-rule="nonzero"/><path fill="#fed101" d="M 293.855469 88.519531 L 257.121094 44.105469 C 274.351562 37.191406 294.609375 32.257812 318.332031 30.757812 L 318.402344 30.757812 L 318.378906 30.828125 C 312.484375 53.867188 303.859375 72.867188 293.855469 88.519531 " fill-opacity="1" fill-rule="nonzero"/><path fill="#fcb503" d="M 293.949219 88.632812 L 275.675781 66.542969 L 318.03125 31.128906 C 318.226562 31.121094 318.417969 31.105469 318.609375 31.089844 L 318.679688 31.089844 L 318.65625 31.160156 C 312.671875 54.09375 303.992188 73.027344 293.949219 88.632812 " fill-opacity="1" fill-rule="nonzero"/><path fill="#955b50" d="M 230.589844 149.117188 L 244.503906 155.101562 L 231.886719 184.507812 L 217.96875 178.523438 L 230.589844 149.117188 " fill-opacity="1" fill-rule="nonzero"/><path fill="#020202" d="M 241.742188 161.535156 L 225.691406 160.527344 L 230.589844 149.117188 L 244.503906 155.101562 L 241.742188 161.535156 " fill-opacity="1" fill-rule="nonzero"/><path fill="#020202" d="M 223.992188 164.484375 L 237.910156 170.46875 L 231.886719 184.507812 L 217.96875 178.523438 L 223.992188 164.484375 " fill-opacity="1" fill-rule="nonzero"/><path fill="#fed101" d="M 209.601562 181.574219 C 212.996094 177.453125 214.121094 174.554688 218.15625 172.378906 L 218.507812 172.1875 C 219.796875 171.492188 221.347656 172.507812 221.222656 173.972656 L 221.015625 176.421875 C 220.816406 178.800781 223.085938 179.515625 223.109375 179.539062 C 224.410156 180.097656 225.203125 179.554688 228.492188 179.113281 L 229.652344 176.410156 L 232.894531 175.246094 L 235.652344 176.429688 L 236.386719 180.382812 L 244.171875 190.597656 L 255.40625 194.6875 L 257.632812 198.4375 L 253.238281 201.867188 L 235.191406 203.113281 L 224.351562 195.453125 L 209.601562 181.574219 " fill-opacity="1" fill-rule="nonzero"/><path fill="#000000" d="M 224.574219 195.175781 L 235.292969 202.75 L 253.105469 201.519531 L 257.167969 198.351562 L 255.167969 194.980469 L 243.953125 190.894531 L 236.054688 180.53125 L 235.335938 176.683594 L 232.882812 175.628906 L 229.917969 176.695312 L 228.742188 179.4375 L 228.542969 179.464844 C 227.476562 179.609375 226.679688 179.761719 226.035156 179.882812 C 224.6875 180.144531 223.945312 180.285156 222.96875 179.867188 L 222.957031 179.859375 C 222.347656 179.621094 220.46875 178.695312 220.664062 176.390625 L 220.867188 173.941406 C 220.914062 173.386719 220.664062 172.871094 220.199219 172.566406 C 219.734375 172.261719 219.164062 172.238281 218.675781 172.5 L 218.324219 172.691406 C 215.515625 174.207031 214.128906 176.117188 212.367188 178.53125 C 211.710938 179.4375 210.96875 180.453125 210.085938 181.542969 Z M 235.089844 203.476562 L 224.105469 195.710938 L 209.113281 181.605469 L 209.324219 181.351562 C 210.292969 180.175781 211.089844 179.082031 211.792969 178.113281 C 213.605469 175.625 215.035156 173.660156 217.988281 172.066406 L 218.339844 171.875 C 219.0625 171.484375 219.902344 171.523438 220.589844 171.972656 C 221.277344 172.421875 221.648438 173.179688 221.578125 174 L 221.371094 176.449219 C 221.222656 178.222656 222.605469 178.960938 223.207031 179.195312 L 223.269531 179.21875 C 224.035156 179.542969 224.585938 179.4375 225.902344 179.183594 C 226.511719 179.070312 227.261719 178.925781 228.246094 178.785156 L 229.386719 176.128906 L 232.90625 174.863281 L 235.964844 176.179688 L 236.71875 180.234375 L 244.394531 190.296875 L 255.648438 194.398438 L 258.097656 198.527344 L 253.375 202.214844 L 235.089844 203.476562 " fill-opacity="1" fill-rule="nonzero"/><path fill="#020202" d="M 205.941406 182.835938 L 209.601562 181.574219 L 225.695312 194.640625 L 238.648438 201.097656 L 248.886719 200.667969 L 257.644531 198.429688 L 257.820312 201.265625 L 256.914062 203.308594 L 250.753906 206.917969 C 250.753906 206.917969 247.035156 207.230469 239.699219 207.679688 C 239.699219 207.679688 227.953125 203.097656 225.019531 201.828125 L 224.105469 199.613281 L 221.691406 198.574219 L 219.476562 199.445312 C 213.054688 196.65625 207.976562 194.496094 207.976562 194.496094 L 202.257812 188.371094 L 205.941406 182.835938 " fill-opacity="1" fill-rule="nonzero"/><path fill="#000000" d="M 234.421875 183.964844 C 234.257812 183.964844 234.105469 183.847656 234.074219 183.679688 C 234.035156 183.488281 234.15625 183.300781 234.351562 183.261719 L 238.089844 182.507812 C 238.28125 182.464844 238.472656 182.589844 238.507812 182.785156 C 238.546875 182.976562 238.421875 183.164062 238.230469 183.203125 L 234.492188 183.957031 C 234.46875 183.964844 234.445312 183.964844 234.421875 183.964844 " fill-opacity="1" fill-rule="nonzero"/><path fill="#000000" d="M 236.195312 186.710938 C 236.027344 186.710938 235.878906 186.59375 235.847656 186.425781 C 235.804688 186.234375 235.929688 186.046875 236.125 186.007812 L 239.863281 185.253906 C 240.054688 185.210938 240.242188 185.335938 240.28125 185.53125 C 240.320312 185.722656 240.195312 185.910156 240.003906 185.949219 L 236.265625 186.703125 C 236.242188 186.710938 236.214844 186.710938 236.195312 186.710938 " fill-opacity="1" fill-rule="nonzero"/><path fill="#000000" d="M 237.96875 189.457031 C 237.800781 189.457031 237.652344 189.339844 237.617188 189.171875 C 237.578125 188.980469 237.703125 188.792969 237.894531 188.753906 L 241.636719 187.996094 C 241.828125 187.957031 242.015625 188.082031 242.054688 188.277344 C 242.09375 188.46875 241.96875 188.65625 241.777344 188.695312 L 238.039062 189.449219 C 238.011719 189.457031 237.988281 189.457031 237.96875 189.457031 " fill-opacity="1" fill-rule="nonzero"/><path fill="#4ada85" d="M 255.929688 77.285156 L 164.632812 61.238281 L 164.773438 75.402344 C 164.878906 86.101562 172.234375 96.5 182.757812 98.371094 C 182.757812 98.371094 213.800781 102.488281 239.273438 106.953125 L 222.042969 152.703125 L 249.972656 162.585938 C 249.972656 162.585938 269.238281 123.367188 274.964844 104.523438 C 278.742188 92.097656 268.707031 79.53125 255.929688 77.285156 " fill-opacity="1" fill-rule="nonzero"/><path fill="#000000" d="M 249.96875 162.945312 C 249.933594 162.945312 249.894531 162.9375 249.851562 162.925781 L 221.921875 153.039062 C 221.832031 153.007812 221.757812 152.941406 221.71875 152.851562 C 221.675781 152.765625 221.671875 152.667969 221.707031 152.578125 L 238.789062 107.230469 C 213.695312 102.851562 183.363281 99.15625 183.058594 99.117188 C 182.863281 99.097656 182.722656 98.917969 182.746094 98.722656 C 182.769531 98.527344 182.949219 98.390625 183.144531 98.414062 C 183.449219 98.449219 214.144531 102.1875 239.332031 106.601562 C 239.4375 106.621094 239.527344 106.683594 239.582031 106.777344 C 239.632812 106.867188 239.640625 106.980469 239.605469 107.078125 L 222.5 152.488281 L 249.792969 162.148438 C 251.546875 158.550781 269.226562 122.183594 274.625 104.421875 C 276.191406 99.261719 275.394531 93.71875 272.378906 88.808594 C 268.816406 83.003906 262.640625 78.828125 255.867188 77.636719 L 202.820312 68.242188 C 202.625 68.207031 202.496094 68.023438 202.53125 67.828125 C 202.566406 67.636719 202.75 67.507812 202.941406 67.539062 L 255.988281 76.9375 C 262.960938 78.160156 269.316406 82.460938 272.984375 88.4375 C 276.109375 93.519531 276.933594 99.273438 275.308594 104.628906 C 269.636719 123.285156 250.484375 162.351562 250.289062 162.746094 C 250.230469 162.867188 250.105469 162.945312 249.96875 162.945312 " fill-opacity="1" fill-rule="nonzero"/><path fill="#000000" d="M 239.273438 107.308594 C 239.234375 107.308594 239.191406 107.304688 239.152344 107.289062 C 238.96875 107.222656 238.871094 107.019531 238.9375 106.835938 L 244.167969 92.046875 C 244.234375 91.859375 244.4375 91.761719 244.621094 91.828125 C 244.808594 91.894531 244.90625 92.097656 244.839844 92.28125 L 239.609375 107.070312 C 239.558594 107.21875 239.417969 107.308594 239.273438 107.308594 " fill-opacity="1" fill-rule="nonzero"/><path fill="#020202" d="M 170.414062 81.546875 L 202.917969 67.4375 L 202.917969 67.941406 L 172.699219 89.734375 L 170.414062 81.546875 " fill-opacity="1" fill-rule="nonzero"/><path fill="#fed101" d="M 202.917969 67.5625 L 155.226562 89.292969 L 160.15625 41.917969 C 160.15625 34.675781 166.019531 28.804688 173.25 28.804688 L 189.820312 28.804688 C 197.054688 28.804688 202.917969 34.675781 202.917969 41.917969 L 202.917969 67.5625 " fill-opacity="1" fill-rule="nonzero"/><path fill="#000000" d="M 202.917969 48.714844 C 202.722656 48.714844 202.5625 48.554688 202.5625 48.359375 L 202.5625 41.917969 C 202.5625 41.054688 202.476562 40.1875 202.304688 39.347656 C 202.265625 39.152344 202.386719 38.964844 202.582031 38.925781 C 202.773438 38.886719 202.960938 39.011719 203 39.203125 C 203.183594 40.089844 203.273438 41.003906 203.273438 41.917969 L 203.273438 48.359375 C 203.273438 48.554688 203.113281 48.714844 202.917969 48.714844 " fill-opacity="1" fill-rule="nonzero"/><path fill="#955b50" d="M 192.886719 108.917969 L 203.535156 113.574219 C 204.464844 113.980469 204.886719 115.066406 204.480469 115.996094 L 204.378906 116.230469 C 203.972656 117.160156 202.886719 117.585938 201.957031 117.179688 L 191.3125 112.523438 L 192.886719 108.917969 " fill-opacity="1" fill-rule="nonzero"/><path fill="#955b50" d="M 196.453125 98.765625 L 179.917969 98.765625 L 179.722656 104.535156 C 178.519531 108.765625 181.691406 112.976562 186.085938 112.976562 L 196.832031 112.976562 L 196.453125 98.765625 " fill-opacity="1" fill-rule="nonzero"/><path fill="#955b50" d="M 206.507812 107.910156 L 209.019531 109.386719 C 209.539062 109.691406 209.859375 110.25 209.859375 110.851562 L 209.859375 111.074219 C 209.859375 112.390625 208.433594 113.207031 207.304688 112.542969 L 206.503906 112.074219 C 205.566406 111.523438 204.496094 111.230469 203.410156 111.230469 L 194.761719 111.230469 L 194.761719 107.070312 L 203.410156 107.070312 C 204.496094 107.070312 205.566406 107.359375 206.507812 107.910156 " fill-opacity="1" fill-rule="nonzero"/><path fill="#955b50" d="M 208.4375 103.757812 L 210.953125 105.230469 C 211.472656 105.535156 211.792969 106.09375 211.792969 106.699219 L 211.792969 106.921875 C 211.792969 108.234375 210.367188 109.050781 209.238281 108.386719 L 208.4375 107.917969 C 207.5 107.367188 206.429688 107.078125 205.34375 107.078125 L 195.542969 107.078125 L 195.542969 102.914062 L 205.34375 102.914062 C 206.429688 102.914062 207.5 103.203125 208.4375 103.757812 " fill-opacity="1" fill-rule="nonzero"/><path fill="#955b50" d="M 208.4375 99.609375 L 210.953125 101.085938 C 211.472656 101.390625 211.792969 101.945312 211.792969 102.550781 L 211.792969 102.773438 C 211.792969 104.085938 210.367188 104.902344 209.238281 104.238281 L 208.4375 103.769531 C 207.5 103.21875 206.429688 102.929688 205.34375 102.929688 L 195.542969 102.929688 L 195.542969 98.765625 L 205.34375 98.765625 C 206.429688 98.765625 207.5 99.058594 208.4375 99.609375 " fill-opacity="1" fill-rule="nonzero"/><path fill="#955b50" d="M 176.347656 88.40625 L 188.933594 99.523438 L 189.625 112.976562 L 187.128906 112.976562 C 182.402344 112.976562 178.207031 109.945312 176.714844 105.457031 L 166.078125 96.960938 L 176.347656 88.40625 " fill-opacity="1" fill-rule="nonzero"/><path fill="#000000" d="M 178.179688 90.027344 L 171.980469 102.027344 L 166.078125 96.960938 L 176.347656 88.40625 L 178.179688 90.027344 " fill-opacity="1" fill-rule="nonzero"/><path fill="#000000" d="M 208.160156 113.136719 C 207.804688 113.136719 207.449219 113.039062 207.125 112.847656 L 206.324219 112.378906 C 205.441406 111.863281 204.433594 111.585938 203.410156 111.585938 L 198.179688 111.585938 C 197.984375 111.585938 197.824219 111.429688 197.824219 111.230469 C 197.824219 111.035156 197.984375 110.875 198.179688 110.875 L 203.410156 110.875 C 204.558594 110.875 205.695312 111.183594 206.6875 111.765625 L 207.484375 112.234375 C 207.902344 112.480469 208.40625 112.484375 208.828125 112.242188 C 209.25 112 209.503906 111.566406 209.503906 111.074219 L 209.503906 110.851562 C 209.503906 110.378906 209.25 109.9375 208.839844 109.695312 L 206.328125 108.21875 C 205.441406 107.699219 204.433594 107.425781 203.410156 107.425781 L 196.867188 107.425781 C 196.671875 107.425781 196.511719 107.265625 196.511719 107.070312 C 196.511719 106.871094 196.671875 106.714844 196.867188 106.714844 L 203.410156 106.714844 C 204.558594 106.714844 205.695312 107.019531 206.6875 107.605469 L 209.199219 109.082031 C 209.828125 109.449219 210.214844 110.128906 210.214844 110.851562 L 210.214844 111.074219 C 210.214844 111.824219 209.828125 112.488281 209.179688 112.859375 C 208.863281 113.042969 208.511719 113.136719 208.160156 113.136719 " fill-opacity="1" fill-rule="nonzero"/><path fill="#000000" d="M 210.09375 108.980469 C 209.738281 108.980469 209.382812 108.886719 209.058594 108.695312 L 208.257812 108.226562 C 207.375 107.707031 206.367188 107.433594 205.34375 107.433594 L 197.59375 107.433594 C 197.394531 107.433594 197.238281 107.273438 197.238281 107.078125 C 197.238281 106.878906 197.394531 106.71875 197.59375 106.71875 L 205.34375 106.71875 C 206.492188 106.71875 207.625 107.027344 208.621094 107.609375 L 209.417969 108.078125 C 209.835938 108.328125 210.339844 108.328125 210.761719 108.085938 C 211.183594 107.84375 211.4375 107.410156 211.4375 106.921875 L 211.4375 106.699219 C 211.4375 106.222656 211.183594 105.78125 210.773438 105.539062 L 208.257812 104.0625 C 207.375 103.542969 206.367188 103.269531 205.34375 103.269531 L 197.378906 103.269531 C 197.183594 103.269531 197.023438 103.109375 197.023438 102.914062 C 197.023438 102.71875 197.183594 102.558594 197.378906 102.558594 L 205.34375 102.558594 C 206.492188 102.558594 207.625 102.867188 208.621094 103.449219 L 211.132812 104.925781 C 211.761719 105.292969 212.148438 105.972656 212.148438 106.699219 L 212.148438 106.921875 C 212.148438 107.667969 211.761719 108.335938 211.113281 108.703125 C 210.796875 108.886719 210.445312 108.980469 210.09375 108.980469 " fill-opacity="1" fill-rule="nonzero"/><path fill="#000000" d="M 202.652344 117.667969 C 202.34375 117.667969 202.035156 117.601562 201.746094 117.476562 L 192.277344 113.332031 L 187.003906 113.332031 C 182.296875 113.328125 177.960938 110.179688 176.410156 105.667969 L 165.855469 97.238281 C 165.773438 97.167969 165.722656 97.070312 165.722656 96.964844 C 165.71875 96.855469 165.765625 96.753906 165.847656 96.6875 L 176.117188 88.132812 C 176.253906 88.019531 176.449219 88.023438 176.582031 88.136719 L 188.285156 98.410156 L 205.34375 98.410156 C 206.492188 98.410156 207.628906 98.71875 208.621094 99.300781 L 211.132812 100.777344 C 211.761719 101.144531 212.148438 101.824219 212.148438 102.550781 L 212.148438 102.773438 C 212.148438 103.519531 211.761719 104.1875 211.113281 104.558594 C 210.46875 104.925781 209.699219 104.921875 209.058594 104.546875 L 208.257812 104.078125 C 207.375 103.558594 206.367188 103.285156 205.34375 103.285156 L 196.542969 103.285156 C 196.347656 103.285156 196.1875 103.125 196.1875 102.929688 C 196.1875 102.730469 196.347656 102.574219 196.542969 102.574219 L 205.34375 102.574219 C 206.492188 102.574219 207.625 102.878906 208.621094 103.464844 L 209.417969 103.933594 C 209.835938 104.175781 210.339844 104.179688 210.761719 103.9375 C 211.183594 103.695312 211.4375 103.261719 211.4375 102.773438 L 211.4375 102.550781 C 211.4375 102.078125 211.183594 101.632812 210.773438 101.390625 L 208.257812 99.914062 C 207.375 99.394531 206.367188 99.121094 205.34375 99.121094 L 188.152344 99.121094 C 188.066406 99.121094 187.984375 99.089844 187.917969 99.03125 L 176.339844 88.875 L 166.640625 96.953125 L 176.9375 105.175781 C 176.992188 105.21875 177.03125 105.277344 177.054688 105.34375 C 178.476562 109.628906 182.570312 112.621094 187.011719 112.621094 L 192.351562 112.621094 C 192.398438 112.621094 192.449219 112.628906 192.492188 112.648438 L 202.03125 116.824219 C 202.414062 116.988281 202.835938 117 203.222656 116.847656 C 203.613281 116.695312 203.917969 116.398438 204.085938 116.019531 L 204.125 115.925781 C 204.46875 115.136719 204.109375 114.214844 203.320312 113.867188 L 193.90625 109.75 C 193.726562 109.671875 193.644531 109.460938 193.722656 109.28125 C 193.800781 109.101562 194.011719 109.019531 194.191406 109.097656 L 203.605469 113.21875 C 204.753906 113.71875 205.277344 115.0625 204.777344 116.210938 L 204.738281 116.300781 C 204.492188 116.859375 204.050781 117.289062 203.484375 117.511719 C 203.214844 117.613281 202.933594 117.667969 202.652344 117.667969 " fill-opacity="1" fill-rule="nonzero"/><path fill="#fed101" d="M 138.238281 74.816406 C 134.285156 71.144531 134.050781 64.960938 137.71875 61 L 163.914062 32.722656 L 177.660156 45.484375 L 152.039062 74.296875 C 148.371094 78.253906 142.191406 78.488281 138.238281 74.816406 " fill-opacity="1" fill-rule="nonzero"/><path fill="#fed101" d="M 137.519531 60.921875 C 141.1875 56.960938 147.371094 56.726562 151.328125 60.402344 L 179.570312 86.625 L 166.289062 100.960938 L 138.039062 74.726562 C 134.085938 71.058594 133.851562 64.878906 137.519531 60.921875 " fill-opacity="1" fill-rule="nonzero"/><path fill="#000000" d="M 166.285156 101.316406 C 166.199219 101.316406 166.109375 101.28125 166.042969 101.222656 L 137.800781 74.996094 C 133.707031 71.195312 133.46875 64.773438 137.261719 60.675781 C 137.375 60.554688 137.785156 60.097656 138.433594 59.378906 C 154.683594 41.316406 164.382812 31.414062 167.265625 29.953125 C 170.242188 28.441406 173.140625 28.445312 175.695312 28.449219 L 176.347656 28.449219 C 176.542969 28.449219 176.703125 28.609375 176.703125 28.804688 C 176.703125 29 176.546875 29.160156 176.347656 29.160156 L 175.695312 29.160156 C 173.21875 29.160156 170.410156 29.152344 167.585938 30.585938 C 165.660156 31.566406 159.128906 37.4375 138.960938 59.855469 C 138.308594 60.582031 137.898438 61.039062 137.78125 61.160156 C 134.257812 64.96875 134.480469 70.941406 138.285156 74.472656 L 166.269531 100.457031 L 179.066406 86.644531 L 151.082031 60.65625 C 150.9375 60.523438 150.929688 60.300781 151.0625 60.15625 C 151.195312 60.011719 151.421875 60.003906 151.566406 60.136719 L 179.8125 86.363281 C 179.953125 86.5 179.960938 86.722656 179.828125 86.867188 L 166.546875 101.203125 C 166.484375 101.273438 166.394531 101.3125 166.300781 101.316406 C 166.296875 101.316406 166.292969 101.316406 166.285156 101.316406 " fill-opacity="1" fill-rule="nonzero"/><path fill="#000000" d="M 158.191406 67.210938 C 158.105469 67.210938 158.019531 67.179688 157.953125 67.117188 C 157.808594 66.980469 157.796875 66.757812 157.929688 66.613281 L 171.769531 51.570312 C 171.902344 51.425781 172.128906 51.417969 172.273438 51.550781 C 172.417969 51.683594 172.425781 51.910156 172.292969 52.050781 L 158.453125 67.09375 C 158.382812 67.171875 158.289062 67.210938 158.191406 67.210938 " fill-opacity="1" fill-rule="nonzero"/><path fill="#955b50" d="M 222.210938 47.746094 L 236.550781 55.894531 L 255.585938 33.371094 L 245.144531 24.480469 L 222.210938 47.746094 " fill-opacity="1" fill-rule="nonzero"/><path fill="#955b50" d="M 248.816406 16.328125 L 244.34375 20.683594 L 237.445312 17.613281 C 236.636719 17.253906 236.277344 16.300781 236.636719 15.488281 L 236.671875 15.402344 C 237.035156 14.589844 237.984375 14.222656 238.792969 14.582031 L 240.601562 15.386719 C 241.867188 15.949219 243.238281 16.25 244.625 16.269531 L 248.816406 16.328125 " fill-opacity="1" fill-rule="nonzero"/><path fill="#000000" d="M 242.257812 20.113281 C 242.210938 20.113281 242.160156 20.101562 242.113281 20.082031 L 237.300781 17.941406 C 236.316406 17.5 235.871094 16.335938 236.3125 15.34375 L 236.347656 15.257812 C 236.5625 14.777344 236.949219 14.40625 237.441406 14.21875 C 237.929688 14.03125 238.460938 14.042969 238.9375 14.253906 L 240.746094 15.058594 C 241.976562 15.609375 243.285156 15.894531 244.628906 15.914062 L 245.941406 15.933594 C 246.136719 15.933594 246.296875 16.09375 246.292969 16.292969 C 246.289062 16.488281 246.113281 16.648438 245.933594 16.644531 L 244.621094 16.625 C 243.175781 16.605469 241.777344 16.296875 240.457031 15.710938 L 238.648438 14.90625 C 238.34375 14.773438 238.007812 14.761719 237.695312 14.878906 C 237.382812 15.003906 237.136719 15.238281 237 15.546875 L 236.960938 15.632812 C 236.679688 16.265625 236.964844 17.007812 237.59375 17.289062 L 242.402344 19.429688 C 242.582031 19.507812 242.664062 19.71875 242.585938 19.898438 C 242.523438 20.03125 242.394531 20.113281 242.257812 20.113281 " fill-opacity="1" fill-rule="nonzero"/><g clip-path="url(#ef279c5508)"><path fill="#ffffff" d="M 287.246094 68.433594 L 206.960938 22.816406 L 217.738281 3.75 L 298.019531 49.367188 L 287.246094 68.433594 " fill-opacity="1" fill-rule="nonzero"/><path fill="#000000" d="M 207.445312 22.683594 L 287.113281 67.949219 L 297.539062 49.5 L 217.871094 4.234375 Z M 287.246094 68.789062 C 287.183594 68.789062 287.125 68.773438 287.070312 68.742188 L 206.785156 23.125 C 206.617188 23.03125 206.554688 22.8125 206.652344 22.640625 L 217.429688 3.574219 C 217.476562 3.492188 217.554688 3.429688 217.644531 3.40625 C 217.734375 3.378906 217.832031 3.394531 217.914062 3.4375 L 298.199219 49.054688 C 298.367188 49.152344 298.429688 49.371094 298.332031 49.542969 L 287.554688 68.609375 C 287.507812 68.691406 287.429688 68.75 287.339844 68.777344 C 287.308594 68.785156 287.277344 68.789062 287.246094 68.789062 " fill-opacity="1" fill-rule="nonzero"/></g><path fill="#ffffff" d="M 271.449219 53.160156 L 214.125 20.589844 L 219.511719 11.050781 L 276.839844 43.625 L 271.449219 53.160156 " fill-opacity="1" fill-rule="nonzero"/><path fill="#000000" d="M 214.605469 20.457031 L 271.3125 52.679688 L 276.355469 43.761719 L 219.648438 11.539062 Z M 271.449219 53.519531 C 271.386719 53.519531 271.324219 53.503906 271.269531 53.472656 L 213.945312 20.902344 C 213.773438 20.804688 213.714844 20.585938 213.8125 20.417969 L 219.203125 10.878906 C 219.25 10.796875 219.328125 10.734375 219.417969 10.710938 C 219.507812 10.6875 219.605469 10.699219 219.6875 10.746094 L 277.015625 43.316406 C 277.183594 43.414062 277.246094 43.632812 277.148438 43.800781 L 271.757812 53.339844 C 271.710938 53.421875 271.632812 53.480469 271.542969 53.507812 C 271.511719 53.515625 271.480469 53.519531 271.449219 53.519531 " fill-opacity="1" fill-rule="nonzero"/><path fill="#ffffff" d="M 286.101562 53.957031 C 285.007812 55.898438 282.550781 56.582031 280.625 55.488281 C 278.695312 54.390625 278.019531 51.929688 279.117188 49.988281 C 280.214844 48.046875 282.667969 47.363281 284.597656 48.457031 C 286.523438 49.554688 287.199219 52.015625 286.101562 53.957031 " fill-opacity="1" fill-rule="nonzero"/><path fill="#000000" d="M 286.105469 53.957031 L 286.109375 53.957031 Z M 282.628906 48.289062 C 282.300781 48.289062 281.972656 48.335938 281.648438 48.425781 C 280.699219 48.6875 279.910156 49.304688 279.429688 50.164062 C 278.425781 51.929688 279.042969 54.179688 280.800781 55.179688 C 281.644531 55.660156 282.628906 55.78125 283.570312 55.523438 C 284.519531 55.257812 285.308594 54.640625 285.796875 53.78125 C 286.792969 52.015625 286.179688 49.765625 284.421875 48.765625 C 283.867188 48.453125 283.25 48.289062 282.628906 48.289062 Z M 282.59375 56.367188 C 281.847656 56.367188 281.113281 56.175781 280.449219 55.796875 C 278.351562 54.605469 277.613281 51.921875 278.804688 49.8125 C 279.386719 48.789062 280.328125 48.050781 281.460938 47.738281 C 282.582031 47.425781 283.757812 47.570312 284.773438 48.148438 C 286.867188 49.339844 287.605469 52.023438 286.414062 54.132812 C 285.832031 55.15625 284.890625 55.894531 283.757812 56.207031 C 283.375 56.316406 282.980469 56.367188 282.59375 56.367188 " fill-opacity="1" fill-rule="nonzero"/><path fill="#ffffff" d="M 284.964844 60.019531 L 283.839844 55.917969 L 284.964844 60.019531 " fill-opacity="1" fill-rule="nonzero"/><path fill="#000000" d="M 284.964844 60.378906 C 284.804688 60.378906 284.664062 60.273438 284.621094 60.117188 L 283.496094 56.015625 C 283.445312 55.824219 283.554688 55.628906 283.746094 55.578125 C 283.933594 55.523438 284.128906 55.636719 284.179688 55.828125 L 285.304688 59.929688 C 285.359375 60.117188 285.246094 60.3125 285.054688 60.363281 C 285.027344 60.375 284.996094 60.378906 284.964844 60.378906 " fill-opacity="1" fill-rule="nonzero"/><path fill="#955b50" d="M 246.25 16.039062 L 242.382812 19.699219 C 241.574219 20.464844 240.992188 21.445312 240.703125 22.527344 L 240.121094 24.722656 C 239.929688 25.445312 240.355469 26.1875 241.074219 26.375 L 241.355469 26.453125 C 242.078125 26.644531 242.816406 26.210938 243.007812 25.492188 L 244.035156 22.671875 L 248.503906 18.441406 L 246.25 16.039062 " fill-opacity="1" fill-rule="nonzero"/><path fill="#955b50" d="M 249.777344 16.789062 L 244.65625 21.640625 C 244.074219 22.191406 243.65625 22.898438 243.449219 23.671875 L 242.753906 26.285156 C 242.554688 27.035156 242.996094 27.804688 243.742188 28.003906 L 243.925781 28.050781 C 244.671875 28.25 245.441406 27.804688 245.640625 27.054688 L 246.433594 24.078125 L 251.824219 18.96875 L 249.777344 16.789062 " fill-opacity="1" fill-rule="nonzero"/><path fill="#955b50" d="M 252.273438 18.253906 L 247.050781 23.199219 C 246.53125 23.691406 246.160156 24.320312 245.976562 25.011719 L 245.234375 27.804688 C 245.042969 28.527344 245.46875 29.265625 246.183594 29.457031 L 246.476562 29.53125 C 247.191406 29.722656 247.929688 29.292969 248.121094 28.574219 L 248.929688 25.542969 L 254.320312 20.4375 L 252.273438 18.253906 " fill-opacity="1" fill-rule="nonzero"/><path fill="#955b50" d="M 254.8125 19.691406 L 249.554688 24.671875 C 249.058594 25.144531 248.707031 25.738281 248.53125 26.394531 L 248.097656 28.019531 C 247.890625 28.800781 248.351562 29.601562 249.125 29.808594 L 249.203125 29.828125 C 249.976562 30.035156 250.777344 29.570312 250.984375 28.789062 L 251.46875 26.976562 L 256.859375 21.871094 L 254.8125 19.691406 " fill-opacity="1" fill-rule="nonzero"/><path fill="#955b50" d="M 244.945312 17.273438 L 246.425781 15.871094 C 248.695312 13.722656 252.261719 13.824219 254.394531 16.09375 L 258.421875 20.390625 L 254.222656 24.367188 L 244.945312 17.273438 " fill-opacity="1" fill-rule="nonzero"/><path fill="#955b50" d="M 258.789062 20.75 L 254.742188 16.472656 L 249.585938 21.066406 C 249.585938 21.066406 259.335938 27.910156 259.605469 27.429688 C 260.792969 25.316406 260.535156 22.597656 258.789062 20.75 " fill-opacity="1" fill-rule="nonzero"/><path fill="#000000" d="M 254.144531 24.5 L 259.488281 27.640625 L 259.605469 27.429688 L 255.125 23.507812 L 254.144531 24.5 " fill-opacity="1" fill-rule="nonzero"/><path fill="#000000" d="M 242.769531 26.324219 C 242.695312 26.324219 242.617188 26.300781 242.554688 26.253906 C 242.398438 26.128906 242.367188 25.90625 242.488281 25.753906 C 242.53125 25.699219 242.566406 25.644531 242.59375 25.585938 C 242.679688 25.410156 242.894531 25.339844 243.070312 25.425781 C 243.246094 25.511719 243.320312 25.726562 243.230469 25.902344 C 243.183594 26.003906 243.121094 26.097656 243.054688 26.1875 C 242.980469 26.277344 242.878906 26.324219 242.769531 26.324219 " fill-opacity="1" fill-rule="nonzero"/><path fill="#000000" d="M 244.285156 28.457031 C 244.132812 28.457031 243.984375 28.433594 243.835938 28.398438 L 243.648438 28.347656 C 243.199219 28.226562 242.820312 27.933594 242.585938 27.527344 C 242.351562 27.121094 242.289062 26.648438 242.410156 26.195312 L 243.105469 23.582031 C 243.328125 22.742188 243.78125 21.980469 244.410156 21.382812 L 246.675781 19.238281 C 246.816406 19.101562 247.042969 19.109375 247.179688 19.25 C 247.3125 19.394531 247.308594 19.617188 247.164062 19.753906 L 244.898438 21.898438 C 244.363281 22.40625 243.980469 23.050781 243.789062 23.765625 L 243.097656 26.375 C 243.027344 26.648438 243.0625 26.933594 243.203125 27.175781 C 243.339844 27.417969 243.566406 27.585938 243.835938 27.660156 L 244.019531 27.710938 C 244.378906 27.804688 244.765625 27.699219 245.027344 27.433594 C 245.164062 27.292969 245.390625 27.292969 245.53125 27.429688 C 245.667969 27.570312 245.671875 27.792969 245.53125 27.933594 C 245.199219 28.269531 244.746094 28.457031 244.285156 28.457031 " fill-opacity="1" fill-rule="nonzero"/><path fill="#000000" d="M 246.820312 29.933594 C 246.679688 29.933594 246.53125 29.914062 246.382812 29.875 L 246.09375 29.796875 C 245.652344 29.679688 245.285156 29.398438 245.0625 29.003906 C 244.832031 28.613281 244.773438 28.152344 244.890625 27.710938 L 245.632812 24.921875 C 245.832031 24.164062 246.242188 23.476562 246.808594 22.9375 L 249.285156 20.59375 C 249.425781 20.460938 249.652344 20.464844 249.789062 20.605469 C 249.921875 20.75 249.917969 20.976562 249.777344 21.113281 L 247.296875 23.457031 C 246.824219 23.902344 246.488281 24.472656 246.320312 25.101562 L 245.578125 27.894531 C 245.511719 28.152344 245.546875 28.421875 245.675781 28.648438 C 245.808594 28.878906 246.023438 29.042969 246.277344 29.109375 L 246.566406 29.1875 C 247.054688 29.320312 247.5625 29.058594 247.746094 28.582031 C 247.816406 28.398438 248.019531 28.308594 248.203125 28.378906 C 248.386719 28.449219 248.480469 28.652344 248.410156 28.839844 C 248.152344 29.511719 247.511719 29.933594 246.820312 29.933594 " fill-opacity="1" fill-rule="nonzero"/><path fill="#000000" d="M 259.605469 27.785156 C 259.546875 27.785156 259.488281 27.769531 259.433594 27.738281 C 259.261719 27.644531 259.203125 27.425781 259.296875 27.253906 C 260.445312 25.210938 260.136719 22.695312 258.53125 20.996094 L 253.988281 16.171875 C 253.0625 15.1875 251.8125 14.625 250.460938 14.585938 C 249.109375 14.550781 247.816406 15.039062 246.832031 15.976562 L 242.628906 19.957031 C 241.867188 20.679688 241.320312 21.597656 241.050781 22.617188 L 240.464844 24.8125 C 240.398438 25.070312 240.433594 25.339844 240.5625 25.570312 C 240.695312 25.800781 240.910156 25.964844 241.164062 26.03125 L 241.449219 26.105469 C 241.832031 26.210938 242.242188 26.070312 242.488281 25.753906 C 242.609375 25.597656 242.832031 25.570312 242.988281 25.691406 C 243.144531 25.8125 243.171875 26.035156 243.050781 26.191406 C 242.628906 26.734375 241.929688 26.972656 241.265625 26.796875 L 240.980469 26.722656 C 240.542969 26.601562 240.175781 26.320312 239.949219 25.925781 C 239.71875 25.53125 239.660156 25.070312 239.777344 24.628906 L 240.363281 22.433594 C 240.667969 21.289062 241.28125 20.253906 242.140625 19.441406 L 246.339844 15.460938 C 247.46875 14.394531 248.929688 13.832031 250.484375 13.875 C 252.023438 13.917969 253.453125 14.5625 254.507812 15.683594 L 259.050781 20.507812 C 260.871094 22.433594 261.21875 25.285156 259.917969 27.601562 C 259.851562 27.71875 259.730469 27.785156 259.605469 27.785156 " fill-opacity="1" fill-rule="nonzero"/><path fill="#000000" d="M 249.578125 30.234375 C 249.421875 30.234375 249.265625 30.214844 249.113281 30.171875 L 249.035156 30.152344 C 248.070312 29.894531 247.496094 28.898438 247.753906 27.929688 L 248.1875 26.304688 C 248.378906 25.582031 248.769531 24.929688 249.308594 24.417969 L 251.941406 21.921875 C 252.082031 21.789062 252.308594 21.792969 252.441406 21.9375 C 252.578125 22.078125 252.570312 22.304688 252.429688 22.4375 L 249.796875 24.933594 C 249.351562 25.355469 249.03125 25.894531 248.875 26.488281 L 248.441406 28.109375 C 248.285156 28.703125 248.632812 29.308594 249.21875 29.464844 L 249.292969 29.484375 C 249.578125 29.558594 249.875 29.519531 250.128906 29.371094 C 250.382812 29.226562 250.566406 28.984375 250.640625 28.699219 L 251.148438 26.789062 L 255.445312 22.722656 C 255.589844 22.585938 255.8125 22.59375 255.945312 22.734375 C 256.082031 22.878906 256.078125 23.105469 255.933594 23.238281 L 251.785156 27.167969 L 251.328125 28.882812 C 251.203125 29.351562 250.902344 29.742188 250.488281 29.988281 C 250.207031 30.152344 249.894531 30.234375 249.578125 30.234375 " fill-opacity="1" fill-rule="nonzero"/><path fill="#fed101" d="M 217.71875 50.640625 L 230.144531 39.183594 L 242.070312 50.921875 L 227.179688 66.507812 C 223.257812 70.609375 217.050781 71.480469 212.160156 68.613281 L 174.199219 46.355469 L 188.769531 32.765625 C 191.316406 30.390625 194.230469 28.566406 196.746094 30.964844 C 203.472656 37.371094 217.71875 50.640625 217.71875 50.640625 " fill-opacity="1" fill-rule="nonzero"/><path fill="#000000" d="M 178.496094 21.542969 L 176.800781 21.542969 C 175.621094 21.542969 174.640625 20.640625 174.539062 19.464844 L 174.210938 15.566406 C 174.070312 13.917969 175.367188 12.503906 177.019531 12.503906 L 178.496094 12.503906 L 178.496094 21.542969 " fill-opacity="1" fill-rule="nonzero"/><path fill="#955b50" d="M 176.652344 28.976562 L 183.925781 35.902344 L 183.925781 19.878906 L 176.652344 19.878906 L 176.652344 28.976562 " fill-opacity="1" fill-rule="nonzero"/><path fill="#000000" d="M 176.652344 22.640625 L 176.652344 19.878906 L 183.925781 19.878906 L 183.925781 25.972656 C 183.269531 26.101562 181.960938 26.269531 180.460938 25.773438 C 178.109375 24.996094 176.953125 23.15625 176.652344 22.640625 " fill-opacity="1" fill-rule="nonzero"/><path fill="#955b50" d="M 175.425781 17.730469 C 175.425781 21.304688 178.046875 24.203125 181.277344 24.203125 C 184.507812 24.203125 187.125 21.304688 187.125 17.730469 C 187.125 14.15625 184.507812 11.253906 181.277344 11.253906 C 178.046875 11.253906 175.425781 14.15625 175.425781 17.730469 " fill-opacity="1" fill-rule="nonzero"/><path fill="#ffffff" d="M 178.734375 20.570312 C 179.296875 21.089844 180.027344 21.441406 180.847656 21.523438 C 182.679688 21.710938 184.332031 20.519531 184.785156 18.792969 L 178.734375 20.570312 " fill-opacity="1" fill-rule="nonzero"/><path fill="#000000" d="M 190.773438 10.394531 C 190.773438 8.308594 189.082031 6.613281 186.996094 6.613281 C 185.433594 6.613281 184.089844 7.566406 183.515625 8.921875 L 181.597656 8.921875 C 178.699219 8.921875 176.347656 11.273438 176.347656 14.175781 L 187.167969 14.175781 L 187.167969 14.167969 C 189.175781 14.078125 190.773438 12.425781 190.773438 10.394531 " fill-opacity="1" fill-rule="nonzero"/><path fill="#000000" d="M 182.675781 35.351562 C 182.675781 35.351562 189.558594 48.398438 186.972656 54.53125 C 184.386719 60.664062 175.441406 57.066406 175.441406 57.066406 L 168.679688 60.710938 L 174.625 66.671875 C 174.625 66.671875 194.726562 68.097656 195.074219 57.8125 C 195.425781 47.523438 189.5 42.070312 183.917969 34.980469 L 182.675781 35.351562 " fill-opacity="1" fill-rule="nonzero"/><path fill="#020202" d="M 178.804688 31.027344 L 183.917969 31.027344 L 183.917969 36.871094 L 178.804688 31.027344 " fill-opacity="1" fill-rule="nonzero"/><path fill="#000000" d="M 356.699219 253.621094 L 367.832031 276.335938 L 350.078125 276.335938 L 339.007812 253.75 L 356.699219 253.621094 " fill-opacity="1" fill-rule="nonzero"/><path fill="#ffffff" d="M 309.292969 274.003906 L 327.898438 274.003906 L 342.316406 262.511719 C 351.914062 261.65625 345.207031 269.660156 355.785156 273.804688 L 364.402344 266.566406 L 379.730469 296.585938 L 352.90625 296.585938 C 350.917969 292 333.3125 292 331.328125 296.585938 L 315.894531 296.585938 L 304.867188 289.855469 C 297.507812 285.363281 300.679688 274.003906 309.292969 274.003906 " fill-opacity="1" fill-rule="nonzero"/><path fill="#000000" d="M 353.125 296.230469 L 379.148438 296.230469 L 364.285156 267.125 L 356.011719 274.078125 C 355.910156 274.164062 355.773438 274.1875 355.652344 274.136719 C 350.316406 272.046875 349.25 268.996094 348.394531 266.546875 C 347.542969 264.101562 346.972656 262.480469 342.449219 262.859375 L 328.121094 274.28125 C 328.054688 274.332031 327.980469 274.359375 327.898438 274.359375 L 309.292969 274.359375 C 305.539062 274.359375 302.453125 276.703125 301.4375 280.328125 C 300.414062 283.96875 301.832031 287.589844 305.050781 289.554688 L 315.992188 296.230469 L 331.101562 296.230469 C 332.460938 293.699219 337.832031 292.792969 342.113281 292.789062 C 346.390625 292.789062 351.765625 293.699219 353.125 296.230469 Z M 379.726562 296.941406 L 352.902344 296.941406 C 352.761719 296.941406 352.632812 296.859375 352.578125 296.726562 C 351.753906 294.828125 347.449219 293.503906 342.113281 293.503906 C 336.773438 293.503906 332.472656 294.828125 331.648438 296.726562 C 331.59375 296.859375 331.464844 296.941406 331.324219 296.941406 L 315.890625 296.941406 C 315.828125 296.941406 315.761719 296.925781 315.707031 296.890625 L 304.679688 290.160156 C 301.179688 288.027344 299.640625 284.089844 300.75 280.136719 C 301.859375 276.195312 305.210938 273.648438 309.292969 273.648438 L 327.773438 273.648438 L 342.089844 262.234375 C 342.144531 262.191406 342.210938 262.164062 342.28125 262.15625 C 347.453125 261.695312 348.203125 263.835938 349.066406 266.3125 C 349.863281 268.59375 350.855469 271.425781 355.714844 273.398438 L 364.167969 266.292969 C 364.25 266.222656 364.359375 266.195312 364.46875 266.214844 C 364.574219 266.238281 364.664062 266.308594 364.714844 266.402344 L 380.046875 296.425781 C 380.101562 296.535156 380.097656 296.667969 380.03125 296.773438 C 379.964844 296.878906 379.851562 296.941406 379.726562 296.941406 " fill-opacity="1" fill-rule="nonzero"/><path fill="#000000" d="M 374.445312 286.234375 L 379.730469 296.585938 L 352.90625 296.585938 C 350.917969 292 333.3125 292 331.328125 296.585938 L 315.894531 296.585938 C 313.101562 294.484375 302.699219 289.75 301.554688 286.234375 L 374.445312 286.234375 " fill-opacity="1" fill-rule="nonzero"/><path fill="#000000" d="M 339.644531 271.582031 L 331.980469 271.582031 C 331.785156 271.582031 331.625 271.421875 331.625 271.226562 C 331.625 271.03125 331.785156 270.871094 331.980469 270.871094 L 339.644531 270.871094 C 339.839844 270.871094 340 271.03125 340 271.226562 C 340 271.421875 339.839844 271.582031 339.644531 271.582031 " fill-opacity="1" fill-rule="nonzero"/><path fill="#000000" d="M 343.089844 268.566406 L 335.425781 268.566406 C 335.226562 268.566406 335.066406 268.402344 335.066406 268.207031 C 335.066406 268.011719 335.226562 267.851562 335.425781 267.851562 L 343.089844 267.851562 C 343.285156 267.851562 343.445312 268.011719 343.445312 268.207031 C 343.445312 268.402344 343.285156 268.566406 343.089844 268.566406 " fill-opacity="1" fill-rule="nonzero"/><path fill="#000000" d="M 264.863281 273.15625 L 246.039062 265.824219 L 273.59375 223.117188 L 286.292969 239.941406 L 264.863281 273.15625 " fill-opacity="1" fill-rule="nonzero"/><path fill="#ffffff" d="M 220.332031 243.871094 L 236.84375 252.476562 L 254.914062 248.941406 L 257.183594 250.125 C 258.636719 250.882812 259.382812 252.542969 258.988281 254.136719 L 258.789062 254.945312 C 258.019531 258.054688 258.707031 261.34375 260.664062 263.878906 L 261.679688 265.195312 L 272.652344 262.75 L 272.472656 296.484375 L 248.664062 284.078125 C 248.585938 281.753906 245.378906 278.375 240.714844 275.945312 C 236.050781 273.515625 231.457031 272.828125 229.511719 274.101562 L 215.816406 266.964844 L 209.121094 255.894531 C 204.652344 248.503906 212.6875 239.886719 220.332031 243.871094 " fill-opacity="1" fill-rule="nonzero"/><path fill="#000000" d="M 249.003906 283.855469 L 272.117188 295.898438 L 272.292969 263.195312 L 261.757812 265.542969 C 261.625 265.570312 261.484375 265.519531 261.398438 265.414062 L 260.382812 264.097656 C 258.347656 261.460938 257.640625 258.09375 258.441406 254.859375 L 258.644531 254.050781 C 259 252.609375 258.332031 251.125 257.019531 250.441406 L 254.859375 249.316406 L 236.914062 252.824219 C 236.832031 252.839844 236.75 252.828125 236.679688 252.792969 L 220.167969 244.1875 C 216.839844 242.453125 213.03125 243.101562 210.464844 245.839844 C 207.875 248.597656 207.46875 252.472656 209.425781 255.707031 L 216.070312 266.695312 L 229.5 273.691406 C 231.683594 272.46875 236.300781 273.246094 240.878906 275.632812 C 245.457031 278.015625 248.75 281.363281 249.003906 283.855469 Z M 272.472656 296.839844 C 272.414062 296.839844 272.359375 296.828125 272.308594 296.800781 L 248.5 284.394531 C 248.386719 284.335938 248.3125 284.21875 248.308594 284.089844 C 248.234375 281.859375 244.972656 278.566406 240.550781 276.261719 C 236.128906 273.957031 231.570312 273.175781 229.707031 274.398438 C 229.601562 274.46875 229.460938 274.476562 229.347656 274.414062 L 215.652344 267.277344 C 215.597656 267.25 215.546875 267.203125 215.511719 267.148438 L 208.816406 256.078125 C 206.691406 252.558594 207.132812 248.347656 209.945312 245.351562 C 212.738281 242.375 216.878906 241.671875 220.496094 243.554688 L 236.898438 252.101562 L 254.847656 248.59375 C 254.925781 248.578125 255.007812 248.589844 255.078125 248.625 L 257.347656 249.808594 C 258.953125 250.644531 259.769531 252.460938 259.332031 254.222656 L 259.132812 255.03125 C 258.382812 258.054688 259.042969 261.199219 260.945312 263.660156 L 261.824219 264.796875 L 272.574219 262.40625 C 272.679688 262.378906 272.792969 262.40625 272.875 262.476562 C 272.960938 262.542969 273.007812 262.644531 273.007812 262.753906 L 272.828125 296.488281 C 272.824219 296.609375 272.761719 296.726562 272.65625 296.789062 C 272.597656 296.824219 272.535156 296.839844 272.472656 296.839844 " fill-opacity="1" fill-rule="nonzero"/><path fill="#000000" d="M 272.535156 284.851562 L 272.472656 296.484375 L 248.664062 284.078125 C 248.585938 281.753906 245.378906 278.375 240.714844 275.945312 C 236.050781 273.515625 231.457031 272.828125 229.511719 274.101562 L 215.816406 266.964844 L 209.121094 255.894531 C 208.171875 254.320312 207.792969 252.695312 207.847656 251.148438 L 272.535156 284.851562 " fill-opacity="1" fill-rule="nonzero"/><path fill="#000000" d="M 248.542969 255.796875 C 248.488281 255.796875 248.433594 255.785156 248.378906 255.757812 L 241.578125 252.210938 C 241.40625 252.121094 241.335938 251.90625 241.425781 251.730469 C 241.519531 251.558594 241.734375 251.488281 241.90625 251.582031 L 248.707031 255.125 C 248.882812 255.214844 248.949219 255.429688 248.859375 255.605469 C 248.796875 255.726562 248.671875 255.796875 248.542969 255.796875 " fill-opacity="1" fill-rule="nonzero"/><path fill="#000000" d="M 252.988281 254.710938 C 252.929688 254.710938 252.875 254.699219 252.824219 254.671875 L 246.019531 251.125 C 245.847656 251.035156 245.78125 250.820312 245.867188 250.644531 C 245.960938 250.472656 246.175781 250.402344 246.351562 250.496094 L 253.152344 254.039062 C 253.324219 254.128906 253.394531 254.34375 253.304688 254.519531 C 253.238281 254.640625 253.117188 254.710938 252.988281 254.710938 " fill-opacity="1" fill-rule="nonzero"/><path fill="#fed101" d="M 380.679688 173.027344 C 262.464844 171.757812 293.09375 166.101562 336.070312 259.007812 L 370.34375 259.007812 L 339.199219 199.023438 C 338.367188 197.425781 339.523438 195.515625 341.320312 195.515625 L 380.679688 195.515625 L 380.679688 173.027344 " fill-opacity="1" fill-rule="nonzero"/><path fill="#000000" d="M 339.015625 197.269531 C 337.753906 197.710938 350.414062 220.054688 350.515625 220.824219 C 325.945312 214.976562 337.355469 229.894531 321.515625 229.910156 L 304.050781 197.269531 L 339.015625 197.269531 " fill-opacity="1" fill-rule="nonzero"/><path fill="#fed101" d="M 312.449219 183.664062 L 401.269531 183.664062 L 401.269531 192.722656 C 401.269531 204.585938 391.683594 214.203125 379.863281 214.203125 L 320.34375 214.203125 C 316.621094 214.203125 313.148438 216.09375 311.117188 219.226562 L 284.085938 260.917969 L 257.03125 246.820312 L 290.449219 195.59375 C 295.308594 188.152344 303.582031 183.664062 312.449219 183.664062 " fill-opacity="1" fill-rule="nonzero"/><path fill="#000000" d="M 401.253906 193.402344 C 374.101562 197.328125 380.90625 187.65625 354.519531 186.550781 L 355.589844 183.664062 L 401.269531 183.664062 C 401.269531 183.664062 401.257812 193.175781 401.253906 193.402344 " fill-opacity="1" fill-rule="nonzero"/><path fill="#000000" d="M 284.089844 261.273438 C 284.03125 261.273438 283.972656 261.261719 283.921875 261.234375 L 256.867188 247.132812 C 256.777344 247.085938 256.710938 247.003906 256.6875 246.910156 C 256.660156 246.8125 256.675781 246.707031 256.730469 246.625 L 290.152344 195.402344 C 292.0625 192.476562 294.484375 189.988281 297.359375 188.007812 C 297.519531 187.894531 297.742188 187.9375 297.851562 188.101562 C 297.964844 188.261719 297.921875 188.484375 297.761719 188.59375 C 294.96875 190.519531 292.609375 192.941406 290.746094 195.792969 L 257.542969 246.683594 L 283.964844 260.453125 L 310.816406 219.03125 C 312.921875 215.785156 316.484375 213.847656 320.34375 213.847656 L 379.863281 213.847656 C 391.46875 213.847656 400.914062 204.371094 400.914062 192.722656 L 400.914062 186.332031 C 400.914062 186.136719 401.074219 185.976562 401.269531 185.976562 C 401.464844 185.976562 401.625 186.136719 401.625 186.332031 L 401.625 192.722656 C 401.625 204.761719 391.863281 214.558594 379.863281 214.558594 L 320.34375 214.558594 C 316.726562 214.558594 313.386719 216.375 311.414062 219.417969 L 284.386719 261.109375 C 284.320312 261.214844 284.207031 261.273438 284.089844 261.273438 " fill-opacity="1" fill-rule="nonzero"/><path fill="#fda4ff" d="M 390.507812 132.800781 L 391.269531 140.414062 L 384.316406 140.414062 L 384.082031 134.9375 L 390.507812 132.800781 " fill-opacity="1" fill-rule="nonzero"/><path fill="#000000" d="M 384.199219 137.71875 C 384.160156 136.792969 384.121094 135.863281 384.078125 134.9375 L 390.613281 133.132812 C 390.535156 133.613281 390.214844 135.21875 388.785156 136.460938 C 386.871094 138.117188 384.539062 137.773438 384.199219 137.71875 " fill-opacity="1" fill-rule="nonzero"/><path fill="#fda4ff" d="M 391.269531 130.308594 C 391.269531 127.09375 388.933594 124.488281 386.050781 124.488281 C 383.167969 124.488281 380.832031 127.09375 380.832031 130.308594 C 380.832031 133.523438 383.167969 136.128906 386.050781 136.128906 C 388.933594 136.128906 391.269531 133.523438 391.269531 130.308594 " fill-opacity="1" fill-rule="nonzero"/><path fill="#ffffff" d="M 387.4375 132.371094 C 387.359375 132.78125 387.152344 133.167969 386.824219 133.472656 C 386.082031 134.144531 384.980469 134.15625 384.226562 133.546875 L 387.4375 132.371094 " fill-opacity="1" fill-rule="nonzero"/><path fill="#000000" d="M 382.191406 126.398438 C 383.148438 125.226562 384.519531 124.492188 386.050781 124.492188 C 388.933594 124.492188 391.539062 126.613281 391.539062 129.828125 C 391.539062 130.214844 391.382812 131.082031 391.160156 131.492188 C 389.828125 130.925781 386.523438 129.238281 384.636719 126.359375 C 384.636719 126.359375 384.703125 128.273438 387.394531 130.933594 C 387.394531 130.933594 383.433594 129.746094 382.191406 126.398438 " fill-opacity="1" fill-rule="nonzero"/><path fill="#000000" d="M 395.71875 119.355469 C 395.71875 117.0625 393.863281 115.203125 391.578125 115.203125 C 389.292969 115.203125 387.441406 117.0625 387.441406 119.355469 C 387.441406 121.648438 389.292969 123.507812 391.578125 123.507812 C 393.863281 123.507812 395.71875 121.648438 395.71875 119.355469 " fill-opacity="1" fill-rule="nonzero"/><path fill="#000000" d="M 397.804688 109.625 C 397.804688 106.3125 395.128906 103.625 391.824219 103.625 C 388.523438 103.625 385.847656 106.3125 385.847656 109.625 C 385.847656 112.9375 388.523438 115.625 391.824219 115.625 C 395.128906 115.625 397.804688 112.9375 397.804688 109.625 " fill-opacity="1" fill-rule="nonzero"/><path fill="#000000" d="M 398.671875 95.628906 C 398.671875 90.761719 394.738281 86.8125 389.886719 86.8125 C 385.035156 86.8125 381.101562 90.761719 381.101562 95.628906 C 381.101562 100.496094 385.035156 104.445312 389.886719 104.445312 C 394.738281 104.445312 398.671875 100.496094 398.671875 95.628906 " fill-opacity="1" fill-rule="nonzero"/><path fill="#000000" d="M 395.414062 75.667969 C 395.414062 67.84375 389.09375 61.503906 381.300781 61.503906 C 373.507812 61.503906 367.191406 67.84375 367.191406 75.667969 C 367.191406 83.484375 373.507812 89.824219 381.300781 89.824219 C 389.09375 89.824219 395.414062 83.484375 395.414062 75.667969 " fill-opacity="1" fill-rule="nonzero"/><path fill="#000000" d="M 390.199219 125.003906 C 390.148438 125.003906 390.09375 124.992188 390.042969 124.964844 L 387.933594 123.9375 C 387.753906 123.851562 387.679688 123.636719 387.765625 123.460938 C 387.851562 123.285156 388.0625 123.210938 388.242188 123.296875 L 390.355469 124.328125 C 390.53125 124.414062 390.605469 124.625 390.519531 124.800781 C 390.457031 124.929688 390.332031 125.003906 390.199219 125.003906 " fill-opacity="1" fill-rule="nonzero"/><path fill="#fda4ff" d="M 357.566406 174.765625 L 371.089844 157.4375 L 356.1875 157.4375 L 349.953125 164.757812 C 347.550781 167.578125 344.039062 169.203125 340.339844 169.199219 L 329.628906 169.195312 L 329.628906 179.625 L 347.609375 179.628906 C 351.5 179.628906 355.171875 177.835938 357.566406 174.765625 " fill-opacity="1" fill-rule="nonzero"/><path fill="#fda4ff" d="M 310.433594 174.179688 L 310.824219 174.976562 L 314.722656 174.726562 L 317.8125 171.269531 L 343.121094 171.269531 L 343.121094 169.269531 L 334.21875 169.269531 C 332.941406 169.269531 329.390625 167.195312 326.503906 167.195312 L 321.238281 167.195312 C 319.550781 167.195312 317.882812 167.582031 316.371094 168.332031 L 311.625 170.679688 C 310.332031 171.320312 309.800781 172.882812 310.433594 174.179688 " fill-opacity="1" fill-rule="nonzero"/><path fill="#fda4ff" d="M 315.09375 176.457031 L 310.734375 178.59375 C 309.808594 179.050781 308.683594 178.667969 308.230469 177.734375 L 308.222656 177.71875 C 307.675781 176.589844 308.136719 175.234375 309.257812 174.679688 L 314.3125 172.179688 C 315.828125 171.433594 317.492188 171.042969 319.179688 171.042969 L 343.121094 171.042969 L 343.121094 178.375 L 325.292969 178.375 L 323.464844 176.628906 C 322.25 175.46875 320.5625 174.933594 318.90625 175.214844 C 317.820312 175.402344 316.503906 175.765625 315.09375 176.457031 " fill-opacity="1" fill-rule="nonzero"/><path fill="#fda4ff" d="M 323.304688 176.40625 C 322.910156 176.472656 322.480469 176.511719 322.007812 176.511719 C 321.832031 176.527344 321.101562 176.523438 318.539062 176.515625 C 317.257812 176.511719 316.214844 177.554688 316.214844 178.839844 L 316.214844 178.875 C 316.214844 180.15625 317.25 181.195312 318.53125 181.195312 L 328.25 181.195312 C 335.054688 181.195312 334.753906 176.011719 334.753906 176.011719 L 334.753906 173.386719 L 332.578125 173.386719 C 327.683594 173.386719 326.53125 175.863281 323.304688 176.40625 " fill-opacity="1" fill-rule="nonzero"/><path fill="#000000" d="M 309.914062 179.144531 C 309.671875 179.144531 309.425781 179.105469 309.191406 179.023438 C 308.628906 178.832031 308.171875 178.425781 307.910156 177.890625 C 307.273438 176.574219 307.808594 175 309.097656 174.363281 L 314.15625 171.859375 C 315.710938 171.09375 317.449219 170.6875 319.179688 170.6875 L 321.042969 170.6875 C 321.238281 170.6875 321.398438 170.847656 321.398438 171.042969 C 321.398438 171.238281 321.238281 171.398438 321.042969 171.398438 L 319.179688 171.398438 C 317.558594 171.398438 315.929688 171.78125 314.472656 172.5 L 309.414062 175 C 308.472656 175.464844 308.082031 176.617188 308.542969 177.5625 C 308.726562 177.945312 309.039062 178.21875 309.421875 178.351562 C 309.804688 178.480469 310.214844 178.453125 310.578125 178.273438 L 314.9375 176.136719 C 316.195312 175.523438 317.511719 175.09375 318.847656 174.863281 C 320.628906 174.558594 322.34375 175.003906 323.554688 176.078125 C 323.703125 176.210938 323.714844 176.433594 323.585938 176.582031 C 323.453125 176.726562 323.230469 176.742188 323.082031 176.613281 C 322.015625 175.664062 320.554688 175.292969 318.964844 175.566406 C 317.699219 175.785156 316.449219 176.191406 315.25 176.777344 L 310.894531 178.914062 C 310.582031 179.066406 310.25 179.144531 309.914062 179.144531 " fill-opacity="1" fill-rule="nonzero"/><path fill="#000000" d="M 327.566406 181.554688 L 318.597656 181.554688 C 317.125 181.554688 315.925781 180.351562 315.925781 178.875 C 315.925781 178.121094 316.207031 177.449219 316.714844 176.941406 C 317.21875 176.4375 317.890625 176.160156 318.597656 176.160156 C 318.601562 176.160156 318.605469 176.160156 318.605469 176.160156 L 319.902344 176.164062 C 321.273438 176.167969 321.734375 176.167969 321.855469 176.15625 C 321.867188 176.15625 321.882812 176.152344 321.894531 176.152344 C 322.527344 176.152344 323.101562 176.089844 323.65625 175.957031 C 323.851562 175.910156 324.042969 176.027344 324.089844 176.21875 C 324.132812 176.410156 324.015625 176.601562 323.824219 176.648438 C 323.21875 176.792969 322.59375 176.863281 321.914062 176.867188 C 321.746094 176.878906 321.386719 176.878906 319.898438 176.875 L 318.605469 176.871094 C 318.601562 176.871094 318.601562 176.871094 318.597656 176.871094 C 318.078125 176.871094 317.585938 177.078125 317.214844 177.445312 C 316.84375 177.816406 316.636719 178.3125 316.636719 178.839844 C 316.636719 179.957031 317.515625 180.839844 318.597656 180.839844 L 327.566406 180.839844 C 330.167969 180.839844 331.914062 180.378906 333.078125 179.378906 C 333.144531 179.324219 333.226562 179.292969 333.308594 179.292969 L 347.613281 179.292969 C 347.613281 179.292969 347.617188 179.292969 347.617188 179.292969 C 351.351562 179.292969 354.96875 177.519531 357.289062 174.542969 L 370.363281 157.792969 L 356.355469 157.792969 L 350.222656 164.988281 C 347.710938 167.9375 344.109375 169.632812 340.347656 169.632812 C 340.34375 169.632812 340.34375 169.632812 340.339844 169.632812 L 334.222656 169.625 C 333.644531 169.625 332.769531 169.292969 331.660156 168.871094 C 330.109375 168.28125 328.171875 167.550781 326.503906 167.550781 L 321.238281 167.550781 C 319.613281 167.550781 317.984375 167.929688 316.527344 168.652344 L 311.78125 171 C 310.679688 171.542969 310.21875 172.847656 310.726562 173.96875 C 310.808594 174.148438 310.730469 174.355469 310.550781 174.4375 C 310.375 174.519531 310.160156 174.441406 310.082031 174.261719 C 309.410156 172.792969 310.015625 171.078125 311.464844 170.359375 L 316.210938 168.011719 C 317.769531 167.246094 319.503906 166.835938 321.238281 166.835938 L 326.503906 166.835938 C 328.304688 166.835938 330.304688 167.597656 331.914062 168.207031 C 332.910156 168.585938 333.773438 168.914062 334.222656 168.914062 L 340.339844 168.917969 C 340.34375 168.917969 340.34375 168.917969 340.347656 168.917969 C 343.902344 168.917969 347.304688 167.316406 349.683594 164.527344 L 355.917969 157.203125 C 355.988281 157.125 356.085938 157.078125 356.191406 157.078125 L 371.09375 157.078125 C 371.230469 157.078125 371.351562 157.15625 371.414062 157.28125 C 371.472656 157.402344 371.457031 157.546875 371.375 157.652344 L 357.851562 174.984375 C 355.394531 178.128906 351.570312 180.003906 347.617188 180.003906 C 347.617188 180.003906 347.613281 180.003906 347.613281 180.003906 L 333.441406 180.003906 C 332.144531 181.0625 330.273438 181.554688 327.566406 181.554688 " fill-opacity="1" fill-rule="nonzero"/><path fill="#8c7bff" d="M 354.519531 186.550781 L 406 186.550781 L 402.753906 155.707031 L 365.992188 155.707031 L 354.519531 186.550781 " fill-opacity="1" fill-rule="nonzero"/><path fill="#000000" d="M 355.027344 186.195312 L 405.605469 186.195312 L 402.433594 156.066406 L 366.238281 156.066406 Z M 406 186.90625 L 354.515625 186.90625 C 354.398438 186.90625 354.289062 186.851562 354.222656 186.753906 C 354.15625 186.65625 354.144531 186.535156 354.183594 186.425781 L 365.65625 155.585938 C 365.710938 155.445312 365.84375 155.351562 365.988281 155.351562 L 402.753906 155.351562 C 402.933594 155.351562 403.085938 155.488281 403.105469 155.671875 L 406.355469 186.511719 C 406.363281 186.613281 406.332031 186.714844 406.265625 186.789062 C 406.195312 186.863281 406.101562 186.90625 406 186.90625 " fill-opacity="1" fill-rule="nonzero"/><path fill="#fda4ff" d="M 412.03125 173.277344 L 412.03125 151.679688 L 395.742188 151.679688 L 395.742188 165.152344 C 395.742188 166.886719 394.339844 168.292969 392.609375 168.292969 L 365.824219 168.285156 L 365.824219 183.011719 L 402.320312 183.019531 C 407.683594 183.019531 412.03125 178.660156 412.03125 173.277344 " fill-opacity="1" fill-rule="nonzero"/><path fill="#fda4ff" d="M 349.710938 172.863281 L 348.121094 174.589844 C 347.316406 175.464844 347.234375 176.785156 347.925781 177.746094 L 349.492188 179.929688 L 353.28125 175.683594 L 377.09375 175.683594 L 377.09375 170.683594 L 354.691406 170.683594 C 352.800781 170.683594 350.996094 171.472656 349.710938 172.863281 " fill-opacity="1" fill-rule="nonzero"/><path fill="#fda4ff" d="M 350.449219 169.746094 L 349.546875 170.722656 C 348.742188 171.59375 348.660156 172.914062 349.351562 173.878906 L 350.917969 176.058594 L 354.707031 171.8125 L 377.09375 171.8125 L 377.09375 168.335938 L 373.296875 168.335938 C 371.722656 168.335938 368.917969 166.8125 365.375 166.8125 L 357.132812 166.8125 C 354.59375 166.8125 352.171875 167.875 350.449219 169.746094 " fill-opacity="1" fill-rule="nonzero"/><path fill="#fda4ff" d="M 349.15625 176.226562 L 347.242188 178.296875 C 346.441406 179.171875 346.359375 180.492188 347.050781 181.453125 L 348.617188 183.632812 L 352.40625 179.390625 L 367.160156 179.390625 L 367.160156 174.386719 L 353.347656 174.386719 C 351.757812 174.386719 350.238281 175.054688 349.15625 176.226562 " fill-opacity="1" fill-rule="nonzero"/><path fill="#fda4ff" d="M 349.855469 179.871094 L 347.859375 182.03125 C 347.121094 182.832031 347.046875 184.042969 347.683594 184.929688 C 348.535156 186.117188 350.265625 186.210938 351.242188 185.121094 L 352.320312 183.910156 C 352.839844 183.328125 353.574219 183 354.351562 183 L 366.738281 183 C 369.976562 183 372.257812 182.8125 375.378906 177.996094 L 354.121094 177.996094 C 352.5 177.996094 350.953125 178.675781 349.855469 179.871094 " fill-opacity="1" fill-rule="nonzero"/><path fill="#000000" d="M 412.03125 167.769531 L 412.03125 151.679688 L 395.742188 151.679688 L 395.742188 164.144531 C 396.832031 164.097656 398.324219 163.96875 399.480469 163.609375 C 401.210938 163.074219 402.914062 162.828125 404.582031 165.113281 C 406.765625 168.113281 409.570312 168.4375 412.03125 167.769531 " fill-opacity="1" fill-rule="nonzero"/><path fill="#000000" d="M 347.929688 178.105469 C 347.816406 178.105469 347.707031 178.050781 347.636719 177.957031 C 346.847656 176.859375 346.941406 175.34375 347.859375 174.351562 L 349.449219 172.625 C 350.796875 171.164062 352.707031 170.328125 354.691406 170.328125 L 359.070312 170.328125 C 359.269531 170.328125 359.429688 170.488281 359.429688 170.683594 C 359.429688 170.878906 359.269531 171.039062 359.070312 171.039062 L 354.691406 171.039062 C 352.90625 171.039062 351.183594 171.792969 349.972656 173.105469 L 348.382812 174.832031 C 347.695312 175.578125 347.625 176.714844 348.214844 177.542969 C 348.332031 177.699219 348.292969 177.921875 348.132812 178.035156 C 348.074219 178.082031 348 178.105469 347.929688 178.105469 " fill-opacity="1" fill-rule="nonzero"/><path fill="#000000" d="M 347.660156 182.660156 C 347.550781 182.660156 347.441406 182.605469 347.371094 182.511719 L 346.761719 181.664062 C 345.976562 180.566406 346.070312 179.050781 346.980469 178.054688 L 348.894531 175.984375 C 350.039062 174.742188 351.660156 174.035156 353.347656 174.035156 L 359.109375 174.035156 C 359.308594 174.035156 359.46875 174.191406 359.46875 174.386719 C 359.46875 174.585938 359.308594 174.742188 359.109375 174.742188 L 353.347656 174.742188 C 351.859375 174.742188 350.425781 175.371094 349.414062 176.46875 L 347.503906 178.539062 C 346.816406 179.285156 346.75 180.425781 347.339844 181.246094 L 347.949219 182.09375 C 348.0625 182.253906 348.027344 182.476562 347.867188 182.59375 C 347.804688 182.636719 347.730469 182.660156 347.660156 182.660156 " fill-opacity="1" fill-rule="nonzero"/><path fill="#000000" d="M 349.539062 186.238281 C 349.492188 186.238281 349.445312 186.238281 349.398438 186.234375 C 348.59375 186.191406 347.863281 185.792969 347.394531 185.136719 C 346.664062 184.117188 346.75 182.710938 347.601562 181.785156 L 349.59375 179.625 C 350.753906 178.367188 352.40625 177.640625 354.121094 177.640625 L 358.917969 177.640625 C 359.117188 177.640625 359.273438 177.800781 359.273438 177.996094 C 359.273438 178.195312 359.117188 178.351562 358.917969 178.351562 L 354.121094 178.351562 C 352.605469 178.351562 351.144531 178.992188 350.113281 180.109375 L 348.121094 182.269531 C 347.5 182.945312 347.4375 183.976562 347.972656 184.722656 C 348.316406 185.199219 348.851562 185.492188 349.4375 185.523438 C 350.023438 185.550781 350.585938 185.320312 350.976562 184.882812 L 352.058594 183.671875 C 352.640625 183.019531 353.480469 182.640625 354.351562 182.640625 L 368.054688 182.640625 C 370.320312 182.640625 372.433594 181.519531 373.707031 179.632812 C 373.816406 179.46875 374.039062 179.429688 374.203125 179.535156 C 374.363281 179.648438 374.40625 179.867188 374.296875 180.03125 C 372.890625 182.113281 370.554688 183.355469 368.054688 183.355469 L 354.351562 183.355469 C 353.679688 183.355469 353.039062 183.640625 352.589844 184.144531 L 351.507812 185.355469 C 351.003906 185.921875 350.292969 186.238281 349.539062 186.238281 " fill-opacity="1" fill-rule="nonzero"/><path fill="#000000" d="M 402.320312 183.375 L 363.324219 183.375 C 363.128906 183.375 362.96875 183.21875 362.96875 183.019531 C 362.96875 182.824219 363.128906 182.664062 363.324219 182.664062 L 402.320312 182.664062 C 404.820312 182.664062 407.167969 181.6875 408.933594 179.917969 C 410.699219 178.144531 411.671875 175.789062 411.671875 173.277344 L 411.671875 152.035156 L 396.097656 152.035156 L 396.097656 165.152344 C 396.097656 166.085938 395.734375 166.964844 395.078125 167.625 C 394.417969 168.285156 393.539062 168.648438 392.613281 168.648438 C 392.609375 168.648438 392.609375 168.648438 392.609375 168.648438 L 374.003906 168.648438 C 372.523438 168.648438 371.371094 168.328125 370.148438 167.992188 C 368.6875 167.589844 367.179688 167.167969 364.820312 167.167969 L 357.132812 167.167969 C 354.699219 167.167969 352.359375 168.199219 350.707031 169.988281 L 349.804688 170.964844 C 349.210938 171.609375 349.066406 172.539062 349.441406 173.332031 C 349.523438 173.507812 349.445312 173.722656 349.269531 173.804688 C 349.089844 173.886719 348.878906 173.8125 348.792969 173.632812 C 348.300781 172.574219 348.492188 171.339844 349.28125 170.484375 L 350.183594 169.503906 C 351.96875 167.570312 354.503906 166.460938 357.132812 166.460938 L 364.820312 166.460938 C 367.273438 166.460938 368.902344 166.910156 370.339844 167.304688 C 371.5625 167.644531 372.617188 167.9375 374.003906 167.9375 L 392.609375 167.9375 C 392.609375 167.9375 392.609375 167.9375 392.613281 167.9375 C 393.351562 167.9375 394.050781 167.648438 394.574219 167.121094 C 395.097656 166.597656 395.386719 165.898438 395.386719 165.152344 L 395.386719 151.679688 C 395.386719 151.480469 395.542969 151.320312 395.742188 151.320312 L 412.03125 151.320312 C 412.226562 151.320312 412.382812 151.480469 412.382812 151.679688 L 412.382812 173.277344 C 412.382812 175.976562 411.339844 178.511719 409.4375 180.417969 C 407.535156 182.324219 405.011719 183.375 402.320312 183.375 " fill-opacity="1" fill-rule="nonzero"/><path fill="#000000" d="M 364.238281 160.773438 L 351.949219 160.773438 C 351.753906 160.773438 351.59375 160.613281 351.59375 160.417969 C 351.59375 160.222656 351.753906 160.0625 351.949219 160.0625 L 364.238281 160.0625 C 364.4375 160.0625 364.59375 160.222656 364.59375 160.417969 C 364.59375 160.613281 364.4375 160.773438 364.238281 160.773438 " fill-opacity="1" fill-rule="nonzero"/><g clip-path="url(#dbf7efcba9)"><path fill="#8c7bff" d="M 413.4375 160.417969 L 413.4375 155.804688 C 413.4375 147.273438 406.546875 140.363281 398.046875 140.363281 L 376.941406 140.363281 C 370.339844 140.363281 364.125 143.496094 360.191406 148.816406 L 351.609375 160.417969 L 413.4375 160.417969 " fill-opacity="1" fill-rule="nonzero"/></g><g clip-path="url(#d05c4fc81e)"><path fill="#000000" d="M 413.433594 161.105469 L 395.613281 161.105469 C 395.417969 161.105469 395.257812 160.945312 395.257812 160.75 C 395.257812 160.550781 395.417969 160.394531 395.613281 160.394531 L 413.082031 160.394531 L 413.082031 155.804688 C 413.082031 147.484375 406.335938 140.71875 398.046875 140.71875 L 376.941406 140.71875 C 370.480469 140.71875 364.328125 143.824219 360.476562 149.027344 L 352.3125 160.0625 L 364.273438 160.0625 C 364.46875 160.0625 364.628906 160.222656 364.628906 160.417969 C 364.628906 160.613281 364.46875 160.773438 364.273438 160.773438 L 351.609375 160.773438 C 351.472656 160.773438 351.351562 160.699219 351.289062 160.578125 C 351.230469 160.457031 351.242188 160.316406 351.320312 160.207031 L 359.90625 148.605469 C 363.886719 143.222656 370.257812 140.007812 376.941406 140.007812 L 398.046875 140.007812 C 406.730469 140.007812 413.792969 147.09375 413.792969 155.804688 L 413.792969 160.75 C 413.792969 160.945312 413.632812 161.105469 413.433594 161.105469 " fill-opacity="1" fill-rule="nonzero"/></g><path fill="#000000" d="M 393.519531 160.746094 C 393.324219 160.746094 393.160156 160.585938 393.160156 160.390625 L 393.160156 151.675781 C 393.160156 151.480469 393.324219 151.320312 393.519531 151.320312 C 393.714844 151.320312 393.875 151.480469 393.875 151.675781 L 393.875 160.390625 C 393.875 160.585938 393.714844 160.746094 393.519531 160.746094 " fill-opacity="1" fill-rule="nonzero"/><path fill="#000000" d="M 295.152344 183.378906 C 295.058594 183.378906 294.964844 183.34375 294.890625 183.269531 L 271.675781 158.933594 C 271.582031 158.828125 271.554688 158.675781 271.609375 158.546875 C 271.664062 158.414062 271.792969 158.332031 271.9375 158.332031 L 315.996094 158.332031 C 316.089844 158.332031 316.183594 158.367188 316.25 158.4375 L 339.464844 182.777344 C 339.601562 182.921875 339.597656 183.144531 339.453125 183.28125 C 339.3125 183.414062 339.085938 183.410156 338.949219 183.269531 L 315.839844 159.039062 L 272.765625 159.039062 L 295.410156 182.777344 C 295.542969 182.921875 295.539062 183.144531 295.398438 183.28125 C 295.328125 183.347656 295.242188 183.378906 295.152344 183.378906 " fill-opacity="1" fill-rule="nonzero"/><path fill="#000000" d="M 364.917969 186.882812 L 295.214844 186.882812 C 295.015625 186.882812 294.855469 186.726562 294.855469 186.527344 L 294.855469 183.023438 C 294.855469 182.828125 295.015625 182.667969 295.214844 182.667969 L 347.199219 182.667969 C 347.394531 182.667969 347.554688 182.828125 347.554688 183.023438 C 347.554688 183.21875 347.394531 183.378906 347.199219 183.378906 L 295.570312 183.378906 L 295.570312 186.171875 L 364.5625 186.171875 L 364.5625 183.378906 L 354.925781 183.378906 C 354.726562 183.378906 354.570312 183.21875 354.570312 183.023438 C 354.570312 182.828125 354.726562 182.667969 354.925781 182.667969 L 364.917969 182.667969 C 365.117188 182.667969 365.277344 182.828125 365.277344 183.023438 L 365.277344 186.527344 C 365.277344 186.726562 365.117188 186.882812 364.917969 186.882812 " fill-opacity="1" fill-rule="nonzero"/><path fill="#000000" d="M 301.375 168.078125 C 300.496094 168.078125 299.78125 168.796875 299.78125 169.679688 C 299.78125 170.558594 300.496094 171.277344 301.375 171.277344 C 302.25 171.277344 302.964844 170.558594 302.964844 169.679688 C 302.964844 168.796875 302.25 168.078125 301.375 168.078125 Z M 301.375 171.988281 C 300.101562 171.988281 299.070312 170.953125 299.070312 169.679688 C 299.070312 168.40625 300.101562 167.367188 301.375 167.367188 C 302.644531 167.367188 303.675781 168.40625 303.675781 169.679688 C 303.675781 170.953125 302.644531 171.988281 301.375 171.988281 " fill-opacity="1" fill-rule="nonzero"/><path fill="#ffffff" d="M 341.960938 132.675781 L 320.582031 123.1875 L 302.851562 129.277344 L 308.089844 117.683594 L 298.566406 113.558594 L 314.703125 76.933594 L 358.097656 96.050781 L 341.960938 132.675781 " fill-opacity="1" fill-rule="nonzero"/><path fill="#000000" d="M 320.578125 122.835938 C 320.628906 122.835938 320.679688 122.84375 320.726562 122.863281 L 341.78125 132.203125 L 357.628906 96.234375 L 314.886719 77.402344 L 299.035156 113.371094 L 308.230469 117.359375 C 308.320312 117.398438 308.386719 117.46875 308.421875 117.558594 C 308.457031 117.648438 308.453125 117.746094 308.414062 117.832031 L 303.511719 128.671875 L 320.464844 122.851562 C 320.503906 122.839844 320.539062 122.835938 320.578125 122.835938 Z M 341.960938 133.03125 C 341.914062 133.03125 341.863281 133.019531 341.816406 133 L 320.5625 123.570312 L 302.96875 129.613281 C 302.832031 129.660156 302.683594 129.621094 302.585938 129.515625 C 302.492188 129.410156 302.46875 129.261719 302.523438 129.128906 L 307.617188 117.867188 L 298.425781 113.882812 C 298.335938 113.84375 298.269531 113.773438 298.234375 113.6875 C 298.199219 113.597656 298.203125 113.5 298.238281 113.414062 L 314.375 76.789062 C 314.414062 76.703125 314.484375 76.636719 314.574219 76.601562 C 314.660156 76.566406 314.757812 76.570312 314.84375 76.609375 L 358.242188 95.726562 C 358.421875 95.804688 358.503906 96.015625 358.421875 96.195312 L 342.285156 132.820312 C 342.25 132.90625 342.175781 132.972656 342.089844 133.007812 C 342.046875 133.023438 342.003906 133.03125 341.960938 133.03125 " fill-opacity="1" fill-rule="nonzero"/><path fill="#fda4ff" d="M 338.335938 98.082031 C 335.695312 96.917969 332.726562 97.515625 330.730469 99.355469 C 330.746094 96.640625 329.179688 94.046875 326.539062 92.882812 C 322.984375 91.316406 318.832031 92.933594 317.261719 96.496094 C 316.242188 98.816406 316.480469 100.632812 317.433594 103.589844 L 322.523438 117.988281 L 336.582031 112.023438 C 339.40625 110.734375 340.910156 109.683594 341.933594 107.363281 C 343.5 103.804688 341.890625 99.648438 338.335938 98.082031 " fill-opacity="1" fill-rule="nonzero"/><path fill="#4ada85" d="M 165.214844 278.015625 C 164.226562 278.015625 163.425781 278.816406 163.425781 279.808594 C 163.425781 280.796875 164.226562 281.601562 165.214844 281.601562 C 166.199219 281.601562 167 280.796875 167 279.808594 C 167 278.816406 166.199219 278.015625 165.214844 278.015625 Z M 165.214844 282.3125 C 163.835938 282.3125 162.714844 281.191406 162.714844 279.808594 C 162.714844 278.425781 163.835938 277.300781 165.214844 277.300781 C 166.589844 277.300781 167.710938 278.425781 167.710938 279.808594 C 167.710938 281.191406 166.589844 282.3125 165.214844 282.3125 " fill-opacity="1" fill-rule="nonzero"/><path fill="#fed101" d="M 150.546875 266.042969 C 151.664062 267.355469 152.476562 268.929688 152.886719 270.664062 C 153.296875 268.929688 154.109375 267.355469 155.226562 266.042969 C 154.109375 264.730469 153.296875 263.15625 152.886719 261.421875 C 152.476562 263.15625 151.664062 264.730469 150.546875 266.042969 " fill-opacity="1" fill-rule="nonzero"/><path fill="#fda4ff" d="M 160.003906 246.167969 C 161.464844 247.890625 162.535156 249.953125 163.070312 252.226562 C 163.605469 249.953125 164.675781 247.890625 166.136719 246.167969 C 164.675781 244.449219 163.605469 242.386719 163.070312 240.113281 C 162.535156 242.386719 161.464844 244.449219 160.003906 246.167969 " fill-opacity="1" fill-rule="nonzero"/><path fill="#fed101" d="M 149.582031 215.03125 L 138.457031 200.914062 C 138.171875 200.550781 138.613281 200.074219 138.992188 200.328125 L 151.359375 208.558594 C 151.597656 208.71875 151.921875 208.582031 151.976562 208.300781 L 153.621094 199.726562 C 153.699219 199.320312 154.261719 199.277344 154.394531 199.671875 L 158.386719 211.269531 C 158.472656 211.527344 158.78125 211.625 159 211.464844 L 164.65625 207.351562 C 164.980469 207.113281 165.414062 207.453125 165.265625 207.828125 L 162.878906 213.808594 C 162.785156 214.046875 162.929688 214.3125 163.179688 214.355469 L 169.363281 215.519531 C 169.75 215.59375 169.816406 216.121094 169.457031 216.285156 L 161.804688 219.75 C 161.582031 219.851562 161.5 220.128906 161.632812 220.335938 L 167.851562 230.144531 C 168.089844 230.519531 167.628906 230.953125 167.269531 230.683594 L 157.933594 223.75 C 157.714844 223.585938 157.402344 223.6875 157.3125 223.945312 L 155.050781 230.714844 C 154.917969 231.113281 154.34375 231.070312 154.273438 230.65625 L 153.078125 223.851562 C 153.023438 223.539062 152.644531 223.410156 152.410156 223.625 L 140.65625 234.542969 C 140.304688 234.875 139.777344 234.417969 140.050781 234.019531 L 148.933594 221.113281 C 149.101562 220.867188 148.957031 220.53125 148.664062 220.484375 L 141.390625 219.304688 C 140.980469 219.238281 140.929688 218.664062 141.320312 218.527344 L 149.398438 215.664062 C 149.660156 215.570312 149.753906 215.25 149.582031 215.03125 " fill-opacity="1" fill-rule="nonzero"/><path fill="#4ada85" d="M 359.636719 28.292969 L 377.042969 23.804688 C 377.484375 23.691406 377.75 24.289062 377.363281 24.535156 L 364.839844 32.53125 C 364.601562 32.683594 364.59375 33.039062 364.832031 33.199219 L 372.015625 38.160156 C 372.359375 38.394531 372.167969 38.929688 371.753906 38.890625 L 359.527344 37.867188 C 359.257812 37.84375 359.042969 38.085938 359.101562 38.355469 L 360.589844 45.183594 C 360.671875 45.582031 360.1875 45.839844 359.90625 45.550781 L 355.390625 40.957031 C 355.210938 40.777344 354.914062 40.800781 354.769531 41.011719 L 351.214844 46.203125 C 350.992188 46.527344 350.480469 46.371094 350.476562 45.976562 L 350.386719 37.578125 C 350.386719 37.332031 350.164062 37.148438 349.921875 37.183594 L 338.441406 38.917969 C 337.996094 38.988281 337.789062 38.394531 338.179688 38.171875 L 348.289062 32.425781 C 348.527344 32.289062 348.5625 31.960938 348.359375 31.777344 L 343.078125 26.976562 C 342.765625 26.695312 343.039062 26.191406 343.441406 26.289062 L 350.15625 27.941406 C 350.460938 28.015625 350.734375 27.722656 350.628906 27.417969 L 345.375 12.261719 C 345.214844 11.804688 345.847656 11.507812 346.097656 11.917969 L 354.332031 25.25 C 354.488281 25.503906 354.851562 25.507812 355.015625 25.257812 L 359.023438 19.078125 C 359.25 18.726562 359.796875 18.910156 359.765625 19.328125 L 359.132812 27.875 C 359.109375 28.148438 359.367188 28.363281 359.636719 28.292969 " fill-opacity="1" fill-rule="nonzero"/></svg>