<svg xmlns="http://www.w3.org/2000/svg" xmlns:xlink="http://www.w3.org/1999/xlink" width="1288" zoomAndPan="magnify" viewBox="0 0 966 313.499995" height="418" preserveAspectRatio="xMidYMid meet" version="1.0"><defs><filter x="0%" y="0%" width="100%" height="100%" id="b849f1f642"><feColorMatrix values="0 0 0 0 1 0 0 0 0 1 0 0 0 0 1 0 0 0 1 0" color-interpolation-filters="sRGB"/></filter><clipPath id="4b99bd654f"><path d="M 0.769531 0 L 965.230469 0 L 965.230469 313 L 0.769531 313 Z M 0.769531 0 " clip-rule="nonzero"/></clipPath><clipPath id="ab92a47dbd"><path d="M 759 23 L 965.230469 23 L 965.230469 313 L 759 313 Z M 759 23 " clip-rule="nonzero"/></clipPath><mask id="49a97cd260"><g filter="url(#b849f1f642)"><rect x="-96.6" width="1159.2" fill="#000000" y="-31.35" height="376.199994" fill-opacity="0.2"/></g></mask><clipPath id="c0040e2a9f"><path d="M 0.398438 0.00390625 L 206.230469 0.00390625 L 206.230469 290 L 0.398438 290 Z M 0.398438 0.00390625 " clip-rule="nonzero"/></clipPath><clipPath id="05af057ad8"><path d="M 10 16 L 206.230469 16 L 206.230469 290 L 10 290 Z M 10 16 " clip-rule="nonzero"/></clipPath><clipPath id="920de0e718"><rect x="0" width="207" y="0" height="290"/></clipPath><clipPath id="d7bd125dd9"><path d="M 0.769531 0 L 227 0 L 227 301 L 0.769531 301 Z M 0.769531 0 " clip-rule="nonzero"/></clipPath><mask id="ca7b659f15"><g filter="url(#b849f1f642)"><rect x="-96.6" width="1159.2" fill="#000000" y="-31.35" height="376.199994" fill-opacity="0.2"/></g></mask><clipPath id="ae79f2cf6e"><path d="M 0.769531 0 L 201 0 L 201 296 L 0.769531 296 Z M 0.769531 0 " clip-rule="nonzero"/></clipPath><clipPath id="91da52aecd"><path d="M 228.105469 268.933594 L -30.269531 302.785156 L -71.414062 -11.277344 L 186.960938 -45.125 Z M 228.105469 268.933594 " clip-rule="nonzero"/></clipPath><clipPath id="135f2cc353"><path d="M -30.175781 302.773438 L 228.199219 268.921875 L 187.054688 -45.140625 L -71.320312 -11.289062 Z M -30.175781 302.773438 " clip-rule="nonzero"/></clipPath><clipPath id="b17c3208b9"><path d="M 0.769531 0 L 151 0 L 151 262 L 0.769531 262 Z M 0.769531 0 " clip-rule="nonzero"/></clipPath><clipPath id="33e941b04a"><path d="M 228.105469 268.933594 L -30.269531 302.785156 L -71.414062 -11.277344 L 186.960938 -45.125 Z M 228.105469 268.933594 " clip-rule="nonzero"/></clipPath><clipPath id="0701a57ada"><path d="M -30.175781 302.773438 L 228.199219 268.921875 L 187.054688 -45.140625 L -71.320312 -11.289062 Z M -30.175781 302.773438 " clip-rule="nonzero"/></clipPath><clipPath id="719c6e430a"><rect x="0" width="227" y="0" height="301"/></clipPath><mask id="ef6e0d8d10"><g filter="url(#b849f1f642)"><rect x="-96.6" width="1159.2" fill="#000000" y="-31.35" height="376.199994" fill-opacity="0.2"/></g></mask><clipPath id="76be5aaaf8"><path d="M 1 1 L 172 1 L 172 61 L 1 61 Z M 1 1 " clip-rule="nonzero"/></clipPath><clipPath id="32eb4ea094"><rect x="0" width="173" y="0" height="61"/></clipPath><mask id="6fd845b072"><g filter="url(#b849f1f642)"><rect x="-96.6" width="1159.2" fill="#000000" y="-31.35" height="376.199994" fill-opacity="0.2"/></g></mask><clipPath id="f667e72242"><path d="M 0.382812 0 L 171.707031 0 L 171.707031 61 L 0.382812 61 Z M 0.382812 0 " clip-rule="nonzero"/></clipPath><clipPath id="1a5328c86a"><rect x="0" width="172" y="0" height="62"/></clipPath></defs><g clip-path="url(#4b99bd654f)"><path fill="#ffffff" d="M 0.769531 0 L 965.230469 0 L 965.230469 313 L 0.769531 313 Z M 0.769531 0 " fill-opacity="1" fill-rule="nonzero"/><path fill="#ffded6" d="M 0.769531 0 L 965.230469 0 L 965.230469 313 L 0.769531 313 Z M 0.769531 0 " fill-opacity="1" fill-rule="nonzero"/></g><g clip-path="url(#ab92a47dbd)"><g mask="url(#49a97cd260)"><g transform="matrix(1, 0, 0, 1, 759, 23)"><g clip-path="url(#920de0e718)"><g clip-path="url(#c0040e2a9f)"><path fill="#e89683" d="M 281.15625 77.144531 C 275.410156 94.882812 264.152344 110.316406 251.707031 123.960938 C 245.019531 131.292969 237.757812 138.078125 231.207031 145.53125 C 224.445312 153.117188 219.105469 161.59375 215.175781 170.960938 C 207.617188 189.226562 204.777344 209.019531 198.332031 227.664062 C 191.746094 246.804688 182.601562 264.636719 170.894531 281.152344 C 160.5625 295.664062 148.171875 308.820312 133.609375 319.148438 C 119.578125 329.121094 103.242188 336.363281 86.054688 338.441406 C 82.179688 338.894531 78.289062 339.078125 74.390625 339 C 70.488281 338.917969 66.609375 338.574219 62.757812 337.960938 C 58.902344 337.351562 55.109375 336.480469 51.375 335.347656 C 47.640625 334.214844 44 332.835938 40.457031 331.207031 C 26.730469 324.910156 14.605469 314.546875 7.625 301.023438 C -1.003906 284.292969 -0.871094 264.710938 4.027344 246.882812 C 8.929688 229.054688 18.253906 212.527344 29.460938 197.933594 C 39.78125 184.578125 51.765625 172.929688 65.410156 162.992188 C 70.097656 157.792969 75.191406 153.03125 80.695312 148.707031 C 88.113281 142.9375 96.261719 138.429688 104.371094 133.730469 C 113.019531 128.722656 121.035156 123.207031 127.503906 115.453125 C 134.265625 107.394531 139.667969 98.195312 145.523438 89.480469 C 151.675781 80.332031 157.941406 71.269531 164.324219 62.296875 C 170.464844 53.722656 176.601562 45.152344 183.003906 36.824219 C 188.335938 29.722656 194.246094 23.144531 200.734375 17.085938 C 213.027344 5.921875 228.972656 -2.402344 246 1 C 260.90625 3.984375 272.550781 15.664062 278.867188 29.011719 C 282.230469 36.074219 284.191406 43.511719 284.75 51.316406 C 285.355469 60.015625 283.875 68.882812 281.15625 77.144531 Z M 281.15625 77.144531 " fill-opacity="1" fill-rule="nonzero"/></g><g clip-path="url(#05af057ad8)"><path fill="#ffffff" d="M 240.695312 252.566406 C 240.238281 258.011719 236.660156 262.78125 233.335938 266.886719 C 226.960938 274.777344 218.703125 280.917969 209.890625 285.84375 C 201.09375 290.582031 191.941406 294.492188 182.433594 297.570312 C 187.210938 304.785156 192.078125 311.933594 197.007812 319.0625 C 197.988281 320.492188 195.675781 321.824219 194.710938 320.410156 L 191.140625 315.210938 C 187.394531 309.75 183.6875 304.265625 180.023438 298.753906 C 179.601562 299.109375 179.179688 299.460938 178.757812 299.804688 C 171.042969 305.941406 161.878906 309.890625 152.550781 312.914062 C 142.203125 316.273438 131.601562 318.886719 121.105469 321.746094 C 118.621094 322.417969 116.015625 323.21875 113.429688 322.675781 C 112.339844 322.425781 111.382812 321.929688 110.550781 321.179688 C 109.722656 320.433594 109.125 319.53125 108.765625 318.472656 C 107.082031 313.871094 110.160156 309.566406 113.816406 307.074219 C 118.199219 304.09375 123.507812 302.621094 128.601562 301.410156 C 134.230469 300.078125 139.886719 298.847656 145.523438 297.578125 C 155.828125 295.253906 166.386719 292.972656 176.960938 294.070312 C 172.324219 286.949219 167.816406 279.742188 163.5625 272.367188 C 161.546875 268.859375 159.597656 265.316406 157.722656 261.738281 C 157.195312 261.789062 156.78125 261.59375 156.476562 261.160156 C 156.175781 260.722656 156.140625 260.269531 156.371094 259.792969 L 156.53125 259.484375 L 156.476562 259.378906 C 155.476562 260.105469 154.46875 260.808594 153.425781 261.464844 C 148.828125 264.398438 143.925781 266.667969 138.710938 268.269531 C 133.730469 269.796875 128.398438 270.367188 123.621094 272.496094 C 121.234375 273.59375 119.121094 275.074219 117.28125 276.945312 C 115.386719 278.839844 113.660156 280.890625 111.632812 282.652344 C 107.890625 285.914062 103.144531 288.84375 98.15625 289.597656 C 95.808594 290.039062 93.550781 289.769531 91.375 288.78125 C 90.367188 288.261719 89.511719 287.558594 88.804688 286.671875 C 88.101562 285.78125 87.609375 284.789062 87.335938 283.6875 C 86.140625 278.953125 88.632812 274.3125 92.28125 271.410156 C 94.269531 269.90625 96.394531 268.628906 98.65625 267.578125 C 101.339844 266.261719 104.058594 264.949219 106.757812 263.667969 L 123.488281 255.601562 C 126.03125 254.285156 128.644531 253.113281 131.320312 252.09375 C 134.078125 251.144531 136.917969 250.699219 139.835938 250.757812 C 144.535156 250.839844 149.113281 252.066406 153.566406 253.511719 C 149.265625 244.6875 145.535156 235.625 142.378906 226.328125 C 141.167969 222.714844 140.027344 219.09375 138.871094 215.464844 L 138.683594 215.550781 C 138.425781 216.042969 138.019531 216.300781 137.464844 216.332031 L 136.589844 216.4375 C 126.628906 220.628906 116.472656 224.394531 106.125 227.730469 C 96.789062 230.738281 86.070312 234.089844 76.3125 230.828125 C 72.65625 229.609375 68.761719 226.734375 69.234375 222.390625 C 69.671875 218.332031 73.433594 215.585938 77.039062 214.324219 C 81.75 212.683594 87.070312 213.070312 91.945312 213.203125 C 94.511719 213.289062 97.074219 213.246094 99.636719 213.070312 C 102.371094 212.851562 105.089844 212.464844 107.820312 212.140625 C 117.707031 210.96875 127.601562 210.902344 137.5 211.9375 C 137.550781 211.875 137.601562 211.8125 137.660156 211.753906 C 136.449219 207.976562 135.210938 204.195312 133.863281 200.46875 C 130.742188 191.816406 127.101562 183.371094 123.488281 174.917969 L 120.769531 168.410156 C 118.929688 169.964844 116.976562 171.363281 114.910156 172.597656 C 112.84375 173.832031 110.6875 174.894531 108.445312 175.777344 C 106.207031 176.660156 103.90625 177.351562 101.550781 177.859375 C 99.199219 178.367188 96.816406 178.675781 94.410156 178.792969 C 89.449219 179.011719 84.414062 177.960938 79.503906 178.90625 C 74.75 179.785156 70.375 182.054688 65.621094 182.949219 C 63.347656 183.421875 61.058594 183.5 58.757812 183.1875 C 56.757812 182.886719 54.089844 182.160156 52.863281 180.421875 C 51.460938 178.46875 52.777344 176.292969 54.398438 175.003906 C 56.394531 173.574219 58.476562 172.285156 60.648438 171.136719 C 64.773438 168.660156 69.097656 166.613281 73.628906 165 C 78.5 163.5 83.484375 162.6875 88.578125 162.5625 C 98.523438 162.097656 108.460938 162.191406 118.394531 162.851562 C 115.226562 155.484375 112.070312 148.113281 108.921875 140.734375 C 108.726562 140.738281 108.542969 140.691406 108.367188 140.601562 C 108.191406 140.511719 108.050781 140.386719 107.9375 140.222656 C 107.824219 140.0625 107.757812 139.882812 107.734375 139.691406 C 107.710938 139.496094 107.730469 139.304688 107.800781 139.121094 C 107.863281 138.945312 107.933594 138.761719 107.992188 138.578125 L 106.46875 135 L 90.445312 140.078125 C 87.785156 141.007812 85.066406 141.71875 82.292969 142.21875 C 79.382812 142.617188 76.480469 142.566406 73.585938 142.066406 C 68.324219 141.261719 63.148438 140.175781 57.941406 139.199219 L 49.742188 137.675781 C 47.375 137.351562 45.035156 136.886719 42.726562 136.28125 C 41.023438 135.738281 39.21875 134.789062 38.5625 133.019531 C 37.773438 130.941406 39.175781 128.921875 40.628906 127.527344 C 43.804688 124.503906 48.328125 123.40625 52.503906 122.539062 C 56.753906 121.671875 61.042969 121.128906 65.371094 120.917969 C 69.703125 120.703125 74.023438 120.820312 78.335938 121.265625 C 82.652344 121.710938 86.90625 122.484375 91.101562 123.578125 C 95.296875 124.675781 99.382812 126.082031 103.363281 127.800781 L 101.609375 123.742188 L 88.761719 93.742188 C 88.585938 93.550781 88.492188 93.328125 88.484375 93.066406 C 88.457031 93.027344 88.4375 92.984375 88.429688 92.9375 C 88.242188 92.878906 88.085938 92.773438 87.964844 92.621094 C 87.824219 92.4375 87.660156 92.269531 87.5 92.085938 C 87.390625 92.265625 87.242188 92.40625 87.054688 92.507812 C 85.878906 93.179688 84.6875 93.804688 83.46875 94.355469 C 81.011719 95.472656 78.480469 96.359375 75.867188 97.019531 C 73.25 97.679688 70.597656 98.097656 67.910156 98.277344 C 65.21875 98.453125 62.535156 98.390625 59.855469 98.085938 C 57.179688 97.777344 54.550781 97.234375 51.96875 96.453125 C 49.222656 95.574219 46.609375 94.382812 43.875 93.488281 C 40.996094 92.570312 38.046875 92.128906 35.027344 92.164062 C 31.988281 92.226562 28.953125 92.117188 25.925781 91.839844 C 22.960938 91.5 20.0625 90.863281 17.226562 89.9375 C 14.894531 89.171875 12.15625 88.183594 11.238281 85.683594 C 10.359375 83.4375 11.683594 81.230469 13.394531 79.816406 C 15.429688 78.125 17.945312 77.1875 20.339844 76.144531 C 23.015625 74.964844 25.757812 73.957031 28.566406 73.125 C 34.070312 71.574219 39.964844 71.179688 45.375 73.363281 C 48.003906 74.441406 50.453125 75.925781 52.996094 77.222656 C 55.5625 78.503906 58.253906 79.441406 61.0625 80.027344 C 69.183594 81.84375 78.863281 81.972656 85.824219 86.894531 L 79.996094 73.25 C 79.835938 73.105469 79.722656 72.933594 79.652344 72.730469 C 78.679688 69.996094 76.546875 67.945312 74.292969 66.179688 C 73.992188 66.09375 73.761719 65.914062 73.601562 65.648438 C 72.847656 65.085938 72.085938 64.550781 71.339844 64.023438 C 69.480469 62.769531 67.695312 61.421875 65.980469 59.972656 C 64.300781 58.476562 62.777344 56.828125 61.414062 55.035156 C 56.386719 48.546875 53.582031 40.628906 51.496094 32.761719 C 50.875 30.621094 50.371094 28.453125 49.988281 26.257812 C 49.644531 24.027344 49.617188 21.609375 50.863281 19.636719 C 51.382812 18.734375 52.085938 18.019531 52.980469 17.488281 C 53.875 16.957031 54.839844 16.679688 55.878906 16.65625 C 58.140625 16.714844 59.753906 18.40625 61.140625 20.046875 C 64.316406 23.863281 66.867188 28.167969 69.542969 32.324219 C 72.214844 36.480469 75.171875 40.417969 76.828125 44.953125 C 78.320312 48.960938 78.160156 53.300781 78.179688 57.507812 C 78.179688 61.4375 78.382812 65.480469 80.765625 68.777344 C 80.90625 68.972656 80.972656 69.191406 80.960938 69.433594 C 81.144531 69.75 81.328125 70.066406 81.492188 70.398438 C 81.664062 70.53125 81.789062 70.699219 81.871094 70.898438 C 82.75 73.019531 83.6875 75.144531 84.605469 77.265625 C 86.144531 80.859375 87.675781 84.464844 89.203125 88.078125 C 89.820312 84.871094 90.636719 81.71875 91.648438 78.617188 C 96.761719 63.128906 106.414062 49.449219 117.957031 38.03125 C 117.941406 37.796875 117.992188 37.578125 118.113281 37.375 C 118.234375 37.171875 118.398438 37.019531 118.613281 36.917969 C 118.9375 36.738281 119.269531 36.574219 119.613281 36.429688 L 120.035156 36.007812 C 120.207031 35.828125 120.417969 35.714844 120.664062 35.664062 C 120.90625 35.613281 121.144531 35.632812 121.375 35.726562 C 122.617188 35.296875 123.890625 35.003906 125.199219 34.851562 C 125.375 34.847656 125.546875 34.878906 125.710938 34.945312 C 125.878906 35.011719 126.023438 35.109375 126.148438 35.234375 C 126.277344 35.359375 126.371094 35.503906 126.441406 35.667969 C 126.507812 35.832031 126.542969 36.003906 126.539062 36.183594 C 126.351562 41.707031 125.367188 47.085938 123.59375 52.316406 C 118.027344 69.066406 106.308594 83.640625 91.597656 93.277344 C 91.558594 93.289062 91.523438 93.308594 91.492188 93.332031 C 96.535156 105.117188 101.582031 116.902344 106.632812 128.695312 L 106.925781 129.378906 L 107.5625 129.6875 C 107.699219 129.746094 107.816406 129.824219 107.917969 129.929688 C 108.023438 130.035156 108.101562 130.152344 108.160156 130.289062 C 108.214844 130.421875 108.242188 130.5625 108.246094 130.710938 C 108.246094 130.855469 108.222656 130.996094 108.167969 131.132812 C 108.355469 131.476562 108.398438 131.835938 108.292969 132.210938 C 108.664062 132.578125 108.800781 133.015625 108.703125 133.527344 C 108.898438 134 109.097656 134.457031 109.300781 134.921875 C 112.796875 125.890625 117.285156 117.382812 122.769531 109.398438 C 128.25 101.414062 134.574219 94.167969 141.746094 87.65625 C 143.351562 86.210938 145.253906 84.515625 147.566406 84.570312 C 148.136719 84.582031 148.667969 84.730469 149.160156 85.015625 C 149.652344 85.296875 150.050781 85.683594 150.347656 86.164062 C 150.875 87.214844 151.121094 88.324219 151.074219 89.5 C 151.261719 94.234375 150.386719 98.765625 148.445312 103.089844 C 146.554688 107.410156 143.777344 111.0625 140.125 114.042969 C 136.257812 117.183594 131.625 119.304688 128.09375 122.871094 C 122.621094 128.371094 119.234375 136.992188 111.082031 139.105469 C 114.554688 147.207031 118.023438 155.3125 121.488281 163.421875 C 121.679688 163.640625 121.789062 163.894531 121.8125 164.183594 C 122.398438 165.515625 122.984375 166.847656 123.566406 168.183594 C 126.832031 160.230469 131.371094 153.085938 137.1875 146.75 C 140.066406 143.5625 143.148438 140.582031 146.429688 137.804688 C 149.734375 134.941406 153.21875 132.308594 156.882812 129.914062 C 158.71875 128.699219 160.6875 127.761719 162.792969 127.097656 C 164.835938 126.496094 167.667969 125.941406 169.332031 127.632812 C 170.832031 129.160156 170.769531 131.675781 170.464844 133.632812 C 170.078125 135.773438 169.25 137.730469 167.984375 139.5 C 165.351562 143.339844 161.414062 145.882812 157.546875 148.363281 C 155.632812 149.550781 153.792969 150.84375 152.03125 152.25 C 150.226562 153.769531 148.503906 155.378906 146.867188 157.082031 C 140.730469 163.386719 134.519531 170.699219 125.558594 172.863281 C 126.550781 175.179688 127.546875 177.503906 128.539062 179.828125 C 132.046875 188.183594 135.554688 196.601562 138.394531 205.257812 C 138.835938 206.546875 139.273438 207.886719 139.675781 209.160156 C 144.796875 201.757812 147.777344 193.15625 152.285156 185.414062 C 154.511719 181.40625 157.3125 177.84375 160.679688 174.734375 C 164.640625 171.402344 168.980469 168.675781 173.699219 166.550781 C 175.910156 165.335938 178.210938 164.324219 180.601562 163.515625 C 182.871094 162.878906 185.398438 163.175781 186.871094 165.191406 C 187.410156 166.066406 187.738281 167.011719 187.851562 168.03125 C 187.964844 169.050781 187.855469 170.042969 187.519531 171.015625 C 186.796875 173.144531 185.625 174.996094 184.011719 176.566406 C 182.378906 178.171875 180.660156 179.683594 178.855469 181.097656 C 176.90625 182.675781 175.152344 184.449219 173.59375 186.414062 C 172 188.464844 170.585938 190.640625 169 192.691406 C 167.53125 194.621094 165.964844 196.464844 164.300781 198.226562 C 157.714844 205.113281 150.039062 210.4375 141.28125 214.191406 C 143.035156 219.824219 144.789062 225.460938 146.847656 231.011719 C 149.820312 239.097656 153.234375 246.988281 157.101562 254.6875 C 157.386719 254.816406 157.601562 255.023438 157.742188 255.304688 C 157.882812 255.585938 157.921875 255.878906 157.855469 256.1875 C 157.933594 256.335938 158.003906 256.496094 158.074219 256.636719 L 158.589844 255.714844 C 161.449219 250.550781 164.253906 245.332031 167.226562 240.21875 C 169.929688 235.363281 173.09375 230.832031 176.714844 226.617188 C 183.960938 218.507812 193.710938 213.414062 203.53125 209.082031 C 206.011719 207.984375 208.496094 206.828125 211.039062 205.890625 C 213.582031 204.949219 216.441406 204.695312 218.667969 206.484375 C 220.894531 208.273438 220.796875 210.992188 219.394531 213.21875 C 218.632812 214.429688 217.683594 215.550781 216.816406 216.726562 L 214.003906 220.417969 C 210.207031 225.382812 206.40625 230.351562 202.601562 235.328125 C 199.09375 239.902344 195.667969 244.445312 190.824219 247.691406 C 186.273438 250.742188 181.09375 252.699219 176.03125 254.707031 L 160.328125 261 C 163.097656 266.226562 166.003906 271.375 169.042969 276.445312 C 172.550781 282.242188 176.121094 287.941406 179.8125 293.597656 C 179.910156 293.488281 180.019531 293.394531 180.144531 293.316406 L 180.871094 292.867188 C 180.898438 292.828125 180.921875 292.78125 180.941406 292.738281 C 186.265625 282.976562 192.507812 273.515625 200.726562 265.957031 C 209.242188 258.125 219.605469 252.804688 229.933594 247.804688 C 232.320312 246.648438 235.414062 244.628906 238.082031 246.136719 C 240.316406 247.402344 240.90625 250.226562 240.695312 252.566406 Z M 240.695312 252.566406 " fill-opacity="1" fill-rule="nonzero"/></g></g></g></g></g><g clip-path="url(#d7bd125dd9)"><g mask="url(#ca7b659f15)"><g><g clip-path="url(#719c6e430a)"><g clip-path="url(#ae79f2cf6e)"><g clip-path="url(#91da52aecd)"><g clip-path="url(#135f2cc353)"><path fill="#e89683" d="M 186.53125 28.039062 C 178.222656 15.730469 167.136719 5.441406 155.101562 -3.132812 C 142.238281 -12.222656 127.996094 -20.234375 112.933594 -25.027344 C 97.582031 -29.921875 81.082031 -30.9375 66.027344 -24.613281 C 52.476562 -18.902344 41.574219 -8.289062 32.800781 3.289062 C 23.386719 15.777344 16.039062 29.792969 9.25 43.875 C 2.015625 58.773438 -4.28125 73.964844 -9.703125 89.523438 C -20.492188 120.496094 -27.820312 152.601562 -31.492188 185.199219 C -34.195312 209.378906 -34.875 233.710938 -33.492188 257.976562 C -34.734375 261.660156 -35.042969 265.636719 -34.46875 269.5 C -34.027344 272.34375 -33.167969 275.199219 -31.929688 277.800781 C -31.738281 279.777344 -31.480469 281.746094 -31.28125 283.792969 C -31.015625 285.828125 -28.507812 285.984375 -27.574219 284.6875 C -27.238281 285.128906 -26.839844 285.558594 -26.445312 285.921875 C -21.640625 290.957031 -15.199219 294.253906 -8.296875 295.285156 C 6.386719 297.710938 21.246094 291.484375 32.386719 282.152344 C 54.410156 263.65625 63.234375 234.53125 72.160156 208.292969 C 76.640625 195.066406 81.820312 181.886719 89.03125 169.960938 C 95.953125 158.488281 105.039062 147.699219 116.96875 141.230469 C 123.933594 137.488281 131.492188 135.597656 139.273438 134.371094 C 148.210938 132.996094 157.359375 132.210938 165.902344 128.878906 C 177.597656 124.308594 186.757812 115.167969 192.648438 104.242188 C 198.765625 92.945312 201.320312 79.765625 200.550781 67.019531 C 199.8125 52.957031 194.332031 39.585938 186.53125 28.039062 Z M 186.53125 28.039062 " fill-opacity="1" fill-rule="nonzero"/></g></g></g><g clip-path="url(#b17c3208b9)"><g clip-path="url(#33e941b04a)"><g clip-path="url(#0701a57ada)"><path fill="#ffffff" d="M 149.964844 71.023438 C 148.875 64.808594 147.769531 58.464844 145.007812 52.679688 C 141.027344 44.429688 134.546875 37.679688 126.402344 33.5 C 122.398438 31.398438 118.136719 29.957031 113.628906 29.300781 C 108.484375 28.527344 103.203125 28.804688 98.113281 27.882812 L 107.855469 -3.160156 C 108.339844 -4.742188 106 -5.75 105.449219 -4.15625 L 103.746094 1.3125 C 101.171875 9.59375 98.527344 17.882812 95.953125 26.164062 C 93.835938 24.230469 91.488281 22.671875 88.976562 21.414062 C 85.289062 19.617188 81.289062 18.621094 77.195312 18.46875 C 72.605469 18.238281 67.964844 18.640625 63.40625 18.132812 C 61.097656 17.882812 58.882812 17.34375 56.582031 17.164062 C 54.414062 16.960938 52.222656 17.113281 50.136719 17.523438 C 46.03125 18.335938 42.210938 20.289062 39.136719 23.175781 C 38.273438 23.980469 38.710938 25.71875 40.128906 25.464844 C 44.046875 24.8125 47.96875 25.75 51.671875 27.128906 C 55.152344 28.398438 58.464844 29.96875 61.9375 31.171875 C 72.28125 34.71875 83.332031 35.273438 93.988281 32.773438 L 90.144531 45.085938 C 88.695312 49.835938 87.175781 54.59375 85.648438 59.28125 C 83.738281 56.285156 80.5 54.222656 77.109375 53.148438 C 72.644531 51.730469 68.050781 51.988281 63.449219 52.175781 C 60.917969 52.367188 58.371094 52.425781 55.863281 52.269531 C 53.484375 52.03125 51.019531 51.664062 48.671875 51.140625 C 46.324219 50.621094 43.882812 50.457031 41.53125 50.417969 C 39.398438 50.492188 37.246094 50.910156 35.195312 51.59375 C 31.023438 52.96875 27.34375 55.457031 24.609375 58.851562 C 24.199219 59.390625 24.304688 60.203125 24.84375 60.617188 C 25.074219 60.792969 25.292969 60.902344 25.566406 60.867188 C 25.574219 60.9375 25.652344 60.996094 25.660156 61.0625 C 26.148438 61.621094 26.921875 61.726562 27.488281 61.308594 C 31.195312 59.027344 35.792969 59.320312 39.796875 60.382812 C 47.53125 62.480469 53.898438 67.859375 61.742188 69.734375 C 69.304688 71.574219 76.917969 69.058594 83.648438 65.621094 L 83.40625 66.414062 C 81.375 73.03125 78.972656 79.492188 76.285156 85.855469 C 74.902344 89.003906 73.367188 92.039062 71.683594 95.019531 C 71.296875 95.210938 71.058594 95.515625 70.976562 95.941406 C 70.203125 94.246094 69.097656 92.667969 67.746094 91.324219 C 66.097656 89.8125 64.039062 88.839844 61.914062 88.429688 C 57.507812 87.484375 53.164062 88.605469 48.890625 89.71875 C 46.558594 90.371094 44.140625 90.894531 41.753906 91.136719 C 39.285156 91.253906 36.871094 91.292969 34.433594 91.128906 C 32.003906 91.035156 29.601562 91.140625 27.242188 91.589844 C 25.425781 91.964844 23.65625 92.679688 22.054688 93.648438 C 18.925781 95.578125 16.710938 98.699219 16.78125 102.421875 C 16.871094 103.101562 17.5625 103.628906 18.242188 103.542969 C 18.714844 103.480469 19.15625 103.144531 19.296875 102.644531 C 22.070312 100.621094 25.613281 100.226562 28.949219 100.414062 C 32.308594 100.730469 35.625 101.265625 38.898438 102.007812 C 42.511719 102.710938 46.109375 103.273438 49.738281 103.558594 C 55.601562 104.035156 61.644531 103.792969 67.292969 102.089844 C 66.898438 102.761719 66.5625 103.359375 66.167969 104.03125 C 62.617188 110.160156 60.652344 116.769531 58.996094 123.617188 C 58.363281 126.1875 57.800781 128.746094 57.238281 131.308594 C 54.40625 129.191406 50.851562 128.414062 47.328125 128.390625 C 43.453125 128.347656 39.695312 129.183594 35.789062 129.421875 C 31.882812 129.65625 28.335938 128.945312 24.582031 128.746094 C 20.808594 128.414062 16.9375 128.921875 13.398438 130.351562 C 10.378906 131.574219 6.765625 133.5 6.039062 136.910156 C 5.921875 137.617188 6.429688 138.308594 7.125 138.355469 C 7.617188 138.429688 8.144531 138.222656 8.363281 137.777344 C 11.652344 137.070312 14.867188 137.894531 17.992188 139.074219 C 21.117188 140.253906 23.996094 141.671875 27.21875 142.558594 C 30.726562 143.480469 34.414062 143.691406 38.003906 143.152344 C 44.511719 142.230469 50.542969 139.230469 56.171875 135.796875 C 54.722656 142.132812 53.273438 148.472656 51.824219 154.808594 C 51.316406 155.148438 51.191406 155.789062 51.398438 156.3125 L 51.484375 156.441406 C 51.261719 157.367188 51.035156 158.292969 50.820312 159.289062 C 48.835938 156.785156 46.066406 155.148438 42.945312 154.519531 C 39.109375 153.710938 35.148438 154.574219 31.539062 156.015625 C 29.640625 156.816406 27.769531 157.820312 25.976562 158.882812 C 24.324219 160 22.511719 160.925781 20.683594 161.71875 C 18.691406 162.324219 16.671875 162.726562 14.625 162.925781 C 12.589844 163.191406 10.570312 163.597656 8.578125 164.203125 C 4.71875 165.328125 1.019531 167.125 -2.339844 169.429688 C -2.660156 169.609375 -2.820312 169.976562 -2.84375 170.324219 C -2.949219 171.097656 -2.445312 171.792969 -1.738281 171.90625 C -1.527344 171.949219 -1.324219 171.921875 -1.050781 171.886719 C 2.703125 170.496094 6.796875 171.6875 10.503906 172.582031 C 14.019531 173.574219 17.621094 174.207031 21.242188 174.421875 C 24.929688 174.628906 28.671875 174.207031 32.210938 173.261719 C 38.476562 171.542969 44.113281 168.179688 49.527344 164.707031 C 49.3125 165.703125 49.039062 166.773438 48.824219 167.769531 L 43.179688 192.679688 C 37.96875 191.914062 32.667969 193.089844 27.386719 193.371094 C 17.984375 193.839844 8.339844 192.964844 -0.851562 195.550781 C -8.050781 197.527344 -14.890625 201.738281 -18.425781 208.488281 L -18.757812 208.597656 C -20.332031 209.21875 -19.332031 211.574219 -17.75 211.023438 C -13.273438 209.332031 -8.421875 209.457031 -3.671875 209.871094 C 0.730469 210.257812 5.082031 210.792969 9.472656 210.566406 C 13.726562 210.351562 17.890625 209.460938 21.847656 208.046875 C 25.796875 206.5625 29.617188 204.609375 33.015625 202.09375 C 35.867188 200.132812 38.75 197.886719 42.167969 197.09375 C 41.066406 201.867188 40.027344 206.5625 38.925781 211.332031 C 35.933594 213.796875 33.253906 216.566406 30.820312 219.578125 C 26.492188 225.046875 23.457031 231.386719 21.925781 238.148438 C 20.269531 245.546875 20.644531 253.164062 23.109375 260.367188 C 23.402344 261.019531 24.203125 261.328125 24.855469 261.039062 C 25.183594 260.925781 25.363281 260.695312 25.53125 260.394531 C 26.890625 256.558594 28.253906 252.71875 29.972656 248.972656 C 31.425781 245.8125 33.242188 242.8125 35.363281 240.046875 C 37.363281 237.367188 39.496094 234.671875 40.589844 231.417969 C 42.757812 224.78125 40.183594 217.796875 41.863281 211.085938 C 41.902344 210.875 41.875 210.671875 41.78125 210.476562 C 42.046875 209.335938 42.3125 208.195312 42.578125 207.054688 L 44.199219 199.9375 C 45.320312 202.691406 46.644531 205.417969 48.164062 208.050781 C 51.855469 214.613281 56.578125 220.625 62.085938 225.773438 C 65.078125 228.558594 68.164062 231.054688 70.734375 234.308594 C 73.070312 237.386719 75.027344 240.722656 76.660156 244.234375 C 76.945312 244.820312 77.609375 245.148438 78.203125 244.933594 C 78.824219 244.917969 79.378906 244.433594 79.4375 243.804688 C 79.558594 238.953125 79.003906 234.191406 77.703125 229.527344 C 74.351562 217.121094 66.261719 206.507812 55.25 199.941406 C 51.875 197.894531 48.074219 195.769531 46.34375 192.058594 C 46.257812 191.933594 46.171875 191.804688 46.097656 191.746094 L 52.679688 162.914062 L 53.109375 160.921875 C 54.332031 163.941406 55.566406 167.023438 56.984375 169.945312 C 60.378906 176.890625 65.046875 183.53125 71.5625 187.925781 C 74.667969 190.007812 78.011719 191.292969 81.484375 192.496094 C 84.746094 193.660156 88.023438 194.957031 90.550781 197.386719 C 90.78125 197.5625 91.003906 197.671875 91.273438 197.636719 C 92.070312 198.429688 93.730469 197.9375 93.484375 196.589844 C 92.78125 192.261719 91.40625 188.089844 89.386719 184.28125 C 85.71875 177.371094 80.199219 171.601562 73.472656 167.71875 C 69.894531 165.699219 65.960938 164.144531 62.777344 161.453125 C 60.0625 159.183594 57.8125 156.234375 54.40625 155.019531 L 57.652344 140.785156 C 58.363281 137.789062 59 134.738281 59.636719 131.683594 C 61.617188 134.671875 63.664062 137.648438 65.90625 140.53125 C 68.320312 143.667969 70.980469 146.566406 73.882812 149.222656 C 76.777344 151.8125 80.027344 153.945312 83.492188 155.628906 C 90.222656 159.03125 97.695312 161.230469 103.515625 166.128906 C 103.984375 166.550781 104.742188 166.523438 105.164062 166.050781 C 105.222656 165.976562 105.222656 165.976562 105.28125 165.898438 C 105.59375 165.648438 105.8125 165.207031 105.757812 164.800781 C 105.398438 159.945312 102.648438 155.816406 99.796875 151.976562 C 95.097656 145.617188 90.15625 139.011719 83.503906 134.632812 C 79.957031 132.335938 76.132812 130.558594 72.089844 129.222656 C 68.542969 127.960938 64.515625 126.210938 60.6875 127.054688 C 61.308594 124.417969 61.929688 121.78125 62.6875 119.128906 C 63.558594 115.769531 64.710938 112.441406 66.164062 109.28125 C 67.640625 106.324219 69.261719 103.417969 71.105469 100.621094 C 71.300781 100.527344 71.429688 100.441406 71.546875 100.289062 C 72.089844 101.804688 72.828125 103.226562 73.695312 104.5625 C 74.929688 106.613281 76.292969 108.574219 77.65625 110.539062 C 82.3125 117.109375 87.761719 123.371094 94.726562 127.5 C 96.445312 128.519531 98.296875 129.449219 100.1875 130.167969 C 102.074219 130.890625 104.007812 131.394531 105.9375 131.902344 C 109.585938 132.875 113.3125 133.90625 116.082031 136.582031 C 116.511719 137.214844 117.351562 137.3125 117.984375 136.886719 C 118.238281 136.714844 118.476562 136.40625 118.507812 136.125 C 119.429688 131.03125 116.726562 126.207031 113.542969 122.480469 C 110.449219 118.878906 106.96875 115.535156 103.6875 112.097656 L 93.605469 101.542969 C 92.082031 99.945312 90.542969 98.214844 88.539062 97.164062 C 86.921875 96.410156 85.136719 95.953125 83.335938 95.910156 C 80.34375 95.75 77.164062 96.238281 74.226562 95.449219 C 76.679688 90.980469 78.84375 86.417969 80.710938 81.683594 C 82.777344 76.371094 84.5625 71.027344 86.273438 65.621094 C 88.929688 69.554688 91.527344 73.566406 94.242188 77.425781 C 96.652344 81.046875 99.691406 84.238281 103.140625 86.824219 C 106.492188 89.21875 110.191406 91.082031 114.097656 92.433594 C 117.789062 93.746094 121.695312 94.546875 125.429688 95.644531 C 128.664062 96.605469 131.949219 97.96875 133.785156 100.90625 C 134.203125 101.472656 135.046875 101.570312 135.613281 101.148438 C 135.796875 100.988281 135.914062 100.832031 136.023438 100.613281 C 136.210938 100.449219 136.320312 100.226562 136.351562 99.945312 C 137.4375 95.039062 135.148438 90.230469 132.179688 86.542969 C 130.859375 84.921875 129.347656 83.390625 127.902344 81.855469 L 122.949219 76.703125 L 117.992188 71.550781 C 116.527344 69.878906 114.949219 68.359375 113.191406 67.070312 C 111.382812 65.925781 109.417969 65.144531 107.289062 64.734375 C 105.078125 64.195312 102.875 63.722656 100.664062 63.183594 L 87.921875 60.296875 L 94.210938 40.273438 L 96.460938 33.210938 C 98.433594 36.679688 100.722656 39.902344 103.320312 42.878906 C 106.253906 46.292969 109.5625 49.378906 113.171875 52.152344 C 116.839844 54.851562 120.664062 57.179688 124.78125 59.058594 C 132.734375 62.851562 141.347656 65.867188 147.890625 72.054688 C 148.277344 72.347656 148.835938 72.414062 149.21875 72.15625 C 149.835938 72.144531 150.113281 71.625 149.964844 71.023438 Z M 149.964844 71.023438 " fill-opacity="1" fill-rule="nonzero"/></g></g></g></g></g></g></g><g mask="url(#ef6e0d8d10)"><g transform="matrix(1, 0, 0, 1, 174, 252)"><g clip-path="url(#32eb4ea094)"><g clip-path="url(#76be5aaaf8)"><path fill="#ffffff" d="M 94.304688 117.582031 C 86.417969 117.515625 77.738281 116.710938 69.664062 117.007812 C 61.089844 117.339844 52.890625 120.199219 44.46875 121.542969 C 29.625 123.601562 16.058594 113.699219 8.136719 101.921875 C 2.308594 93.582031 0.140625 83.160156 1.300781 73.074219 C 1.511719 69.703125 2.898438 66.742188 4.152344 63.734375 C 5.824219 59.714844 7.6875 55.765625 10.402344 52.3125 C 19.332031 41.484375 31.957031 34.683594 42.613281 25.769531 C 43.65625 24.945312 44.378906 23.871094 44.988281 22.695312 C 48.3125 15.847656 51.757812 8.390625 59.0625 5.011719 C 70.953125 -1.589844 86.542969 0.3125 96.707031 9.367188 C 99.238281 11.675781 101.355469 14.378906 103.921875 16.636719 C 111.328125 23.503906 118.644531 31.863281 128.945312 34.046875 C 139.847656 34.984375 145.515625 26.882812 157.199219 30.566406 C 168.507812 33.542969 172.335938 46.695312 171.839844 57.179688 C 171 66.671875 167.1875 75.710938 162.089844 83.679688 C 145.539062 107.40625 123.085938 118.101562 94.304688 117.582031 Z M 94.304688 117.582031 " fill-opacity="1" fill-rule="nonzero"/></g></g></g></g><g mask="url(#6fd845b072)"><g transform="matrix(1, 0, 0, 1, 569, 0)"><g clip-path="url(#1a5328c86a)"><g clip-path="url(#f667e72242)"><path fill="#ffffff" d="M 93.882812 56.578125 C 85.992188 56.515625 77.3125 55.710938 69.238281 56.007812 C 60.664062 56.339844 52.464844 59.199219 44.042969 60.539062 C 29.199219 62.597656 15.632812 52.695312 7.710938 40.921875 C 1.882812 32.578125 -0.28125 22.160156 0.875 12.074219 C 1.085938 8.703125 2.476562 5.738281 3.726562 2.734375 C 5.398438 -1.285156 7.261719 -5.234375 9.976562 -8.6875 C 18.90625 -19.515625 31.53125 -26.316406 42.1875 -35.230469 C 43.230469 -36.054688 43.953125 -37.132812 44.5625 -38.304688 C 47.890625 -45.152344 51.335938 -52.613281 58.636719 -55.988281 C 70.527344 -62.59375 86.117188 -60.6875 96.28125 -51.632812 C 98.8125 -49.324219 100.929688 -46.621094 103.496094 -44.363281 C 110.902344 -37.5 118.21875 -29.140625 128.519531 -26.957031 C 139.421875 -26.015625 145.089844 -34.117188 156.777344 -30.433594 C 168.085938 -27.457031 171.910156 -14.308594 171.414062 -3.820312 C 170.574219 5.671875 166.761719 14.707031 161.664062 22.675781 C 145.113281 46.40625 122.660156 57.101562 93.882812 56.578125 Z M 93.882812 56.578125 " fill-opacity="1" fill-rule="nonzero"/></g></g></g></g></svg>