<svg xmlns="http://www.w3.org/2000/svg" xmlns:xlink="http://www.w3.org/1999/xlink" width="1366" zoomAndPan="magnify" viewBox="0 0 1024.5 449.999984" height="600" preserveAspectRatio="xMidYMid meet" version="1.0"><defs><clipPath id="91ffee88b6"><path d="M 0 0.109375 L 1024 0.109375 L 1024 449.890625 L 0 449.890625 Z M 0 0.109375 " clip-rule="nonzero"/></clipPath><clipPath id="e1139355d0"><path d="M 839.652344 45.109375 L 979.152344 45.109375 L 979.152344 155.359375 L 839.652344 155.359375 Z M 839.652344 45.109375 " clip-rule="nonzero"/></clipPath></defs><g clip-path="url(#91ffee88b6)"><path fill="#ffffff" d="M 0 0.109375 L 1024.5 0.109375 L 1024.5 457.609375 L 0 457.609375 Z M 0 0.109375 " fill-opacity="1" fill-rule="nonzero"/><path fill="#ffffff" d="M 0 0.109375 L 1024.5 0.109375 L 1024.5 450.109375 L 0 450.109375 Z M 0 0.109375 " fill-opacity="1" fill-rule="nonzero"/><path fill="#ffffff" d="M 0 0.109375 L 1024.5 0.109375 L 1024.5 450.109375 L 0 450.109375 Z M 0 0.109375 " fill-opacity="1" fill-rule="nonzero"/></g><path fill="#6509ef" d="M 846.355469 149.199219 L 846.355469 141.960938 C 856.558594 138.214844 864.554688 132.335938 870.339844 124.316406 C 876.128906 116.292969 879.019531 107.945312 879.019531 99.28125 C 879.019531 97.414062 878.722656 96.035156 878.132812 95.144531 C 877.742188 94.558594 877.300781 94.257812 876.808594 94.257812 C 876.320312 94.257812 875.582031 94.601562 874.601562 95.292969 C 871.464844 97.554688 867.492188 98.6875 862.679688 98.6875 C 857.085938 98.6875 852.140625 96.402344 847.820312 91.824219 C 843.503906 87.246094 841.347656 81.804688 841.347656 75.507812 C 841.347656 68.910156 843.828125 63.101562 848.78125 58.082031 C 853.738281 53.0625 859.746094 50.550781 866.808594 50.550781 C 875.046875 50.550781 882.160156 53.945312 888.148438 60.738281 C 894.132812 67.527344 897.125 76.636719 897.125 88.054688 C 897.125 101.34375 893.054688 113.257812 884.910156 123.792969 C 876.769531 134.332031 863.917969 142.796875 846.355469 149.199219 Z M 917.132812 149.199219 L 917.132812 141.960938 C 927.335938 138.214844 935.332031 132.335938 941.117188 124.316406 C 946.90625 116.292969 949.792969 107.945312 949.792969 99.28125 C 949.792969 97.414062 949.5 96.035156 948.910156 95.144531 C 948.519531 94.558594 948.078125 94.257812 947.585938 94.257812 C 947.09375 94.257812 946.355469 94.601562 945.378906 95.292969 C 942.238281 97.554688 938.269531 98.6875 933.457031 98.6875 C 927.863281 98.6875 922.917969 96.402344 918.597656 91.824219 C 914.28125 87.246094 912.125 81.804688 912.125 75.507812 C 912.125 68.910156 914.605469 63.101562 919.558594 58.082031 C 924.511719 53.0625 930.519531 50.550781 937.582031 50.550781 C 945.820312 50.550781 952.933594 53.945312 958.917969 60.738281 C 964.902344 67.527344 967.894531 76.636719 967.894531 88.054688 C 967.894531 101.34375 963.828125 113.257812 955.679688 123.792969 C 947.539062 134.332031 934.691406 142.796875 917.132812 149.199219 Z M 917.132812 149.199219 " fill-opacity="1" fill-rule="nonzero"/><g clip-path="url(#e1139355d0)"><path fill="#081d23" d="M 921.152344 155.359375 L 921.152344 143.945312 L 922.269531 143.53125 C 932.867188 139.644531 941.28125 133.460938 947.269531 125.152344 C 953.25 116.859375 956.28125 108.140625 956.28125 99.234375 C 956.28125 97.167969 955.921875 96.191406 955.617188 95.734375 C 955.574219 95.671875 955.539062 95.621094 955.511719 95.585938 C 955.316406 95.660156 954.910156 95.859375 954.21875 96.34375 C 950.566406 98.972656 945.921875 100.308594 940.417969 100.308594 C 933.949219 100.308594 928.152344 97.644531 923.195312 92.386719 C 918.265625 87.15625 915.769531 80.859375 915.769531 73.660156 C 915.769531 66.140625 918.625 59.425781 924.25 53.71875 C 929.890625 48.007812 936.816406 45.113281 944.847656 45.113281 C 954.175781 45.113281 962.328125 48.992188 969.070312 56.648438 C 975.757812 64.238281 979.152344 74.507812 979.152344 87.160156 C 979.152344 101.777344 974.613281 115.058594 965.660156 126.644531 C 961.1875 132.429688 955.355469 137.714844 948.316406 142.355469 C 941.332031 146.957031 932.960938 151.054688 923.433594 154.523438 Z M 924.554688 146.324219 L 924.554688 150.464844 C 941.894531 143.824219 954.8125 135.117188 962.972656 124.558594 C 971.449219 113.59375 975.75 101.011719 975.75 87.171875 C 975.75 75.375 972.644531 65.871094 966.523438 58.921875 C 960.371094 51.933594 953.28125 48.535156 944.851562 48.535156 C 937.664062 48.535156 931.71875 51.019531 926.671875 56.132812 C 921.625 61.25 919.171875 66.988281 919.171875 73.671875 C 919.171875 80.050781 921.296875 85.410156 925.667969 90.046875 C 930.015625 94.65625 934.84375 96.898438 940.417969 96.898438 C 945.199219 96.898438 949.179688 95.777344 952.242188 93.566406 L 952.265625 93.554688 C 953.660156 92.574219 954.695312 92.136719 955.613281 92.136719 C 956.390625 92.136719 957.515625 92.4375 958.453125 93.855469 C 959.285156 95.105469 959.6875 96.867188 959.6875 99.25 C 959.6875 108.890625 956.433594 118.285156 950.023438 127.171875 C 943.84375 135.734375 935.277344 142.175781 924.554688 146.324219 Z M 845.03125 155.359375 L 845.03125 143.945312 L 846.148438 143.53125 C 856.746094 139.644531 865.160156 133.460938 871.148438 125.152344 C 877.128906 116.859375 880.160156 108.140625 880.160156 99.234375 C 880.160156 97.167969 879.800781 96.191406 879.496094 95.734375 C 879.453125 95.671875 879.417969 95.621094 879.390625 95.585938 C 879.195312 95.660156 878.789062 95.859375 878.097656 96.339844 C 874.445312 98.96875 869.800781 100.304688 864.296875 100.304688 C 857.824219 100.304688 852.03125 97.640625 847.074219 92.382812 C 842.148438 87.160156 839.652344 80.859375 839.652344 73.667969 C 839.652344 66.140625 842.507812 59.429688 848.136719 53.722656 C 853.769531 48.011719 860.703125 45.117188 868.730469 45.117188 C 878.058594 45.117188 886.210938 49 892.953125 56.652344 C 899.640625 64.246094 903.035156 74.511719 903.035156 87.167969 C 903.035156 101.78125 898.496094 115.0625 889.542969 126.652344 C 885.070312 132.4375 879.238281 137.722656 872.203125 142.359375 C 865.214844 146.960938 856.84375 151.058594 847.320312 154.527344 Z M 848.433594 146.324219 L 848.433594 150.464844 C 865.773438 143.824219 878.691406 135.117188 886.851562 124.558594 C 895.328125 113.59375 899.628906 101.011719 899.628906 87.171875 C 899.628906 75.375 896.523438 65.871094 890.402344 58.921875 C 884.25 51.929688 877.160156 48.53125 868.730469 48.53125 C 861.542969 48.53125 855.597656 51.015625 850.554688 56.128906 C 845.507812 61.246094 843.054688 66.984375 843.054688 73.667969 C 843.054688 80.046875 845.183594 85.40625 849.554688 90.042969 C 853.898438 94.648438 858.726562 96.894531 864.300781 96.894531 C 869.082031 96.894531 873.0625 95.773438 876.128906 93.5625 L 876.148438 93.550781 C 877.546875 92.570312 878.578125 92.132812 879.496094 92.132812 C 880.273438 92.132812 881.398438 92.433594 882.335938 93.851562 C 883.167969 95.097656 883.570312 96.863281 883.570312 99.242188 C 883.570312 108.886719 880.316406 118.277344 873.90625 127.164062 C 867.722656 135.734375 859.160156 142.175781 848.433594 146.324219 Z M 879.546875 95.542969 Z M 879.546875 95.542969 " fill-opacity="1" fill-rule="nonzero"/></g></svg>