<svg xmlns="http://www.w3.org/2000/svg" xmlns:xlink="http://www.w3.org/1999/xlink" width="574" zoomAndPan="magnify" viewBox="0 0 430.5 221.249992" height="295" preserveAspectRatio="xMidYMid meet" version="1.0"><defs><clipPath id="055c5e3179"><path d="M 46.070312 63 L 83 63 L 83 119 L 46.070312 119 Z M 46.070312 63 " clip-rule="nonzero"/></clipPath><clipPath id="458ebd28e2"><path d="M 325 91 L 383.925781 91 L 383.925781 134 L 325 134 Z M 325 91 " clip-rule="nonzero"/></clipPath><clipPath id="a82df0be90"><path d="M 273 8.683594 L 306 8.683594 L 306 117 L 273 117 Z M 273 8.683594 " clip-rule="nonzero"/></clipPath><clipPath id="b168f23ecc"><path d="M 178 115 L 275 115 L 275 211.992188 L 178 211.992188 Z M 178 115 " clip-rule="nonzero"/></clipPath></defs><path fill="#cc1d00" d="M 76.855469 129.207031 C 80.246094 130.542969 84.375 126.769531 83.355469 123.265625 C 82.363281 119.851562 77.097656 118.847656 74.855469 121.539062 C 75.59375 120.417969 75.445312 117.558594 73.800781 115.972656 C 72.042969 114.277344 68.894531 114.351562 67.222656 116.128906 C 65.738281 117.699219 65.652344 120.351562 66.898438 122.09375 C 64.707031 120.070312 60.332031 120.90625 59.339844 123.832031 C 58.253906 127.03125 61.875 130.703125 65.085938 129.65625 C 62.523438 131.203125 62.449219 135.542969 64.949219 137.175781 C 67.449219 138.808594 71.386719 136.984375 71.773438 134.023438 C 72.460938 136.714844 76.390625 137.847656 78.40625 135.941406 C 80.421875 134.03125 79.507812 130.042969 76.855469 129.207031 Z M 73.53125 129.40625 C 71.953125 130.871094 68.921875 130.042969 68.300781 127.976562 C 67.679688 125.914062 69.886719 123.089844 72.488281 124.089844 C 74.503906 124.859375 75.109375 127.945312 73.53125 129.40625 Z M 73.53125 129.40625 " fill-opacity="1" fill-rule="nonzero"/><path fill="#7e7e45" d="M 178.421875 181.71875 C 178.113281 181.308594 177.5 181.28125 177.128906 181.644531 C 173.191406 185.464844 169.394531 192.183594 166.21875 197.8125 C 165.058594 199.863281 164.0625 201.640625 163.203125 202.996094 C 162.933594 203.421875 163.0625 203.980469 163.488281 204.25 C 163.914062 204.519531 164.472656 204.390625 164.742188 203.96875 C 165.625 202.578125 166.628906 200.78125 167.800781 198.710938 C 170.769531 193.453125 174.625 186.625 178.382812 182.960938 C 178.71875 182.628906 178.726562 182.109375 178.433594 181.738281 C 178.433594 181.738281 178.429688 181.730469 178.421875 181.726562 Z M 178.421875 181.71875 " fill-opacity="1" fill-rule="nonzero"/><path fill="#cc1d00" d="M 171.519531 190.539062 C 165.597656 186.847656 156.902344 192.691406 156.652344 193.25 C 155.855469 195.03125 159.273438 198.203125 163.40625 197.894531 C 161.457031 199.214844 159.867188 200.875 158.660156 202.902344 C 157.453125 204.925781 157.285156 207.78125 158.921875 209.472656 C 160.3125 210.910156 162.671875 211.105469 164.492188 210.269531 C 166.3125 209.433594 167.613281 207.734375 168.382812 205.882812 C 169.152344 204.035156 169.265625 203.476562 169.570312 201.496094 C 169.570312 201.496094 176.175781 208.765625 178.460938 204.8125 C 178.933594 203.988281 176.980469 193.925781 171.519531 190.523438 Z M 171.519531 190.539062 " fill-opacity="1" fill-rule="nonzero"/><g clip-path="url(#055c5e3179)"><path fill="#7e7e45" d="M 73.429688 66.332031 C 72.210938 66.628906 71.214844 67.570312 70.59375 68.660156 C 69.972656 69.761719 69.6875 71.011719 69.488281 72.257812 C 68.859375 76.1875 69.027344 80.234375 69.964844 84.101562 C 67.96875 81.355469 65.785156 78.757812 63.414062 76.328125 C 62.003906 71.183594 58.605469 66.777344 54.082031 64.289062 C 52.960938 63.675781 51.753906 63.160156 50.480469 63.113281 C 49.207031 63.066406 47.859375 63.554688 47.128906 64.597656 C 46.050781 66.136719 46.625 68.289062 47.589844 69.910156 C 49.238281 72.671875 51.875 74.742188 54.769531 76.144531 C 57.140625 77.300781 59.691406 78.035156 62.273438 78.613281 C 68.039062 84.660156 72.65625 91.792969 75.859375 99.515625 C 71.496094 95.402344 66.957031 91.292969 61.296875 89.507812 C 60.195312 89.15625 59.03125 88.898438 57.890625 89.0625 C 56.746094 89.214844 55.617188 89.851562 55.121094 90.898438 C 54.652344 91.867188 54.800781 93.042969 55.292969 94 C 55.785156 94.953125 56.589844 95.714844 57.433594 96.375 C 62.683594 100.480469 69.75 101.273438 76.4375 100.972656 C 78.433594 106.113281 79.816406 111.5 80.484375 116.972656 C 80.566406 117.632812 81.164062 118.105469 81.824219 118.023438 C 82.140625 117.984375 82.417969 117.828125 82.609375 117.597656 C 82.808594 117.347656 82.917969 117.023438 82.878906 116.679688 C 81.589844 106.175781 77.808594 96.011719 72.042969 87.136719 C 74.617188 84.554688 76.800781 80.746094 78.183594 76.65625 C 78.925781 74.457031 79.4375 72.035156 78.71875 69.828125 C 78.003906 67.617188 75.683594 65.785156 73.429688 66.339844 Z M 73.429688 66.332031 " fill-opacity="1" fill-rule="nonzero"/></g><g clip-path="url(#458ebd28e2)"><path fill="#7e7e45" d="M 326.996094 117.199219 C 333.957031 117.808594 340.976562 117.148438 347.691406 115.359375 C 345.441406 110.507812 345.488281 103.765625 347.960938 97.886719 C 348.773438 95.957031 349.878906 94.066406 351.476562 92.800781 C 353.074219 91.53125 355.230469 91.011719 356.796875 91.921875 C 357.960938 92.605469 358.648438 93.988281 358.832031 95.457031 C 359.011719 96.929688 358.742188 98.488281 358.320312 99.984375 C 356.707031 105.613281 353.011719 110.40625 349.242188 114.925781 C 354.664062 113.328125 359.871094 110.992188 364.65625 107.984375 C 367.152344 102.199219 370.386719 96.667969 375.753906 93.894531 C 377.863281 92.800781 380.714844 92.308594 382.429688 93.953125 C 383.765625 95.242188 383.871094 97.367188 383.414062 99.167969 C 382.421875 103.0625 379.246094 106.140625 375.59375 107.8125 C 372.511719 109.222656 369.113281 109.742188 365.714844 109.90625 C 358.703125 114.296875 350.839844 117.300781 342.691406 118.707031 C 347.59375 119.542969 352.5625 121.011719 357.320312 122.996094 C 359.847656 124.050781 362.675781 125.757812 362.800781 128.496094 C 362.929688 131.15625 360.160156 133.242188 357.503906 133.308594 C 354.847656 133.382812 352.378906 132.003906 350.152344 130.546875 C 345.71875 127.640625 341.464844 124.003906 339.3125 119.191406 C 335.171875 119.675781 330.984375 119.75 326.8125 119.386719 C 326.578125 119.367188 326.367188 119.273438 326.207031 119.136719 C 325.941406 118.914062 325.789062 118.570312 325.820312 118.207031 C 325.875 117.605469 326.40625 117.152344 327.007812 117.207031 Z M 326.996094 117.199219 " fill-opacity="1" fill-rule="nonzero"/></g><path fill="#7e7e45" d="M 216.535156 68.371094 C 216.535156 68.371094 216.480469 68.386719 216.453125 68.386719 C 215.996094 68.445312 215.578125 68.121094 215.519531 67.667969 C 214.332031 58.675781 216.097656 53.640625 220.128906 45.042969 C 220.324219 44.625 220.824219 44.449219 221.234375 44.644531 C 221.652344 44.839844 221.828125 45.339844 221.632812 45.75 C 217.742188 54.046875 216.03125 58.890625 217.164062 67.453125 C 217.214844 67.886719 216.941406 68.277344 216.527344 68.378906 Z M 216.535156 68.371094 " fill-opacity="1" fill-rule="nonzero"/><path fill="#cc1d00" d="M 215.894531 59.714844 C 213.359375 59.160156 209.261719 56.65625 207.601562 51.546875 C 206.402344 47.855469 213.992188 45.859375 215.066406 49.167969 C 215.046875 45.839844 216.792969 42.554688 219.5625 40.71875 C 222.335938 38.882812 225.691406 39.625 225.914062 43.992188 C 226.0625 46.804688 224.945312 49.660156 222.925781 51.621094 C 227.445312 49.492188 231.882812 52.925781 230.601562 54.988281 C 226.265625 61.988281 219.550781 60.511719 215.886719 59.707031 Z M 215.894531 59.714844 " fill-opacity="1" fill-rule="nonzero"/><path fill="#7e7e45" d="M 233.015625 157.265625 C 233.015625 157.265625 233.0625 157.269531 233.082031 157.277344 C 233.453125 157.324219 233.789062 157.066406 233.84375 156.695312 C 234.839844 149.402344 233.417969 145.320312 230.183594 138.335938 C 230.027344 138 229.621094 137.847656 229.285156 138.003906 C 228.949219 138.160156 228.800781 138.566406 228.953125 138.902344 C 232.082031 145.636719 233.453125 149.570312 232.507812 156.507812 C 232.460938 156.851562 232.683594 157.175781 233.019531 157.257812 Z M 233.015625 157.265625 " fill-opacity="1" fill-rule="nonzero"/><path fill="#cc1d00" d="M 233.566406 150.246094 C 235.625 149.808594 238.960938 147.789062 240.324219 143.652344 C 241.308594 140.664062 235.15625 139.015625 234.28125 141.695312 C 234.308594 138.996094 232.898438 136.332031 230.660156 134.832031 C 228.421875 133.335938 225.691406 133.929688 225.496094 137.464844 C 225.367188 139.746094 226.265625 142.066406 227.894531 143.667969 C 224.242188 141.925781 220.628906 144.691406 221.660156 146.371094 C 225.152344 152.0625 230.601562 150.886719 233.574219 150.246094 Z M 233.566406 150.246094 " fill-opacity="1" fill-rule="nonzero"/><path fill="#fba88a" d="M 93.867188 65.421875 L 99.976562 65.140625 L 99.707031 115.316406 L 85.910156 115.25 L 86.179688 65.78125 L 93.097656 65.457031 Z M 93.867188 65.421875 " fill-opacity="1" fill-rule="nonzero"/><path fill="#fba88a" d="M 100.078125 46.246094 L 99.996094 61.03125 L 93.886719 61.257812 L 93.113281 61.285156 L 86.199219 61.542969 L 86.308594 46.542969 Z M 100.078125 46.246094 " fill-opacity="1" fill-rule="nonzero"/><path fill="#fba88a" d="M 155.511719 74.167969 C 153.039062 67.785156 147.402344 62.953125 140.800781 61.554688 C 136.523438 60.660156 128.117188 60.46875 119.175781 68.992188 L 118.832031 63.953125 L 105.074219 64.894531 L 108.539062 115.363281 L 122.300781 114.421875 L 120.828125 92.996094 C 122.703125 87.347656 125.527344 82.144531 128.246094 79.425781 C 131.65625 76.011719 135.101562 74.457031 137.960938 75.066406 C 140.019531 75.496094 141.863281 77.101562 142.660156 79.160156 C 146.003906 87.800781 144.089844 97.894531 142.230469 107.660156 C 141.964844 109.046875 141.703125 110.433594 141.453125 111.800781 L 155.027344 114.257812 C 155.269531 112.9375 155.519531 111.59375 155.773438 110.242188 C 157.890625 99.117188 160.292969 86.503906 155.519531 74.175781 Z M 155.511719 74.167969 " fill-opacity="1" fill-rule="nonzero"/><path fill="#fba88a" d="M 272.585938 103.765625 C 264.285156 93.386719 265.28125 78.519531 266.335938 62.777344 C 266.410156 61.664062 266.484375 60.542969 266.554688 59.429688 L 252.789062 58.546875 C 252.753906 59.058594 252.722656 59.578125 252.6875 60.097656 C 242.128906 56.636719 231.226562 59.640625 224.917969 68.40625 C 221.105469 73.703125 219.726562 80.667969 221.121094 87.523438 C 222.515625 94.378906 226.515625 100.25 232.089844 103.625 C 235.683594 105.804688 239.890625 106.921875 244.226562 106.921875 C 246.613281 106.921875 249.039062 106.585938 251.425781 105.898438 C 253.21875 105.378906 254.925781 104.675781 256.523438 103.824219 C 257.886719 106.796875 259.617188 109.664062 261.808594 112.394531 L 272.585938 103.773438 Z M 247.609375 92.625 C 244.582031 93.5 241.53125 93.203125 239.238281 91.808594 C 236.945312 90.417969 235.265625 87.847656 234.640625 84.753906 C 234.011719 81.664062 234.542969 78.640625 236.117188 76.460938 C 239.417969 71.875 245.835938 71.238281 251.890625 74.824219 C 251.769531 79.875 251.890625 84.890625 252.578125 89.777344 C 251.292969 91.058594 249.585938 92.050781 247.617188 92.617188 Z M 247.609375 92.625 " fill-opacity="1" fill-rule="nonzero"/><path fill="#ffa000" d="M 318.011719 208.441406 C 302.425781 202.921875 291.394531 190.558594 286.964844 173.621094 C 283.378906 159.910156 282.386719 145.699219 281.421875 131.957031 C 281.125 127.6875 280.84375 123.652344 280.484375 119.617188 L 294.226562 118.402344 C 294.597656 122.566406 294.894531 126.855469 295.183594 131 C 296.101562 144.113281 297.046875 157.660156 300.308594 170.125 C 303.542969 182.496094 311.46875 191.484375 322.613281 195.425781 Z M 318.011719 208.441406 " fill-opacity="1" fill-rule="nonzero"/><path fill="#ffa000" d="M 333.65625 189.808594 C 329.625 189.808594 325.597656 188.992188 321.910156 187.292969 C 311.488281 182.507812 304.609375 171.164062 305.175781 159.707031 C 305.796875 147.296875 313.246094 136.898438 323.710938 133.828125 C 328.667969 132.371094 333.589844 132.992188 337.566406 135.574219 C 341.605469 138.199219 344.292969 142.574219 344.960938 147.558594 C 345.933594 154.839844 342.332031 162.515625 335.570312 167.582031 C 332.773438 169.671875 328.882812 171.46875 324.824219 172.988281 C 325.699219 173.683594 326.648438 174.277344 327.660156 174.742188 C 332.996094 177.191406 339.953125 176.023438 344.207031 171.972656 L 353.71875 181.976562 C 348.359375 187.082031 341.003906 189.808594 333.664062 189.808594 Z M 328.914062 146.859375 C 328.53125 146.859375 328.085938 146.933594 327.59375 147.074219 C 322.003906 148.714844 319.226562 154.941406 318.957031 160.394531 C 318.957031 160.410156 318.957031 160.421875 318.957031 160.433594 C 322.957031 159.003906 325.753906 157.703125 327.3125 156.535156 C 329.953125 154.558594 331.59375 151.621094 331.296875 149.394531 C 331.167969 148.445312 330.683594 147.566406 330.054688 147.15625 C 329.75 146.960938 329.375 146.859375 328.921875 146.859375 Z M 328.914062 146.859375 " fill-opacity="1" fill-rule="nonzero"/><g clip-path="url(#a82df0be90)"><path fill="#fba88a" d="M 300.34375 116.789062 C 285.132812 110.332031 274.40625 94.269531 274.261719 77.730469 L 273.667969 9.070312 L 287.464844 8.949219 L 288.058594 77.609375 C 288.152344 88.816406 295.421875 99.703125 305.730469 104.074219 L 300.34375 116.78125 Z M 300.34375 116.789062 " fill-opacity="1" fill-rule="nonzero"/></g><path fill="#fba88a" d="M 320.671875 99.90625 C 318.214844 99.90625 315.75 99.554688 313.347656 98.8125 C 301.414062 95.128906 293.472656 82.550781 295.257812 70.179688 C 297.09375 57.507812 307.144531 47.980469 319.167969 47.527344 C 324.964844 47.3125 330.667969 50.332031 333.324219 55.070312 C 335.738281 59.371094 335.414062 64.410156 332.449219 68.898438 C 328.707031 74.550781 322.375 79.453125 313.578125 83.519531 C 314.714844 84.464844 316.019531 85.195312 317.414062 85.625 C 322.835938 87.300781 329.523438 84.40625 332.015625 79.304688 L 344.410156 85.371094 C 340.027344 94.339844 330.441406 99.917969 320.671875 99.917969 Z M 319.757812 61.320312 C 319.757812 61.320312 319.710938 61.320312 319.691406 61.320312 C 314.992188 61.496094 310.804688 65.207031 309.328125 70.234375 C 314.691406 67.570312 318.632812 64.585938 320.757812 61.542969 C 320.460938 61.414062 320.105469 61.320312 319.753906 61.320312 Z M 319.757812 61.320312 " fill-opacity="1" fill-rule="nonzero"/><path fill="#ffa000" d="M 116.640625 191.78125 C 101.425781 191.78125 86.660156 181.902344 81.402344 167.40625 C 75.199219 150.292969 82.882812 129.691406 98.183594 122.421875 C 106.773438 118.339844 112.773438 120.835938 115.582031 122.6875 C 120.148438 125.691406 122.746094 131.136719 122.523438 137.25 C 122.191406 146.488281 117.550781 154.679688 110.109375 159.160156 C 105.300781 162.0625 100.105469 163.503906 95.101562 164.472656 C 99.402344 173.566406 110.230469 179.398438 120.183594 177.664062 L 122.546875 191.265625 C 120.578125 191.613281 118.605469 191.773438 116.636719 191.773438 Z M 107.175781 134.042969 C 106.453125 134.042969 105.390625 134.285156 104.101562 134.902344 C 98.5 137.558594 94.589844 143.847656 93.421875 150.730469 C 96.902344 150.007812 100.226562 149.019531 103.003906 147.335938 C 106.378906 145.300781 108.585938 141.242188 108.742188 136.757812 C 108.789062 135.378906 108.398438 134.476562 108.003906 134.21875 C 107.832031 134.105469 107.546875 134.035156 107.167969 134.035156 Z M 107.175781 134.042969 " fill-opacity="1" fill-rule="nonzero"/><path fill="#ffa000" d="M 173.417969 136.289062 L 161.761719 128.910156 L 149.828125 147.78125 C 145.808594 143.503906 141.542969 139.449219 137.03125 135.628906 L 128.125 146.171875 C 133.148438 150.421875 137.839844 155.003906 142.183594 159.875 L 127.050781 183.804688 L 138.710938 191.1875 L 151.3125 171.253906 C 154.425781 175.589844 157.304688 180.113281 159.933594 184.808594 L 171.976562 178.074219 C 168.195312 171.292969 163.917969 164.847656 159.207031 158.769531 Z M 173.417969 136.289062 " fill-opacity="1" fill-rule="nonzero"/><g clip-path="url(#b168f23ecc)"><path fill="#ffa000" d="M 267.21875 195.796875 C 264.292969 197.5625 253.367188 199.871094 243.714844 195.09375 C 235.089844 190.828125 229.992188 182.0625 228.558594 169.046875 C 226.84375 153.445312 218.039062 148.695312 210.960938 147.453125 C 206.125 146.601562 201.40625 147.335938 197.21875 149.394531 C 196.003906 137.679688 194.105469 126.242188 191.507812 115.136719 L 178.078125 118.28125 C 184.160156 144.289062 186.269531 172.277344 184.355469 201.476562 L 198.121094 202.382812 C 198.925781 190.195312 199.039062 178.203125 198.5 166.449219 C 200.605469 163.058594 204.074219 160.265625 208.585938 161.050781 C 210.574219 161.398438 213.90625 161.980469 214.851562 170.550781 C 217.316406 192.976562 228.585938 203.003906 237.597656 207.46875 C 243.835938 210.558594 250.449219 211.742188 256.46875 211.742188 C 263.972656 211.742188 270.5625 209.898438 274.34375 207.617188 Z M 267.21875 195.796875 " fill-opacity="1" fill-rule="nonzero"/></g><path fill="#fba88a" d="M 251.519531 115.191406 C 246.019531 116.679688 234.53125 116.648438 225.449219 110.417969 C 217.925781 105.261719 213.507812 96.875 212.320312 85.503906 C 210.144531 64.679688 200.285156 58.578125 192.410156 57.128906 C 186.410156 56.027344 180.625 57.292969 175.792969 60.367188 C 173.730469 44.800781 170.417969 29.394531 165.828125 14.246094 L 152.625 18.253906 C 161.824219 48.625 165.71875 80.097656 164.195312 111.800781 L 177.976562 112.464844 C 178.503906 101.566406 178.402344 90.695312 177.714844 79.875 C 179.34375 74.527344 183.714844 69.566406 189.925781 70.707031 C 194.648438 71.578125 197.570312 77.035156 198.609375 86.941406 C 200.636719 106.347656 210.089844 116.613281 217.660156 121.808594 C 226.027344 127.546875 235.917969 129.832031 244.503906 129.832031 C 248.414062 129.832031 252.054688 129.359375 255.148438 128.515625 L 251.535156 115.191406 Z M 251.519531 115.191406 " fill-opacity="1" fill-rule="nonzero"/><path fill="#ffa000" d="M 285.597656 189.457031 C 278.207031 179.492188 278.707031 166.839844 279.285156 152.1875 C 279.367188 150.089844 279.453125 147.972656 279.515625 145.824219 L 265.726562 145.421875 C 265.679688 146.980469 265.621094 148.519531 265.558594 150.058594 C 260.402344 147.976562 254.5625 147.351562 249.234375 149.523438 C 239.257812 153.59375 235.152344 164.195312 235.507812 172.890625 C 235.917969 182.898438 244.441406 191.394531 254.125 191.441406 C 254.183594 191.441406 254.238281 191.441406 254.292969 191.441406 C 259.4375 191.441406 264.507812 190.253906 269.097656 188.054688 C 270.433594 191.347656 272.191406 194.566406 274.511719 197.691406 L 285.589844 189.464844 Z M 254.292969 177.636719 L 254.199219 177.636719 C 251.871094 177.621094 249.398438 174.945312 249.289062 172.324219 C 249.160156 169.195312 250.429688 163.9375 254.433594 162.304688 C 257.082031 161.226562 261.808594 162.777344 265.207031 165.839844 C 265.253906 168.632812 265.402344 171.394531 265.714844 174.121094 C 262.355469 176.359375 258.304688 177.636719 254.292969 177.636719 Z M 254.292969 177.636719 " fill-opacity="1" fill-rule="nonzero"/><path fill="#ffecdc" d="M 93.382812 68.0625 C 93.265625 68.0625 93.171875 68.039062 93.066406 68.027344 C 93.011719 74.085938 92.890625 80.121094 92.761719 86.058594 C 92.585938 94.433594 92.398438 103.078125 92.410156 111.585938 L 93.171875 111.585938 C 93.160156 103.082031 93.347656 94.4375 93.523438 86.070312 C 93.652344 80.125 93.78125 74.082031 93.839844 68.015625 C 93.691406 68.035156 93.542969 68.0625 93.382812 68.0625 Z M 93.382812 68.0625 " fill-opacity="1" fill-rule="nonzero"/><path fill="#ffecdc" d="M 93.214844 49.1875 C 93.117188 49.1875 93.03125 49.167969 92.945312 49.160156 C 93.03125 52.34375 93.085938 55.535156 93.105469 58.726562 C 93.253906 58.703125 93.410156 58.679688 93.578125 58.679688 C 93.683594 58.679688 93.78125 58.703125 93.878906 58.707031 C 93.867188 55.507812 93.804688 52.316406 93.71875 49.132812 C 93.558594 49.160156 93.394531 49.179688 93.21875 49.179688 Z M 93.214844 49.1875 " fill-opacity="1" fill-rule="nonzero"/><path fill="#ffecdc" d="M 111.8125 68.175781 L 112.570312 68.125 L 115.488281 110.625 L 114.730469 110.675781 Z M 111.8125 68.175781 " fill-opacity="1" fill-rule="nonzero"/><path fill="#ffecdc" d="M 149.402344 108.847656 L 148.648438 108.738281 C 150.023438 101.511719 151.445312 94.066406 150.886719 86.679688 C 150.367188 79.828125 147.859375 73.953125 144.171875 70.949219 C 141.628906 68.878906 138.527344 68.066406 134.949219 68.535156 C 122.035156 70.21875 116.027344 86.085938 114.046875 92.828125 L 113.3125 92.609375 C 115.335938 85.726562 121.488281 69.519531 134.847656 67.769531 C 138.640625 67.277344 141.9375 68.140625 144.648438 70.347656 C 150.199219 74.863281 151.390625 83.230469 151.648438 86.617188 C 152.214844 94.109375 150.785156 101.597656 149.402344 108.839844 Z M 149.402344 108.847656 " fill-opacity="1" fill-rule="nonzero"/><path fill="#ffecdc" d="M 244.921875 100.660156 C 241.597656 100.660156 238.3125 99.769531 235.46875 98.042969 C 231.441406 95.601562 228.535156 91.292969 227.503906 86.214844 C 226.472656 81.132812 227.457031 76.03125 230.210938 72.210938 C 232.648438 68.816406 236.601562 66.535156 241.339844 65.785156 C 247.410156 64.828125 253.847656 66.441406 258.976562 70.214844 L 258.527344 70.828125 C 253.632812 67.230469 247.253906 65.625 241.460938 66.542969 C 236.929688 67.257812 233.15625 69.429688 230.828125 72.65625 C 228.207031 76.308594 227.261719 81.191406 228.261719 86.058594 C 229.25 90.921875 232.023438 95.054688 235.871094 97.386719 C 240.027344 99.90625 245.144531 100.558594 249.910156 99.191406 C 254.238281 97.941406 257.664062 95.175781 259.550781 91.394531 L 260.230469 91.738281 C 258.242188 95.707031 254.648438 98.617188 250.117188 99.925781 C 248.414062 100.417969 246.667969 100.660156 244.925781 100.660156 Z M 244.921875 100.660156 " fill-opacity="1" fill-rule="nonzero"/><path fill="#ffecdc" d="M 264.433594 104.789062 C 256.910156 92.488281 258 77.175781 258.964844 63.675781 L 259 63.222656 L 259.761719 63.277344 L 259.726562 63.730469 C 258.769531 77.117188 257.683594 92.292969 265.085938 104.394531 Z M 264.433594 104.789062 " fill-opacity="1" fill-rule="nonzero"/><path fill="#ffecdc" d="M 316.4375 200.769531 C 291.699219 188.992188 289.90625 161.023438 288.328125 136.34375 C 288.023438 131.558594 287.734375 127.046875 287.289062 122.707031 L 288.050781 122.625 C 288.496094 126.984375 288.785156 131.507812 289.089844 136.296875 C 290.652344 160.765625 292.433594 188.5 316.765625 200.082031 Z M 316.4375 200.769531 " fill-opacity="1" fill-rule="nonzero"/><path fill="#ffecdc" d="M 333.84375 183.257812 C 328.472656 183.257812 323.15625 181.382812 319.144531 177.71875 C 312.769531 171.894531 310.238281 162.992188 312.558594 154.484375 C 314.683594 146.695312 321.453125 138.835938 329.832031 139.609375 C 334.304688 140.027344 336.394531 142.667969 337.351562 144.808594 C 339.15625 148.835938 338.421875 154.550781 335.597656 158.402344 C 330.972656 164.707031 322.710938 167.128906 315.425781 169.269531 L 314.292969 169.597656 C 315.503906 172.421875 317.3125 174.996094 319.664062 177.144531 C 326.582031 183.460938 337.511719 184.269531 345.65625 179.066406 L 346.066406 179.714844 C 342.351562 182.082031 338.078125 183.25 333.84375 183.25 Z M 328.6875 140.332031 C 321.230469 140.332031 315.25 147.546875 313.300781 154.691406 C 311.984375 159.523438 312.28125 164.484375 314 168.902344 L 315.207031 168.546875 C 322.382812 166.441406 330.515625 164.050781 334.984375 157.964844 C 337.652344 154.320312 338.363281 148.929688 336.65625 145.136719 C 335.78125 143.179688 333.871094 140.773438 329.765625 140.386719 C 329.402344 140.351562 329.042969 140.339844 328.6875 140.339844 Z M 328.6875 140.332031 " fill-opacity="1" fill-rule="nonzero"/><path fill="#ffecdc" d="M 299.304688 109.183594 C 290.085938 104.589844 283.324219 94.984375 281.660156 84.136719 C 279.777344 64.699219 279.953125 44.902344 280.121094 25.75 C 280.164062 21.417969 280.195312 17.078125 280.214844 12.734375 L 280.976562 12.734375 C 280.964844 17.085938 280.925781 21.425781 280.882812 25.757812 C 280.714844 44.882812 280.539062 64.660156 282.414062 84.035156 C 284.046875 94.621094 290.648438 104.007812 299.640625 108.496094 L 299.304688 109.175781 Z M 299.304688 109.183594 " fill-opacity="1" fill-rule="nonzero"/><path fill="#ffecdc" d="M 320.597656 93.3125 C 317.636719 93.3125 314.703125 92.644531 312.101562 91.246094 C 304.851562 87.355469 300.835938 78.925781 302.09375 70.269531 C 303.289062 62.070312 308.851562 55.976562 316.605469 54.382812 C 320.757812 53.527344 324.453125 54.476562 326.71875 56.996094 C 329.257812 59.816406 328.808594 63.417969 325.402344 67.425781 C 319.699219 74.140625 310.949219 77.90625 303.863281 80.4375 C 305.296875 84.480469 308.0625 88.21875 312.457031 90.578125 C 319.914062 94.585938 330.148438 92.332031 335.753906 85.449219 L 336.347656 85.9375 C 332.46875 90.695312 326.460938 93.320312 320.589844 93.320312 Z M 319.511719 54.835938 C 318.628906 54.835938 317.703125 54.929688 316.757812 55.125 C 309.328125 56.65625 303.996094 62.5 302.851562 70.375 C 302.425781 73.296875 302.632812 76.570312 303.617188 79.703125 C 310.617188 77.203125 319.242188 73.5 324.824219 66.925781 C 327 64.363281 328.996094 60.652344 326.152344 57.5 C 324.574219 55.753906 322.234375 54.835938 319.511719 54.835938 Z M 319.511719 54.835938 " fill-opacity="1" fill-rule="nonzero"/><path fill="#ffecdc" d="M 116.695312 185.253906 C 106.375 185.253906 96.105469 179.679688 90.410156 170.929688 C 85.601562 163.546875 84.476562 153.753906 87.394531 144.726562 C 89.984375 136.714844 96.933594 127.695312 106.0625 126.816406 C 109.578125 126.480469 112.3125 127.597656 113.984375 130.0625 C 116.796875 134.191406 116.070312 141.398438 113.75 145.980469 C 108.734375 155.859375 97.320312 157.59375 87.253906 159.125 L 86.875 159.1875 C 87.457031 163.269531 88.863281 167.15625 91.054688 170.515625 C 96.726562 179.222656 107.015625 184.726562 117.289062 184.492188 L 117.304688 185.253906 C 117.101562 185.253906 116.898438 185.253906 116.703125 185.253906 Z M 107.285156 127.519531 C 106.914062 127.519531 106.527344 127.539062 106.136719 127.578125 C 97.351562 128.421875 90.644531 137.179688 88.121094 144.960938 C 86.691406 149.394531 86.253906 154.011719 86.773438 158.425781 L 87.136719 158.371094 C 97.023438 156.867188 108.226562 155.164062 113.070312 145.636719 C 115.292969 141.257812 116.007812 134.394531 113.359375 130.5 C 112.015625 128.53125 109.972656 127.53125 107.289062 127.53125 Z M 107.285156 127.519531 " fill-opacity="1" fill-rule="nonzero"/><path fill="#ffecdc" d="M 163.304688 177.628906 C 155.671875 164.917969 146.179688 153.464844 135.097656 143.59375 L 135.601562 143.019531 C 146.746094 152.945312 156.285156 164.457031 163.960938 177.238281 Z M 163.304688 177.628906 " fill-opacity="1" fill-rule="nonzero"/><path fill="#ffecdc" d="M 135.105469 183.238281 L 164.71875 136.464844 L 165.363281 136.871094 L 135.75 183.648438 Z M 135.105469 183.238281 " fill-opacity="1" fill-rule="nonzero"/><path fill="#ffecdc" d="M 191.898438 197.28125 L 191.136719 197.226562 C 192.730469 174.511719 190.914062 150.933594 185.25 120.777344 L 186 120.636719 C 191.671875 150.851562 193.492188 174.492188 191.894531 197.28125 Z M 191.898438 197.28125 " fill-opacity="1" fill-rule="nonzero"/><path fill="#ffecdc" d="M 254.300781 184.917969 L 254.15625 184.917969 C 247.953125 184.882812 242.285156 179.140625 242.015625 172.621094 C 241.757812 166.402344 244.679688 158.402344 251.691406 155.554688 C 258.015625 152.984375 264.769531 155.070312 272.339844 161.933594 L 271.828125 162.5 C 264.492188 155.859375 257.992188 153.824219 251.972656 156.265625 C 245.304688 158.976562 242.527344 166.628906 242.777344 172.589844 C 243.027344 178.714844 248.347656 184.121094 254.15625 184.148438 L 254.292969 184.148438 C 261.222656 184.148438 267.601562 181.382812 272.746094 176.144531 L 273.292969 176.679688 C 268 182.0625 261.433594 184.910156 254.292969 184.910156 Z M 254.300781 184.917969 " fill-opacity="1" fill-rule="nonzero"/><path fill="#ffecdc" d="M 256.632812 205.234375 C 254.507812 205.234375 252.355469 205.058594 250.214844 204.710938 C 236.984375 202.535156 226.8125 192.875 222.996094 178.871094 C 222.429688 176.800781 222.097656 174.574219 221.746094 172.210938 C 220.777344 165.671875 219.773438 158.910156 213.550781 155.847656 C 210.003906 154.097656 206.1875 153.875 202.511719 155.199219 C 198.023438 156.820312 194.03125 160.699219 191.84375 165.578125 L 191.152344 165.265625 C 193.417969 160.207031 197.570312 156.171875 202.253906 154.484375 C 206.125 153.085938 210.152344 153.324219 213.886719 155.164062 C 220.464844 158.402344 221.503906 165.367188 222.503906 172.101562 C 222.851562 174.4375 223.175781 176.644531 223.730469 178.675781 C 227.464844 192.386719 237.410156 201.839844 250.335938 203.960938 C 255.789062 204.859375 261.277344 204.582031 266.207031 203.175781 L 266.414062 203.914062 C 263.320312 204.796875 260.011719 205.242188 256.625 205.242188 Z M 256.632812 205.234375 " fill-opacity="1" fill-rule="nonzero"/><path fill="#ffecdc" d="M 171.632812 108.089844 L 170.871094 108.050781 C 172.292969 80.570312 168.632812 51.015625 160 20.195312 L 160.738281 19.988281 C 169.386719 50.886719 173.054688 80.523438 171.632812 108.082031 Z M 171.632812 108.089844 " fill-opacity="1" fill-rule="nonzero"/><path fill="#ffecdc" d="M 244.355469 123.3125 C 239.863281 123.3125 235.300781 122.578125 230.921875 121.132812 C 216.386719 116.335938 207.183594 103.757812 205.019531 85.714844 C 203.507812 73.140625 198.945312 65.960938 191.441406 64.363281 C 183.816406 62.742188 174.113281 67.351562 171.152344 79.09375 L 170.410156 78.90625 C 171.617188 74.132812 174.382812 69.753906 178.011719 66.898438 C 182.054688 63.714844 186.75 62.582031 191.597656 63.605469 C 199.449219 65.273438 204.21875 72.683594 205.773438 85.613281 C 207.90625 103.347656 216.921875 115.703125 231.160156 120.398438 C 237.222656 122.398438 243.640625 123.011719 249.722656 122.175781 L 249.824219 122.929688 C 248.023438 123.179688 246.1875 123.300781 244.347656 123.300781 Z M 244.355469 123.3125 " fill-opacity="1" fill-rule="nonzero"/><path fill="#ffecdc" d="M 277.34375 190.085938 C 270.90625 178.636719 271.457031 165.292969 271.992188 152.398438 L 272.097656 149.78125 L 272.859375 149.808594 L 272.753906 152.433594 C 272.21875 165.226562 271.675781 178.453125 278.011719 189.714844 L 277.34375 190.09375 Z M 277.34375 190.085938 " fill-opacity="1" fill-rule="nonzero"/><path fill="#cc1d00" d="M 326.785156 121.242188 C 330.164062 123.414062 335.441406 120.230469 335.097656 116.230469 C 334.761719 112.320312 329.285156 110.101562 326.273438 112.515625 C 327.316406 111.464844 327.777344 108.339844 326.339844 106.269531 C 324.804688 104.054688 321.382812 103.460938 319.1875 105.019531 C 317.238281 106.402344 316.578125 109.25 317.546875 111.402344 C 315.613281 108.738281 310.703125 108.699219 308.992188 111.652344 C 307.132812 114.878906 310.253906 119.628906 313.949219 119.191406 C 310.847656 120.304688 309.820312 124.988281 312.179688 127.296875 C 314.535156 129.601562 319.1875 128.484375 320.238281 125.359375 C 320.40625 128.414062 324.410156 130.496094 327 128.859375 C 329.589844 127.234375 329.460938 122.71875 326.777344 121.242188 Z M 323.144531 120.742188 C 321.121094 121.984375 318.019531 120.433594 317.792969 118.0625 C 317.5625 115.695312 320.5625 113.125 323.15625 114.765625 C 325.171875 116.03125 325.167969 119.5 323.136719 120.742188 Z M 323.144531 120.742188 " fill-opacity="1" fill-rule="nonzero"/><path fill="#7e7e45" d="M 270.710938 125.90625 C 270.710938 125.90625 273.988281 139.914062 260.535156 140.070312 C 260.535156 140.070312 258.203125 129.847656 270.710938 125.90625 Z M 270.710938 125.90625 " fill-opacity="1" fill-rule="nonzero"/><path fill="#7e7e45" d="M 137.355469 122.605469 C 137.355469 122.605469 151.613281 120.789062 150.378906 134.199219 C 150.378906 134.199219 139.984375 135.46875 137.355469 122.605469 Z M 137.355469 122.605469 " fill-opacity="1" fill-rule="nonzero"/><path fill="#7e7e45" d="M 144.164062 42.910156 C 144.164062 42.910156 158.453125 44.515625 154.082031 57.257812 C 154.082031 57.257812 143.679688 56.027344 144.164062 42.910156 Z M 144.164062 42.910156 " fill-opacity="1" fill-rule="nonzero"/></svg>