<svg xmlns="http://www.w3.org/2000/svg" xmlns:xlink="http://www.w3.org/1999/xlink" width="1366" zoomAndPan="magnify" viewBox="0 0 1024.5 449.999984" height="600" preserveAspectRatio="xMidYMid meet" version="1.0"><defs><clipPath id="e1cc55d0af"><path d="M 0 0.109375 L 1024 0.109375 L 1024 449.890625 L 0 449.890625 Z M 0 0.109375 " clip-rule="nonzero"/></clipPath><clipPath id="be0c4d0e16"><path d="M 773.625 0.109375 L 1024 0.109375 L 1024 256 L 773.625 256 Z M 773.625 0.109375 " clip-rule="nonzero"/></clipPath></defs><g clip-path="url(#e1cc55d0af)"><path fill="#ffffff" d="M 0 0.109375 L 1024.5 0.109375 L 1024.5 457.609375 L 0 457.609375 Z M 0 0.109375 " fill-opacity="1" fill-rule="nonzero"/><path fill="#ffffff" d="M 0 0.109375 L 1024.5 0.109375 L 1024.5 450.109375 L 0 450.109375 Z M 0 0.109375 " fill-opacity="1" fill-rule="nonzero"/><path fill="#ffffff" d="M 0 0.109375 L 1024.5 0.109375 L 1024.5 450.109375 L 0 450.109375 Z M 0 0.109375 " fill-opacity="1" fill-rule="nonzero"/><path fill="#f0ffff" d="M 1208.375 366.679688 L 1164.199219 358.132812 C 1120.023438 349.441406 1031.675781 332.351562 943.324219 343.550781 C 854.972656 354.894531 766.625 394.671875 678.273438 419.71875 C 589.925781 444.765625 501.574219 455.078125 413.222656 447.710938 C 324.875 440.34375 236.523438 415.296875 148.175781 381.414062 C 59.824219 347.527344 -28.527344 304.800781 -72.699219 283.4375 L -116.875 262.074219 L -116.875 -0.171875 L -72.699219 -0.171875 C -28.527344 -0.171875 59.824219 -0.171875 148.175781 -0.171875 C 236.523438 -0.171875 324.875 -0.171875 413.222656 -0.171875 C 501.574219 -0.171875 589.925781 -0.171875 678.273438 -0.171875 C 766.625 -0.171875 854.972656 -0.171875 943.324219 -0.171875 C 1031.675781 -0.171875 1120.023438 -0.171875 1164.199219 -0.171875 L 1208.375 -0.171875 Z M 1208.375 366.679688 " fill-opacity="1" fill-rule="nonzero"/></g><g clip-path="url(#be0c4d0e16)"><path fill="#d0b8ff" d="M 962.546875 -121.75 C 962.546875 -115.113281 958.671875 -100.8125 952.902344 -86.429688 L 948.953125 -76.472656 L 941.761719 -75.445312 C 932.277344 -74.179688 918.605469 -70.703125 909.910156 -67.226562 C 906.039062 -65.726562 899.714844 -63.277344 895.765625 -61.773438 C 884.78125 -57.585938 865.890625 -48.183594 857.433594 -42.652344 C 854.589844 -40.835938 849.925781 -37.832031 847.082031 -36.015625 C 844.238281 -34.273438 840.996094 -31.824219 839.96875 -30.71875 C 838.941406 -29.613281 836.253906 -27.480469 834.042969 -26.058594 C 830.089844 -23.527344 828.113281 -21.789062 822.976562 -16.101562 C 821.632812 -14.597656 818.867188 -12.070312 816.890625 -10.410156 C 814.363281 -8.355469 812.941406 -6.382812 812.308594 -4.328125 C 811.597656 -1.875 810.570312 -0.691406 807.882812 0.808594 C 804.011719 3.101562 802.113281 6.183594 802.113281 10.214844 C 802.113281 12.585938 801.71875 13.214844 799.585938 14.324219 C 793.578125 17.324219 791.996094 21.117188 794.605469 25.703125 C 796.1875 28.46875 796.1875 28.46875 792.472656 29.574219 C 784.015625 32.023438 783.382812 34.789062 789.941406 40.476562 L 794.289062 44.351562 L 786.78125 46.167969 C 782.59375 47.117188 778.957031 48.300781 778.71875 48.695312 C 777.851562 50.117188 780.0625 51.621094 788.679688 55.414062 C 793.5 57.46875 797.371094 59.445312 797.371094 59.679688 C 797.371094 60.472656 783.539062 63.710938 778.246094 64.265625 C 775.085938 64.5 773.664062 64.976562 773.664062 65.6875 C 773.664062 66.398438 774.609375 66.792969 776.429688 66.792969 C 783.382812 66.792969 802.429688 72.164062 815.945312 78.011719 L 821.554688 80.382812 L 822.976562 89.628906 C 825.269531 104.878906 834.042969 130.878906 842.417969 147.394531 C 844.472656 151.503906 847.003906 156.640625 847.949219 158.851562 C 848.898438 160.984375 851.585938 165.648438 853.800781 169.125 C 856.089844 172.601562 859.09375 177.5 860.515625 179.949219 C 861.941406 182.480469 864.785156 186.429688 866.839844 188.644531 C 868.894531 190.933594 871.503906 194.253906 872.6875 196.070312 C 873.792969 197.808594 876.007812 200.496094 877.667969 201.996094 C 879.328125 203.5 881.777344 205.871094 883.121094 207.371094 C 890.234375 215.195312 892.128906 216.933594 894.421875 217.40625 C 896.238281 217.800781 897.425781 218.828125 898.925781 221.355469 C 901.21875 225.308594 904.300781 227.203125 908.332031 227.203125 C 910.703125 227.203125 911.332031 227.601562 912.441406 229.734375 C 915.441406 235.738281 919.238281 237.320312 923.820312 234.710938 C 926.585938 233.132812 926.585938 233.132812 927.691406 236.84375 C 930.144531 245.300781 932.988281 245.933594 938.597656 239.375 L 942.394531 234.949219 L 944.132812 242.296875 C 945.078125 246.328125 946.265625 249.960938 946.660156 250.359375 C 948.082031 251.78125 949.585938 249.566406 953.457031 240.636719 C 955.511719 235.816406 957.488281 231.945312 957.804688 231.945312 C 958.671875 231.945312 961.835938 245.300781 962.308594 251.070312 C 962.941406 257.3125 964.519531 257.152344 965.152344 250.753906 C 966.023438 241.824219 971.316406 224.359375 977.167969 211.003906 L 978.589844 207.765625 L 987.757812 206.34375 C 1003.007812 204.050781 1029.011719 195.28125 1045.527344 186.902344 C 1049.636719 184.847656 1054.851562 182.320312 1056.988281 181.371094 C 1059.199219 180.425781 1063.785156 177.738281 1067.261719 175.523438 C 1070.738281 173.234375 1075.636719 170.230469 1078.089844 168.808594 C 1080.617188 167.386719 1084.570312 164.542969 1086.78125 162.488281 C 1089.074219 160.433594 1092.394531 157.824219 1094.210938 156.640625 C 1095.949219 155.53125 1098.636719 153.320312 1100.136719 151.660156 C 1101.640625 150 1104.011719 147.550781 1105.511719 146.207031 C 1113.335938 139.097656 1115.074219 137.199219 1115.550781 134.910156 C 1115.945312 133.089844 1116.972656 131.90625 1119.5 130.402344 C 1123.453125 128.113281 1125.347656 125.03125 1125.347656 121 C 1125.347656 118.628906 1125.742188 117.996094 1127.957031 116.890625 C 1133.882812 113.890625 1135.464844 110.097656 1132.855469 105.511719 C 1131.277344 102.746094 1131.277344 102.746094 1135.070312 101.640625 C 1143.445312 99.191406 1144.078125 96.347656 1137.519531 90.734375 L 1133.171875 86.941406 L 1140.445312 85.203125 C 1144.472656 84.175781 1148.109375 83.070312 1148.582031 82.597656 C 1149.925781 81.253906 1147.636719 79.671875 1138.785156 75.878906 C 1133.964844 73.824219 1130.089844 71.851562 1130.089844 71.535156 C 1130.089844 70.664062 1144 67.425781 1149.691406 66.949219 C 1156.089844 66.476562 1155.777344 64.976562 1149.058594 64.265625 C 1139.496094 63.15625 1122.34375 58.019531 1109.070312 52.09375 L 1105.75 50.671875 L 1104.800781 43.558594 C 1103.0625 30.207031 1099.820312 19.695312 1090.417969 -4.328125 C 1087.414062 -11.992188 1075.085938 -36.488281 1072.636719 -39.648438 C 1071.371094 -41.308594 1069 -45.023438 1067.417969 -47.945312 C 1065.757812 -50.871094 1062.757812 -55.136719 1060.621094 -57.429688 C 1058.566406 -59.71875 1055.878906 -63.117188 1054.695312 -64.933594 C 1053.589844 -66.832031 1051.140625 -69.675781 1049.320312 -71.257812 C 1044.894531 -75.289062 1043.316406 -77.027344 1039.757812 -81.292969 C 1037.78125 -83.664062 1035.726562 -85.164062 1033.671875 -85.796875 C 1031.222656 -86.507812 1030.039062 -87.535156 1028.535156 -90.222656 C 1026.246094 -94.09375 1023.160156 -95.992188 1019.132812 -95.992188 C 1016.761719 -95.992188 1016.128906 -96.386719 1015.023438 -98.597656 C 1012.019531 -104.523438 1008.226562 -106.105469 1003.640625 -103.496094 C 1000.875 -101.917969 1000.875 -101.917969 999.769531 -105.710938 C 997.320312 -114.085938 994.472656 -114.71875 988.863281 -108.160156 L 985.070312 -103.8125 L 983.332031 -111.082031 C 982.304688 -115.113281 981.195312 -118.75 980.722656 -119.222656 C 979.378906 -120.566406 977.796875 -118.273438 974.003906 -109.425781 C 971.949219 -104.605469 969.972656 -100.730469 969.660156 -100.730469 C 968.867188 -100.730469 965.628906 -114.480469 965.074219 -119.933594 C 964.835938 -123.015625 964.363281 -124.4375 963.652344 -124.4375 C 962.941406 -124.4375 962.546875 -123.488281 962.546875 -121.75 Z M 981.75 -109.820312 C 982.460938 -106.816406 983.171875 -103.734375 983.488281 -103.023438 C 983.804688 -102.234375 982.144531 -99.308594 978.824219 -94.882812 L 973.769531 -87.929688 L 970.449219 -96.78125 L 974.953125 -106.660156 C 977.402344 -112.109375 979.695312 -116.300781 980.011719 -115.984375 C 980.25 -115.585938 981.039062 -112.902344 981.75 -109.820312 Z M 967.289062 -100.652344 C 968.316406 -97.019531 968.316406 -97.019531 964.601562 -90.0625 C 958.832031 -79.476562 957.09375 -77.027344 954.957031 -77.027344 C 954.011719 -77.027344 952.667969 -76.789062 951.957031 -76.550781 C 951.007812 -76.15625 951.164062 -77.105469 952.824219 -80.660156 C 955.90625 -87.535156 961.675781 -105.15625 962.703125 -110.925781 L 963.652344 -115.984375 L 964.996094 -110.136719 C 965.707031 -106.894531 966.734375 -102.628906 967.289062 -100.652344 Z M 997.714844 -105.394531 C 998.425781 -103.261719 998.898438 -101.285156 998.742188 -100.890625 C 998.582031 -100.574219 996.292969 -98.28125 993.605469 -95.753906 L 988.703125 -91.089844 L 987.441406 -95.59375 C 985.859375 -100.890625 986.175781 -101.757812 990.996094 -107.289062 C 994.867188 -111.714844 995.738281 -111.480469 997.714844 -105.394531 Z M 1010.359375 -101.839844 C 1011.703125 -100.496094 1014.152344 -95.992188 1013.757812 -95.59375 C 1013.046875 -94.964844 1005.144531 -91.25 1004.511719 -91.25 C 1004.117188 -91.25 1003.40625 -92.910156 1002.929688 -95.042969 C 1002.378906 -97.097656 1001.902344 -99.074219 1001.824219 -99.46875 C 1001.664062 -100.257812 1006.644531 -103.101562 1008.144531 -103.101562 C 1008.621094 -103.101562 1009.648438 -102.550781 1010.359375 -101.839844 Z M 985.9375 -93.9375 L 987.203125 -89.511719 L 982.222656 -84.929688 C 977.324219 -80.503906 977.167969 -80.421875 976.21875 -82.082031 C 975.664062 -82.953125 975.269531 -84.296875 975.191406 -84.929688 C 975.191406 -85.953125 983.648438 -98.359375 984.359375 -98.359375 C 984.515625 -98.359375 985.226562 -96.386719 985.9375 -93.9375 Z M 1002.0625 -90.460938 C 1002.0625 -89.433594 993.367188 -83.347656 991.867188 -83.347656 C 991.3125 -83.347656 989.179688 -89.117188 989.652344 -89.273438 C 989.730469 -89.273438 992.101562 -91.40625 994.867188 -94.015625 L 999.925781 -98.675781 L 1000.953125 -95.199219 C 1001.585938 -93.226562 1002.0625 -91.089844 1002.0625 -90.460938 Z M 971.949219 -86.667969 C 972.027344 -86.113281 970.527344 -83.742188 968.710938 -81.371094 C 965.707031 -77.578125 964.996094 -77.105469 962.308594 -77.105469 L 959.226562 -77.027344 L 960.808594 -79.632812 C 963.019531 -83.1875 966.734375 -89.667969 968.078125 -92.277344 L 969.183594 -94.488281 L 970.527344 -91.089844 C 971.316406 -89.195312 971.949219 -87.21875 971.949219 -86.667969 Z M 1023.160156 -92.828125 C 1025.53125 -91.40625 1027.902344 -88.324219 1027.191406 -87.613281 C 1026.957031 -87.457031 1025.21875 -87.0625 1023.160156 -86.824219 C 1019.683594 -86.351562 1019.449219 -86.429688 1018.65625 -88.40625 C 1016.761719 -93.460938 1016.761719 -94.410156 1018.738281 -94.410156 C 1019.765625 -94.410156 1021.738281 -93.699219 1023.160156 -92.828125 Z M 1016.285156 -89.433594 C 1016.839844 -87.773438 1016.996094 -86.191406 1016.761719 -85.953125 C 1015.734375 -84.929688 1007.355469 -82.476562 1006.804688 -83.109375 C 1006.488281 -83.425781 1005.855469 -84.847656 1005.378906 -86.191406 C 1004.589844 -88.640625 1004.589844 -88.722656 1009.410156 -91.171875 C 1012.019531 -92.515625 1014.46875 -93.382812 1014.785156 -93.066406 C 1015.023438 -92.671875 1015.734375 -91.089844 1016.285156 -89.433594 Z M 989.101562 -83.664062 C 989.496094 -81.449219 989.257812 -81.054688 985.703125 -78.765625 C 981.59375 -76.15625 978.746094 -75.523438 978.195312 -77.183594 C 977.796875 -78.367188 987.203125 -87.378906 987.992188 -86.585938 C 988.308594 -86.351562 988.785156 -85.007812 989.101562 -83.664062 Z M 1003.957031 -85.558594 C 1004.90625 -81.847656 1004.511719 -81.214844 999.292969 -79 C 996.449219 -77.816406 994 -76.945312 993.839844 -77.105469 C 993.683594 -77.261719 993.289062 -78.210938 993.050781 -79.160156 C 992.578125 -80.660156 993.210938 -81.371094 997.476562 -84.058594 C 1000.242188 -85.796875 1002.691406 -87.296875 1002.929688 -87.296875 C 1003.246094 -87.296875 1003.640625 -86.507812 1003.957031 -85.558594 Z M 1030.117188 -82.398438 C 1030.984375 -80.820312 1031.460938 -79.316406 1031.300781 -79.160156 C 1031.066406 -79 1028.929688 -78.605469 1026.402344 -78.289062 C 1021.976562 -77.816406 1021.976562 -77.816406 1021.105469 -80.34375 C 1019.765625 -84.136719 1020 -84.769531 1022.847656 -85.164062 C 1027.507812 -85.796875 1028.457031 -85.402344 1030.117188 -82.398438 Z M 1037.941406 -80.265625 C 1039.207031 -78.921875 1040.152344 -77.738281 1039.917969 -77.578125 C 1039.757812 -77.339844 1038.257812 -77.421875 1036.675781 -77.578125 C 1034.066406 -77.972656 1033.671875 -78.289062 1032.566406 -81.449219 L 1031.382812 -84.929688 L 1033.515625 -83.820312 C 1034.699219 -83.1875 1036.675781 -81.609375 1037.941406 -80.265625 Z M 975.191406 -78.84375 C 975.191406 -77.65625 972.1875 -76.789062 969.660156 -77.183594 C 967.917969 -77.421875 967.917969 -77.5 970.527344 -80.660156 L 973.214844 -83.980469 L 974.164062 -81.847656 C 974.714844 -80.738281 975.113281 -79.316406 975.191406 -78.84375 Z M 1019.449219 -78.84375 C 1019.449219 -77.816406 1019.050781 -77.738281 1012.175781 -76.394531 C 1008.777344 -75.683594 1008.382812 -75.761719 1008.304688 -77.105469 C 1008.226562 -77.972656 1008.144531 -79.082031 1008.066406 -79.554688 C 1007.988281 -80.109375 1010.121094 -81.371094 1012.730469 -82.242188 L 1017.472656 -83.980469 L 1018.421875 -81.925781 C 1018.972656 -80.738281 1019.367188 -79.316406 1019.449219 -78.84375 Z M 991.390625 -77.738281 C 992.023438 -75.761719 990.523438 -74.417969 988.230469 -75.050781 C 987.359375 -75.207031 986.097656 -75.445312 985.464844 -75.445312 C 984.4375 -75.445312 989.179688 -79.238281 990.363281 -79.394531 C 990.679688 -79.394531 991.15625 -78.605469 991.390625 -77.738281 Z M 1006.25 -77.65625 C 1006.882812 -75.207031 1006.644531 -74.972656 1001.269531 -73.863281 C 997.714844 -73.074219 996.210938 -73.074219 995.582031 -73.707031 C 994.394531 -74.890625 994.472656 -74.890625 1000.085938 -77.261719 C 1006.011719 -79.710938 1005.773438 -79.710938 1006.25 -77.65625 Z M 1033.355469 -73.628906 L 1034.382812 -70.703125 L 1029.089844 -71.179688 C 1026.164062 -71.496094 1023.714844 -71.730469 1023.636719 -71.808594 C 1023.558594 -71.890625 1023.320312 -72.835938 1023.003906 -74.023438 C 1022.53125 -75.839844 1022.6875 -76.15625 1024.742188 -76.472656 C 1025.929688 -76.628906 1028.140625 -76.789062 1029.644531 -76.710938 C 1032.011719 -76.628906 1032.488281 -76.316406 1033.355469 -73.628906 Z M 1021.1875 -73.46875 C 1021.582031 -71.496094 1021.582031 -71.496094 1015.734375 -71.496094 C 1010.515625 -71.496094 1009.886719 -71.652344 1010.121094 -72.917969 C 1010.28125 -73.863281 1011.625 -74.496094 1015.101562 -75.128906 C 1017.707031 -75.601562 1020.078125 -75.839844 1020.316406 -75.683594 C 1020.632812 -75.601562 1021.027344 -74.574219 1021.1875 -73.46875 Z M 1040.3125 -74.65625 C 1042.050781 -74.023438 1045.371094 -69.441406 1044.578125 -68.726562 C 1044.421875 -68.648438 1042.523438 -68.886719 1040.234375 -69.359375 C 1037.070312 -69.992188 1036.042969 -70.625 1035.726562 -71.96875 C 1035.492188 -72.917969 1035.015625 -74.339844 1034.699219 -75.128906 C 1034.304688 -76.234375 1034.542969 -76.394531 1036.28125 -75.917969 C 1037.386719 -75.683594 1039.207031 -75.128906 1040.3125 -74.65625 Z M 955.433594 -74.8125 C 955.433594 -73.46875 953.457031 -72.285156 951.246094 -72.285156 C 948.320312 -72.285156 948.792969 -74.101562 951.957031 -74.734375 C 955.355469 -75.523438 955.433594 -75.523438 955.433594 -74.8125 Z M 962.152344 -73.863281 C 961.359375 -72.996094 959.699219 -72.285156 958.4375 -72.285156 C 956.382812 -72.285156 956.300781 -72.441406 957.171875 -73.863281 C 957.882812 -74.972656 959.066406 -75.445312 960.886719 -75.445312 C 963.492188 -75.445312 963.574219 -75.445312 962.152344 -73.863281 Z M 970.054688 -73.863281 C 969.261719 -72.996094 967.605469 -72.285156 966.339844 -72.285156 C 964.285156 -72.285156 964.125 -72.441406 964.917969 -73.863281 C 965.546875 -74.972656 966.574219 -75.445312 968.632812 -75.445312 C 971.398438 -75.445312 971.476562 -75.445312 970.054688 -73.863281 Z M 947.53125 -73.945312 C 947.53125 -73.46875 947.214844 -72.996094 946.820312 -72.679688 C 945.871094 -72.125 926.035156 -69.753906 925.636719 -70.230469 C 925.320312 -70.546875 942.15625 -74.101562 946.582031 -74.574219 C 947.054688 -74.574219 947.53125 -74.339844 947.53125 -73.945312 Z M 977.402344 -73.707031 C 977.167969 -73.152344 975.824219 -72.601562 974.398438 -72.441406 C 972.027344 -72.207031 971.871094 -72.285156 972.742188 -73.390625 C 974.003906 -74.890625 977.878906 -75.128906 977.402344 -73.707031 Z M 985.859375 -73.074219 C 985.621094 -72.679688 984.277344 -72.285156 983.015625 -72.285156 C 981.59375 -72.285156 980.800781 -72.601562 981.117188 -73.074219 C 981.355469 -73.546875 982.699219 -73.863281 983.960938 -73.863281 C 985.386719 -73.863281 986.175781 -73.546875 985.859375 -73.074219 Z M 1008.066406 -70.941406 C 1007.910156 -70.703125 1006.328125 -70.863281 1004.667969 -71.257812 L 1001.664062 -72.046875 L 1004.433594 -72.835938 C 1006.566406 -73.46875 1007.355469 -73.390625 1007.832031 -72.519531 C 1008.226562 -71.890625 1008.304688 -71.179688 1008.066406 -70.941406 Z M 993.367188 -71.808594 C 993.367188 -71.652344 992.023438 -71.496094 990.445312 -71.574219 C 988.152344 -71.574219 987.835938 -71.730469 989.019531 -72.207031 C 990.445312 -72.757812 993.367188 -72.519531 993.367188 -71.808594 Z M 999.769531 -70.070312 C 999.214844 -69.914062 998.347656 -70.152344 997.953125 -70.546875 C 997.320312 -71.179688 997.636719 -71.257812 998.980469 -70.941406 C 1000.007812 -70.625 1000.402344 -70.308594 999.769531 -70.070312 Z M 945 -68.726562 C 944.527344 -67.621094 943.894531 -66.753906 943.578125 -66.753906 C 941.050781 -66.753906 916.707031 -63.117188 908.882812 -61.617188 C 903.429688 -60.511719 898.925781 -59.800781 898.769531 -59.957031 C 898.214844 -60.511719 906.195312 -63.511719 912.441406 -65.09375 C 918.605469 -66.675781 935.28125 -69.519531 941.601562 -70.152344 C 943.339844 -70.308594 945 -70.46875 945.316406 -70.546875 C 945.632812 -70.625 945.476562 -69.835938 945 -68.726562 Z M 952.113281 -69.753906 C 951.71875 -68.570312 947.609375 -66.4375 946.976562 -66.988281 C 946.820312 -67.226562 946.976562 -68.175781 947.53125 -69.042969 C 948.476562 -70.863281 952.667969 -71.496094 952.113281 -69.753906 Z M 958.199219 -69.125 C 957.410156 -68.253906 955.90625 -67.542969 954.878906 -67.542969 C 953.21875 -67.542969 953.140625 -67.703125 954.011719 -69.125 C 954.640625 -70.152344 955.90625 -70.703125 957.328125 -70.703125 C 959.542969 -70.703125 959.621094 -70.703125 958.199219 -69.125 Z M 964.917969 -69.519531 C 964.363281 -68.886719 963.019531 -68.332031 961.992188 -68.332031 C 960.253906 -68.332031 960.09375 -68.492188 960.964844 -69.519531 C 961.519531 -70.152344 962.863281 -70.703125 963.890625 -70.703125 C 965.628906 -70.703125 965.785156 -70.546875 964.917969 -69.519531 Z M 971.554688 -69.519531 C 970.765625 -68.886719 969.421875 -68.332031 968.550781 -68.332031 C 967.367188 -68.332031 967.289062 -68.570312 968.078125 -69.519531 C 968.632812 -70.152344 969.972656 -70.703125 971.082031 -70.703125 C 973.054688 -70.703125 973.054688 -70.625 971.554688 -69.519531 Z M 978.746094 -69.914062 C 978.507812 -69.519531 977.5625 -69.125 976.691406 -69.125 C 975.824219 -69.125 975.347656 -69.519531 975.585938 -69.914062 C 975.824219 -70.386719 976.769531 -70.703125 977.640625 -70.703125 C 978.507812 -70.703125 978.984375 -70.386719 978.746094 -69.914062 Z M 1050.347656 -67.464844 L 1052.957031 -64.222656 L 1050.425781 -65.488281 C 1047.425781 -66.988281 1045.054688 -70.703125 1047.03125 -70.703125 C 1047.425781 -70.703125 1048.925781 -69.203125 1050.347656 -67.464844 Z M 924.375 -69.441406 C 924.136719 -69.203125 923.425781 -69.125 922.871094 -69.359375 C 922.238281 -69.597656 922.476562 -69.835938 923.347656 -69.835938 C 924.214844 -69.914062 924.691406 -69.675781 924.375 -69.441406 Z M 1022.765625 -68.492188 C 1023.160156 -67.148438 1022.765625 -67.070312 1017.945312 -67.78125 C 1010.121094 -68.808594 1009.332031 -69.835938 1016.367188 -69.914062 C 1021.582031 -69.914062 1022.449219 -69.675781 1022.765625 -68.492188 Z M 1033.039062 -69.125 C 1034.304688 -69.125 1036.597656 -65.488281 1035.886719 -64.699219 C 1035.332031 -64.222656 1025.375 -66.988281 1024.820312 -67.78125 C 1023.558594 -69.675781 1024.269531 -70.152344 1027.824219 -69.597656 C 1029.878906 -69.359375 1032.171875 -69.125 1033.039062 -69.125 Z M 1042.839844 -66.675781 C 1045.527344 -65.960938 1046.238281 -65.332031 1046.949219 -63.039062 C 1047.742188 -60.511719 1047.660156 -60.429688 1046.082031 -60.90625 C 1040.390625 -62.722656 1037.78125 -64.304688 1037.464844 -66.277344 C 1037.152344 -67.9375 1037.308594 -68.332031 1038.335938 -68.015625 C 1039.046875 -67.78125 1041.101562 -67.226562 1042.839844 -66.675781 Z M 999.609375 -59.089844 C 1011.625 -34.433594 1029.878906 -7.25 1046.238281 10.214844 C 1053.429688 17.878906 1047.03125 12.742188 1035.015625 1.203125 C 1025.769531 -7.722656 1011.226562 -24.160156 1004.351562 -33.5625 C 997.554688 -42.808594 985.703125 -61.539062 984.277344 -65.332031 C 983.726562 -66.753906 985.386719 -67.148438 992.261719 -67.386719 L 995.5 -67.542969 Z M 1007.59375 -66.753906 C 1010.199219 -65.960938 1010.515625 -65.488281 1013.519531 -57.824219 C 1017.628906 -47.234375 1028.929688 -24.476562 1036.042969 -12.625 C 1041.734375 -3.140625 1052.640625 12.898438 1056.433594 17.40625 C 1057.539062 18.667969 1055.40625 16.691406 1051.769531 12.980469 C 1033.910156 -5.039062 1011.386719 -37.671875 1000.953125 -60.667969 C 999.375 -64.066406 998.109375 -66.988281 998.109375 -67.226562 C 998.109375 -67.859375 1004.828125 -67.542969 1007.59375 -66.753906 Z M 960.253906 -65.648438 C 959.78125 -65.015625 958.515625 -64.382812 957.566406 -64.144531 C 955.828125 -63.671875 955.828125 -63.671875 957.726562 -65.25 C 959.859375 -66.988281 961.597656 -67.304688 960.253906 -65.648438 Z M 965.707031 -65.960938 C 964.125 -64.933594 963.097656 -64.933594 963.730469 -65.960938 C 963.96875 -66.4375 964.835938 -66.753906 965.546875 -66.753906 C 966.734375 -66.753906 966.734375 -66.59375 965.707031 -65.960938 Z M 954.640625 -65.648438 C 954.640625 -64.777344 952.035156 -62.800781 951.007812 -62.800781 C 950.058594 -62.800781 950.058594 -63.117188 950.691406 -64.382812 C 951.402344 -65.726562 954.640625 -66.753906 954.640625 -65.648438 Z M 986.097656 -58.0625 C 1003.800781 -27.242188 1026.246094 -1.5625 1056.988281 22.9375 C 1072.871094 35.578125 1080.460938 44.667969 1087.808594 60.15625 C 1091.445312 67.742188 1095.710938 81.175781 1095.078125 82.832031 C 1094.84375 83.386719 1091.367188 85.757812 1087.335938 88.050781 C 1057.066406 105.195312 1030.90625 128.113281 1006.40625 158.851562 C 993.761719 174.734375 984.675781 182.320312 969.183594 189.667969 C 961.675781 193.304688 948.160156 197.570312 946.503906 196.941406 C 945.949219 196.78125 943.972656 193.777344 942.078125 190.382812 C 928.246094 165.410156 906.90625 139.648438 882.722656 118.550781 C 877.746094 114.203125 871.34375 108.910156 868.5 106.777344 C 856.960938 98.085938 846.210938 84.886719 839.652344 71.136719 C 836.492188 64.578125 832.144531 51.542969 832.144531 48.617188 C 832.144531 47.984375 834.359375 46.324219 837.359375 44.746094 C 842.8125 41.902344 855.773438 33.683594 863.046875 28.46875 C 885.175781 12.503906 904.300781 -6.144531 921.765625 -28.742188 C 931.328125 -41.148438 943.816406 -51.5 956.933594 -57.902344 C 964.757812 -61.695312 977.640625 -66.042969 980.25 -65.726562 C 981.277344 -65.648438 983.25 -63.039062 986.097656 -58.0625 Z M 1021.503906 -63.117188 C 1024.503906 -62.011719 1024.820312 -61.539062 1026.480469 -56.636719 C 1033.753906 -35.144531 1048.453125 -2.984375 1059.199219 14.796875 C 1062.046875 19.539062 1064.101562 23.332031 1063.785156 23.332031 C 1062.757812 23.25 1040.785156 -7.25 1040.785156 -8.59375 C 1040.785156 -8.832031 1039.285156 -11.4375 1037.386719 -14.363281 C 1030.355469 -25.347656 1019.367188 -47.472656 1014.3125 -60.90625 L 1012.492188 -65.804688 L 1015.339844 -65.015625 C 1016.996094 -64.621094 1019.683594 -63.75 1021.503906 -63.117188 Z M 942.078125 -62.882812 C 941.523438 -61.933594 940.023438 -61.0625 938.203125 -60.746094 C 926.035156 -58.691406 896.632812 -52.925781 889.996094 -51.34375 C 885.492188 -50.238281 881.539062 -49.367188 881.300781 -49.367188 C 880.984375 -49.367188 882.960938 -50.789062 885.648438 -52.449219 C 891.339844 -56.085938 900.191406 -58.535156 919.078125 -61.617188 C 931.40625 -63.59375 942.15625 -65.015625 942.628906 -64.699219 C 942.789062 -64.621094 942.550781 -63.828125 942.078125 -62.882812 Z M 948.320312 -64.539062 C 948.320312 -63.433594 946.421875 -62.011719 945 -62.011719 C 943.734375 -62.011719 943.65625 -62.25 944.367188 -63.59375 C 945.160156 -65.09375 948.320312 -65.882812 948.320312 -64.539062 Z M 1032.09375 -63.511719 C 1034.542969 -62.960938 1036.359375 -62.089844 1036.835938 -61.140625 C 1037.703125 -59.5625 1037.386719 -59.640625 1026.558594 -63.828125 C 1024.425781 -64.621094 1027.746094 -64.460938 1032.09375 -63.511719 Z M 1056.277344 -57.980469 C 1057.855469 -54.820312 1057.777344 -54.820312 1053.90625 -56.953125 C 1051.535156 -58.296875 1050.113281 -59.71875 1049.558594 -61.378906 C 1049.085938 -62.722656 1048.6875 -63.988281 1048.6875 -64.144531 C 1048.6875 -65.171875 1055.328125 -59.71875 1056.277344 -57.980469 Z M 955.039062 -61.222656 C 954.800781 -60.828125 954.167969 -60.429688 953.773438 -60.429688 C 953.300781 -60.429688 953.21875 -60.828125 953.457031 -61.222656 C 953.695312 -61.695312 954.328125 -62.011719 954.722656 -62.011719 C 955.195312 -62.011719 955.273438 -61.695312 955.039062 -61.222656 Z M 949.269531 -59.484375 C 948.792969 -59.007812 948.082031 -58.851562 947.765625 -59.167969 C 947.449219 -59.484375 947.6875 -60.035156 948.320312 -60.429688 C 949.820312 -61.378906 950.453125 -60.667969 949.269531 -59.484375 Z M 1044.261719 -59.5625 C 1047.582031 -58.21875 1048.769531 -57.347656 1049.398438 -55.609375 L 1050.191406 -53.320312 L 1045.289062 -55.769531 C 1040.628906 -58.140625 1039.285156 -59.246094 1039.207031 -60.667969 C 1039.207031 -61.457031 1039.285156 -61.457031 1044.261719 -59.5625 Z M 944.449219 -58.929688 C 943.972656 -58.140625 942.945312 -57.269531 942.078125 -57.035156 C 940.734375 -56.71875 940.652344 -56.875 941.445312 -58.140625 C 941.917969 -58.929688 942.867188 -59.71875 943.578125 -59.957031 C 944.210938 -60.113281 944.84375 -60.273438 945 -60.351562 C 945.078125 -60.351562 944.84375 -59.800781 944.449219 -58.929688 Z M 1045.605469 -34.273438 C 1053.589844 -10.488281 1057.777344 0.179688 1066.234375 18.195312 C 1069.632812 25.542969 1072.082031 31.234375 1071.6875 30.835938 C 1070.582031 29.652344 1063.546875 18.351562 1058.410156 9.503906 C 1052.640625 -0.613281 1042.683594 -20.683594 1038.414062 -30.796875 C 1035.253906 -38.382812 1027.351562 -59.324219 1027.351562 -60.195312 C 1027.351562 -60.429688 1029.957031 -59.167969 1033.121094 -57.429688 L 1038.808594 -54.269531 Z M 938.914062 -57.347656 C 938.441406 -56.558594 937.253906 -55.691406 936.308594 -55.453125 C 935.28125 -55.214844 919.554688 -51.265625 901.375 -46.679688 C 883.121094 -42.097656 868.105469 -38.464844 867.945312 -38.621094 C 867.628906 -38.9375 873.558594 -43.835938 876.402344 -45.65625 C 878.613281 -47.078125 900.347656 -51.976562 920.265625 -55.691406 C 927.691406 -57.035156 934.253906 -58.21875 934.886719 -58.375 C 935.515625 -58.535156 936.859375 -58.691406 937.886719 -58.773438 C 939.390625 -58.851562 939.546875 -58.613281 938.914062 -57.347656 Z M 1060.304688 -48.183594 L 1061.175781 -45.417969 L 1056.59375 -48.972656 C 1053.824219 -51.105469 1051.929688 -53.242188 1051.691406 -54.425781 C 1051.296875 -56.320312 1051.375 -56.320312 1055.40625 -53.636719 C 1058.332031 -51.660156 1059.753906 -50.160156 1060.304688 -48.183594 Z M 940.417969 -53.714844 C 939.863281 -53.082031 939.074219 -52.527344 938.679688 -52.527344 C 938.203125 -52.527344 938.28125 -53.082031 938.835938 -53.714844 C 939.390625 -54.347656 940.179688 -54.898438 940.574219 -54.898438 C 941.050781 -54.898438 940.96875 -54.347656 940.417969 -53.714844 Z M 1051.058594 -49.367188 C 1051.691406 -48.105469 1050.902344 -48.421875 1047.742188 -50.632812 C 1041.734375 -54.820312 1041.417969 -55.375 1046.082031 -53.003906 C 1048.371094 -51.898438 1050.585938 -50.238281 1051.058594 -49.367188 Z M 1062.125 -52.371094 C 1063.308594 -50.710938 1063.46875 -50.160156 1062.597656 -50.871094 C 1061.332031 -51.898438 1059.359375 -54.898438 1059.992188 -54.898438 C 1060.148438 -54.898438 1061.097656 -53.714844 1062.125 -52.371094 Z M 935.515625 -52.371094 C 934.726562 -50.160156 901.613281 -38.78125 869.289062 -29.613281 C 862.96875 -27.875 857.355469 -26.214844 856.800781 -26.058594 C 855.539062 -25.582031 859.410156 -30.640625 862.492188 -33.5625 C 864.230469 -35.144531 870.710938 -37.042969 899.164062 -44.3125 C 918.128906 -49.132812 934.171875 -53.160156 934.726562 -53.242188 C 935.359375 -53.242188 935.675781 -52.84375 935.515625 -52.371094 Z M 879.5625 -50.871094 C 876.957031 -48.816406 873.160156 -46.761719 872.765625 -47.234375 C 872.371094 -47.628906 875.453125 -49.761719 878.773438 -51.5 C 881.539062 -52.925781 881.855469 -52.765625 879.5625 -50.871094 Z M 1051.929688 -44.941406 C 1052.402344 -44.390625 1054.300781 -38.464844 1056.195312 -31.824219 C 1062.992188 -7.410156 1067.972656 7.84375 1076.664062 32.023438 C 1078.71875 37.710938 1076.269531 34.472656 1072.160156 26.097656 C 1061.019531 3.496094 1049.714844 -25.265625 1042.917969 -48.339844 L 1041.734375 -52.449219 L 1046.398438 -49.210938 C 1048.925781 -47.472656 1051.457031 -45.574219 1051.929688 -44.941406 Z M 932.910156 -47.789062 C 932.039062 -46.445312 912.757812 -37.042969 899.480469 -31.507812 C 879.5625 -23.210938 849.058594 -12.542969 847.082031 -13.175781 C 845.894531 -13.570312 853.007812 -23.054688 854.828125 -23.527344 C 855.617188 -23.765625 863.914062 -26.136719 873.242188 -28.824219 C 889.601562 -33.484375 924.375 -44.785156 930.144531 -47.3125 C 933.542969 -48.816406 933.542969 -48.816406 932.910156 -47.789062 Z M 1059.199219 -44.3125 C 1061.253906 -42.730469 1062.914062 -40.835938 1062.914062 -40.203125 C 1062.914062 -39.253906 1062.519531 -39.253906 1060.78125 -40.597656 C 1057.066406 -43.203125 1053.429688 -46.839844 1053.429688 -47.867188 C 1053.429688 -48.894531 1053.511719 -48.816406 1059.199219 -44.3125 Z M 1066.472656 -43.914062 C 1070.738281 -38.621094 1071.054688 -36.25 1066.945312 -40.359375 C 1063.863281 -43.441406 1061.570312 -47.867188 1063.785156 -46.523438 C 1064.417969 -46.207031 1065.601562 -45.023438 1066.472656 -43.914062 Z M 870.871094 -44.3125 C 870.871094 -43.519531 862.335938 -36.882812 860.597656 -36.410156 C 858.9375 -35.933594 859.253906 -36.410156 862.175781 -39.09375 C 864.152344 -40.914062 866.839844 -42.886719 868.105469 -43.441406 C 870.789062 -44.707031 870.871094 -44.707031 870.871094 -44.3125 Z M 929.351562 -42.730469 C 929.351562 -42.257812 916.785156 -34.355469 906.90625 -28.664062 C 896.714844 -22.816406 881.933594 -15.46875 868.5 -9.621094 C 859.570312 -5.75 838.386719 2.152344 837.992188 1.757812 C 837.835938 1.679688 839.179688 -1.007812 840.839844 -4.089844 L 844 -9.699219 L 855.617188 -13.414062 C 878.773438 -20.761719 900.824219 -29.375 919.078125 -38.148438 C 930.144531 -43.519531 929.351562 -43.125 929.351562 -42.730469 Z M 1062.203125 -36.171875 C 1064.890625 -33.25 1065.363281 -31.507812 1073.898438 2.3125 C 1078.800781 21.75 1082.59375 37.871094 1082.355469 38.109375 C 1081.566406 38.898438 1079.433594 34.472656 1076.113281 24.910156 C 1069.949219 7.605469 1063.863281 -11.4375 1059.753906 -26.058594 C 1057.539062 -33.878906 1055.644531 -40.753906 1055.40625 -41.308594 C 1054.851562 -42.886719 1059.042969 -39.648438 1062.203125 -36.171875 Z M 857.828125 -37.59375 C 856.089844 -35.933594 853.800781 -34.273438 852.691406 -33.960938 L 850.71875 -33.40625 L 852.691406 -35.539062 C 854.828125 -37.832031 858.855469 -40.675781 860.199219 -40.675781 C 860.597656 -40.675781 859.570312 -39.253906 857.828125 -37.59375 Z M 1073.109375 -29.453125 C 1073.582031 -28.269531 1073.742188 -27.242188 1073.664062 -27.242188 C 1072.792969 -27.242188 1066.234375 -35.855469 1065.757812 -37.515625 C 1065.285156 -39.09375 1065.917969 -38.699219 1068.761719 -35.617188 C 1070.738281 -33.484375 1072.714844 -30.71875 1073.109375 -29.453125 Z M 847.160156 -33.089844 C 846.527344 -32.457031 845.34375 -31.507812 844.472656 -31.113281 C 843.445312 -30.640625 843.683594 -31.113281 845.183594 -32.300781 C 847.871094 -34.589844 848.582031 -34.90625 847.160156 -33.089844 Z M 919.078125 -32.535156 C 910.621094 -24.792969 885.808594 -8.671875 866.917969 1.441406 C 860.199219 4.996094 833.726562 17.007812 832.539062 17.007812 C 832.144531 17.007812 833.488281 11.871094 834.988281 7.765625 C 836.097656 4.839844 836.648438 4.285156 840.285156 3.101562 C 863.125 -4.328125 889.441406 -16.257812 910.78125 -28.742188 C 915.996094 -31.746094 920.421875 -34.273438 920.660156 -34.273438 C 920.894531 -34.355469 920.183594 -33.5625 919.078125 -32.535156 Z M 858.304688 -32.222656 C 856.960938 -29.851562 851.269531 -24.082031 850.242188 -24.082031 C 849.214844 -24.082031 849.292969 -24.160156 853.800781 -29.851562 C 855.378906 -31.90625 857.277344 -33.5625 857.910156 -33.5625 C 858.777344 -33.5625 858.855469 -33.25 858.304688 -32.222656 Z M 849.136719 -27.320312 C 847.238281 -24.792969 844.789062 -22.5 843.839844 -22.265625 C 842.894531 -21.949219 842.023438 -21.867188 841.945312 -21.949219 C 841.867188 -22.027344 842.972656 -23.84375 844.394531 -26.058594 C 846.765625 -29.453125 848.265625 -30.640625 852.457031 -31.90625 C 852.613281 -31.984375 851.113281 -29.929688 849.136719 -27.320312 Z M 1075.085938 -21.238281 C 1076.746094 -17.996094 1080.378906 -1.875 1084.726562 20.566406 C 1088.757812 41.742188 1088.757812 41.902344 1086.703125 40.558594 C 1085.832031 40.082031 1085.042969 38.898438 1084.804688 38.027344 C 1084.570312 37.082031 1080.695312 21.433594 1076.035156 3.179688 C 1071.449219 -14.996094 1067.65625 -30.167969 1067.65625 -30.402344 C 1067.65625 -31.273438 1073.980469 -23.527344 1075.085938 -21.238281 Z M 841.15625 -24.554688 C 839.8125 -22.183594 838.386719 -20.761719 836.730469 -20.210938 C 835.386719 -19.734375 834.121094 -19.339844 833.960938 -19.339844 C 833.015625 -19.339844 838.308594 -25.976562 839.96875 -26.847656 C 843.128906 -28.585938 843.289062 -28.269531 841.15625 -24.554688 Z M 914.257812 -25.1875 C 902.402344 -12.703125 875.769531 7.289062 856.25 18.589844 C 849.609375 22.382812 831.988281 31.234375 831.039062 31.234375 C 830.40625 31.234375 830.644531 24.359375 831.277344 21.433594 C 831.671875 19.378906 832.617188 18.828125 839.652344 16.140625 C 849.058594 12.425781 872.214844 1.203125 879.878906 -3.378906 C 882.804688 -5.195312 885.410156 -6.695312 885.648438 -6.695312 C 886.203125 -6.695312 911.253906 -23.765625 913.941406 -25.976562 C 917.339844 -28.824219 917.417969 -28.507812 914.257812 -25.1875 Z M 1078.957031 -22.738281 C 1080.855469 -19.65625 1082.039062 -16.96875 1081.566406 -16.96875 C 1081.089844 -16.96875 1076.351562 -24.320312 1076.351562 -25.03125 C 1076.351562 -26.292969 1077.140625 -25.582031 1078.957031 -22.738281 Z M 832.382812 -20.84375 C 830.878906 -18.234375 828.429688 -16.496094 827.5625 -17.363281 C 827.085938 -17.839844 832.617188 -23.292969 833.488281 -23.292969 C 833.644531 -23.292969 833.171875 -22.183594 832.382812 -20.84375 Z M 846.527344 -17.046875 C 844.472656 -14.046875 842.734375 -11.753906 842.578125 -11.832031 C 842.023438 -12.308594 847.398438 -21 848.582031 -21.710938 C 849.375 -22.105469 850.003906 -22.5 850.085938 -22.5 C 850.164062 -22.5 848.582031 -20.050781 846.527344 -17.046875 Z M 913.546875 -21.394531 C 913.546875 -21.238281 912.914062 -20.605469 912.203125 -20.050781 C 910.9375 -19.023438 910.859375 -19.101562 911.886719 -20.367188 C 912.914062 -21.632812 913.546875 -22.027344 913.546875 -21.394531 Z M 842.023438 -15.390625 C 840.441406 -12.308594 838.703125 -9.859375 838.070312 -9.859375 C 836.570312 -9.859375 836.570312 -9.699219 838.546875 -14.914062 C 840.128906 -18.945312 840.917969 -19.734375 844.632812 -20.84375 C 844.710938 -20.921875 843.523438 -18.472656 842.023438 -15.390625 Z M 835.859375 -13.414062 C 834.4375 -9.699219 833.644531 -8.671875 831.90625 -8.199219 C 829.378906 -7.488281 829.378906 -7.410156 831.117188 -12.703125 C 832.144531 -16.101562 832.777344 -16.890625 834.832031 -17.523438 C 836.175781 -17.917969 837.359375 -18.234375 837.441406 -18.15625 C 837.597656 -18.074219 836.886719 -15.941406 835.859375 -13.414062 Z M 906.511719 -13.097656 C 894.578125 0.652344 871.582031 20.566406 854.667969 31.785156 C 844.316406 38.660156 832.144531 45.773438 831.671875 45.296875 C 831.511719 45.140625 831.195312 42.53125 830.878906 39.449219 L 830.40625 34 L 842.496094 27.914062 C 864.863281 16.773438 886.359375 2.46875 903.273438 -12.464844 C 906.988281 -15.707031 910.148438 -18.234375 910.304688 -18.074219 C 910.464844 -17.917969 908.726562 -15.707031 906.511719 -13.097656 Z M 1082.199219 -12.070312 C 1085.832031 -6.222656 1089.46875 8.792969 1092.472656 30.835938 C 1094.605469 46.40625 1094.605469 45.535156 1091.996094 43.558594 C 1090.96875 42.847656 1089.863281 38.425781 1087.808594 27.203125 C 1085.121094 12.742188 1079.828125 -13.019531 1079.117188 -15.230469 C 1078.40625 -17.285156 1079.667969 -16.023438 1082.199219 -12.070312 Z M 829.457031 -14.125 C 829.222656 -13.414062 828.746094 -11.515625 828.507812 -9.859375 C 828.035156 -7.171875 827.71875 -6.777344 824.953125 -6.066406 C 823.214844 -5.667969 821.871094 -5.511719 821.871094 -5.667969 C 821.871094 -8.355469 824.164062 -12.703125 826.136719 -13.886719 C 829.140625 -15.707031 830.089844 -15.785156 829.457031 -14.125 Z M 820.765625 -9.382812 C 820.527344 -8.671875 820.289062 -7.328125 820.289062 -6.300781 C 820.289062 -4.878906 819.578125 -4.246094 816.734375 -3.300781 L 813.175781 -2.035156 L 814.046875 -3.773438 C 815.152344 -5.984375 819.578125 -10.648438 820.527344 -10.648438 C 820.921875 -10.648438 821 -10.09375 820.765625 -9.382812 Z M 836.097656 -1.875 C 833.726562 4.128906 833.09375 3.890625 834.59375 -2.589844 C 835.386719 -5.75 837.359375 -8.832031 838.152344 -8.039062 C 838.308594 -7.882812 837.359375 -5.117188 836.097656 -1.875 Z M 833.488281 -5.667969 C 833.332031 -5.117188 832.699219 -2.667969 832.222656 -0.21875 C 831.671875 2.46875 830.800781 4.445312 830.011719 4.683594 C 828.191406 5.394531 828.035156 4.996094 828.667969 -0.375 C 829.0625 -4.328125 829.535156 -5.355469 830.878906 -5.90625 C 833.25 -6.855469 833.960938 -6.855469 833.488281 -5.667969 Z M 826.929688 0.574219 C 826.613281 3.339844 826.375 5.628906 826.296875 5.710938 C 826.21875 5.789062 825.269531 6.023438 824.164062 6.339844 C 822.1875 6.816406 822.027344 6.65625 821.554688 3.257812 C 820.683594 -2.429688 821.554688 -3.929688 826.058594 -4.246094 C 827.324219 -4.328125 827.402344 -3.851562 826.929688 0.574219 Z M 819.5 0.335938 C 819.5 1.601562 819.738281 3.65625 819.972656 4.996094 C 820.449219 7.289062 820.289062 7.449219 817.207031 8.394531 C 815.390625 8.949219 813.808594 9.1875 813.652344 9.027344 C 813.414062 8.871094 813.175781 6.894531 813.019531 4.761719 C 812.78125 0.96875 812.863281 0.730469 815.546875 -0.535156 C 819.183594 -2.429688 819.5 -2.351562 819.5 0.335938 Z M 1094.132812 13.214844 C 1096.34375 21.75 1098.242188 32.496094 1099.109375 41.347656 L 1099.742188 47.667969 L 1097.925781 46.800781 C 1096.898438 46.324219 1096.109375 45.773438 1096.109375 45.457031 C 1096.109375 42.929688 1092.472656 18.589844 1090.96875 10.6875 C 1089.863281 5.234375 1088.996094 0.652344 1088.996094 0.414062 C 1089.152344 -1.246094 1092.550781 7.367188 1094.132812 13.214844 Z M 810.804688 2.945312 C 810.804688 3.496094 811.042969 5.3125 811.28125 6.894531 C 811.753906 9.582031 811.597656 9.898438 809.699219 10.6875 C 804.800781 12.503906 803.695312 12.585938 803.695312 10.765625 C 803.695312 8.394531 805.667969 4.683594 807.804688 3.257812 C 809.9375 1.757812 810.804688 1.679688 810.804688 2.945312 Z M 830.484375 10.53125 C 830.089844 13.058594 829.457031 15.980469 829.0625 17.089844 C 828.429688 18.589844 828.273438 17.71875 828.273438 12.898438 C 828.191406 7.765625 828.429688 6.816406 829.617188 6.5 C 830.328125 6.261719 830.960938 6.105469 831.039062 6.023438 C 831.039062 6.023438 830.800781 8 830.484375 10.53125 Z M 826.613281 13.53125 C 826.613281 18.746094 826.453125 19.457031 825.269531 19.222656 C 823.53125 18.90625 821.398438 9.1875 822.976562 8.710938 C 823.453125 8.554688 824.398438 8.238281 825.03125 8.078125 C 825.664062 7.84375 826.296875 7.605469 826.453125 7.605469 C 826.535156 7.527344 826.613281 10.214844 826.613281 13.53125 Z M 820.527344 10.925781 C 820.765625 11.558594 821.160156 14.007812 821.476562 16.378906 C 822.027344 20.484375 821.949219 20.800781 820.210938 21.199219 C 817.839844 21.828125 817.445312 21.433594 815.628906 15.980469 C 814.441406 12.585938 814.285156 11.320312 814.996094 11.082031 C 815.546875 10.925781 816.496094 10.609375 817.128906 10.449219 C 819.183594 9.738281 820.132812 9.898438 820.527344 10.925781 Z M 814.046875 17.007812 C 814.917969 19.378906 815.390625 21.75 815.230469 22.144531 C 815.074219 22.621094 813.652344 23.410156 812.148438 23.882812 L 809.382812 24.753906 L 807.328125 20.644531 C 806.222656 18.429688 805.273438 16.140625 805.117188 15.507812 C 804.878906 14.402344 809.464844 12.269531 811.4375 12.503906 C 812.070312 12.585938 813.175781 14.636719 814.046875 17.007812 Z M 804.878906 20.171875 C 806.144531 22.777344 807.011719 25.070312 806.777344 25.226562 C 806.617188 25.386719 804.5625 26.019531 802.269531 26.730469 L 798.082031 27.914062 L 796.503906 24.753906 C 795.632812 23.09375 795.160156 21.039062 795.394531 20.25 C 795.710938 19.0625 800.769531 15.507812 802.191406 15.429688 C 802.429688 15.429688 803.613281 17.5625 804.878906 20.171875 Z M 827.324219 22.304688 C 827.246094 23.09375 827.007812 24.59375 826.613281 25.703125 L 826.058594 27.675781 L 825.425781 25.542969 C 824.796875 23.09375 825.347656 20.960938 826.613281 20.960938 C 827.007812 20.960938 827.402344 21.59375 827.324219 22.304688 Z M 824.082031 27.519531 C 825.191406 31.863281 825.03125 34.394531 823.609375 34.394531 C 823.054688 34.394531 818.710938 24.910156 818.710938 23.804688 C 818.710938 23.332031 821.316406 22.699219 822.265625 22.855469 C 822.660156 23.015625 823.53125 25.070312 824.082031 27.519531 Z M 821 35.5 C 820.84375 35.65625 819.894531 35.972656 819.027344 36.289062 C 817.601562 36.683594 816.8125 36.054688 814.441406 32.496094 C 810.332031 26.253906 810.332031 26.097656 813.730469 25.226562 L 816.734375 24.515625 L 819.027344 29.890625 C 820.210938 32.8125 821.160156 35.34375 821 35.5 Z M 1099.03125 25.859375 C 1098.792969 26.492188 1098.558594 26.253906 1098.558594 25.386719 C 1098.476562 24.515625 1098.714844 24.042969 1098.953125 24.359375 C 1099.191406 24.59375 1099.269531 25.304688 1099.03125 25.859375 Z M 811.835938 32.101562 C 813.414062 34.710938 814.757812 37.160156 814.757812 37.554688 C 814.757812 38.109375 811.042969 39.371094 809.226562 39.53125 C 808.988281 39.53125 806.695312 37.238281 804.089844 34.394531 L 799.425781 29.335938 L 802.902344 28.386719 C 808.4375 26.886719 808.671875 27.042969 811.835938 32.101562 Z M 1102.824219 41.820312 C 1104.011719 48.855469 1103.929688 50.433594 1102.429688 48.933594 C 1101.796875 48.300781 1099.191406 30.285156 1099.347656 27.675781 C 1099.425781 26.097656 1101.640625 34.945312 1102.824219 41.820312 Z M 827.957031 30.601562 C 827.71875 31.234375 827.480469 30.996094 827.480469 30.125 C 827.402344 29.257812 827.640625 28.785156 827.878906 29.097656 C 828.113281 29.335938 828.191406 30.046875 827.957031 30.601562 Z M 802.351562 35.578125 L 806.933594 40.636719 L 802.824219 41.902344 C 800.53125 42.53125 798.082031 43.085938 797.371094 43.085938 C 796.660156 43.085938 794.050781 41.269531 791.523438 39.054688 C 787.730469 35.65625 787.175781 34.789062 788.046875 33.917969 C 789.152344 32.734375 794.683594 30.601562 796.582031 30.523438 C 797.214844 30.523438 799.820312 32.8125 802.351562 35.578125 Z M 826.535156 38.898438 C 826.535156 41.191406 826.375 41.503906 825.902344 40.320312 C 825.347656 38.898438 825.585938 35.972656 826.296875 35.972656 C 826.453125 35.972656 826.613281 37.316406 826.535156 38.898438 Z M 822.976562 38.738281 C 823.214844 39.371094 823.214844 41.03125 822.898438 42.296875 L 822.425781 44.746094 L 820.527344 41.820312 C 818.867188 39.53125 818.710938 38.820312 819.578125 38.265625 C 821.238281 37.238281 822.425781 37.398438 822.976562 38.738281 Z M 819.105469 43.246094 C 821.871094 47.433594 822.742188 50.988281 820.84375 50.988281 C 820.289062 50.988281 817.761719 48.855469 815.230469 46.324219 L 810.570312 41.585938 L 813.257812 40.398438 C 814.757812 39.765625 816.023438 39.214844 816.101562 39.214844 C 816.179688 39.136719 817.523438 41.03125 819.105469 43.246094 Z M 1084.253906 42.375 C 1084.253906 42.847656 1083.9375 42.929688 1083.460938 42.691406 C 1083.066406 42.453125 1082.671875 41.820312 1082.671875 41.425781 C 1082.671875 40.953125 1083.066406 40.875 1083.460938 41.109375 C 1083.9375 41.347656 1084.253906 41.980469 1084.253906 42.375 Z M 813.019531 47.195312 C 817.683594 52.015625 817.761719 52.171875 816.101562 53.121094 C 815.152344 53.675781 813.730469 54.070312 813.019531 54.148438 C 811.753906 54.148438 799.425781 45.535156 799.980469 44.984375 C 800.453125 44.507812 806.382812 42.375 807.410156 42.375 C 807.882812 42.296875 810.410156 44.507812 813.019531 47.195312 Z M 1089.230469 45.535156 C 1089.546875 46.722656 1089.390625 46.800781 1088.203125 46.011719 C 1087.414062 45.535156 1086.542969 44.507812 1086.386719 43.796875 C 1086.070312 42.613281 1086.230469 42.53125 1087.414062 43.324219 C 1088.203125 43.796875 1089.074219 44.824219 1089.230469 45.535156 Z M 825.824219 46.324219 C 825.824219 47.75 825.507812 48.539062 825.03125 48.222656 C 824.636719 47.984375 824.242188 46.640625 824.242188 45.378906 C 824.242188 43.957031 824.558594 43.164062 825.03125 43.480469 C 825.507812 43.71875 825.824219 45.0625 825.824219 46.324219 Z M 802.746094 49.882812 C 806.066406 52.410156 809.148438 54.625 809.464844 54.9375 C 809.859375 55.335938 808.199219 56.28125 805.75 57.230469 L 801.402344 58.8125 L 791.445312 54.386719 C 785.992188 51.9375 781.800781 49.722656 782.039062 49.488281 C 782.277344 49.25 785.515625 48.222656 789.308594 47.351562 C 793.105469 46.40625 796.265625 45.613281 796.421875 45.535156 C 796.503906 45.535156 799.347656 47.433594 802.746094 49.882812 Z M 1094.527344 48.617188 C 1094.527344 49.488281 1094.210938 50.199219 1093.894531 50.199219 C 1092.789062 50.199219 1091.367188 48.300781 1091.367188 46.878906 C 1091.367188 45.613281 1091.601562 45.535156 1092.945312 46.246094 C 1093.816406 46.722656 1094.527344 47.828125 1094.527344 48.617188 Z M 1100.058594 51.9375 C 1100.058594 55.652344 1097.53125 54.308594 1096.503906 49.960938 C 1095.949219 47.828125 1095.949219 47.828125 1098.003906 48.695312 C 1099.503906 49.40625 1100.058594 50.277344 1100.058594 51.9375 Z M 1090.574219 51.542969 C 1090.574219 52.570312 1090.339844 52.570312 1089.390625 51.777344 C 1088.757812 51.226562 1088.203125 50.277344 1088.203125 49.644531 C 1088.203125 48.617188 1088.441406 48.617188 1089.390625 49.40625 C 1090.023438 49.960938 1090.574219 50.910156 1090.574219 51.542969 Z M 828.984375 52.964844 C 828.984375 54.308594 828.824219 54.308594 828.191406 53.359375 C 827.796875 52.726562 827.402344 51.460938 827.402344 50.59375 C 827.402344 49.25 827.5625 49.25 828.191406 50.199219 C 828.589844 50.832031 828.984375 52.09375 828.984375 52.964844 Z M 1104.246094 54.386719 C 1104.722656 57.46875 1104.40625 57.863281 1102.824219 56.519531 C 1101.246094 55.253906 1101.164062 50.832031 1102.746094 51.460938 C 1103.378906 51.699219 1104.011719 53.042969 1104.246094 54.386719 Z M 825.347656 53.042969 C 825.585938 53.753906 825.824219 55.019531 825.824219 55.886719 C 825.824219 57.230469 825.585938 57.308594 824.636719 56.519531 C 823.371094 55.492188 822.976562 51.777344 824.164062 51.777344 C 824.558594 51.777344 825.109375 52.332031 825.347656 53.042969 Z M 1095.316406 55.253906 C 1095.316406 56.675781 1095.238281 56.757812 1093.738281 55.335938 C 1092.867188 54.542969 1092.15625 53.4375 1092.15625 52.804688 C 1092.15625 51.9375 1092.472656 51.9375 1093.738281 52.726562 C 1094.605469 53.28125 1095.316406 54.386719 1095.316406 55.253906 Z M 1134.910156 63.15625 L 1144.871094 65.6875 L 1138.863281 67.03125 C 1135.542969 67.742188 1131.433594 68.769531 1129.617188 69.242188 C 1126.457031 70.191406 1126.21875 70.109375 1118 65.527344 C 1107.328125 59.679688 1106.699219 59.128906 1106.144531 55.652344 L 1105.75 52.882812 L 1115.3125 56.757812 C 1120.605469 58.890625 1129.457031 61.8125 1134.910156 63.15625 Z M 820.765625 56.046875 C 821 57.074219 821.082031 58.652344 820.921875 59.601562 C 820.683594 61.183594 820.449219 61.101562 817.289062 58.574219 L 813.96875 55.886719 L 816.101562 55.097656 C 819.5 53.832031 820.210938 53.992188 820.765625 56.046875 Z M 1091.367188 56.597656 C 1091.367188 57.074219 1091.050781 57.152344 1090.574219 56.914062 C 1090.179688 56.675781 1089.785156 56.046875 1089.785156 55.652344 C 1089.785156 55.175781 1090.179688 55.097656 1090.574219 55.335938 C 1091.050781 55.570312 1091.367188 56.203125 1091.367188 56.597656 Z M 1100.058594 59.207031 C 1100.058594 61.417969 1100.058594 61.496094 1098.476562 60.074219 C 1097.609375 59.285156 1096.898438 57.785156 1096.898438 56.757812 C 1096.898438 55.097656 1097.054688 55.019531 1098.476562 55.886719 C 1099.503906 56.519531 1100.058594 57.785156 1100.058594 59.207031 Z M 829.773438 60.785156 C 829.773438 61.972656 829.535156 62.050781 828.589844 61.261719 C 827.957031 60.707031 827.402344 59.363281 827.402344 58.257812 C 827.402344 56.28125 827.480469 56.28125 828.589844 57.785156 C 829.222656 58.574219 829.773438 59.917969 829.773438 60.785156 Z M 816.734375 60.628906 C 820.527344 63.632812 821 64.34375 821 67.03125 L 821.082031 70.03125 L 817.761719 68.058594 C 815.863281 67.03125 811.914062 64.738281 808.910156 63 L 803.535156 59.839844 L 806.933594 58.652344 C 811.835938 56.914062 811.992188 56.914062 816.734375 60.628906 Z M 825.824219 63 C 825.824219 65.054688 825.664062 65.132812 824.242188 64.265625 C 823.136719 63.550781 822.660156 62.367188 822.660156 60.550781 C 822.660156 57.941406 822.660156 57.863281 824.242188 59.285156 C 825.109375 60.074219 825.824219 61.734375 825.824219 63 Z M 1104.800781 62.605469 C 1104.800781 65.054688 1104.644531 65.132812 1103.21875 64.265625 C 1102.191406 63.550781 1101.640625 62.367188 1101.640625 60.707031 C 1101.640625 58.257812 1101.796875 58.179688 1103.21875 59.046875 C 1104.246094 59.757812 1104.800781 60.945312 1104.800781 62.605469 Z M 1096.109375 61.8125 C 1096.109375 62.839844 1095.871094 62.839844 1094.921875 62.050781 C 1094.289062 61.496094 1093.738281 60.550781 1093.738281 59.917969 C 1093.738281 58.890625 1093.972656 58.890625 1094.921875 59.679688 C 1095.554688 60.234375 1096.109375 61.183594 1096.109375 61.8125 Z M 810.804688 66.398438 C 815.785156 69.242188 820.054688 71.769531 820.371094 72.164062 C 820.605469 72.480469 821.082031 73.984375 821.316406 75.5625 L 821.710938 78.328125 L 811.597656 74.300781 C 806.066406 72.007812 797.292969 69.164062 792.078125 67.898438 L 782.75 65.605469 L 791.050781 63.550781 C 795.632812 62.367188 799.898438 61.417969 800.613281 61.339844 C 801.242188 61.261719 805.828125 63.550781 810.804688 66.398438 Z M 1118.472656 68.136719 L 1123.769531 71.058594 L 1120.449219 72.480469 C 1115.628906 74.378906 1115.074219 74.300781 1110.492188 70.269531 C 1107.015625 67.1875 1106.382812 66.238281 1106.382812 63.949219 L 1106.382812 61.183594 L 1109.78125 63.238281 C 1111.597656 64.34375 1115.46875 66.554688 1118.472656 68.136719 Z M 1100.058594 65.765625 C 1100.058594 67.503906 1099.902344 67.660156 1098.875 66.792969 C 1098.242188 66.238281 1097.6875 64.894531 1097.6875 63.867188 C 1097.6875 62.128906 1097.847656 61.972656 1098.875 62.839844 C 1099.503906 63.394531 1100.058594 64.738281 1100.058594 65.765625 Z M 832.933594 65.449219 C 832.933594 65.84375 832.617188 65.84375 832.144531 65.605469 C 831.75 65.371094 831.355469 64.5 831.355469 63.789062 C 831.355469 62.605469 831.511719 62.605469 832.144531 63.632812 C 832.539062 64.265625 832.933594 65.132812 832.933594 65.449219 Z M 829.773438 66.949219 C 829.773438 69.320312 827.796875 68.136719 827.5625 65.605469 C 827.324219 63.632812 827.402344 63.472656 828.507812 64.34375 C 829.222656 64.976562 829.773438 66.082031 829.773438 66.949219 Z M 1096.109375 67.425781 C 1096.109375 68.609375 1095.949219 68.609375 1095.316406 67.582031 C 1094.289062 66.003906 1094.289062 64.976562 1095.316406 65.605469 C 1095.792969 65.84375 1096.109375 66.714844 1096.109375 67.425781 Z M 825.824219 70.902344 C 825.824219 72.957031 825.664062 73.035156 824.242188 72.164062 C 823.136719 71.453125 822.660156 70.269531 822.660156 68.453125 C 822.660156 65.84375 822.660156 65.765625 824.242188 67.1875 C 825.109375 67.976562 825.824219 69.636719 825.824219 70.902344 Z M 1103.535156 67.265625 C 1104.328125 67.582031 1104.800781 68.6875 1104.800781 70.585938 C 1104.800781 73.273438 1104.800781 73.351562 1103.21875 71.929688 C 1102.351562 71.136719 1101.640625 69.636719 1101.640625 68.609375 C 1101.640625 66.632812 1101.71875 66.554688 1103.535156 67.265625 Z M 833.960938 71.769531 C 834.4375 73.507812 834.4375 73.507812 832.855469 71.613281 C 831.117188 69.480469 830.800781 67.742188 832.460938 69.085938 C 833.09375 69.558594 833.726562 70.824219 833.960938 71.769531 Z M 1100.058594 72.957031 C 1100.058594 74.929688 1099.980469 74.929688 1098.875 73.429688 C 1098.242188 72.640625 1097.6875 71.296875 1097.6875 70.425781 C 1097.6875 69.242188 1097.925781 69.164062 1098.875 69.953125 C 1099.503906 70.507812 1100.058594 71.851562 1100.058594 72.957031 Z M 830.5625 74.457031 C 830.5625 76.117188 830.40625 76.195312 828.984375 75.328125 C 827.957031 74.695312 827.402344 73.429688 827.402344 72.007812 C 827.402344 69.796875 827.402344 69.714844 828.984375 71.136719 C 829.851562 71.929688 830.5625 73.429688 830.5625 74.457031 Z M 1111.28125 73.589844 L 1113.414062 75.328125 L 1111.042969 76.195312 C 1107.566406 77.382812 1106.382812 76.589844 1106.382812 72.957031 C 1106.382812 69.480469 1106.066406 69.398438 1111.28125 73.589844 Z M 1136.648438 77.066406 C 1141.789062 79.355469 1145.738281 81.410156 1145.5 81.726562 C 1145.183594 81.964844 1141.867188 82.992188 1138.152344 83.941406 L 1131.277344 85.597656 L 1127.007812 82.753906 C 1124.714844 81.175781 1121.554688 78.960938 1120.054688 77.777344 L 1117.367188 75.644531 L 1121.554688 73.984375 C 1123.847656 73.113281 1126.140625 72.5625 1126.535156 72.71875 C 1127.007812 72.878906 1131.511719 74.851562 1136.648438 77.066406 Z M 824.875 74.851562 C 826.058594 76.039062 826.136719 80.226562 825.03125 80.226562 C 824.164062 80.226562 823.925781 79.671875 823.136719 76.039062 C 822.582031 73.746094 823.292969 73.273438 824.875 74.851562 Z M 837.675781 75.5625 C 837.675781 76.039062 837.359375 76.117188 836.886719 75.878906 C 836.492188 75.644531 836.097656 75.011719 836.097656 74.617188 C 836.097656 74.140625 836.492188 74.0625 836.886719 74.300781 C 837.359375 74.535156 837.675781 75.167969 837.675781 75.5625 Z M 1104.011719 77.617188 C 1104.011719 80.542969 1102.113281 79.355469 1101.796875 76.273438 C 1101.5625 73.902344 1101.640625 73.746094 1102.746094 74.617188 C 1103.457031 75.246094 1104.011719 76.589844 1104.011719 77.617188 Z M 834.042969 75.957031 C 834.753906 76.589844 835.304688 77.699219 835.304688 78.328125 C 835.304688 79.277344 835.070312 79.277344 833.726562 78.488281 C 832.855469 77.933594 832.144531 76.828125 832.144531 76.117188 C 832.144531 74.378906 832.460938 74.378906 834.042969 75.957031 Z M 830.40625 79.75 C 831.75 82.359375 831.277344 82.992188 829.0625 81.804688 C 828.035156 81.332031 827.402344 80.148438 827.402344 78.960938 C 827.402344 76.355469 828.984375 76.828125 830.40625 79.75 Z M 1100.058594 80.066406 C 1100.058594 80.621094 1099.742188 80.859375 1099.269531 80.621094 C 1098.875 80.382812 1098.476562 79.355469 1098.476562 78.410156 C 1098.476562 76.984375 1098.636719 76.90625 1099.269531 77.855469 C 1099.664062 78.488281 1100.058594 79.515625 1100.058594 80.066406 Z M 1121.792969 81.492188 C 1125.03125 83.941406 1127.71875 86.074219 1127.71875 86.230469 C 1127.71875 86.390625 1125.742188 87.101562 1123.371094 87.8125 L 1118.949219 89.078125 L 1114.363281 84.019531 C 1109.859375 79.199219 1109.78125 79.039062 1111.4375 78.09375 C 1114.285156 76.433594 1115.707031 76.90625 1121.792969 81.492188 Z M 839.257812 81.726562 C 839.179688 82.753906 839.019531 82.753906 838.070312 81.492188 C 836.570312 79.4375 836.570312 78.171875 838.070312 79.4375 C 838.703125 79.988281 839.257812 81.015625 839.257812 81.726562 Z M 1116.023438 89.867188 C 1115.707031 90.183594 1114.363281 90.65625 1113.019531 90.972656 C 1110.808594 91.367188 1110.410156 91.128906 1108.121094 87.574219 C 1105.511719 83.542969 1104.878906 80.621094 1106.460938 80.066406 C 1107.566406 79.671875 1116.734375 89.15625 1116.023438 89.867188 Z M 836.097656 84.335938 C 836.097656 85.597656 835.859375 85.597656 834.515625 84.808594 C 833.644531 84.257812 832.933594 82.914062 832.933594 81.886719 C 832.933594 80.066406 833.015625 79.988281 834.515625 81.410156 C 835.386719 82.203125 836.097656 83.464844 836.097656 84.335938 Z M 825.425781 82.515625 C 825.980469 83.464844 828.351562 103.300781 827.878906 103.695312 C 827.640625 103.933594 824.953125 91.289062 823.847656 84.730469 C 823.453125 82.042969 824.320312 80.777344 825.425781 82.515625 Z M 1103.21875 85.996094 C 1103.21875 87.890625 1102.984375 88.207031 1102.429688 87.335938 C 1101.402344 85.757812 1101.402344 82.359375 1102.429688 82.992188 C 1102.902344 83.230469 1103.21875 84.652344 1103.21875 85.996094 Z M 831.355469 85.757812 C 831.355469 88.285156 834.988281 112.625 836.492188 120.449219 C 837.597656 125.898438 838.308594 130.402344 838.152344 130.5625 C 837.992188 130.71875 837.125 129.0625 836.175781 126.925781 C 833.960938 121.632812 830.960938 108.753906 829.457031 97.609375 C 827.246094 81.726562 827.246094 83.308594 829.457031 84.335938 C 830.484375 84.808594 831.355469 85.441406 831.355469 85.757812 Z M 840.839844 86.941406 C 840.839844 88.523438 838.703125 87.574219 838.230469 85.679688 C 837.914062 84.414062 838.070312 84.335938 839.335938 85.046875 C 840.128906 85.441406 840.839844 86.308594 840.839844 86.941406 Z M 1099.03125 86.707031 C 1098.792969 87.335938 1098.558594 87.101562 1098.558594 86.230469 C 1098.476562 85.363281 1098.714844 84.886719 1098.953125 85.203125 C 1099.191406 85.441406 1099.269531 86.152344 1099.03125 86.707031 Z M 1096.421875 89.390625 C 1097.449219 97.375 1097.765625 96.898438 1088.441406 101.484375 C 1063.785156 113.492188 1036.597656 131.746094 1019.132812 148.105469 C 1011.464844 155.296875 1016.601562 148.894531 1028.140625 136.882812 C 1037.070312 127.636719 1053.589844 113.019531 1062.914062 106.222656 C 1072.476562 99.191406 1093.816406 85.757812 1095.394531 85.757812 C 1095.710938 85.757812 1096.109375 87.417969 1096.421875 89.390625 Z M 838.46875 97.53125 C 841.46875 114.125 844.867188 131.035156 846.84375 139.332031 C 847.871094 143.835938 848.742188 147.710938 848.742188 147.945312 C 848.742188 148.261719 847.320312 146.367188 845.660156 143.757812 C 843.367188 140.28125 842.023438 137.042969 840.601562 130.800781 C 838.230469 121 835.621094 106.382812 834.199219 94.921875 L 833.25 86.707031 L 834.988281 87.496094 C 836.492188 88.207031 836.964844 89.628906 838.46875 97.53125 Z M 1107.882812 92.949219 C 1105.117188 94.6875 1103.695312 92.949219 1104.5625 88.917969 L 1105.039062 86.46875 L 1106.933594 89.390625 C 1108.59375 91.683594 1108.753906 92.394531 1107.882812 92.949219 Z M 845.265625 90.261719 C 844.710938 90.816406 843.210938 89.707031 843.210938 88.761719 C 843.210938 88.285156 843.683594 88.285156 844.394531 88.917969 C 845.105469 89.472656 845.421875 90.105469 845.265625 90.261719 Z M 1135.859375 92.15625 C 1139.417969 95.320312 1140.207031 96.425781 1139.574219 97.292969 C 1138.546875 98.402344 1131.277344 101.085938 1130.167969 100.613281 C 1129.855469 100.457031 1127.484375 98.164062 1125.03125 95.476562 L 1120.527344 90.578125 L 1124.320312 89.390625 C 1130.167969 87.652344 1131.039062 87.8125 1135.859375 92.15625 Z M 842.972656 94.609375 C 843.445312 96.503906 847.398438 112.230469 851.824219 129.613281 C 856.25 147 859.804688 161.378906 859.804688 161.539062 C 859.804688 162.089844 853.089844 154.269531 852.140625 152.609375 C 850.480469 149.527344 839.257812 95.792969 839.257812 90.894531 C 839.257812 88.363281 842.101562 91.128906 842.972656 94.609375 Z M 1101.71875 93.816406 C 1101.007812 95.398438 1100.929688 95.238281 1100.929688 92.472656 C 1100.929688 90.023438 1101.085938 89.628906 1101.640625 90.65625 C 1102.113281 91.445312 1102.191406 92.632812 1101.71875 93.816406 Z M 1124.558594 102.824219 C 1122.582031 103.457031 1120.449219 103.933594 1119.816406 103.851562 C 1118.710938 103.851562 1112.703125 95.238281 1112.703125 93.738281 C 1112.703125 93.421875 1113.890625 92.710938 1115.3125 92.316406 C 1117.761719 91.527344 1118 91.683594 1122.976562 96.664062 L 1128.113281 101.796875 Z M 850.796875 104.722656 C 856.171875 119.421875 860.832031 133.882812 866.601562 153.714844 C 869.449219 163.515625 871.898438 171.96875 872.132812 172.523438 C 872.53125 173.945312 864.707031 167.386719 863.363281 165.253906 C 862.492188 163.828125 844.789062 95.320312 844.789062 93.265625 C 844.789062 90.816406 847.636719 96.265625 850.796875 104.722656 Z M 1113.179688 98.953125 C 1117.128906 105.195312 1117.128906 105.195312 1113.730469 106.066406 L 1110.726562 106.777344 L 1108.59375 101.71875 C 1107.328125 98.953125 1106.382812 96.347656 1106.382812 96.03125 C 1106.382812 95.476562 1107.726562 94.84375 1109.699219 94.527344 C 1110.015625 94.527344 1111.597656 96.503906 1113.179688 98.953125 Z M 856.089844 106.699219 C 861.625 117.839844 868.972656 134.828125 873.636719 147.394531 C 876.71875 155.613281 885.886719 182.714844 885.886719 183.585938 C 885.886719 183.980469 877.902344 178.289062 876.242188 176.710938 C 875.375 175.921875 872.53125 167.542969 869.289062 156.164062 C 863.914062 137.4375 855.378906 111.042969 851.429688 100.769531 C 848.582031 93.34375 850.953125 96.347656 856.089844 106.699219 Z M 1106.617188 102.035156 C 1107.882812 104.878906 1108.753906 107.410156 1108.59375 107.566406 C 1108.355469 107.726562 1107.410156 107.960938 1106.382812 108.042969 C 1104.722656 108.277344 1104.40625 107.804688 1103.378906 103.773438 C 1102.273438 99.429688 1102.429688 96.820312 1103.773438 96.820312 C 1104.089844 96.820312 1105.433594 99.191406 1106.617188 102.035156 Z M 864.074219 113.414062 C 876.242188 133.882812 883.515625 148.183594 890.785156 166.359375 C 895.371094 177.738281 900.191406 191.011719 899.875 191.328125 C 899.796875 191.488281 897.109375 190.144531 894.027344 188.484375 L 888.335938 185.324219 L 884.304688 172.523438 C 877.035156 149.527344 866.839844 123.765625 857.277344 104.328125 C 853.957031 97.453125 856.960938 101.484375 864.074219 113.414062 Z M 1096.820312 103.695312 C 1096.582031 111.519531 1096.503906 111.597656 1087.808594 115.074219 C 1076.746094 119.421875 1053.273438 131.195312 1041.972656 137.910156 C 1032.488281 143.601562 1016.445312 154.503906 1011.941406 158.296875 C 1010.675781 159.40625 1012.652344 157.269531 1016.367188 153.636719 C 1029.957031 140.125 1053.195312 122.898438 1072.792969 111.753906 C 1081.011719 107.09375 1095 100.140625 1096.34375 99.980469 C 1096.660156 99.980469 1096.820312 101.640625 1096.820312 103.695312 Z M 1099.820312 101.71875 C 1099.585938 102.351562 1099.347656 102.113281 1099.347656 101.246094 C 1099.269531 100.375 1099.503906 99.902344 1099.742188 100.21875 C 1099.980469 100.457031 1100.058594 101.167969 1099.820312 101.71875 Z M 1132.144531 108.515625 C 1132.460938 109.699219 1132.144531 110.886719 1131.195312 111.914062 C 1129.695312 113.574219 1125.429688 116.101562 1124.953125 115.628906 C 1124.320312 114.917969 1120.605469 107.015625 1120.605469 106.460938 C 1120.605469 106.066406 1122.503906 105.195312 1124.796875 104.5625 C 1128.746094 103.457031 1128.984375 103.457031 1130.328125 105.039062 C 1131.039062 105.988281 1131.910156 107.488281 1132.144531 108.515625 Z M 1102.351562 106.933594 C 1102.902344 108.832031 1102.824219 109.464844 1101.875 109.859375 C 1100.136719 110.492188 1099.902344 110.015625 1100.53125 106.777344 C 1101.085938 103.457031 1101.402344 103.535156 1102.351562 106.933594 Z M 828.746094 106.460938 C 828.507812 107.09375 828.273438 106.855469 828.273438 105.988281 C 828.191406 105.117188 828.429688 104.644531 828.667969 104.960938 C 828.90625 105.195312 828.984375 105.90625 828.746094 106.460938 Z M 871.738281 118.3125 C 888.492188 140.359375 905.328125 170.703125 913.941406 194.09375 L 914.96875 197.019531 L 912.125 196.308594 C 910.542969 195.832031 907.699219 194.964844 905.878906 194.332031 C 902.71875 193.148438 902.480469 192.910156 900.425781 186.667969 C 892.601562 162.804688 880.039062 136.171875 863.28125 108.042969 C 862.019531 105.90625 862.019531 105.90625 863.441406 107.644531 C 864.308594 108.59375 868.023438 113.335938 871.738281 118.3125 Z M 1121.792969 113.652344 C 1122.976562 116.574219 1122.976562 116.574219 1120.84375 117.445312 C 1115.945312 119.339844 1115.152344 118.945312 1113.414062 113.890625 C 1112.546875 111.359375 1112.070312 109.070312 1112.308594 108.753906 C 1112.625 108.515625 1113.96875 107.882812 1115.3125 107.410156 C 1117.605469 106.617188 1117.917969 106.699219 1119.183594 108.59375 C 1119.894531 109.78125 1121.082031 111.992188 1121.792969 113.652344 Z M 1111.675781 114.835938 L 1113.414062 119.65625 L 1110.648438 120.527344 C 1109.070312 121.078125 1107.644531 121.316406 1107.410156 121.078125 C 1107.171875 120.84375 1106.539062 118.3125 1106.066406 115.46875 C 1105.117188 110.492188 1105.117188 110.332031 1106.699219 110.015625 C 1109.542969 109.464844 1109.859375 109.859375 1111.675781 114.835938 Z M 1104.484375 116.96875 C 1105.039062 119.578125 1105.273438 121.949219 1105.117188 122.1875 C 1104.957031 122.503906 1103.929688 122.898438 1102.824219 123.054688 C 1100.847656 123.449219 1100.847656 123.449219 1100.847656 117.601562 C 1100.847656 112.464844 1101.007812 111.753906 1102.191406 111.992188 C 1103.140625 112.148438 1103.851562 113.652344 1104.484375 116.96875 Z M 889.363281 133.566406 C 898.292969 144.550781 906.90625 156.71875 914.101562 168.730469 C 918.210938 175.523438 929.351562 197.097656 929.351562 198.125 C 929.351562 198.835938 922.871094 198.757812 919.632812 198.046875 C 917.578125 197.652344 917.023438 196.703125 914.257812 189.667969 C 911.097656 181.609375 899.003906 156.796875 894.578125 149.054688 C 890.152344 141.386719 879.484375 124.953125 874.664062 118.550781 L 870 112.230469 L 876.480469 118.945312 C 880.039062 122.660156 885.808594 129.21875 889.363281 133.566406 Z M 1099.269531 118.472656 C 1099.269531 123.449219 1099.03125 124.320312 1097.847656 124.636719 C 1096.503906 125.03125 1096.421875 124.714844 1097.054688 120.605469 C 1098.476562 110.808594 1099.269531 110.015625 1099.269531 118.472656 Z M 1094.449219 117.128906 C 1092.234375 125.820312 1091.761719 126.453125 1085.992188 128.351562 C 1064.496094 135.621094 1032.328125 150.316406 1014.546875 161.0625 C 1009.804688 163.910156 1006.011719 165.964844 1006.011719 165.648438 C 1006.089844 164.621094 1031.382812 146.367188 1037.625 142.808594 C 1039.125 142.019531 1043.394531 139.492188 1047.03125 137.199219 C 1057.777344 130.71875 1088.835938 115.785156 1095.078125 114.203125 C 1095.160156 114.203125 1094.84375 115.546875 1094.449219 117.128906 Z M 890.074219 127.796875 C 902.957031 139.886719 918.367188 157.667969 928.246094 171.890625 C 934.332031 180.660156 943.972656 197.097656 943.339844 197.652344 C 943.183594 197.808594 940.574219 198.125 937.570312 198.441406 L 932.117188 198.914062 L 926.664062 188.011719 C 915.207031 164.621094 897.898438 138.9375 882.328125 122.1875 C 876.324219 115.707031 880.117188 118.472656 890.074219 127.796875 Z M 1123.769531 120.527344 C 1123.769531 122.976562 1121.714844 126.453125 1119.421875 127.953125 C 1118.234375 128.746094 1117.128906 129.21875 1116.972656 129.0625 C 1116.8125 128.824219 1116.578125 127.007812 1116.496094 124.871094 C 1116.261719 121.238281 1116.339844 121.078125 1119.027344 120.050781 C 1122.976562 118.628906 1123.769531 118.710938 1123.769531 120.527344 Z M 1114.601562 125.742188 C 1114.835938 127.71875 1114.835938 129.773438 1114.601562 130.167969 C 1114.046875 130.957031 1108.753906 133.40625 1108.355469 133.011719 C 1108.277344 132.855469 1107.960938 130.71875 1107.644531 128.269531 C 1107.171875 123.925781 1107.25 123.765625 1109.382812 123.054688 C 1113.414062 121.554688 1114.046875 121.871094 1114.601562 125.742188 Z M 1105.90625 128.035156 C 1106.699219 132.933594 1106.066406 134.355469 1102.746094 135.382812 L 1099.902344 136.25 L 1100.375 133.328125 C 1100.613281 131.746094 1100.847656 129.296875 1100.847656 127.875 C 1100.847656 125.503906 1101.5625 124.871094 1104.484375 124.558594 C 1105.039062 124.558594 1105.671875 126.058594 1105.90625 128.035156 Z M 1098.953125 129.691406 C 1098.714844 131.746094 1098.476562 134.039062 1098.476562 134.910156 C 1098.476562 136.171875 1094.84375 138.464844 1094.050781 137.753906 C 1093.578125 137.199219 1096.34375 127.242188 1097.136719 126.691406 C 1099.03125 125.425781 1099.503906 126.136719 1098.953125 129.691406 Z M 1092.945312 133.171875 C 1092.234375 136.488281 1091.445312 138.226562 1090.339844 138.859375 C 1088.996094 139.570312 1088.835938 139.492188 1089.390625 138.226562 C 1089.707031 137.359375 1090.734375 134.671875 1091.683594 132.222656 C 1092.550781 129.773438 1093.421875 127.875 1093.65625 128.035156 C 1093.816406 128.269531 1093.5 130.5625 1092.945312 133.171875 Z M 1086.78125 134.910156 L 1083.621094 140.675781 L 1063.625 147.472656 C 1039.835938 155.453125 1029.167969 159.640625 1011.148438 168.097656 C 1003.800781 171.496094 998.109375 173.945312 998.503906 173.550781 C 999.691406 172.441406 1010.992188 165.410156 1019.84375 160.273438 C 1029.644531 154.664062 1049.953125 144.550781 1059.359375 140.597656 C 1067.5 137.199219 1088.285156 129.296875 1089.230469 129.296875 C 1089.625 129.21875 1088.519531 131.828125 1086.78125 134.910156 Z M 1113.179688 135.304688 C 1111.992188 137.675781 1107.410156 142.335938 1106.933594 141.785156 C 1106.699219 141.625 1106.777344 140.203125 1106.933594 138.621094 C 1107.25 136.171875 1107.726562 135.621094 1110.570312 134.511719 C 1112.386719 133.882812 1113.96875 133.25 1114.125 133.25 C 1114.207031 133.171875 1113.808594 134.117188 1113.179688 135.304688 Z M 1105.195312 138.859375 C 1104.328125 142.730469 1103.457031 144.074219 1100.769531 145.496094 C 1099.425781 146.128906 1098.242188 146.601562 1098.082031 146.445312 C 1098.003906 146.289062 1098.242188 144.390625 1098.714844 142.097656 C 1099.425781 138.621094 1099.902344 137.988281 1101.957031 137.277344 C 1105.671875 136.09375 1105.75 136.171875 1105.195312 138.859375 Z M 1096.421875 143.363281 C 1095.476562 146.761719 1094.765625 147.710938 1092.710938 148.578125 C 1091.285156 149.132812 1090.101562 149.527344 1090.023438 149.449219 C 1089.863281 149.371094 1090.65625 147.15625 1091.601562 144.628906 C 1092.945312 141.070312 1093.894531 139.808594 1095.316406 139.414062 C 1096.421875 139.175781 1097.371094 139.015625 1097.449219 139.097656 C 1097.609375 139.175781 1097.136719 141.070312 1096.421875 143.363281 Z M 1090.574219 141.386719 C 1090.574219 141.546875 1089.785156 143.679688 1088.914062 146.128906 C 1087.570312 149.449219 1086.703125 150.632812 1084.964844 151.265625 L 1082.671875 152.054688 L 1085.121094 147.15625 C 1086.542969 144.46875 1088.046875 142.019531 1088.519531 141.703125 C 1089.46875 141.070312 1090.574219 140.914062 1090.574219 141.386719 Z M 1082.671875 147.710938 C 1081.25 150.160156 1079.511719 152.53125 1078.71875 152.925781 C 1077.851562 153.398438 1078.71875 151.582031 1080.933594 148.261719 C 1082.988281 145.261719 1084.726562 142.96875 1084.886719 143.046875 C 1085.042969 143.207031 1084.015625 145.261719 1082.671875 147.710938 Z M 1079.035156 147.550781 C 1074.214844 154.347656 1074.136719 154.425781 1061.253906 157.984375 C 1036.753906 164.855469 1021.503906 169.757812 997.320312 178.527344 C 991.628906 180.582031 994.867188 178.132812 1003.246094 174.023438 C 1025.53125 162.960938 1046.949219 154.503906 1073.1875 146.128906 C 1077.773438 144.707031 1081.644531 143.523438 1081.722656 143.523438 C 1081.882812 143.441406 1080.695312 145.339844 1079.035156 147.550781 Z M 850.003906 153.953125 C 850.71875 155.214844 851.113281 156.402344 850.875 156.558594 C 850.480469 156.957031 846.84375 151.582031 846.132812 149.371094 C 845.660156 148.105469 845.894531 148.183594 847.160156 149.765625 C 848.03125 150.871094 849.375 152.765625 850.003906 153.953125 Z M 1100.058594 148.894531 C 1100.058594 149.289062 1098.558594 150.792969 1096.820312 152.214844 L 1093.578125 154.820312 L 1094.84375 152.292969 C 1096.421875 149.210938 1100.058594 146.839844 1100.058594 148.894531 Z M 1091.601562 153.792969 C 1089.863281 156.402344 1086.308594 159.246094 1084.726562 159.246094 C 1084.570312 159.246094 1085.28125 157.667969 1086.308594 155.769531 C 1088.046875 152.6875 1090.417969 150.871094 1093.183594 150.632812 C 1093.5 150.554688 1092.789062 151.976562 1091.601562 153.792969 Z M 1082.75 157.585938 C 1081.171875 160.035156 1079.511719 161.617188 1078.167969 162.011719 C 1077.0625 162.25 1076.035156 162.40625 1075.875 162.25 C 1075.324219 161.695312 1081.960938 153.792969 1083.226562 153.558594 C 1085.4375 153.003906 1085.4375 153.398438 1082.75 157.585938 Z M 1077.378906 156.242188 C 1073.664062 161.378906 1070.582031 164.621094 1069.238281 165.015625 C 1068.128906 165.332031 1067.8125 165.171875 1068.289062 164.382812 C 1069.316406 162.40625 1076.429688 155.296875 1077.296875 155.296875 C 1077.851562 155.296875 1077.851562 155.691406 1077.378906 156.242188 Z M 1068.367188 160.90625 C 1066.550781 163.117188 1064.257812 165.410156 1063.390625 165.964844 C 1061.492188 167.226562 991.867188 184.847656 991.234375 184.21875 C 990.046875 183.03125 999.691406 179.316406 1026.875 170.308594 C 1036.042969 167.226562 1063.308594 159.089844 1071.449219 156.957031 C 1071.609375 156.875 1070.265625 158.695312 1068.367188 160.90625 Z M 857.671875 162.566406 C 859.570312 164.855469 861.464844 167.625 861.703125 168.730469 C 862.175781 170.308594 861.542969 169.914062 858.699219 166.753906 C 855.695312 163.433594 852.773438 158.457031 853.878906 158.457031 C 854.035156 158.457031 855.695312 160.351562 857.671875 162.566406 Z M 1084.253906 161.933594 C 1084.253906 162.171875 1083.066406 163.039062 1081.722656 163.988281 L 1079.117188 165.726562 L 1081.328125 163.671875 C 1083.460938 161.695312 1084.253906 161.222656 1084.253906 161.933594 Z M 1076.351562 165.253906 C 1076.351562 165.726562 1072.003906 169.519531 1070.265625 170.546875 C 1068.210938 171.730469 1068.128906 170.390625 1070.105469 168.253906 C 1072.320312 165.804688 1076.351562 163.910156 1076.351562 165.253906 Z M 1064.890625 170.703125 C 1062.757812 172.601562 1059.910156 174.578125 1058.566406 174.972656 C 1056.433594 175.761719 1056.59375 175.445312 1060.148438 172.207031 C 1063.863281 168.808594 1066.3125 167.308594 1068.050781 167.226562 C 1068.527344 167.226562 1067.101562 168.808594 1064.890625 170.703125 Z M 870 174.496094 C 872.214844 176.632812 874.03125 178.6875 874.03125 179.160156 C 874.03125 180.109375 873.875 179.949219 868.421875 175.605469 C 866.363281 174.023438 864.546875 172.046875 864.308594 171.101562 C 863.757812 168.964844 864.941406 169.675781 870 174.496094 Z M 1056.195312 172.839844 C 1054.140625 174.734375 1051.691406 176.632812 1050.742188 177.183594 C 1047.742188 178.765625 994.15625 189.984375 989.179688 190.066406 C 988.074219 190.066406 987.992188 189.828125 988.703125 188.644531 C 989.652344 187.140625 994.632812 185.71875 1039.601562 174.339844 C 1049.636719 171.8125 1058.25 169.675781 1058.882812 169.597656 C 1059.515625 169.597656 1058.25 171.019531 1056.195312 172.839844 Z M 861.542969 172.441406 C 863.597656 174.734375 865.179688 178.210938 863.996094 178.132812 C 863.203125 178.132812 858.226562 171.96875 858.226562 171.019531 C 858.226562 169.757812 859.488281 170.308594 861.542969 172.441406 Z M 875.375 184.613281 C 875.929688 185.640625 876.164062 186.589844 876.007812 186.746094 C 875.613281 187.21875 867.707031 182.164062 867.707031 181.453125 C 867.707031 181.214844 867.472656 180.109375 867.15625 179.003906 C 866.679688 177.105469 866.761719 177.183594 870.554688 179.949219 C 872.6875 181.53125 874.820312 183.585938 875.375 184.613281 Z M 1055.011719 178.527344 C 1055.011719 178.921875 1049.320312 182.558594 1047.742188 183.191406 C 1045.371094 184.058594 1046.160156 183.191406 1050.03125 180.660156 C 1053.351562 178.449219 1055.011719 177.738281 1055.011719 178.527344 Z M 886.28125 186.746094 C 885.726562 187.300781 877.113281 181.847656 876.402344 180.582031 C 875.929688 179.714844 877.746094 180.582031 881.066406 182.796875 C 884.066406 184.847656 886.359375 186.589844 886.28125 186.746094 Z M 1041.890625 183.664062 C 1038.414062 185.957031 1035.175781 187.300781 1028.929688 188.722656 C 1014.941406 192.121094 984.59375 196.859375 984.675781 195.675781 C 984.832031 193.304688 987.597656 192.277344 1002.140625 189.667969 C 1018.65625 186.589844 1043.316406 181.453125 1043.867188 180.898438 C 1044.027344 180.742188 1044.738281 180.582031 1045.371094 180.582031 C 1046.003906 180.582031 1044.5 182.003906 1041.890625 183.664062 Z M 866.996094 184.691406 C 868.261719 186.984375 867.15625 186.351562 865.257812 183.507812 C 863.914062 181.6875 863.835938 181.292969 864.785156 182.082031 C 865.574219 182.714844 866.601562 183.902344 866.996094 184.691406 Z M 887.863281 190.695312 C 888.574219 192.59375 887.941406 192.59375 883.277344 190.777344 C 879.878906 189.511719 878.695312 188.5625 878.0625 186.824219 L 877.269531 184.613281 L 882.328125 187.0625 C 885.175781 188.484375 887.625 190.066406 887.863281 190.695312 Z M 988.230469 185.324219 C 987.992188 185.71875 987.359375 186.113281 986.964844 186.113281 C 986.492188 186.113281 986.414062 185.71875 986.648438 185.324219 C 986.886719 184.847656 987.519531 184.535156 987.914062 184.535156 C 988.386719 184.535156 988.46875 184.847656 988.230469 185.324219 Z M 877.902344 192.59375 C 878.378906 193.9375 878.773438 195.203125 878.773438 195.359375 C 878.773438 196.386719 872.132812 190.933594 871.1875 189.195312 C 869.605469 186.035156 869.683594 186.035156 873.558594 188.167969 C 875.929688 189.511719 877.351562 190.933594 877.902344 192.59375 Z M 986.097656 189.195312 C 985.542969 190.066406 984.515625 190.933594 983.804688 191.09375 C 982.621094 191.410156 982.539062 191.25 983.332031 189.984375 C 983.804688 189.195312 984.753906 188.40625 985.464844 188.167969 C 986.097656 188.011719 986.730469 187.851562 986.886719 187.773438 C 986.964844 187.773438 986.648438 188.40625 986.097656 189.195312 Z M 979.933594 191.25 C 979.378906 191.882812 978.429688 192.4375 977.796875 192.4375 C 976.769531 192.4375 976.769531 192.199219 977.5625 191.25 C 978.113281 190.617188 979.0625 190.066406 979.695312 190.066406 C 980.722656 190.066406 980.722656 190.300781 979.933594 191.25 Z M 897.34375 193.699219 C 902.5625 195.675781 901.691406 196.148438 895.371094 194.648438 C 892.839844 194.09375 891.023438 193.148438 890.46875 192.199219 C 889.757812 190.855469 889.835938 190.695312 891.101562 191.25 C 891.972656 191.566406 894.738281 192.671875 897.34375 193.699219 Z M 1026.164062 192.59375 C 1020.476562 195.597656 1006.804688 198.519531 984.121094 201.445312 C 981.75 201.761719 981.671875 201.679688 982.460938 199.941406 C 983.09375 198.441406 984.121094 197.96875 987.359375 197.570312 C 999.691406 195.992188 1013.597656 193.859375 1019.84375 192.515625 C 1029.011719 190.539062 1029.957031 190.539062 1026.164062 192.59375 Z M 884.699219 193.460938 C 888.414062 194.886719 889.441406 195.675781 889.917969 197.414062 C 890.46875 199.390625 890.390625 199.546875 888.414062 199.074219 C 883.515625 197.886719 881.382812 196.542969 880.511719 194.09375 C 880.039062 192.75 879.722656 191.644531 879.800781 191.644531 C 879.957031 191.644531 882.09375 192.4375 884.699219 193.460938 Z M 974.003906 192.4375 C 973.769531 192.832031 973.136719 193.226562 972.742188 193.226562 C 972.265625 193.226562 972.1875 192.832031 972.425781 192.4375 C 972.660156 191.960938 973.292969 191.644531 973.6875 191.644531 C 974.164062 191.644531 974.242188 191.960938 974.003906 192.4375 Z M 983.09375 194.804688 C 982.304688 196.308594 979.140625 197.097656 979.140625 195.753906 C 979.140625 194.648438 981.039062 193.226562 982.460938 193.226562 C 983.726562 193.226562 983.804688 193.460938 983.09375 194.804688 Z M 976.613281 195.597656 C 976.058594 196.464844 974.953125 197.175781 974.085938 197.175781 C 972.660156 197.175781 972.582031 197.097656 974.003906 195.597656 C 974.796875 194.726562 975.902344 194.015625 976.535156 194.015625 C 977.402344 194.015625 977.402344 194.332031 976.613281 195.597656 Z M 880.355469 199.46875 C 882.328125 203.261719 880.355469 202.707031 877.113281 198.679688 L 874.503906 195.4375 L 877.035156 196.703125 C 878.378906 197.414062 879.878906 198.679688 880.355469 199.46875 Z M 897.898438 197.097656 C 901.21875 197.808594 902.402344 198.441406 902.71875 199.625 C 903.113281 201.207031 902.957031 201.207031 898.292969 200.734375 C 892.917969 200.101562 892.601562 200.023438 891.8125 197.257812 C 891.339844 195.832031 891.496094 195.4375 892.367188 195.753906 C 892.917969 195.992188 895.449219 196.625 897.898438 197.097656 Z M 969.660156 196.78125 C 969.105469 197.414062 968.15625 197.96875 967.523438 197.96875 C 966.496094 197.96875 966.496094 197.730469 967.289062 196.78125 C 967.839844 196.148438 968.789062 195.597656 969.421875 195.597656 C 970.449219 195.597656 970.449219 195.832031 969.660156 196.78125 Z M 963.730469 197.175781 C 963.492188 197.570312 962.625 197.96875 961.914062 197.96875 C 960.726562 197.96875 960.726562 197.808594 961.753906 197.175781 C 963.335938 196.148438 964.363281 196.148438 963.730469 197.175781 Z M 916.46875 200.574219 C 916.707031 200.890625 914.257812 201.128906 911.015625 201.128906 C 905.878906 201.128906 905.011719 200.890625 904.695312 199.707031 C 904.300781 198.28125 904.617188 198.28125 910.070312 199.152344 C 913.308594 199.625 916.15625 200.257812 916.46875 200.574219 Z M 980.566406 199.941406 C 979.933594 201.363281 979.0625 201.917969 977.402344 201.917969 C 974.636719 201.917969 974.796875 200.417969 977.640625 198.996094 C 980.722656 197.335938 981.59375 197.652344 980.566406 199.941406 Z M 973.453125 200.335938 C 972.820312 201.363281 971.554688 201.917969 970.132812 201.917969 C 967.917969 201.917969 967.839844 201.917969 969.261719 200.335938 C 970.054688 199.46875 971.554688 198.757812 972.582031 198.757812 C 974.242188 198.757812 974.320312 198.914062 973.453125 200.335938 Z M 888.257812 200.8125 C 890.785156 201.207031 891.339844 201.679688 892.050781 204.128906 C 892.523438 205.710938 892.839844 207.132812 892.683594 207.292969 C 892.523438 207.449219 890.863281 207.132812 889.125 206.660156 C 886.753906 206.027344 885.332031 205.078125 884.304688 203.261719 C 882.410156 200.179688 882.328125 199.230469 883.988281 199.863281 C 884.699219 200.101562 886.597656 200.574219 888.257812 200.8125 Z M 959.382812 200.734375 C 958.832031 201.363281 957.488281 201.917969 956.382812 201.917969 C 954.40625 201.917969 954.40625 201.839844 955.90625 200.734375 C 956.699219 200.101562 958.039062 199.546875 958.910156 199.546875 C 960.09375 199.546875 960.175781 199.785156 959.382812 200.734375 Z M 966.496094 200.734375 C 965.945312 201.363281 964.601562 201.917969 963.574219 201.917969 C 961.835938 201.917969 961.675781 201.761719 962.546875 200.734375 C 963.097656 200.101562 964.441406 199.546875 965.46875 199.546875 C 967.207031 199.546875 967.367188 199.707031 966.496094 200.734375 Z M 944.132812 200.8125 C 943.894531 201.050781 943.183594 201.128906 942.628906 200.890625 C 941.996094 200.652344 942.234375 200.417969 943.105469 200.417969 C 943.972656 200.335938 944.449219 200.574219 944.132812 200.8125 Z M 951.480469 201.128906 C 949.902344 202.15625 948.082031 202.15625 948.714844 201.128906 C 948.953125 200.652344 949.980469 200.335938 950.929688 200.335938 C 952.351562 200.335938 952.429688 200.496094 951.480469 201.128906 Z M 1004.984375 200.8125 C 1004.746094 201.050781 1004.035156 201.128906 1003.484375 200.890625 C 1002.851562 200.652344 1003.089844 200.417969 1003.957031 200.417969 C 1004.828125 200.335938 1005.300781 200.574219 1004.984375 200.8125 Z M 929.117188 201.601562 C 928.878906 201.839844 928.167969 201.917969 927.613281 201.679688 C 926.980469 201.445312 927.21875 201.207031 928.089844 201.207031 C 928.957031 201.128906 929.433594 201.363281 929.117188 201.601562 Z M 998.503906 202.390625 C 993.050781 203.816406 980.566406 205.949219 980.011719 205.472656 C 978.90625 204.289062 982.066406 203.339844 989.890625 202.390625 C 1001.113281 201.050781 1003.324219 201.050781 998.503906 202.390625 Z M 903.824219 203.023438 C 903.90625 203.101562 904.140625 204.050781 904.457031 205.15625 C 904.933594 207.132812 904.773438 207.292969 901.375 207.765625 C 896.398438 208.554688 894.972656 207.921875 894.027344 204.683594 L 893.15625 201.917969 L 898.371094 202.390625 C 901.296875 202.707031 903.746094 202.945312 903.824219 203.023438 Z M 923.820312 202.707031 C 925.71875 203.261719 925.71875 203.261719 923.03125 204.050781 C 921.132812 204.605469 920.105469 204.527344 919.710938 203.972656 C 918.289062 201.917969 919.710938 201.445312 923.820312 202.707031 Z M 917.339844 204.050781 C 917.183594 205 915.679688 205.710938 912.359375 206.34375 C 909.753906 206.894531 907.382812 207.132812 907.144531 206.976562 C 906.828125 206.816406 906.433594 205.789062 906.277344 204.683594 C 905.878906 202.707031 905.878906 202.707031 911.730469 202.707031 C 916.867188 202.707031 917.578125 202.867188 917.339844 204.050781 Z M 938.679688 203.5 C 937.886719 203.972656 936.703125 204.050781 935.515625 203.578125 C 933.9375 202.867188 934.09375 202.789062 936.859375 202.789062 C 939.308594 202.789062 939.707031 202.945312 938.679688 203.5 Z M 946.34375 204.289062 C 946.105469 204.683594 944.683594 205.078125 943.339844 205.078125 C 941.445312 205.078125 941.128906 204.84375 941.996094 204.289062 C 943.578125 203.261719 946.976562 203.261719 946.34375 204.289062 Z M 954.640625 204.683594 C 953.613281 205.949219 949.902344 206.34375 949.902344 205.238281 C 949.902344 204.050781 950.929688 203.5 953.300781 203.5 C 955.273438 203.5 955.511719 203.65625 954.640625 204.683594 Z M 962.386719 205.078125 C 961.675781 206.183594 960.492188 206.660156 958.671875 206.660156 C 956.066406 206.660156 955.984375 206.660156 957.410156 205.078125 C 958.199219 204.210938 959.859375 203.5 961.121094 203.5 C 963.179688 203.5 963.257812 203.65625 962.386719 205.078125 Z M 970.289062 205.078125 C 969.578125 206.105469 968.394531 206.660156 966.734375 206.660156 C 964.285156 206.660156 964.207031 206.5 965.074219 205.078125 C 965.785156 204.050781 966.972656 203.5 968.632812 203.5 C 971.082031 203.5 971.160156 203.65625 970.289062 205.078125 Z M 977.878906 204.605469 C 977.480469 205.632812 972.898438 206.894531 972.109375 206.183594 C 971.949219 206.027344 972.265625 205.394531 972.820312 204.683594 C 974.085938 203.101562 978.507812 203.023438 977.878906 204.605469 Z M 932.277344 205.472656 C 932.515625 206.265625 922.398438 211.003906 921.765625 210.453125 C 921.609375 210.214844 921.371094 209.265625 921.292969 208.238281 C 921.054688 206.660156 921.527344 206.265625 924.609375 205.394531 C 928.640625 204.289062 931.882812 204.289062 932.277344 205.472656 Z M 941.996094 206.660156 C 942.628906 206.660156 941.761719 207.609375 940.101562 208.714844 C 937.652344 210.375 936.941406 210.609375 936.386719 209.742188 C 934.804688 207.210938 936.148438 205.632812 939.230469 206.265625 C 940.101562 206.5 941.367188 206.660156 941.996094 206.660156 Z M 919.472656 209.109375 C 920.183594 211.242188 919.554688 211.875 914.101562 213.691406 C 909.277344 215.351562 909.277344 215.351562 908.410156 211.636719 C 907.855469 208.949219 907.621094 209.109375 913.152344 208.003906 C 917.101562 207.132812 919 207.449219 919.472656 209.109375 Z M 949.269531 208.320312 C 949.585938 209.265625 940.652344 218.195312 939.707031 217.960938 C 939.46875 217.878906 938.757812 216.773438 938.28125 215.429688 C 937.253906 213.058594 937.335938 212.980469 941.367188 210.214844 C 945.554688 207.449219 948.714844 206.660156 949.269531 208.320312 Z M 972.582031 217.089844 C 970.449219 222.464844 967.605469 231.234375 966.179688 236.6875 L 963.730469 246.566406 L 961.4375 237.320312 L 959.226562 228.074219 L 962.152344 222.699219 C 969.261719 209.742188 970.371094 208.320312 973.054688 208.003906 C 974.480469 207.84375 975.824219 207.609375 976.058594 207.609375 C 976.296875 207.527344 974.796875 211.796875 972.582031 217.089844 Z M 891.734375 209.03125 C 893.078125 209.03125 893.789062 209.820312 894.738281 212.585938 L 896.082031 216.140625 L 894.34375 215.273438 C 892.128906 214.167969 887.464844 209.742188 887.464844 208.792969 C 887.464844 208.398438 888.019531 208.320312 888.730469 208.554688 C 889.441406 208.792969 890.785156 209.03125 891.734375 209.03125 Z M 934.09375 208.949219 C 934.09375 209.347656 934.332031 210.214844 934.570312 210.847656 C 934.886719 211.714844 933.621094 212.980469 930.460938 214.957031 C 924.214844 218.988281 924.214844 218.988281 923.347656 215.589844 L 922.636719 212.585938 L 927.375 210.453125 C 932.515625 208.160156 934.09375 207.84375 934.09375 208.949219 Z M 958.515625 209.582031 C 957.960938 210.375 956.699219 211.953125 955.75 213.140625 L 954.011719 215.273438 L 953.140625 212.902344 C 951.957031 209.425781 952.746094 208.238281 956.382812 208.238281 C 959.304688 208.238281 959.464844 208.320312 958.515625 209.582031 Z M 966.101562 211.558594 C 964.996094 213.457031 962.78125 217.328125 961.203125 220.328125 L 958.277344 225.625 L 956.855469 222.304688 C 954.957031 217.484375 955.039062 216.933594 959.066406 212.347656 C 962.152344 208.871094 963.097656 208.238281 965.390625 208.238281 L 968.15625 208.238281 Z M 906.671875 212.429688 C 907.066406 214.085938 907.304688 215.589844 907.144531 215.667969 C 906.988281 215.824219 905.167969 216.222656 903.113281 216.457031 C 899.796875 216.933594 899.320312 216.851562 898.292969 215.195312 C 897.660156 214.167969 896.871094 212.585938 896.632812 211.636719 C 896.160156 210.058594 896.398438 209.898438 899.480469 209.582031 C 905.5625 209.03125 905.960938 209.1875 906.671875 212.429688 Z M 952.429688 217.328125 C 951.480469 218.90625 943.339844 229.574219 943.105469 229.574219 C 942.945312 229.574219 942.234375 227.601562 941.523438 225.230469 L 940.257812 220.804688 L 945.316406 216.222656 L 950.296875 211.558594 L 951.640625 214.085938 C 952.351562 215.429688 952.667969 216.851562 952.429688 217.328125 Z M 921.921875 217.089844 L 922.949219 220.015625 L 918.050781 222.464844 C 915.441406 223.808594 912.992188 224.597656 912.675781 224.28125 C 911.730469 223.253906 910.226562 217.644531 910.703125 217.167969 C 911.492188 216.378906 918.605469 213.929688 919.789062 214.085938 C 920.421875 214.085938 921.371094 215.507812 921.921875 217.089844 Z M 937.019531 217.25 C 937.808594 219.855469 937.730469 220.09375 933.382812 224.359375 C 930.933594 226.808594 928.5625 228.785156 928.089844 228.785156 C 927.21875 228.785156 925.402344 223.648438 925.402344 221.59375 C 925.480469 220.488281 933.699219 214.71875 935.359375 214.640625 C 935.832031 214.5625 936.542969 215.746094 937.019531 217.25 Z M 908.804688 219.699219 C 910.621094 224.519531 910.621094 225.625 908.882812 225.625 C 906.355469 225.625 902.878906 223.648438 901.375 221.355469 C 899.714844 218.75 899.714844 218.671875 902.324219 218.277344 C 907.304688 217.5625 908.015625 217.722656 908.804688 219.699219 Z M 955.355469 223.570312 L 956.933594 227.835938 L 952.507812 237.792969 C 950.058594 243.324219 947.847656 247.59375 947.609375 247.355469 C 947.371094 247.039062 946.421875 243.640625 945.476562 239.769531 L 943.816406 232.734375 L 947.054688 228.152344 C 950.929688 222.621094 953.378906 219.382812 953.613281 219.300781 C 953.695312 219.300781 954.484375 221.199219 955.355469 223.570312 Z M 924.769531 226.808594 L 925.953125 231.15625 L 923.425781 232.734375 C 920.105469 234.789062 918.921875 234.710938 916.945312 232.5 C 915.207031 230.601562 913.230469 227.203125 913.703125 226.808594 C 914.496094 226.175781 922.003906 222.542969 922.714844 222.464844 C 923.1875 222.464844 924.136719 224.4375 924.769531 226.808594 Z M 940.890625 230.128906 C 941.285156 232.894531 941.050781 233.449219 937.253906 237.714844 C 932.433594 243.007812 931.722656 242.851562 929.589844 236.214844 L 928.324219 232.023438 L 933.382812 227.285156 L 938.441406 222.621094 L 939.390625 224.835938 C 939.941406 226.097656 940.574219 228.46875 940.890625 230.128906 Z M 940.890625 230.128906 " fill-opacity="1" fill-rule="nonzero"/></g></svg>