<svg xmlns="http://www.w3.org/2000/svg" xmlns:xlink="http://www.w3.org/1999/xlink" width="1320" zoomAndPan="magnify" viewBox="0 0 990 389.999986" height="520" preserveAspectRatio="xMidYMid meet" version="1.0"><defs><clipPath id="d8489ef421"><path d="M 562.5 181 L 621 181 L 621 286 L 562.5 286 Z M 562.5 181 " clip-rule="nonzero"/></clipPath><clipPath id="46f29f3ef8"><path d="M 815 181 L 874.390625 181 L 874.390625 286 L 815 286 Z M 815 181 " clip-rule="nonzero"/></clipPath><clipPath id="c62d1764fa"><path d="M 627 247 L 727 247 L 727 350.890625 L 627 350.890625 Z M 627 247 " clip-rule="nonzero"/></clipPath><clipPath id="d347b58388"><path d="M 710 247 L 809.933594 247 L 809.933594 350.890625 L 710 350.890625 Z M 710 247 " clip-rule="nonzero"/></clipPath><clipPath id="1900b957f7"><path d="M 653 227 L 725 227 L 725 350.890625 L 653 350.890625 Z M 653 227 " clip-rule="nonzero"/></clipPath><clipPath id="6bd6424a41"><path d="M 711 227 L 784 227 L 784 350.890625 L 711 350.890625 Z M 711 227 " clip-rule="nonzero"/></clipPath><clipPath id="298b007b3d"><path d="M 685 221 L 751 221 L 751 350.890625 L 685 350.890625 Z M 685 221 " clip-rule="nonzero"/></clipPath></defs><path fill="#fbd28f" d="M 789.910156 67.042969 L 789.910156 100.164062 C 809.859375 119.117188 822.394531 145.816406 822.394531 175.449219 L 822.394531 188.453125 C 822.394531 195.625 828.207031 201.453125 835.382812 201.453125 C 842.570312 201.453125 848.386719 195.625 848.386719 188.453125 L 848.386719 175.449219 C 848.386719 130.203125 825.097656 90.316406 789.910156 67.042969 " fill-opacity="1" fill-rule="nonzero"/><path fill="#f9a813" d="M 796.402344 97.414062 C 817.378906 118.332031 828.886719 145.9375 828.886719 175.449219 L 828.886719 188.453125 C 828.886719 192.03125 831.804688 194.945312 835.382812 194.945312 C 838.960938 194.945312 841.890625 192.03125 841.890625 188.453125 L 841.890625 175.449219 C 841.890625 138.160156 825.082031 103.261719 796.402344 79.882812 Z M 835.382812 207.949219 C 824.628906 207.949219 815.886719 199.203125 815.886719 188.453125 L 815.886719 175.449219 C 815.886719 148.597656 805.070312 123.527344 785.425781 104.875 C 784.140625 103.636719 783.414062 101.945312 783.414062 100.164062 L 783.414062 67.042969 C 783.414062 64.660156 784.714844 62.453125 786.828125 61.320312 C 788.925781 60.1875 791.480469 60.308594 793.488281 61.625 C 831.921875 87.054688 854.878906 129.597656 854.878906 175.449219 L 854.878906 188.453125 C 854.878906 199.203125 846.136719 207.949219 835.382812 207.949219 " fill-opacity="1" fill-rule="nonzero"/><path fill="#fbd28f" d="M 588.492188 175.449219 L 588.492188 188.453125 C 588.492188 195.625 594.304688 201.453125 601.480469 201.453125 C 608.652344 201.453125 614.480469 195.625 614.480469 188.453125 L 614.480469 175.449219 C 614.480469 145.816406 627 119.117188 646.964844 100.164062 L 646.964844 67.042969 C 611.777344 90.316406 588.492188 130.203125 588.492188 175.449219 " fill-opacity="1" fill-rule="nonzero"/><path fill="#f9a813" d="M 640.457031 79.882812 C 611.777344 103.261719 594.984375 138.160156 594.984375 175.449219 L 594.984375 188.453125 C 594.984375 192.03125 597.898438 194.945312 601.480469 194.945312 C 605.058594 194.945312 607.972656 192.03125 607.972656 188.453125 L 607.972656 175.449219 C 607.972656 145.9375 619.496094 118.332031 640.457031 97.414062 Z M 601.480469 207.949219 C 590.726562 207.949219 581.996094 199.203125 581.996094 188.453125 L 581.996094 175.449219 C 581.996094 129.597656 604.9375 87.054688 643.371094 61.625 C 645.382812 60.308594 647.933594 60.1875 650.046875 61.320312 C 652.148438 62.453125 653.460938 64.660156 653.460938 67.042969 L 653.460938 100.164062 C 653.460938 101.945312 652.734375 103.636719 651.4375 104.875 C 631.789062 123.527344 620.976562 148.597656 620.976562 175.449219 L 620.976562 188.453125 C 620.976562 199.203125 612.230469 207.949219 601.480469 207.949219 " fill-opacity="1" fill-rule="nonzero"/><path fill="#ffffff" d="M 705.441406 45.507812 C 680.328125 45.507812 656.890625 52.710938 637.015625 65.097656 C 635.097656 66.289062 633.964844 68.402344 633.964844 70.652344 L 633.964844 99.304688 C 633.964844 104.542969 639.945312 107.730469 644.15625 104.632812 C 661.359375 91.992188 682.515625 84.503906 705.441406 84.503906 L 731.433594 84.503906 C 754.34375 84.503906 775.515625 91.992188 792.703125 104.632812 C 796.933594 107.730469 802.898438 104.542969 802.898438 99.304688 L 802.898438 70.652344 C 802.898438 68.402344 801.765625 66.289062 799.863281 65.097656 C 779.972656 52.710938 756.535156 45.507812 731.433594 45.507812 L 705.441406 45.507812 " fill-opacity="1" fill-rule="nonzero"/><path fill="#7d3fa3" d="M 779.699219 61.367188 C 778.855469 61.367188 778.085938 61.171875 777.359375 60.914062 C 777.300781 60.914062 777.300781 60.914062 777.238281 60.835938 C 775.609375 60.265625 774.371094 58.949219 773.71875 57.410156 C 773.011719 55.777344 773.011719 54.027344 773.660156 52.394531 C 774.957031 49.148438 778.855469 47.457031 782.101562 48.832031 C 783.734375 49.464844 784.957031 50.703125 785.679688 52.335938 C 786.332031 53.890625 786.332031 55.644531 785.679688 57.273438 C 784.699219 59.734375 782.359375 61.367188 779.699219 61.367188 Z M 640.53125 112.304688 L 640.457031 112.304688 C 633.253906 112.304688 627.53125 106.582031 627.46875 99.316406 L 627.46875 70.652344 C 627.46875 66.109375 629.75 61.957031 633.585938 59.613281 C 655.152344 46.097656 679.964844 39.015625 705.367188 39.015625 L 731.433594 39.015625 C 739.679688 39.015625 747.941406 39.726562 755.929688 41.21875 C 757.605469 41.550781 759.101562 42.457031 760.082031 43.894531 C 761.125 45.3125 761.441406 47.078125 761.183594 48.757812 C 760.535156 52.273438 757.09375 54.675781 753.574219 54.027344 C 746.308594 52.652344 738.832031 52.003906 731.433594 52.003906 L 705.441406 52.003906 C 682.441406 52.003906 660.015625 58.453125 640.457031 70.59375 L 640.457031 99.316406 C 659.441406 85.332031 681.914062 77.992188 705.441406 77.992188 L 731.433594 77.992188 C 754.949219 77.992188 777.359375 85.332031 796.402344 99.242188 L 796.402344 70.59375 C 795.558594 69.039062 795.359375 67.269531 795.875 65.65625 C 796.402344 63.964844 797.503906 62.605469 799.0625 61.757812 C 802.113281 60.128906 806.203125 61.367188 807.835938 64.417969 C 808.878906 66.367188 809.390625 68.507812 809.390625 70.652344 L 809.390625 99.316406 C 809.332031 106.582031 803.605469 112.304688 796.402344 112.304688 C 793.667969 112.304688 791.011719 111.460938 788.867188 109.828125 C 772.042969 97.550781 752.214844 90.996094 731.433594 90.996094 L 705.441406 90.996094 C 684.648438 90.996094 664.773438 97.550781 647.933594 109.90625 C 645.789062 111.460938 643.191406 112.304688 640.53125 112.304688 " fill-opacity="1" fill-rule="nonzero"/><path fill="#ffffff" d="M 614.480469 279.414062 C 589.351562 279.414062 568.992188 259.054688 568.992188 233.925781 C 568.992188 208.808594 589.351562 188.453125 614.480469 188.453125 L 614.480469 279.414062 " fill-opacity="1" fill-rule="nonzero"/><g clip-path="url(#d8489ef421)"><path fill="#7d3fa3" d="M 588.492188 194.945312 C 581.316406 194.945312 575.488281 200.773438 575.488281 207.949219 L 575.488281 259.929688 C 575.488281 267.089844 581.316406 272.917969 588.492188 272.917969 L 607.972656 272.917969 L 607.972656 194.945312 Z M 614.480469 285.90625 L 588.492188 285.90625 C 574.160156 285.90625 562.5 274.261719 562.5 259.929688 L 562.5 207.949219 C 562.5 193.601562 574.160156 181.957031 588.492188 181.957031 L 614.480469 181.957031 C 618.0625 181.957031 620.976562 184.855469 620.976562 188.453125 L 620.976562 279.414062 C 620.976562 283.007812 618.0625 285.90625 614.480469 285.90625 " fill-opacity="1" fill-rule="nonzero"/></g><path fill="#d3b2de" d="M 614.480469 285.90625 L 614.480469 181.957031 C 632.421875 181.957031 646.964844 196.5 646.964844 214.441406 L 646.964844 253.421875 C 646.964844 271.363281 632.421875 285.90625 614.480469 285.90625 " fill-opacity="1" fill-rule="nonzero"/><path fill="#7d3fa3" d="M 620.976562 279.414062 L 633.964844 279.414062 C 637.542969 279.414062 640.457031 276.496094 640.457031 272.917969 L 640.457031 194.945312 C 640.457031 191.367188 637.542969 188.453125 633.964844 188.453125 L 620.976562 188.453125 Z M 633.964844 292.398438 L 614.480469 292.398438 C 610.886719 292.398438 607.972656 289.5 607.972656 285.90625 L 607.972656 181.957031 C 607.972656 178.363281 610.886719 175.449219 614.480469 175.449219 L 633.964844 175.449219 C 644.714844 175.449219 653.460938 184.191406 653.460938 194.945312 L 653.460938 272.917969 C 653.460938 283.671875 644.714844 292.398438 633.964844 292.398438 " fill-opacity="1" fill-rule="nonzero"/><path fill="#ffffff" d="M 822.394531 188.453125 C 847.507812 188.453125 867.867188 208.808594 867.867188 233.925781 C 867.867188 259.054688 847.507812 279.414062 822.394531 279.414062 L 822.394531 188.453125 " fill-opacity="1" fill-rule="nonzero"/><g clip-path="url(#46f29f3ef8)"><path fill="#7d3fa3" d="M 828.886719 272.917969 L 848.386719 272.917969 C 855.542969 272.917969 861.375 267.089844 861.375 259.929688 L 861.375 207.949219 C 861.375 200.773438 855.542969 194.945312 848.386719 194.945312 L 828.886719 194.945312 Z M 848.386719 285.90625 L 822.394531 285.90625 C 818.800781 285.90625 815.886719 283.007812 815.886719 279.414062 L 815.886719 188.453125 C 815.886719 184.855469 818.800781 181.957031 822.394531 181.957031 L 848.386719 181.957031 C 862.71875 181.957031 874.359375 193.601562 874.359375 207.949219 L 874.359375 259.929688 C 874.359375 274.261719 862.71875 285.90625 848.386719 285.90625 " fill-opacity="1" fill-rule="nonzero"/></g><path fill="#d3b2de" d="M 822.394531 181.957031 L 822.394531 285.90625 C 804.453125 285.90625 789.910156 271.363281 789.910156 253.421875 L 789.910156 214.441406 C 789.910156 196.5 804.453125 181.957031 822.394531 181.957031 " fill-opacity="1" fill-rule="nonzero"/><path fill="#7d3fa3" d="M 802.898438 188.453125 C 799.316406 188.453125 796.402344 191.367188 796.402344 194.945312 L 796.402344 272.917969 C 796.402344 276.496094 799.316406 279.414062 802.898438 279.414062 L 815.886719 279.414062 L 815.886719 188.453125 Z M 822.394531 292.398438 L 802.898438 292.398438 C 792.160156 292.398438 783.414062 283.671875 783.414062 272.917969 L 783.414062 194.945312 C 783.414062 184.191406 792.160156 175.449219 802.898438 175.449219 L 822.394531 175.449219 C 825.972656 175.449219 828.886719 178.363281 828.886719 181.957031 L 828.886719 285.90625 C 828.886719 289.5 825.972656 292.398438 822.394531 292.398438 " fill-opacity="1" fill-rule="nonzero"/><path fill="#f8a4bc" d="M 673.019531 312.167969 C 673.019531 281.917969 650.621094 254.175781 650.621094 254.175781 C 650.621094 254.175781 633.964844 281.648438 633.964844 311.898438 C 633.964844 342.164062 707.964844 344.382812 718.429688 344.382812 C 728.910156 344.382812 673.019531 342.417969 673.019531 312.167969 " fill-opacity="1" fill-rule="nonzero"/><g clip-path="url(#c62d1764fa)"><path fill="#ef2a95" d="M 651.453125 266.785156 C 646.816406 276.890625 640.457031 294.015625 640.457031 311.898438 C 640.457031 322.890625 656.917969 329.71875 675.855469 333.597656 C 668.667969 326.667969 666.523438 318.917969 666.523438 312.167969 C 666.523438 294.167969 657.644531 276.753906 651.453125 266.785156 Z M 718.429688 350.875 C 709.128906 350.875 627.46875 349.789062 627.46875 311.898438 C 627.46875 280.199219 644.355469 251.988281 645.0625 250.792969 C 646.167969 248.980469 648.085938 247.832031 650.183594 247.683594 C 652.34375 247.59375 654.351562 248.4375 655.679688 250.082031 C 656.648438 251.292969 679.527344 280 679.527344 312.167969 C 679.527344 328.617188 704.265625 335.140625 719.019531 337.570312 C 725.378906 338.613281 726.449219 342.117188 726.207031 344.851562 C 726.070312 346.675781 725.015625 350.875 718.429688 350.875 " fill-opacity="1" fill-rule="nonzero"/></g><path fill="#f8a4bc" d="M 763.84375 312.167969 C 763.84375 281.917969 786.238281 254.175781 786.238281 254.175781 C 786.238281 254.175781 802.898438 281.648438 802.898438 311.898438 C 802.898438 342.164062 728.910156 344.382812 718.429688 344.382812 C 707.964844 344.382812 763.84375 342.417969 763.84375 312.167969 " fill-opacity="1" fill-rule="nonzero"/><g clip-path="url(#d347b58388)"><path fill="#ef2a95" d="M 785.425781 266.785156 C 779.21875 276.738281 770.351562 294.152344 770.351562 312.167969 C 770.351562 318.917969 768.207031 326.667969 761.019531 333.597656 C 779.957031 329.71875 796.402344 322.890625 796.402344 311.898438 C 796.402344 293.941406 790.046875 276.859375 785.425781 266.785156 Z M 718.429688 350.875 C 711.859375 350.875 710.804688 346.675781 710.652344 344.851562 C 710.425781 342.117188 711.484375 338.613281 717.839844 337.570312 C 732.597656 335.140625 757.347656 328.617188 757.347656 312.167969 C 757.347656 280 780.214844 251.292969 781.195312 250.082031 C 782.523438 248.4375 784.5625 247.59375 786.675781 247.683594 C 788.792969 247.832031 790.710938 248.980469 791.796875 250.792969 C 792.523438 251.988281 809.390625 280.199219 809.390625 311.898438 C 809.390625 349.789062 727.75 350.875 718.429688 350.875 " fill-opacity="1" fill-rule="nonzero"/></g><path fill="#ffffff" d="M 709.277344 304.933594 C 709.277344 267.90625 682.5625 233.925781 682.5625 233.925781 C 682.5625 233.925781 659.953125 267.90625 659.953125 304.933594 C 659.953125 341.980469 701.378906 344.382812 713.871094 344.382812 C 726.359375 344.382812 709.277344 341.980469 709.277344 304.933594 " fill-opacity="1" fill-rule="nonzero"/><g clip-path="url(#1900b957f7)"><path fill="#ef2a98" d="M 683.046875 246.066406 C 676.6875 258.027344 666.449219 281 666.449219 304.949219 C 666.449219 331.46875 692.847656 336.890625 708.660156 337.753906 C 705.894531 331.425781 702.769531 321.246094 702.769531 304.949219 C 702.769531 280.878906 690.492188 257.832031 683.046875 246.066406 Z M 712.191406 344.789062 L 712.253906 344.789062 Z M 713.871094 350.875 C 676.039062 350.875 653.460938 333.703125 653.460938 304.949219 C 653.460938 266.378906 676.191406 231.78125 677.15625 230.332031 C 678.320312 228.59375 680.222656 227.519531 682.304688 227.445312 C 684.390625 227.28125 686.382812 228.277344 687.667969 229.90625 C 688.816406 231.371094 715.773438 266.105469 715.773438 304.949219 C 715.773438 323.980469 720.542969 332.84375 722.839844 337.117188 C 724.246094 339.699219 726.148438 343.25 723.914062 346.996094 C 721.585938 350.875 717.3125 350.875 713.871094 350.875 " fill-opacity="1" fill-rule="nonzero"/></g><path fill="#ffffff" d="M 776.90625 304.933594 C 776.90625 341.980469 737.082031 344.382812 723.972656 344.382812 C 710.863281 344.382812 725.152344 341.980469 725.152344 304.933594 C 725.152344 267.90625 753.179688 233.925781 753.179688 233.925781 C 753.179688 233.925781 776.90625 267.90625 776.90625 304.933594 " fill-opacity="1" fill-rule="nonzero"/><g clip-path="url(#6bd6424a41)"><path fill="#ef2a98" d="M 752.726562 245.628906 C 744.949219 257.226562 731.644531 280.621094 731.644531 304.949219 C 731.644531 321.625 728.910156 331.710938 726.796875 337.84375 C 744.300781 337.375 770.414062 332.105469 770.414062 304.949219 C 770.414062 280.679688 759.359375 257.410156 752.726562 245.628906 Z M 723.972656 350.875 C 720.378906 350.875 715.894531 350.875 713.324219 347.191406 C 710.847656 343.628906 712.191406 339.988281 713.476562 336.46875 C 715.289062 331.574219 718.640625 322.5 718.640625 304.949219 C 718.640625 266.015625 746.957031 231.25 748.167969 229.800781 C 749.449219 228.230469 751.414062 227.28125 753.4375 227.445312 C 755.460938 227.519531 757.347656 228.546875 758.511719 230.222656 C 759.523438 231.675781 783.414062 266.304688 783.414062 304.949219 C 783.414062 333.703125 761.183594 350.875 723.972656 350.875 " fill-opacity="1" fill-rule="nonzero"/></g><path fill="#f8a4bc" d="M 744.421875 305.902344 C 744.421875 269.746094 718.429688 227.429688 718.429688 227.429688 C 718.429688 227.429688 692.441406 269.746094 692.441406 305.902344 C 692.441406 342.027344 704.082031 344.382812 718.429688 344.382812 C 732.792969 344.382812 744.421875 342.027344 744.421875 305.902344 " fill-opacity="1" fill-rule="nonzero"/><g clip-path="url(#298b007b3d)"><path fill="#ef2a95" d="M 718.429688 240.871094 C 711.0625 255.144531 698.933594 282.222656 698.933594 305.886719 C 698.933594 337.886719 707.542969 337.886719 718.429688 337.886719 C 729.335938 337.886719 737.925781 337.886719 737.925781 305.886719 C 737.925781 282.175781 725.816406 255.128906 718.429688 240.871094 Z M 718.429688 350.875 C 698.375 350.875 685.945312 343.355469 685.945312 305.886719 C 685.945312 268.359375 711.800781 225.828125 712.902344 224.03125 C 715.257812 220.179688 721.617188 220.179688 723.972656 224.03125 C 725.074219 225.828125 750.914062 268.359375 750.914062 305.886719 C 750.914062 343.355469 738.484375 350.875 718.429688 350.875 " fill-opacity="1" fill-rule="nonzero"/></g><path fill="#5bb3e7" d="M 782.75 163.125 C 781.089844 163.125 779.429688 162.476562 778.160156 161.207031 C 762.210938 145.257812 740.992188 136.46875 718.429688 136.46875 C 695.867188 136.46875 674.664062 145.257812 658.714844 161.207031 C 656.164062 163.746094 652.054688 163.746094 649.519531 161.207031 C 646.980469 158.671875 646.980469 154.5625 649.519531 152.023438 C 667.929688 133.617188 692.394531 123.480469 718.429688 123.480469 C 744.464844 123.480469 768.949219 133.617188 787.34375 152.023438 C 789.894531 154.5625 789.894531 158.671875 787.34375 161.207031 C 786.089844 162.476562 784.414062 163.125 782.75 163.125 " fill-opacity="1" fill-rule="nonzero"/><path fill="#5bb3e7" d="M 764.386719 181.488281 C 762.710938 181.488281 761.050781 180.855469 759.78125 179.585938 C 736.992188 156.796875 699.886719 156.796875 677.082031 179.585938 C 674.542969 182.125 670.4375 182.125 667.898438 179.585938 C 665.359375 177.050781 665.359375 172.941406 667.898438 170.40625 C 695.761719 142.539062 741.113281 142.539062 768.976562 170.40625 C 771.515625 172.941406 771.515625 177.050781 768.976562 179.585938 C 767.710938 180.855469 766.046875 181.488281 764.386719 181.488281 " fill-opacity="1" fill-rule="nonzero"/><path fill="#5bb3e7" d="M 691.519531 198.570312 C 689.855469 198.570312 688.195312 197.9375 686.925781 196.667969 C 684.390625 194.128906 684.390625 190.007812 686.925781 187.46875 C 695.503906 178.890625 706.921875 174.164062 719.09375 174.164062 C 731.253906 174.164062 742.667969 178.890625 751.246094 187.46875 C 753.785156 190.007812 753.785156 194.128906 751.246094 196.667969 C 748.710938 199.203125 744.601562 199.203125 742.066406 196.667969 C 735.933594 190.535156 727.777344 187.167969 719.09375 187.167969 C 710.394531 187.167969 702.242188 190.535156 696.109375 196.667969 C 694.839844 197.9375 693.179688 198.570312 691.519531 198.570312 " fill-opacity="1" fill-rule="nonzero"/></svg>