<svg xmlns="http://www.w3.org/2000/svg" xmlns:xlink="http://www.w3.org/1999/xlink" width="1366" zoomAndPan="magnify" viewBox="0 0 1024.5 449.999984" height="600" preserveAspectRatio="xMidYMid meet" version="1.0"><defs><filter x="0%" y="0%" width="100%" height="100%" id="8fc92e9cae"><feColorMatrix values="0 0 0 0 1 0 0 0 0 1 0 0 0 0 1 0 0 0 1 0" color-interpolation-filters="sRGB"/></filter><clipPath id="8a5c014c7b"><path d="M 0 0.109375 L 1024 0.109375 L 1024 449.890625 L 0 449.890625 Z M 0 0.109375 " clip-rule="nonzero"/></clipPath><mask id="26ea1e3d00"><g filter="url(#8fc92e9cae)"><rect x="-102.45" width="1229.4" fill="#000000" y="-44.999998" height="539.99998" fill-opacity="0.498"/></g></mask><clipPath id="f3442551c4"><path d="M 174 371 L 321 371 L 321 399.449219 L 174 399.449219 Z M 174 371 " clip-rule="nonzero"/></clipPath><clipPath id="78a5e78c9c"><path d="M 233 1 L 321 1 L 321 358 L 233 358 Z M 233 1 " clip-rule="nonzero"/></clipPath><clipPath id="800ed13aed"><path d="M 319 65 L 321 65 L 321 361 L 319 361 Z M 319 65 " clip-rule="nonzero"/></clipPath><clipPath id="de2c8e3166"><path d="M 319 179 L 321 179 L 321 380 L 319 380 Z M 319 179 " clip-rule="nonzero"/></clipPath><clipPath id="718e9ed1c0"><path d="M 0.464844 74 L 321 74 L 321 192 L 0.464844 192 Z M 0.464844 74 " clip-rule="nonzero"/></clipPath><clipPath id="65a5a841d8"><path d="M 0.464844 92 L 321 92 L 321 210 L 0.464844 210 Z M 0.464844 92 " clip-rule="nonzero"/></clipPath><clipPath id="7393c54491"><path d="M 0.464844 110 L 321 110 L 321 227 L 0.464844 227 Z M 0.464844 110 " clip-rule="nonzero"/></clipPath><clipPath id="4d878746b4"><path d="M 0.464844 127 L 321 127 L 321 245 L 0.464844 245 Z M 0.464844 127 " clip-rule="nonzero"/></clipPath><clipPath id="280bd98677"><path d="M 0.464844 145 L 321 145 L 321 263 L 0.464844 263 Z M 0.464844 145 " clip-rule="nonzero"/></clipPath><clipPath id="75507e4cee"><path d="M 258 104 L 321 104 L 321 356 L 258 356 Z M 258 104 " clip-rule="nonzero"/></clipPath><clipPath id="a86b0ec5ab"><path d="M 319 149 L 321 149 L 321 358 L 319 358 Z M 319 149 " clip-rule="nonzero"/></clipPath><clipPath id="8671c050e8"><path d="M 319 230 L 321 230 L 321 372 L 319 372 Z M 319 230 " clip-rule="nonzero"/></clipPath><clipPath id="a232f1e92e"><path d="M 255 162 L 321 162 L 321 219 L 255 219 Z M 255 162 " clip-rule="nonzero"/></clipPath><clipPath id="5e7563da6b"><path d="M 269 162 L 321 162 L 321 331 L 269 331 Z M 269 162 " clip-rule="nonzero"/></clipPath><clipPath id="cdc6e859f3"><path d="M 306 138 L 321 138 L 321 181 L 306 181 Z M 306 138 " clip-rule="nonzero"/></clipPath><clipPath id="a1bee80db6"><path d="M 307 143 L 321 143 L 321 161 L 307 161 Z M 307 143 " clip-rule="nonzero"/></clipPath><clipPath id="d8d7c9e8a6"><path d="M 291 78 L 321 78 L 321 157 L 291 157 Z M 291 78 " clip-rule="nonzero"/></clipPath><clipPath id="092006ebd5"><path d="M 289 78 L 321 78 L 321 115 L 289 115 Z M 289 78 " clip-rule="nonzero"/></clipPath><clipPath id="638c2a1032"><path d="M 279 57 L 321 57 L 321 110 L 279 110 Z M 279 57 " clip-rule="nonzero"/></clipPath><clipPath id="f5f870a687"><path d="M 317 131 L 321 131 L 321 134 L 317 134 Z M 317 131 " clip-rule="nonzero"/></clipPath><clipPath id="cd4fa909e3"><path d="M 315 142 L 321 142 L 321 146 L 315 146 Z M 315 142 " clip-rule="nonzero"/></clipPath><clipPath id="77194085de"><path d="M 282 67 L 321 67 L 321 112 L 282 112 Z M 282 67 " clip-rule="nonzero"/></clipPath><clipPath id="48ed42ef1b"><path d="M 213 303 L 321 303 L 321 374 L 213 374 Z M 213 303 " clip-rule="nonzero"/></clipPath><clipPath id="9df970206f"><path d="M 246 352 L 321 352 L 321 389 L 246 389 Z M 246 352 " clip-rule="nonzero"/></clipPath><clipPath id="e6da1821e9"><path d="M 309 296 L 321 296 L 321 386 L 309 386 Z M 309 296 " clip-rule="nonzero"/></clipPath><clipPath id="cfc0b5ac96"><path d="M 306 352 L 321 352 L 321 389 L 306 389 Z M 306 352 " clip-rule="nonzero"/></clipPath><clipPath id="62e7e00519"><path d="M 166 296 L 321 296 L 321 386 L 166 386 Z M 166 296 " clip-rule="nonzero"/></clipPath><clipPath id="9b0038f28d"><rect x="0" width="321" y="0" height="400"/></clipPath></defs><g clip-path="url(#8a5c014c7b)"><path fill="#ffffff" d="M 0 0.109375 L 1024.5 0.109375 L 1024.5 457.609375 L 0 457.609375 Z M 0 0.109375 " fill-opacity="1" fill-rule="nonzero"/><path fill="#ffffff" d="M 0 0.109375 L 1024.5 0.109375 L 1024.5 450.109375 L 0 450.109375 Z M 0 0.109375 " fill-opacity="1" fill-rule="nonzero"/><path fill="#e7f3ff" d="M 0 0.109375 L 1024.5 0.109375 L 1024.5 450.109375 L 0 450.109375 Z M 0 0.109375 " fill-opacity="1" fill-rule="nonzero"/></g><g mask="url(#26ea1e3d00)"><g transform="matrix(1, 0, 0, 1, 703, 13)"><g clip-path="url(#9b0038f28d)"><g clip-path="url(#f3442551c4)"><path fill="#bce9ee" d="M 174.558594 385.246094 C 174.558594 377.386719 239.042969 371.019531 318.585938 371.019531 C 398.132812 371.019531 462.617188 377.386719 462.617188 385.246094 C 462.617188 393.09375 398.132812 399.460938 318.585938 399.460938 C 239.042969 399.460938 174.558594 393.09375 174.558594 385.246094 " fill-opacity="1" fill-rule="nonzero"/></g><path fill="#bce9ee" d="M 317.03125 356.507812 C 318.792969 360.355469 316.617188 364.847656 312.515625 365.878906 C 285.988281 372.554688 197.546875 391.757812 142.089844 366.945312 C 62.796875 331.46875 19.261719 220.878906 8.339844 189.664062 C 6.863281 185.445312 9.792969 180.988281 14.25 180.683594 C 45.363281 178.550781 152.875 174.636719 216.078125 215.785156 C 264.53125 247.339844 305.484375 331.226562 317.03125 356.507812 " fill-opacity="1" fill-rule="nonzero"/><path fill="#bce9ee" d="M 319.515625 353.359375 C 319.484375 357.589844 315.617188 360.742188 311.464844 359.941406 C 284.597656 354.78125 196.332031 334.792969 156.554688 288.855469 C 99.675781 223.179688 106.945312 104.546875 110.226562 71.640625 C 110.667969 67.191406 115.210938 64.386719 119.378906 66 C 148.476562 77.21875 247.570312 119.125 287.464844 183.140625 C 318.046875 232.21875 319.730469 325.5625 319.515625 353.359375 " fill-opacity="1" fill-rule="nonzero"/><g clip-path="url(#78a5e78c9c)"><path fill="#bce9ee" d="M 332.460938 354.597656 C 330.042969 358.078125 325.078125 358.496094 322.09375 355.496094 C 302.8125 336.082031 241.175781 269.796875 234.203125 209.421875 C 224.234375 123.101562 297.082031 29.210938 318.339844 3.882812 C 321.210938 0.453125 326.539062 0.699219 329.082031 4.382812 C 346.789062 30.058594 405.027344 120.554688 401.902344 195.929688 C 399.511719 253.71875 348.296875 331.761719 332.460938 354.597656 " fill-opacity="1" fill-rule="nonzero"/></g><g clip-path="url(#800ed13aed)"><path fill="#bce9ee" d="M 319.546875 353.359375 C 319.578125 357.589844 323.445312 360.742188 327.597656 359.941406 C 354.460938 354.78125 442.730469 334.792969 482.507812 288.855469 C 539.382812 223.179688 532.121094 104.546875 528.832031 71.640625 C 528.386719 67.191406 523.851562 64.386719 519.679688 66 C 490.585938 77.21875 391.484375 119.125 351.597656 183.140625 C 321.011719 232.21875 319.332031 325.5625 319.546875 353.359375 " fill-opacity="1" fill-rule="nonzero"/></g><g clip-path="url(#de2c8e3166)"><path fill="#bce9ee" d="M 320.144531 356.507812 C 318.386719 360.355469 320.558594 364.847656 324.660156 365.878906 C 351.1875 372.554688 439.632812 391.757812 495.089844 366.945312 C 574.378906 331.46875 617.910156 220.878906 628.839844 189.664062 C 630.316406 185.445312 627.390625 180.988281 622.929688 180.683594 C 591.8125 178.550781 484.296875 174.636719 421.097656 215.785156 C 372.644531 247.339844 331.691406 331.226562 320.144531 356.507812 " fill-opacity="1" fill-rule="nonzero"/></g><g clip-path="url(#718e9ed1c0)"><path fill="#ffffff" d="M 642.027344 74.347656 L 642.027344 76.628906 C 617.199219 80.277344 587.667969 80.050781 559.097656 79.832031 C 555.316406 79.804688 551.539062 79.773438 547.765625 79.75 C 516.316406 79.457031 483.152344 79.6875 453.671875 83.335938 C 425.851562 86.632812 400.15625 93.132812 377.289062 102.652344 C 360.796875 109.386719 345.628906 117.710938 330.964844 125.75 C 325.648438 128.667969 320.148438 131.6875 314.660156 134.585938 C 309.347656 137.4375 304.003906 140.398438 298.832031 143.265625 C 284.054688 151.464844 268.773438 159.941406 252.066406 166.8125 C 229.089844 176.449219 203.214844 183.027344 175.179688 186.367188 C 145.570312 190.042969 112.328125 190.273438 80.8125 189.980469 C 77.046875 189.960938 73.269531 189.933594 69.488281 189.902344 C 46.300781 189.726562 22.324219 189.539062 1.074219 191.433594 L 0.976562 190.308594 L 0.976562 189.179688 C 22.308594 187.285156 46.300781 187.46875 69.507812 187.648438 C 73.285156 187.679688 77.0625 187.707031 80.832031 187.726562 C 112.265625 188.019531 145.421875 187.789062 174.90625 184.132812 C 202.742188 180.8125 228.410156 174.289062 251.203125 164.726562 C 267.792969 157.90625 283.015625 149.457031 297.742188 141.292969 C 302.914062 138.421875 308.265625 135.457031 313.601562 132.597656 C 319.078125 129.699219 324.570312 126.6875 329.882812 123.773438 C 344.601562 115.699219 359.820312 107.347656 376.429688 100.566406 C 399.480469 90.96875 425.378906 84.414062 453.402344 81.09375 C 483.003906 77.433594 516.261719 77.203125 547.78125 77.5 C 551.554688 77.519531 555.332031 77.546875 559.117188 77.578125 C 587.726562 77.796875 617.308594 78.023438 642.027344 74.347656 " fill-opacity="1" fill-rule="nonzero"/></g><g clip-path="url(#65a5a841d8)"><path fill="#ffffff" d="M 642.027344 93.339844 L 642.027344 94.476562 C 617.597656 97.925781 588.683594 97.699219 560.726562 97.484375 C 556.976562 97.460938 553.222656 97.429688 549.480469 97.40625 C 518.199219 97.113281 485.203125 97.339844 455.84375 100.980469 C 428.144531 104.269531 402.574219 110.746094 379.828125 120.234375 C 363.414062 126.945312 348.328125 135.242188 333.734375 143.253906 C 328.4375 146.164062 322.96875 149.171875 317.503906 152.0625 C 312.210938 154.898438 306.894531 157.847656 301.753906 160.710938 C 287.046875 168.878906 271.835938 177.328125 255.210938 184.171875 C 232.34375 193.785156 206.601562 200.339844 178.691406 203.667969 C 149.257812 207.328125 116.164062 207.5625 84.785156 207.269531 C 81.023438 207.253906 77.246094 207.222656 73.46875 207.195312 C 48.816406 207 23.328125 206.808594 1.09375 209.140625 L 0.976562 208.019531 L 0.976562 206.882812 C 23.3125 204.554688 48.816406 204.75 73.484375 204.9375 C 77.261719 204.96875 81.039062 204.996094 84.800781 205.015625 C 116.105469 205.308594 149.109375 205.074219 178.421875 201.429688 C 206.121094 198.128906 231.667969 191.621094 254.34375 182.09375 C 270.859375 175.296875 286.007812 166.878906 300.660156 158.738281 C 305.808594 155.878906 311.132812 152.917969 316.445312 150.070312 C 321.898438 147.183594 327.363281 144.1875 332.648438 141.277344 C 347.296875 133.234375 362.441406 124.90625 378.96875 118.152344 C 401.898438 108.582031 427.679688 102.050781 455.570312 98.738281 C 485.0625 95.089844 518.140625 94.859375 549.496094 95.152344 C 553.234375 95.175781 556.984375 95.207031 560.742188 95.234375 C 588.679688 95.449219 617.570312 95.671875 641.867188 92.21875 L 642.027344 93.339844 " fill-opacity="1" fill-rule="nonzero"/></g><g clip-path="url(#7393c54491)"><path fill="#ffffff" d="M 642.027344 111.203125 L 642.027344 112.332031 C 618.59375 115.183594 591.371094 114.976562 565.054688 114.769531 C 561.3125 114.742188 557.574219 114.710938 553.835938 114.691406 C 522.558594 114.398438 489.558594 114.628906 460.199219 118.261719 C 432.503906 121.550781 406.933594 128.027344 384.1875 137.519531 C 367.777344 144.226562 352.695312 152.515625 338.113281 160.53125 C 332.8125 163.441406 327.332031 166.449219 321.863281 169.347656 C 316.582031 172.175781 311.273438 175.128906 306.140625 177.980469 C 291.425781 186.152344 276.207031 194.613281 259.566406 201.457031 C 236.695312 211.070312 210.949219 217.625 183.050781 220.953125 C 153.59375 224.617188 120.511719 224.847656 89.148438 224.558594 C 85.40625 224.539062 81.652344 224.507812 77.894531 224.480469 C 51.601562 224.273438 24.417969 224.070312 1.117188 226.921875 L 0.976562 225.800781 L 0.976562 224.664062 C 24.398438 221.8125 51.601562 222.023438 77.910156 222.226562 C 81.667969 222.253906 85.417969 222.285156 89.15625 222.304688 C 120.453125 222.59375 153.453125 222.363281 182.777344 218.714844 C 210.476562 215.414062 236.019531 208.910156 258.710938 199.375 C 275.226562 192.574219 290.386719 184.152344 305.046875 176.007812 C 310.183594 173.152344 315.503906 170.203125 320.804688 167.355469 C 326.261719 164.460938 331.730469 161.460938 337.027344 158.550781 C 351.671875 150.511719 366.808594 142.191406 383.328125 135.433594 C 406.257812 125.871094 432.03125 119.335938 459.929688 116.023438 C 489.410156 112.375 522.5 112.144531 553.859375 112.4375 C 557.582031 112.460938 561.328125 112.484375 565.070312 112.515625 C 591.371094 112.722656 618.570312 112.925781 641.890625 110.078125 L 642.027344 111.203125 " fill-opacity="1" fill-rule="nonzero"/></g><g clip-path="url(#4d878746b4)"><path fill="#ffffff" d="M 642.027344 128.976562 L 642.027344 130.113281 C 619.683594 132.441406 594.15625 132.25 569.46875 132.054688 C 565.707031 132.027344 561.945312 131.996094 558.203125 131.976562 C 526.898438 131.683594 493.894531 131.914062 464.558594 135.542969 C 436.871094 138.832031 411.300781 145.3125 388.546875 154.804688 C 372.144531 161.507812 357.066406 169.792969 342.480469 177.804688 C 337.179688 180.71875 331.695312 183.734375 326.21875 186.632812 C 320.941406 189.460938 315.632812 192.410156 310.5 195.261719 C 295.785156 203.445312 280.566406 211.898438 263.925781 218.746094 C 241.054688 228.351562 215.304688 234.914062 187.410156 238.238281 C 157.957031 241.894531 124.871094 242.128906 93.507812 241.84375 C 89.753906 241.820312 85.992188 241.789062 82.234375 241.761719 C 54.304688 241.546875 25.425781 241.324219 1.132812 244.773438 L 0.976562 243.660156 L 0.976562 242.519531 C 25.398438 239.070312 54.300781 239.289062 82.253906 239.511719 C 86.007812 239.535156 89.769531 239.566406 93.523438 239.589844 C 124.8125 239.878906 157.8125 239.644531 187.144531 236 C 214.828125 232.695312 240.378906 226.195312 263.066406 216.660156 C 279.589844 209.863281 294.746094 201.4375 309.402344 193.292969 C 314.542969 190.4375 319.859375 187.484375 325.164062 184.640625 C 330.625 181.746094 336.101562 178.738281 341.398438 175.828125 C 356.035156 167.785156 371.175781 159.46875 387.6875 152.71875 C 410.625 143.148438 436.402344 136.613281 464.285156 133.308594 C 493.75 129.660156 526.84375 129.429688 558.21875 129.722656 C 561.960938 129.742188 565.722656 129.773438 569.484375 129.800781 C 594.15625 129.996094 619.660156 130.1875 641.910156 127.855469 L 642.027344 128.976562 " fill-opacity="1" fill-rule="nonzero"/></g><g clip-path="url(#280bd98677)"><path fill="#ffffff" d="M 642.027344 146.679688 L 642.027344 147.8125 C 620.652344 149.710938 596.613281 149.515625 573.351562 149.332031 C 569.578125 149.300781 565.808594 149.269531 562.046875 149.25 C 530.570312 148.945312 497.378906 149.164062 467.902344 152.808594 C 440.0625 156.097656 414.351562 162.609375 391.480469 172.144531 C 374.980469 178.886719 359.8125 187.21875 345.148438 195.273438 C 339.820312 198.199219 334.320312 201.222656 328.824219 204.128906 C 323.515625 206.976562 318.179688 209.9375 313.023438 212.804688 C 298.226562 221.015625 282.925781 229.515625 266.207031 236.398438 C 243.207031 246.050781 217.324219 252.636719 189.273438 255.972656 C 159.644531 259.644531 126.382812 259.871094 94.863281 259.5625 C 91.074219 259.539062 87.273438 259.507812 83.472656 259.476562 C 55.085938 259.257812 25.726562 259.019531 1.136719 262.605469 L 0.976562 261.488281 L 0.976562 260.351562 C 25.703125 256.761719 55.082031 257 83.488281 257.222656 C 87.289062 257.253906 91.089844 257.285156 94.878906 257.308594 C 126.328125 257.613281 159.5 257.390625 189.007812 253.726562 C 216.847656 250.421875 242.527344 243.886719 265.339844 234.316406 C 281.949219 227.484375 297.1875 219.011719 311.929688 210.832031 C 317.09375 207.960938 322.433594 204.996094 327.765625 202.136719 C 333.25 199.234375 338.746094 196.214844 344.058594 193.296875 C 358.785156 185.210938 374.007812 176.847656 390.621094 170.058594 C 413.679688 160.449219 439.589844 153.886719 467.628906 150.570312 C 497.238281 146.910156 530.515625 146.6875 562.0625 146.996094 C 565.824219 147.015625 569.59375 147.046875 573.367188 147.078125 C 596.613281 147.261719 620.640625 147.457031 641.925781 145.558594 L 642.027344 146.679688 " fill-opacity="1" fill-rule="nonzero"/></g><path fill="#ffffff" d="M 317.828125 355.074219 C 319.070312 357.792969 317.535156 360.964844 314.636719 361.699219 C 295.898438 366.410156 233.433594 379.972656 194.261719 362.445312 C 138.253906 337.390625 107.507812 259.277344 99.792969 237.230469 C 98.75 234.253906 100.820312 231.105469 103.96875 230.890625 C 125.945312 229.386719 201.886719 226.617188 246.519531 255.683594 C 280.742188 277.964844 309.671875 337.21875 317.828125 355.074219 " fill-opacity="1" fill-rule="nonzero"/><path fill="#ffffff" d="M 319.578125 352.851562 C 319.558594 355.84375 316.828125 358.066406 313.894531 357.503906 C 294.917969 353.851562 232.574219 339.738281 204.476562 307.292969 C 164.308594 260.90625 169.4375 177.113281 171.757812 153.871094 C 172.070312 150.726562 175.277344 148.75 178.222656 149.882812 C 198.773438 157.8125 268.765625 187.410156 296.941406 232.625 C 318.546875 267.292969 319.730469 333.21875 319.578125 352.851562 " fill-opacity="1" fill-rule="nonzero"/><g clip-path="url(#75507e4cee)"><path fill="#ffffff" d="M 328.722656 353.726562 C 327.015625 356.183594 323.507812 356.484375 321.402344 354.359375 C 307.785156 340.644531 264.246094 293.832031 259.320312 251.1875 C 252.28125 190.214844 303.734375 123.90625 318.75 106.011719 C 320.78125 103.589844 324.539062 103.765625 326.335938 106.363281 C 338.839844 124.503906 379.976562 188.421875 377.769531 241.660156 C 376.078125 282.472656 339.910156 337.59375 328.722656 353.726562 " fill-opacity="1" fill-rule="nonzero"/></g><g clip-path="url(#a86b0ec5ab)"><path fill="#ffffff" d="M 319.605469 352.851562 C 319.625 355.84375 322.355469 358.066406 325.289062 357.503906 C 344.261719 353.851562 406.609375 339.738281 434.703125 307.292969 C 474.875 260.90625 469.746094 177.113281 467.425781 153.871094 C 467.109375 150.726562 463.90625 148.75 460.960938 149.882812 C 440.410156 157.8125 370.414062 187.410156 342.242188 232.625 C 320.636719 267.292969 319.445312 333.21875 319.605469 352.851562 " fill-opacity="1" fill-rule="nonzero"/></g><g clip-path="url(#8671c050e8)"><path fill="#ffffff" d="M 320.023438 355.074219 C 318.78125 357.792969 320.316406 360.964844 323.214844 361.699219 C 341.953125 366.410156 404.417969 379.972656 443.589844 362.445312 C 499.597656 337.390625 530.339844 259.277344 538.058594 237.230469 C 539.101562 234.253906 537.03125 231.105469 533.882812 230.890625 C 511.90625 229.386719 435.964844 226.617188 391.332031 255.683594 C 357.109375 277.964844 328.179688 337.21875 320.023438 355.074219 " fill-opacity="1" fill-rule="nonzero"/></g><path fill="#42ab3b" d="M 115.070312 231.617188 C 112.453125 230.898438 110.742188 228.859375 111.234375 227.070312 C 111.726562 225.269531 114.242188 224.394531 116.851562 225.113281 C 119.453125 225.828125 121.171875 227.859375 120.679688 229.664062 C 120.1875 231.457031 117.671875 232.332031 115.070312 231.617188 Z M 129.199219 201.824219 L 122.628906 225.789062 C 121.519531 224.3125 119.738281 223.089844 117.566406 222.492188 C 113.28125 221.320312 109.085938 223.011719 108.195312 226.261719 C 107.300781 229.519531 110.050781 233.109375 114.335938 234.285156 C 118.621094 235.460938 122.816406 233.777344 123.710938 230.523438 L 131.414062 202.433594 L 129.199219 201.824219 " fill-opacity="1" fill-rule="nonzero"/><path fill="#f14a1c" d="M 196.132812 160.195312 C 194.878906 157.863281 192.820312 158.507812 190.652344 155.324219 C 188.925781 152.785156 189.019531 150.585938 187.503906 150.253906 L 187.46875 150.25 L 187.472656 150.246094 L 185.195312 149.941406 L 185.003906 151.386719 L 184.765625 153.230469 L 181.960938 174.589844 C 180.65625 173.273438 178.730469 172.308594 176.496094 172.015625 C 172.09375 171.433594 168.164062 173.675781 167.722656 177.023438 C 167.28125 180.367188 170.5 183.550781 174.90625 184.132812 C 179.3125 184.707031 183.234375 182.464844 183.675781 179.121094 C 183.675781 179.117188 183.675781 179.117188 183.675781 179.117188 L 186.628906 156.648438 C 187.144531 157.296875 187.609375 157.796875 187.808594 158.011719 C 190.851562 161.261719 192.894531 160.746094 194.148438 163.195312 C 195.785156 166.414062 193.703125 170.074219 194.027344 170.164062 C 194.445312 170.289062 198.285156 164.210938 196.132812 160.195312 " fill-opacity="1" fill-rule="nonzero"/><path fill="#2858a6" d="M 71.089844 168.90625 L 46.472656 171.636719 L 44.1875 171.890625 L 44.984375 179.085938 L 46.929688 196.589844 C 45.351562 195.628906 43.246094 195.148438 41.007812 195.394531 C 36.59375 195.886719 33.3125 199.003906 33.683594 202.359375 C 34.058594 205.710938 37.9375 208.035156 42.355469 207.546875 C 46.773438 207.054688 50.050781 203.941406 49.679688 200.582031 L 47.269531 178.832031 L 71.886719 176.101562 L 73.824219 193.605469 C 72.253906 192.640625 70.148438 192.164062 67.910156 192.410156 C 63.492188 192.90625 60.214844 196.023438 60.585938 199.375 C 60.957031 202.730469 64.839844 205.050781 69.257812 204.566406 C 73.671875 204.074219 76.953125 200.960938 76.578125 197.601562 L 74.171875 175.851562 L 73.375 168.65625 L 71.089844 168.90625 " fill-opacity="1" fill-rule="nonzero"/><g clip-path="url(#a232f1e92e)"><path fill="#f58615" d="M 386.902344 218.242188 L 255.234375 218.242188 C 255.289062 217.519531 255.355469 216.78125 255.441406 216.046875 C 256.71875 210.695312 260.238281 197.300781 267.148438 185.515625 C 267.144531 185.507812 267.148438 185.507812 267.160156 185.503906 C 267.222656 185.40625 267.914062 184.226562 269.054688 182.53125 C 270.5625 180.3125 272.84375 177.199219 275.484375 174.441406 C 276.746094 173.136719 278.078125 171.914062 279.445312 170.902344 C 281.078125 169.703125 282.765625 168.761719 282.765625 168.761719 C 283.675781 168.257812 284.6875 167.765625 285.828125 167.296875 C 286.714844 166.925781 287.679688 166.585938 288.753906 166.25 C 291.09375 165.511719 293.941406 164.859375 297.5 164.304688 C 300.085938 163.90625 303.039062 163.5625 306.464844 163.285156 C 306.828125 163.253906 307.1875 163.226562 307.566406 163.195312 C 308.53125 163.125 309.53125 163.0625 310.566406 162.996094 C 311.929688 162.917969 313.355469 162.839844 314.851562 162.773438 L 314.859375 162.773438 C 317.347656 162.671875 320.035156 162.597656 322.929688 162.542969 C 325.703125 162.496094 328.277344 162.480469 330.671875 162.503906 L 330.710938 162.503906 C 331.125 162.503906 331.53125 162.507812 331.929688 162.519531 C 333.597656 162.535156 334.839844 162.570312 334.894531 162.570312 C 335.429688 162.59375 335.976562 162.617188 336.507812 162.648438 C 340.5 162.902344 344.253906 163.6875 347.679688 164.773438 C 349.300781 165.285156 350.859375 165.867188 352.339844 166.492188 C 353.785156 167.105469 355.164062 167.753906 356.453125 168.429688 C 361.765625 171.195312 365.71875 174.289062 367.863281 176.140625 C 367.898438 176.171875 367.941406 176.203125 367.972656 176.238281 C 369.203125 177.40625 373.285156 182.574219 375.40625 186.003906 C 375.476562 186.113281 375.542969 186.226562 375.609375 186.335938 C 376.367188 187.589844 377.335938 189.273438 378.386719 191.347656 C 379.519531 193.582031 380.753906 196.261719 381.945312 199.359375 C 382.085938 199.722656 382.226562 200.09375 382.363281 200.480469 C 382.5625 201.011719 382.761719 201.566406 382.957031 202.144531 C 383.300781 203.117188 383.640625 204.152344 383.972656 205.257812 C 384.113281 205.726562 384.261719 206.214844 384.402344 206.714844 C 384.40625 206.75 384.421875 206.785156 384.4375 206.835938 C 385.214844 209.550781 385.9375 212.605469 386.523438 215.972656 C 386.523438 215.980469 386.523438 215.980469 386.523438 215.980469 C 386.660156 216.71875 386.78125 217.476562 386.902344 218.242188 " fill-opacity="1" fill-rule="nonzero"/></g><path fill="#f9b156" d="M 198.578125 277.160156 C 198.066406 276.292969 196.613281 274 193.660156 271.445312 C 188.761719 267.222656 181.894531 264.164062 180.820312 265.523438 C 179.734375 266.898438 185.8125 271.105469 184.597656 275.738281 C 183.75 278.988281 179.574219 281.472656 177.996094 280.535156 C 174.664062 278.542969 183.691406 261.6875 181.117188 260.195312 C 178.773438 258.828125 164.941406 269.152344 166.304688 282.191406 C 167.019531 289.039062 171.914062 296.511719 179.527344 298.394531 C 190.117188 301.015625 201.335938 291.648438 201.335938 284.726562 C 201.335938 281.769531 199.28125 278.332031 198.578125 277.160156 " fill-opacity="1" fill-rule="nonzero"/><path fill="#f9b156" d="M 286.332031 179.597656 C 286.222656 174.578125 286.011719 170.359375 285.828125 167.292969 C 284.683594 167.757812 278.863281 169.699219 276.359375 170.941406 C 275.578125 171.328125 273.449219 172.390625 271.597656 174 C 268.3125 176.851562 267.007812 180.425781 266.152344 182.847656 C 261.5625 195.890625 259.269531 202.417969 258.105469 206.425781 C 255.535156 215.304688 255.433594 216.050781 254.328125 218.777344 C 251.4375 225.914062 248.085938 230.746094 246.179688 233.5 C 236.003906 248.167969 219.125 260.8125 215.601562 263.417969 L 215.59375 263.414062 C 201.6875 274.640625 189.683594 282.320312 189.683594 282.320312 L 190.808594 293.640625 C 192.980469 293.164062 195.398438 292.59375 198.039062 291.902344 C 202.542969 290.726562 210.367188 288.515625 219.871094 284.8125 C 231.945312 280.105469 241.382812 275.085938 244.0625 273.453125 C 244.40625 273.246094 259.664062 264.058594 264.378906 260.046875 C 266.699219 258.078125 273.960938 251.804688 279.09375 242.878906 C 284.011719 234.335938 284.644531 224.589844 285.914062 205.089844 C 286.632812 194 286.425781 183.84375 286.332031 179.597656 " fill-opacity="1" fill-rule="nonzero"/><g clip-path="url(#5e7563da6b)"><path fill="#42ab3b" d="M 370.53125 323.816406 C 358.90625 327.121094 341.8125 330.574219 321.050781 329.933594 C 299.074219 329.257812 281.398438 324.257812 269.730469 319.960938 C 273.417969 294.46875 274.792969 277.53125 275.335938 266.519531 C 275.40625 265.226562 275.960938 253.097656 277.25 237.585938 C 277.664062 232.566406 278.195312 226.933594 278.90625 220.601562 C 279.53125 214.972656 280.140625 212.300781 281.457031 202.742188 C 283.53125 187.707031 284.949219 175.4375 285.828125 167.292969 C 288.035156 166.570312 293.027344 164.996094 297.5 164.304688 C 299.449219 164 301.746094 163.738281 301.746094 163.738281 C 301.746094 163.738281 302.058594 163.703125 302.566406 163.652344 C 303.457031 163.554688 304.960938 163.402344 306.46875 163.285156 C 306.519531 163.277344 307.566406 163.195312 307.566406 163.195312 C 308.53125 163.125 309.535156 163.0625 310.566406 162.996094 C 311.929688 162.917969 313.355469 162.839844 314.851562 162.773438 L 314.859375 162.773438 C 317.347656 162.671875 320.035156 162.597656 322.929688 162.550781 C 325.703125 162.496094 328.277344 162.476562 330.671875 162.503906 L 330.710938 162.503906 C 331.125 162.503906 331.53125 162.507812 331.929688 162.511719 C 333.597656 162.535156 334.839844 162.570312 334.890625 162.570312 C 334.890625 162.570312 335.707031 162.597656 336.507812 162.644531 C 337.199219 162.691406 337.949219 162.769531 338.730469 162.878906 C 338.804688 162.890625 338.882812 162.902344 338.960938 162.917969 C 343.027344 163.503906 347.679688 164.773438 347.679688 164.773438 C 349.972656 165.394531 352.921875 166.265625 356.34375 167.445312 C 356.621094 169.890625 357.0625 173.71875 357.617188 178.082031 C 358.199219 182.683594 358.664062 186.027344 358.785156 186.917969 C 360.871094 202.054688 363.605469 231.203125 363.605469 231.203125 C 363.605469 247.859375 365.871094 256.082031 366.625 265.5 C 367.875 281.058594 369.289062 300.78125 370.53125 323.816406 " fill-opacity="1" fill-rule="nonzero"/></g><g clip-path="url(#cdc6e859f3)"><path fill="#fbbe44" d="M 335.585938 167.03125 C 335.027344 174.292969 329.453125 180.042969 322.742188 180.761719 C 315.15625 181.570312 307.785156 175.78125 306.785156 167.542969 C 306.785156 167.542969 307.136719 162.949219 307.519531 158.125 C 307.582031 157.351562 307.644531 156.566406 307.703125 155.789062 C 307.816406 154.375 307.925781 152.96875 308.035156 151.550781 C 308.242188 148.945312 308.445312 146.335938 308.660156 143.726562 C 308.792969 142.03125 308.925781 140.328125 309.058594 138.632812 L 333.273438 138.632812 C 333.40625 140.328125 333.550781 142.03125 333.691406 143.726562 C 333.894531 146.34375 334.109375 148.964844 334.320312 151.570312 C 334.433594 152.992188 334.554688 154.417969 334.671875 155.832031 C 334.753906 156.882812 334.828125 157.8125 334.863281 158.246094 C 334.988281 159.863281 335.203125 162.523438 335.585938 167.03125 " fill-opacity="1" fill-rule="nonzero"/></g><g clip-path="url(#a1bee80db6)"><path fill="#eaaa37" d="M 307.703125 155.789062 C 307.703125 155.789062 307.800781 154.589844 308.035156 151.550781 C 308.242188 148.945312 308.445312 146.335938 308.660156 143.726562 L 333.691406 143.726562 C 333.894531 146.34375 334.109375 148.964844 334.320312 151.570312 C 334.558594 154.457031 334.671875 155.832031 334.671875 155.832031 C 333.414062 156.894531 328.53125 160.761719 321.191406 160.757812 C 313.835938 160.753906 308.953125 156.851562 307.703125 155.789062 " fill-opacity="1" fill-rule="nonzero"/></g><g clip-path="url(#d8d7c9e8a6)"><path fill="#fbbe44" d="M 351.136719 108.816406 C 351.183594 113.851562 350.066406 118.597656 349.0625 122.914062 C 348.820312 123.941406 346.824219 132.074219 342.472656 140.035156 C 341.84375 141.183594 341.167969 142.332031 340.433594 143.453125 C 336.484375 149.515625 331.035156 154.835938 323.792969 155.914062 C 322.523438 156.105469 320.703125 156.234375 318.53125 155.914062 C 304.066406 153.765625 295.175781 134.597656 292.914062 120.808594 C 292.597656 118.878906 292.238281 116.65625 292.027344 114.230469 C 291.554688 108.632812 291.933594 101.9375 295.71875 95.179688 C 296.527344 93.746094 305.539062 78.292969 322.390625 78.683594 C 339.636719 79.074219 347.914062 95.65625 348.359375 96.585938 C 350.371094 100.796875 351.105469 104.902344 351.136719 108.816406 " fill-opacity="1" fill-rule="nonzero"/></g><g clip-path="url(#092006ebd5)"><path fill="#eaaa37" d="M 354.550781 108.816406 C 350.507812 110.164062 345.621094 108.089844 344.15625 107.46875 C 339.34375 105.421875 338.910156 102.890625 335.890625 102.90625 C 332.269531 102.925781 331.390625 106.578125 326.546875 108.523438 C 322.378906 110.191406 318.671875 109.261719 316.121094 108.875 C 310.722656 108.050781 302.394531 108.480469 289.742188 114.21875 C 290.476562 109.953125 292.351562 102.515625 297.789062 95.179688 C 301.144531 90.664062 310.253906 78.351562 325.109375 78.683594 C 342.769531 79.074219 351.25 95.65625 351.707031 96.585938 C 353.769531 100.796875 354.519531 104.902344 354.550781 108.816406 " fill-opacity="1" fill-rule="nonzero"/></g><g clip-path="url(#638c2a1032)"><path fill="#fbc924" d="M 354.550781 104.660156 C 355.164062 104.414062 358.957031 102.828125 360.050781 99.300781 C 360.980469 96.308594 359.230469 94.273438 357.585938 89.605469 C 354.976562 82.179688 356.996094 80.484375 355 74.617188 C 354.421875 72.890625 351.890625 65.4375 345.707031 61.953125 C 336.980469 57.039062 330.46875 65.375 315.953125 61.832031 C 308.566406 60.03125 307.921875 57.316406 302.964844 57.972656 C 297.785156 58.652344 293.898438 62.519531 286.125 70.253906 C 281.003906 75.34375 280.414062 77.011719 280.15625 77.980469 C 278.777344 83.148438 282.472656 84.917969 282.261719 92.019531 C 282.078125 98.210938 279.191406 99.9375 280.507812 104.660156 C 280.570312 104.882812 280.617188 105.101562 280.71875 105.347656 C 281.84375 108.230469 285.679688 109.15625 287.078125 109.5 C 295.195312 111.464844 303.113281 104.339844 316.304688 105.011719 C 320.519531 105.226562 322.914062 106.121094 326.476562 104.660156 C 331.203125 102.722656 332.066406 99.0625 335.601562 99.042969 C 338.546875 99.027344 338.972656 101.558594 343.671875 103.609375 C 345.738281 104.507812 350.167969 106.417969 354.550781 104.660156 " fill-opacity="1" fill-rule="nonzero"/></g><path fill="#291524" d="M 313.722656 119.042969 C 313.882812 119.492188 311.226562 121.558594 308.132812 121.476562 C 305.230469 121.410156 302.804688 119.488281 302.964844 119.042969 C 303.097656 118.675781 304.941406 119.476562 308.414062 119.472656 C 311.828125 119.472656 313.59375 118.695312 313.722656 119.042969 " fill-opacity="1" fill-rule="nonzero"/><g clip-path="url(#f5f870a687)"><path fill="#ef9c48" d="M 317.480469 131.761719 C 317.332031 132.226562 319.3125 133.800781 321.558594 133.800781 C 323.804688 133.800781 325.785156 132.226562 325.632812 131.761719 C 325.527344 131.445312 324.492188 131.761719 321.558594 131.761719 C 318.625 131.761719 317.585938 131.445312 317.480469 131.761719 " fill-opacity="1" fill-rule="nonzero"/></g><g clip-path="url(#cd4fa909e3)"><path fill="#ffffff" d="M 315.445312 142.574219 C 315.78125 142.175781 317.210938 142.574219 321.558594 142.574219 C 325.90625 142.574219 327.335938 142.175781 327.671875 142.574219 C 328.238281 143.25 325.246094 145.707031 321.558594 145.707031 C 317.871094 145.707031 314.878906 143.25 315.445312 142.574219 " fill-opacity="1" fill-rule="nonzero"/></g><g clip-path="url(#77194085de)"><path fill="#f14a1c" d="M 358.140625 106.171875 C 355.703125 87.625 344.042969 72.78125 328.636719 68.605469 C 326.507812 68.027344 314.953125 65.113281 303.15625 71.289062 C 289.710938 78.316406 281.75 94.101562 283.039062 111.535156 L 289.742188 111.535156 C 289.742188 111.535156 289.742188 79.335938 315.222656 76.65625 C 318.75 76.207031 325.550781 75.898438 332.660156 79.335938 C 348.410156 86.953125 350.632812 105.710938 350.785156 107.148438 L 358.140625 106.171875 " fill-opacity="1" fill-rule="nonzero"/></g><path fill="#f14a1c" d="M 288.355469 98.339844 C 284.859375 97.160156 276.988281 104.433594 276.773438 112.386719 C 276.480469 123.199219 290.460938 131.652344 293.613281 129.585938 C 294.671875 128.894531 294.160156 127.257812 292.214844 114.84375 C 290.066406 101.179688 290.015625 98.90625 288.355469 98.339844 " fill-opacity="1" fill-rule="nonzero"/><g clip-path="url(#48ed42ef1b)"><path fill="#22518b" d="M 213.683594 303.136719 C 216.5625 305.023438 220.980469 307.699219 226.652344 310.28125 C 241.253906 316.9375 254.175781 318.453125 262.707031 319.378906 C 275.574219 320.785156 279.0625 319.476562 292.039062 321.183594 C 293.773438 321.40625 298.925781 322.113281 305.878906 322.648438 C 310.492188 323.003906 314.152344 323.152344 316.15625 323.214844 C 320.105469 323.347656 323.707031 323.363281 326.96875 323.316406 C 335.011719 323.195312 341.203125 322.703125 344.515625 322.441406 C 373.515625 320.132812 370.875 320.683594 373.726562 320.203125 C 386.726562 318.015625 396.675781 314.207031 404.875 311.078125 C 412.402344 308.199219 418.535156 305.355469 422.921875 303.191406 C 404.621094 347.355469 360.964844 375.585938 314.078125 373.839844 C 270.113281 372.199219 230.71875 344.476562 213.683594 303.136719 " fill-opacity="1" fill-rule="nonzero"/></g><g clip-path="url(#9df970206f)"><path fill="#f9b156" d="M 328.820312 376.917969 C 328.042969 378.378906 326.960938 379.710938 325.320312 380.875 C 324.015625 381.820312 322.34375 382.675781 320.191406 383.421875 C 316.171875 384.824219 310.476562 385.875 302.28125 386.566406 C 275.476562 388.796875 257.929688 390.261719 250.234375 379.257812 C 249.773438 378.597656 249.347656 377.902344 248.96875 377.179688 C 248.605469 376.476562 248.273438 375.742188 247.980469 374.992188 C 247.140625 372.859375 246.613281 370.574219 246.347656 368.300781 C 246.335938 368.179688 246.3125 368.054688 246.308594 367.941406 C 245.519531 360.582031 247.433594 353.515625 250.417969 352.433594 C 252.3125 351.726562 254.371094 353.636719 256.535156 355.1875 C 264.566406 360.949219 276.804688 361.230469 300.964844 361.582031 C 303.664062 361.625 306.121094 361.636719 308.339844 361.636719 C 321.109375 361.636719 326.460938 361.367188 329.035156 365.386719 C 329.640625 366.335938 330.035156 367.410156 330.234375 368.519531 C 330.757812 371.410156 330.035156 374.59375 328.820312 376.917969 " fill-opacity="1" fill-rule="nonzero"/></g><g clip-path="url(#e6da1821e9)"><path fill="#2858a6" d="M 470.65625 322.9375 C 469.046875 345.171875 427.253906 358.910156 395.507812 369.148438 C 395.125 369.269531 394.75 369.390625 394.367188 369.515625 C 392.925781 369.984375 391.449219 370.449219 389.9375 370.910156 C 381.46875 373.519531 372.042969 376.082031 361.707031 378.363281 C 349.644531 381.027344 336.332031 383.3125 321.847656 384.863281 C 320.636719 384.992188 319.410156 385.117188 318.183594 385.238281 C 318.011719 384.757812 317.828125 384.269531 317.65625 383.792969 C 315.125 376.917969 312.59375 370.046875 310.070312 363.171875 C 309.859375 362.605469 309.648438 362.039062 309.445312 361.472656 C 354.429688 341.097656 387.121094 323.53125 410.0625 310.28125 C 422.90625 302.859375 441.488281 291.714844 456.007812 298.949219 C 464.316406 303.097656 471.363281 313.230469 470.65625 322.9375 " fill-opacity="1" fill-rule="nonzero"/></g><path fill="#e99e50" d="M 313.542969 381.28125 C 312.757812 385.375 285.609375 384.777344 263.773438 379.699219 C 257.46875 378.226562 252.132812 376.507812 247.980469 374.992188 C 247.980469 374.992188 246.726562 371.917969 246.347656 368.300781 C 246.335938 368.179688 246.3125 368.054688 246.308594 367.941406 C 246.59375 367.476562 246.828125 367.164062 246.90625 367.058594 C 247.335938 366.5 314.789062 374.757812 313.542969 381.28125 " fill-opacity="1" fill-rule="nonzero"/><g clip-path="url(#cfc0b5ac96)"><path fill="#f9b156" d="M 390.363281 368.300781 C 390.265625 369.171875 390.121094 370.046875 389.9375 370.910156 C 389.644531 372.304688 389.246094 373.679688 388.730469 374.992188 C 388.238281 376.246094 387.640625 377.453125 386.933594 378.574219 C 386.785156 378.808594 386.632812 379.039062 386.476562 379.257812 C 378.785156 390.261719 361.230469 388.796875 334.429688 386.566406 C 329.332031 386.136719 325.203125 385.570312 321.847656 384.863281 C 320.289062 384.535156 318.902344 384.175781 317.65625 383.792969 C 317.261719 383.671875 316.878906 383.546875 316.519531 383.421875 C 314.363281 382.675781 312.695312 381.820312 311.390625 380.875 C 309.75 379.710938 308.664062 378.378906 307.894531 376.917969 C 306.675781 374.59375 305.953125 371.410156 306.476562 368.519531 C 306.675781 367.410156 307.0625 366.335938 307.675781 365.386719 C 308.292969 364.417969 309.0625 363.699219 310.070312 363.171875 C 313.238281 361.476562 318.660156 361.636719 328.367188 361.636719 C 329.882812 361.636719 331.496094 361.636719 333.222656 361.613281 C 334.042969 361.609375 334.875 361.597656 335.746094 361.582031 C 359.90625 361.230469 372.144531 360.949219 380.175781 355.1875 C 382.335938 353.636719 384.394531 351.726562 386.292969 352.433594 C 389.320312 353.539062 391.253906 360.8125 390.363281 368.300781 " fill-opacity="1" fill-rule="nonzero"/></g><g clip-path="url(#62e7e00519)"><path fill="#2858a6" d="M 180.703125 298.957031 C 172.394531 303.101562 165.390625 313.226562 166.050781 322.9375 C 167.613281 345.914062 211.570312 360.125 241.929688 369.941406 C 261.222656 376.179688 287.019531 382.582031 318.53125 385.234375 C 321.441406 377.316406 324.355469 369.390625 327.269531 361.472656 C 282.277344 341.097656 249.582031 323.53125 226.652344 310.28125 C 213.804688 302.859375 195.222656 291.71875 180.703125 298.957031 " fill-opacity="1" fill-rule="nonzero"/></g></g></g></g></svg>