<svg xmlns="http://www.w3.org/2000/svg" xmlns:xlink="http://www.w3.org/1999/xlink" width="470" zoomAndPan="magnify" viewBox="0 0 352.5 225" height="300" preserveAspectRatio="xMidYMid meet" version="1.0"><defs><filter x="0%" y="0%" width="100%" height="100%" id="2dd5a1b100"><feColorMatrix values="0 0 0 0 1 0 0 0 0 1 0 0 0 0 1 0 0 0 1 0" color-interpolation-filters="sRGB"/></filter><mask id="8caf33139c"><g filter="url(#2dd5a1b100)"><rect x="-35.25" width="423" fill="#000000" y="-22.5" height="270" fill-opacity="0.36"/></g></mask><clipPath id="1a3d63f207"><path d="M 68 52 L 184 52 L 184 125 L 68 125 Z M 68 52 " clip-rule="nonzero"/></clipPath><clipPath id="e74a75bf8f"><path d="M 30 48 L 184 48 L 184 215.8125 L 30 215.8125 Z M 30 48 " clip-rule="nonzero"/></clipPath><clipPath id="92e29bfcd9"><path d="M 0.824219 0.867188 L 184 0.867188 L 184 211 L 0.824219 211 Z M 0.824219 0.867188 " clip-rule="nonzero"/></clipPath><clipPath id="110dda0a22"><rect x="0" width="184" y="0" height="217"/></clipPath></defs><g mask="url(#8caf33139c)"><g transform="matrix(1, 0, 0, 1, 168, 4)"><g clip-path="url(#110dda0a22)"><g clip-path="url(#1a3d63f207)"><path fill="#cb8eff" d="M 169.425781 52.785156 L 169.253906 52.816406 C 168.921875 52.90625 168.625 53.164062 168.363281 53.585938 C 167.960938 54.324219 167.707031 54.988281 167.605469 55.578125 C 167.46875 56.269531 167.414062 56.960938 167.445312 57.648438 C 167.480469 58.132812 167.625 58.933594 167.890625 60.054688 C 167.957031 60.316406 168.082031 60.714844 168.265625 61.246094 L 167.722656 60.984375 C 167.257812 60.777344 166.78125 60.582031 166.292969 60.410156 L 165.546875 60.160156 C 165.042969 60.003906 164.527344 59.863281 163.996094 59.742188 C 163.433594 59.621094 162.832031 59.550781 162.199219 59.535156 L 161.863281 59.546875 C 161.011719 59.605469 160.515625 59.910156 160.371094 60.460938 C 160.382812 60.875 160.675781 61.261719 161.257812 61.621094 C 161.453125 61.742188 161.679688 61.859375 161.933594 61.972656 L 162.609375 62.265625 C 162.585938 62.265625 163.039062 62.417969 163.964844 62.722656 C 165.316406 63.152344 166.371094 63.480469 167.128906 63.710938 L 167.128906 63.714844 C 166.78125 63.917969 166.441406 64.171875 166.105469 64.46875 C 165.183594 65.296875 164.425781 66.265625 163.832031 67.375 C 163.28125 68.421875 163.082031 69.390625 163.242188 70.28125 C 163.257812 70.523438 163.457031 70.816406 163.832031 71.160156 C 164.089844 71.332031 164.320312 71.417969 164.527344 71.417969 C 164.550781 71.417969 164.574219 71.417969 164.597656 71.414062 C 165.292969 71.414062 166.222656 70.953125 167.378906 70.023438 C 168.28125 69.347656 169.101562 68.363281 169.84375 67.078125 C 169.917969 66.949219 169.992188 66.816406 170.066406 66.679688 L 170.070312 66.679688 C 170.488281 67.566406 170.976562 68.324219 171.539062 68.953125 C 172.402344 69.910156 173.269531 70.558594 174.140625 70.902344 C 174.804688 71.144531 175.4375 71.269531 176.039062 71.269531 C 176.296875 71.269531 176.550781 71.246094 176.800781 71.199219 C 177.273438 71.054688 177.671875 70.890625 177.996094 70.699219 L 178.429688 70.394531 L 178.753906 70.054688 L 178.964844 69.679688 L 179.066406 69.269531 L 179.058594 68.824219 C 179.015625 68.515625 178.902344 68.183594 178.710938 67.828125 L 178.394531 67.265625 C 178.152344 66.886719 177.839844 66.5 177.464844 66.109375 C 177.09375 65.71875 176.652344 65.320312 176.144531 64.917969 C 175.234375 64.191406 174.113281 63.445312 172.777344 62.679688 L 172.777344 62.683594 C 173.214844 62.359375 173.972656 61.832031 175.039062 61.101562 C 175.21875 60.972656 175.382812 60.847656 175.535156 60.722656 C 175.792969 60.511719 175.964844 60.363281 176.046875 60.28125 C 176.175781 60.175781 176.40625 59.914062 176.746094 59.492188 C 176.980469 59.167969 177.113281 58.878906 177.148438 58.621094 L 177.15625 58.4375 C 177.148438 58.324219 177.117188 58.203125 177.066406 58.074219 C 176.878906 57.605469 176.53125 57.371094 176.027344 57.371094 L 176.007812 57.371094 C 174.746094 57.453125 173.367188 58.363281 171.878906 60.105469 C 171.796875 60.207031 171.71875 60.3125 171.644531 60.414062 C 171.683594 59.015625 171.695312 58.097656 171.679688 57.660156 C 171.683594 57.113281 171.601562 56.4375 171.433594 55.628906 C 171.324219 55.214844 171.203125 54.847656 171.074219 54.523438 L 170.878906 54.070312 C 170.742188 53.792969 170.597656 53.558594 170.441406 53.371094 C 170.136719 52.996094 169.796875 52.796875 169.425781 52.785156 Z M 74.390625 75.351562 L 74.273438 75.359375 C 73.871094 75.433594 73.535156 75.671875 73.261719 76.078125 C 73.167969 76.207031 73.082031 76.355469 73.011719 76.519531 C 72.9375 76.6875 72.875 76.871094 72.824219 77.070312 L 72.757812 77.382812 C 72.722656 77.472656 72.6875 77.839844 72.652344 78.484375 C 72.660156 78.746094 72.679688 79.003906 72.710938 79.261719 C 72.730469 79.652344 72.863281 80.273438 73.109375 81.128906 C 73.273438 81.636719 73.457031 82.078125 73.664062 82.449219 L 73.996094 83.011719 C 74.203125 83.328125 74.429688 83.621094 74.679688 83.890625 L 74.675781 83.890625 C 73.78125 84.097656 72.921875 84.425781 72.09375 84.871094 C 71.59375 85.144531 71.121094 85.476562 70.679688 85.878906 C 70.460938 86.078125 70.265625 86.277344 70.089844 86.472656 C 69.691406 86.957031 69.480469 87.246094 69.453125 87.335938 C 69.34375 87.527344 69.257812 87.714844 69.195312 87.898438 C 69.058594 88.28125 68.972656 88.667969 68.9375 89.066406 C 68.90625 89.167969 68.929688 89.449219 69.003906 89.910156 C 69.042969 90.09375 69.105469 90.273438 69.183594 90.449219 C 69.300781 90.777344 69.667969 91.160156 70.292969 91.609375 L 70.550781 91.753906 C 70.726562 91.835938 70.90625 91.902344 71.09375 91.945312 C 71.277344 91.988281 71.464844 92.007812 71.65625 92.007812 C 73.382812 91.953125 74.957031 90.644531 76.382812 88.085938 C 76.429688 88.003906 76.476562 87.925781 76.519531 87.847656 L 76.523438 87.847656 C 76.519531 87.953125 76.515625 88.054688 76.515625 88.152344 C 76.503906 88.917969 76.578125 89.726562 76.734375 90.574219 C 76.839844 91.003906 76.96875 91.398438 77.121094 91.753906 C 77.273438 92.113281 77.449219 92.4375 77.644531 92.722656 L 77.957031 93.128906 C 78.394531 93.632812 78.921875 93.996094 79.535156 94.21875 C 79.746094 94.261719 79.910156 94.28125 80.035156 94.28125 C 80.046875 94.28125 80.058594 94.28125 80.070312 94.28125 C 80.339844 94.28125 80.578125 94.226562 80.789062 94.125 L 81.085938 93.925781 L 81.335938 93.652344 L 81.542969 93.296875 L 81.710938 92.863281 L 81.832031 92.351562 L 81.910156 91.761719 L 81.945312 91.09375 L 81.890625 90.285156 L 81.777344 89.496094 L 81.609375 88.734375 L 81.613281 88.734375 C 82.058594 88.808594 82.476562 88.84375 82.867188 88.84375 C 82.941406 88.84375 83.015625 88.84375 83.089844 88.839844 C 83.144531 88.839844 83.195312 88.84375 83.25 88.84375 C 84.175781 88.84375 85.023438 88.558594 85.789062 87.996094 C 86.660156 87.332031 87.164062 86.511719 87.300781 85.539062 C 87.304688 85.371094 87.292969 85.207031 87.273438 85.046875 C 87.1875 84.660156 87.125 84.4375 87.074219 84.371094 C 86.871094 83.953125 86.5625 83.570312 86.148438 83.230469 L 85.929688 83.074219 C 85.78125 82.972656 85.617188 82.882812 85.4375 82.800781 C 85.261719 82.71875 85.074219 82.648438 84.871094 82.585938 C 84.414062 82.449219 83.945312 82.363281 83.46875 82.332031 L 83.464844 82.332031 C 84.128906 81.570312 84.554688 80.863281 84.75 80.21875 C 85.085938 79.257812 85.085938 78.328125 84.753906 77.433594 C 84.6875 77.277344 84.609375 77.140625 84.519531 77.015625 L 84.371094 76.839844 C 84.269531 76.730469 84.152344 76.636719 84.027344 76.558594 C 83.898438 76.480469 83.757812 76.417969 83.605469 76.371094 C 83.488281 76.320312 83.289062 76.292969 83 76.289062 L 82.585938 76.320312 C 82.3125 76.359375 82.039062 76.441406 81.769531 76.5625 L 81.371094 76.777344 C 80.839844 77.101562 80.320312 77.589844 79.8125 78.238281 L 79.4375 78.753906 L 79.015625 79.519531 L 78.644531 80.265625 C 78.492188 80.601562 78.351562 80.933594 78.230469 81.261719 C 77.664062 79.304688 77.167969 77.980469 76.746094 77.285156 C 75.882812 76.023438 75.101562 75.378906 74.390625 75.351562 Z M 203.710938 87.027344 L 203.519531 87.035156 C 203.011719 87.074219 202.472656 87.28125 201.90625 87.648438 C 201.390625 88 200.933594 88.421875 200.523438 88.90625 L 199.953125 89.683594 C 198.890625 91.335938 198.304688 93.578125 198.195312 96.410156 C 198.183594 96.808594 198.203125 97.339844 198.257812 98.003906 C 197.472656 97.253906 196.726562 96.601562 196.023438 96.050781 L 194.617188 95.050781 L 193.320312 94.335938 L 192.140625 93.910156 L 191.066406 93.765625 L 190.730469 93.78125 C 190.289062 93.828125 189.878906 93.957031 189.507812 94.175781 C 189.054688 94.484375 188.792969 94.699219 188.722656 94.8125 C 188.722656 94.8125 188.71875 94.8125 188.71875 94.8125 C 188.628906 94.8125 188.402344 95.195312 188.046875 95.957031 L 187.777344 96.882812 C 187.402344 98.808594 188.027344 101.121094 189.65625 103.828125 L 190.554688 105.214844 L 191.28125 106.085938 C 191.792969 106.648438 192.367188 107.167969 193.003906 107.652344 L 194 108.347656 C 194.171875 108.453125 194.34375 108.558594 194.519531 108.664062 C 194.34375 108.753906 194.152344 108.847656 193.953125 108.953125 C 193.496094 109.214844 193.070312 109.496094 192.675781 109.792969 C 191.410156 110.816406 190.527344 111.625 190.035156 112.207031 C 189.695312 112.601562 189.351562 113.035156 189.011719 113.511719 C 188.164062 114.785156 187.65625 115.601562 187.488281 115.960938 L 186.984375 116.90625 C 186.503906 118.261719 186.261719 119.023438 186.257812 119.199219 C 186.0625 120.25 185.992188 120.835938 186.042969 120.949219 C 186.054688 121.28125 186.101562 121.570312 186.1875 121.820312 C 186.472656 122.726562 186.992188 123.453125 187.753906 124.003906 C 188.003906 124.167969 188.28125 124.296875 188.585938 124.398438 C 188.765625 124.492188 189.222656 124.566406 189.953125 124.613281 C 192.46875 124.457031 194.765625 123.308594 196.847656 121.171875 C 198.347656 119.640625 200.007812 117.460938 201.835938 114.628906 L 201.839844 114.628906 C 202.042969 115.476562 202.308594 116.238281 202.628906 116.917969 L 203.117188 117.804688 C 203.421875 118.296875 203.863281 118.84375 204.441406 119.445312 C 205.484375 120.535156 206.632812 121.390625 207.878906 122.007812 C 209.125 122.625 210.472656 123.011719 211.925781 123.160156 C 212.253906 123.179688 212.5625 123.1875 212.84375 123.1875 C 213.097656 123.1875 213.332031 123.179688 213.550781 123.164062 C 214.710938 123.027344 215.375 122.90625 215.542969 122.800781 L 216.121094 122.582031 C 216.496094 122.417969 216.839844 122.222656 217.15625 121.996094 C 217.472656 121.769531 217.761719 121.511719 218.023438 121.21875 C 218.871094 120.253906 219.289062 119.238281 219.28125 118.171875 C 219.339844 118.003906 219.230469 117.457031 218.949219 116.539062 L 218.449219 115.410156 L 217.730469 114.324219 L 216.792969 113.292969 L 215.636719 112.304688 L 214.257812 111.371094 C 213.511719 110.914062 212.6875 110.472656 211.777344 110.054688 L 211.773438 110.054688 C 213.285156 109.078125 214.59375 108.109375 215.695312 107.160156 C 216.460938 106.5 217.125 105.84375 217.691406 105.199219 L 218.464844 104.230469 C 218.933594 103.589844 219.300781 102.953125 219.574219 102.324219 L 219.984375 100.988281 C 220.199219 100.140625 220.296875 99.371094 220.273438 98.683594 L 220.15625 97.714844 L 219.863281 96.863281 L 219.394531 96.136719 L 218.746094 95.527344 L 217.925781 95.042969 C 217.21875 94.6875 216.390625 94.503906 215.4375 94.496094 L 215.039062 94.507812 C 212.742188 94.683594 210.535156 95.496094 208.417969 96.9375 C 208.378906 96.519531 208.339844 96.128906 208.300781 95.765625 C 208.054688 93.882812 207.804688 92.546875 207.554688 91.753906 C 207.117188 90.261719 206.511719 89.035156 205.734375 88.078125 C 205.117188 87.488281 204.730469 87.195312 204.574219 87.195312 C 204.570312 87.195312 204.566406 87.195312 204.5625 87.195312 C 204.289062 87.082031 204.003906 87.027344 203.710938 87.027344 Z M 203.710938 87.027344 " fill-opacity="1" fill-rule="nonzero"/></g><path fill="#ffc107" d="M 136.035156 64.230469 L 135.984375 64.230469 C 135.972656 64.230469 135.960938 64.230469 135.949219 64.230469 C 135.226562 64.230469 134.628906 64.925781 134.164062 66.3125 C 133.855469 67.1875 133.738281 68.539062 133.808594 70.359375 C 133.878906 71.578125 133.976562 72.4375 134.105469 72.945312 C 134.242188 73.605469 134.425781 74.261719 134.65625 74.910156 C 134.390625 74.890625 134.1875 74.878906 134.042969 74.878906 C 133.976562 74.878906 133.925781 74.882812 133.882812 74.886719 L 133.53125 74.890625 C 132.585938 74.914062 131.566406 75.023438 130.472656 75.21875 C 129.738281 75.371094 129.039062 75.574219 128.367188 75.824219 C 127.359375 76.199219 126.425781 76.675781 125.558594 77.253906 C 125.082031 77.527344 124.5625 77.964844 124.007812 78.566406 C 123.363281 79.40625 123.4375 80.132812 124.230469 80.75 L 124.660156 81.003906 C 124.984375 81.160156 125.378906 81.285156 125.84375 81.386719 C 126.308594 81.484375 126.847656 81.558594 127.453125 81.601562 C 127.722656 81.621094 128.082031 81.628906 128.539062 81.632812 C 129.097656 81.632812 129.683594 81.609375 130.304688 81.566406 L 131.257812 81.480469 C 131.90625 81.414062 132.585938 81.324219 133.296875 81.210938 C 134.507812 81.019531 135.804688 80.765625 137.195312 80.445312 C 137.183594 80.550781 137.167969 80.660156 137.15625 80.769531 C 137.109375 81.011719 137.078125 81.660156 137.058594 82.71875 C 137.0625 83.136719 137.082031 83.539062 137.121094 83.933594 C 137.15625 84.324219 137.210938 84.707031 137.285156 85.078125 C 137.320312 85.339844 137.445312 85.804688 137.65625 86.472656 L 137.972656 87.242188 L 138.359375 87.929688 L 138.816406 88.535156 C 139.140625 88.914062 139.507812 89.234375 139.925781 89.503906 L 140.578125 89.867188 C 141.039062 90.082031 141.542969 90.246094 142.09375 90.351562 L 142.71875 90.28125 L 143.265625 90.09375 L 143.726562 89.785156 L 144.109375 89.363281 L 144.410156 88.824219 L 144.632812 88.167969 L 144.773438 87.390625 L 144.832031 86.5 C 144.824219 85.363281 144.785156 84.625 144.714844 84.296875 C 144.675781 84.027344 144.625 83.757812 144.558594 83.484375 C 144.375 82.800781 144.25 82.386719 144.183594 82.246094 C 144.175781 82.222656 144.167969 82.195312 144.15625 82.167969 L 144.160156 82.167969 C 144.972656 82.3125 145.808594 82.386719 146.664062 82.386719 C 146.675781 82.386719 146.691406 82.386719 146.703125 82.386719 C 148.402344 82.371094 149.800781 81.925781 150.894531 81.054688 C 151.246094 80.761719 151.554688 80.425781 151.824219 80.042969 L 152.191406 79.429688 L 152.5 78.746094 C 152.550781 78.472656 152.578125 78.207031 152.582031 77.949219 C 152.621094 76.691406 152.023438 75.523438 150.785156 74.4375 C 150.582031 74.28125 150.355469 74.136719 150.109375 74 L 149.726562 73.796875 C 149.457031 73.667969 149.167969 73.550781 148.859375 73.4375 C 147.976562 73.257812 147.265625 73.167969 146.722656 73.167969 C 146.667969 73.167969 146.617188 73.167969 146.570312 73.171875 L 146.304688 73.175781 C 146.257812 73.171875 146.207031 73.171875 146.15625 73.171875 C 146.109375 73.171875 146.0625 73.171875 146.015625 73.171875 C 146.585938 72.390625 147.058594 71.6875 147.4375 71.0625 C 147.707031 70.652344 148.003906 70.066406 148.320312 69.3125 C 148.386719 69.191406 148.457031 68.867188 148.527344 68.339844 C 148.542969 68.132812 148.535156 67.933594 148.507812 67.738281 C 148.378906 67.082031 148.136719 66.625 147.789062 66.375 C 147.46875 66.09375 147.09375 65.953125 146.664062 65.953125 L 146.621094 65.953125 C 144.960938 66.164062 143.121094 67.867188 141.101562 71.058594 C 140.738281 71.738281 140.410156 72.386719 140.121094 73 C 139.996094 72.082031 139.878906 71.199219 139.769531 70.34375 C 139.550781 69.136719 139.324219 68.230469 139.089844 67.625 C 138.582031 66.46875 138.125 65.664062 137.714844 65.210938 C 137.496094 64.949219 137.273438 64.742188 137.050781 64.585938 L 136.714844 64.386719 C 136.492188 64.28125 136.265625 64.230469 136.035156 64.230469 Z M 31.621094 80.847656 L 31.503906 80.851562 C 30.96875 80.855469 30.363281 81.144531 29.6875 81.714844 C 28.746094 82.675781 28.09375 83.554688 27.734375 84.351562 C 26.5625 86.515625 25.925781 88.945312 25.816406 91.648438 L 25.777344 92.515625 L 25.839844 93.78125 C 25.355469 93.203125 24.605469 92.375 23.59375 91.300781 C 23.128906 90.804688 21.960938 89.835938 20.085938 88.394531 C 17.914062 86.847656 16.074219 86.070312 14.574219 86.070312 L 14.496094 86.074219 C 14.472656 86.074219 14.449219 86.070312 14.425781 86.070312 C 13.757812 86.070312 13.039062 86.351562 12.277344 86.90625 C 11.792969 87.398438 11.53125 87.726562 11.5 87.886719 C 11.367188 88.144531 11.265625 88.425781 11.1875 88.734375 C 10.894531 89.777344 11.347656 91.113281 12.535156 92.742188 C 13.582031 94.15625 15.113281 95.601562 17.128906 97.078125 C 16.484375 96.984375 15.832031 96.914062 15.160156 96.867188 L 14.234375 96.886719 C 13.628906 96.910156 13.054688 96.960938 12.507812 97.039062 C 11.191406 97.273438 10.433594 97.445312 10.238281 97.554688 C 9.777344 97.707031 9.34375 97.886719 8.9375 98.089844 C 8.058594 98.507812 7.183594 99.003906 6.3125 99.578125 C 5.367188 100.324219 4.839844 100.792969 4.730469 100.988281 C 4.429688 101.328125 4.160156 101.683594 3.925781 102.058594 C 3.46875 102.640625 3.3125 103.3125 3.464844 104.078125 C 3.816406 104.902344 4.257812 105.488281 4.785156 105.828125 C 4.839844 105.917969 5.242188 106.148438 6 106.511719 C 6.332031 106.652344 6.703125 106.789062 7.113281 106.914062 C 9.628906 107.644531 12.621094 108.007812 16.085938 108.007812 C 16.222656 108.007812 16.355469 108.007812 16.492188 108.007812 C 17.316406 108 18.332031 107.941406 19.539062 107.832031 C 18.820312 108.34375 18.089844 108.890625 17.351562 109.480469 C 16.570312 110.183594 15.875 110.898438 15.265625 111.621094 L 14.410156 112.714844 C 13.886719 113.445312 13.441406 114.183594 13.085938 114.933594 L 12.613281 116.0625 C 12.335938 116.820312 12.148438 117.585938 12.042969 118.359375 L 11.949219 119.527344 L 11.988281 120.070312 C 12.273438 121.9375 13.210938 122.871094 14.808594 122.871094 C 15.039062 122.871094 15.285156 122.851562 15.542969 122.8125 C 16.625 122.59375 17.511719 122.265625 18.199219 121.828125 C 18.878906 121.480469 19.625 120.988281 20.441406 120.351562 L 21.722656 119.28125 C 22.875 118.265625 24.144531 117 25.53125 115.492188 C 25.238281 117.109375 25.113281 118.195312 25.164062 118.75 C 25.171875 120.132812 25.191406 120.929688 25.226562 121.132812 C 25.296875 122.097656 25.417969 122.941406 25.597656 123.660156 C 26.019531 125.484375 26.609375 126.859375 27.367188 127.785156 C 27.925781 128.484375 28.535156 128.835938 29.199219 128.835938 C 29.34375 128.835938 29.492188 128.820312 29.644531 128.785156 C 30.03125 128.753906 30.6875 128.40625 31.605469 127.742188 C 31.796875 127.589844 32.238281 127.078125 32.925781 126.199219 C 33.945312 124.789062 34.625 123.1875 34.972656 121.402344 C 35.460938 119.113281 35.570312 116.25 35.304688 112.8125 C 35.789062 113.234375 36.273438 113.632812 36.765625 114 L 37.9375 114.824219 C 38.726562 115.339844 39.523438 115.785156 40.335938 116.167969 C 41.953125 116.871094 43.402344 117.222656 44.679688 117.222656 C 46.367188 117.222656 47.753906 116.609375 48.847656 115.382812 C 49.261719 114.75 49.550781 114.128906 49.714844 113.511719 C 49.882812 112.898438 49.925781 112.292969 49.84375 111.691406 L 49.632812 110.800781 C 49.429688 110.214844 49.105469 109.632812 48.65625 109.058594 L 47.890625 108.207031 C 47.195312 107.578125 46.625 107.085938 46.1875 106.734375 C 45.433594 106.1875 44.46875 105.675781 43.285156 105.195312 L 43.28125 105.195312 C 44.023438 104.746094 44.605469 104.382812 45.035156 104.113281 C 45.316406 103.980469 46.429688 103.183594 48.371094 101.726562 C 50.21875 100.355469 51.570312 98.847656 52.417969 97.210938 C 53.386719 95.332031 53.347656 93.722656 52.304688 92.390625 C 50.824219 90.710938 49.023438 89.875 46.90625 89.875 C 46.820312 89.875 46.738281 89.875 46.652344 89.878906 L 46.578125 89.878906 C 46.566406 89.878906 46.550781 89.878906 46.535156 89.878906 C 44.4375 89.878906 42.171875 90.65625 39.738281 92.210938 C 38.847656 92.863281 38.019531 93.550781 37.246094 94.269531 L 37.238281 92.984375 C 37.183594 90.726562 36.96875 89.078125 36.589844 88.046875 C 35.929688 85.914062 35.234375 84.253906 34.503906 83.070312 C 34.140625 82.476562 33.769531 82.003906 33.386719 81.648438 L 32.8125 81.203125 C 32.421875 80.964844 32.027344 80.847656 31.621094 80.847656 Z M 31.621094 80.847656 " fill-opacity="1" fill-rule="nonzero"/><g clip-path="url(#e74a75bf8f)"><path fill="#ea8891" d="M 59.839844 65.128906 L 59.773438 65.824219 L 59.609375 65.882812 L 59.53125 65.179688 Z M 58.445312 48.199219 L 58.421875 48.199219 C 57.566406 48.367188 56.851562 48.9375 56.277344 49.90625 C 55.988281 50.4375 55.761719 51 55.609375 51.59375 C 55.527344 51.882812 55.464844 52.167969 55.414062 52.453125 L 55.351562 52.878906 C 55.320312 53.160156 55.300781 53.441406 55.296875 53.722656 C 55.289062 53.738281 55.304688 54.277344 55.347656 55.335938 L 55.472656 56.542969 L 55.675781 57.765625 L 55.957031 58.996094 C 56.09375 59.519531 56.25 60.042969 56.425781 60.570312 L 55.996094 60.15625 C 55.414062 59.625 54.796875 59.113281 54.144531 58.621094 C 53.488281 58.132812 52.796875 57.664062 52.066406 57.214844 C 50.683594 56.410156 49.363281 55.984375 48.101562 55.945312 L 47.863281 55.953125 C 47.550781 55.976562 47.246094 56.050781 46.957031 56.175781 C 46.597656 56.351562 46.382812 56.472656 46.320312 56.539062 L 46.117188 56.695312 L 45.808594 57.128906 L 45.640625 57.585938 C 45.570312 57.898438 45.59375 58.222656 45.703125 58.566406 C 45.816406 58.910156 46.019531 59.265625 46.3125 59.640625 L 46.816406 60.210938 C 47.199219 60.601562 47.671875 61.003906 48.234375 61.425781 L 49.410156 62.1875 C 50.1875 62.671875 50.957031 63.113281 51.714844 63.515625 L 52.839844 64.082031 C 53.585938 64.4375 54.324219 64.75 55.050781 65.019531 C 55.085938 65.035156 55.125 65.046875 55.164062 65.0625 C 54.378906 65.390625 53.554688 65.816406 52.679688 66.34375 C 52.023438 66.742188 51.34375 67.195312 50.636719 67.707031 L 49.710938 68.53125 C 49.136719 69.074219 48.632812 69.605469 48.210938 70.117188 C 46.941406 71.660156 46.367188 73.074219 46.484375 74.351562 C 46.535156 74.617188 46.605469 74.851562 46.695312 75.054688 L 46.847656 75.34375 C 46.957031 75.519531 47.085938 75.664062 47.234375 75.78125 C 47.382812 75.898438 47.550781 75.988281 47.742188 76.042969 C 47.832031 76.097656 48.054688 76.125 48.414062 76.125 C 48.472656 76.125 48.539062 76.125 48.605469 76.121094 C 49.390625 76.007812 50.085938 75.785156 50.699219 75.457031 C 50.699219 75.460938 50.703125 75.460938 50.707031 75.460938 C 50.769531 75.460938 51.210938 75.191406 52.023438 74.660156 L 52.992188 73.964844 C 53.640625 73.476562 54.285156 72.941406 54.925781 72.351562 L 55.890625 71.433594 C 56.277344 71.050781 56.664062 70.648438 57.050781 70.226562 L 57.054688 70.226562 L 57.15625 71.273438 L 57.382812 72.441406 L 57.730469 73.683594 C 58.003906 74.53125 58.359375 75.429688 58.792969 76.378906 C 59.257812 77.269531 59.632812 77.851562 59.914062 78.125 C 60.261719 78.527344 60.652344 78.882812 61.078125 79.183594 C 61.871094 79.597656 62.617188 79.804688 63.3125 79.804688 C 63.695312 79.804688 64.058594 79.742188 64.410156 79.617188 L 65.070312 79.308594 L 65.621094 78.882812 L 66.0625 78.335938 L 66.398438 77.664062 L 66.625 76.875 L 66.746094 75.964844 L 66.761719 74.929688 L 66.667969 73.777344 L 66.46875 72.503906 C 66.257812 71.605469 66.011719 70.78125 65.734375 70.042969 C 65.453125 69.300781 65.136719 68.636719 64.785156 68.058594 L 64.664062 67.875 L 66.386719 66.957031 L 68.152344 65.816406 L 69.628906 64.628906 L 70.820312 63.398438 L 71.722656 62.125 L 72.335938 60.804688 L 72.664062 59.4375 C 72.675781 58.851562 72.589844 58.355469 72.402344 57.949219 C 72.019531 57.003906 70.859375 56.480469 68.917969 56.378906 L 68.742188 56.382812 C 68.144531 56.386719 67.332031 56.554688 66.304688 56.894531 C 65.636719 57.121094 65.003906 57.410156 64.410156 57.757812 C 63.464844 58.316406 62.613281 59.027344 61.859375 59.894531 C 62.144531 57.777344 62.28125 56.277344 62.257812 55.402344 C 62.261719 54.503906 62.199219 53.695312 62.078125 52.976562 C 61.941406 52.269531 61.777344 51.640625 61.582031 51.089844 L 61.265625 50.324219 C 60.59375 48.90625 59.652344 48.199219 58.445312 48.199219 Z M 98.714844 92.925781 C 95.851562 92.925781 91.542969 94.722656 85.792969 98.320312 C 77.101562 99.085938 72.214844 99.683594 71.128906 100.109375 C 67.839844 101.074219 65.28125 102.179688 63.457031 103.433594 C 60.050781 105.460938 57.039062 109.449219 54.429688 115.390625 C 49.59375 118.296875 45.757812 121.363281 42.921875 124.589844 C 41.003906 126.875 39.582031 128.957031 38.65625 130.835938 C 38.191406 131.753906 37.824219 132.78125 37.546875 133.917969 C 36.714844 137.328125 36.714844 141.726562 37.542969 147.117188 C 34.894531 151.148438 33.089844 154.382812 32.125 156.824219 C 31.632812 157.730469 31.214844 159.722656 30.867188 162.789062 C 30.691406 163.21875 30.976562 164.9375 31.722656 167.9375 C 32.507812 170.4375 33.835938 173.21875 35.707031 176.28125 C 33.914062 181.09375 33.453125 185.035156 34.324219 188.105469 C 35.554688 190.742188 38.199219 193.066406 42.261719 195.074219 C 45.136719 200.660156 47.238281 203.613281 48.5625 203.929688 C 52.105469 206.621094 58 208.148438 66.257812 208.507812 C 66.699219 208.535156 67.164062 208.546875 67.648438 208.546875 C 70.601562 208.546875 74.332031 208.046875 78.832031 207.046875 L 78.835938 207.046875 C 80.625 208.980469 82.789062 210.382812 85.324219 211.242188 C 88.199219 212.25 91.429688 212.75 95.011719 212.75 C 97.332031 212.75 99.796875 212.539062 102.414062 212.121094 C 106.148438 214.101562 109.171875 215.25 111.484375 215.566406 C 112.152344 215.707031 112.988281 215.773438 113.992188 215.773438 C 115.460938 215.773438 117.285156 215.625 119.46875 215.332031 C 123.539062 214.359375 126.015625 213.605469 126.890625 213.066406 C 130.269531 211.625 133.75 209.613281 137.339844 207.023438 C 138.597656 207.171875 139.820312 207.246094 141.011719 207.246094 C 145.097656 207.246094 148.800781 206.367188 152.121094 204.609375 C 155.703125 203.273438 160.960938 198.707031 167.902344 190.902344 C 171.269531 189.574219 173.933594 188.042969 175.890625 186.3125 C 178.484375 183.695312 180.28125 180.878906 181.28125 177.867188 C 181.902344 176.75 182.285156 173.421875 182.433594 167.886719 C 185.125 161.695312 186.359375 157.90625 186.128906 156.507812 C 186.230469 154.925781 186.195312 153.753906 186.027344 152.988281 C 184.71875 149.914062 183.863281 145.722656 183.457031 140.410156 C 183.273438 139.242188 182.761719 137.804688 181.917969 136.09375 C 180.824219 133.273438 176.847656 129.46875 169.996094 124.679688 C 168.082031 119.179688 165.503906 114.296875 162.261719 110.035156 C 157.625 105.15625 153.371094 101.488281 149.5 99.027344 L 148.476562 98.582031 L 129.105469 94.804688 L 110.0625 97.636719 C 109.972656 97.671875 109.886719 97.710938 109.796875 97.75 C 108.976562 96.601562 108.007812 95.660156 106.886719 94.921875 C 106.085938 94.394531 105.203125 93.972656 104.246094 93.652344 C 103.863281 93.363281 102.25 93.125 99.40625 92.941406 L 99.167969 92.941406 C 99.023438 92.929688 98.871094 92.925781 98.714844 92.925781 Z M 98.714844 92.925781 " fill-opacity="1" fill-rule="nonzero"/></g><path fill="#b44650" d="M 167.460938 81.976562 L 167.320312 81.984375 C 166.949219 82.019531 166.546875 82.199219 166.113281 82.519531 C 165.660156 83.003906 165.375 83.40625 165.25 83.730469 C 165.0625 84.125 164.910156 84.570312 164.789062 85.074219 C 164.648438 85.785156 164.597656 86.507812 164.636719 87.230469 C 164.628906 87.546875 164.722656 88.199219 164.921875 89.191406 C 165.050781 89.773438 165.210938 90.367188 165.40625 90.964844 L 165.722656 91.871094 L 166.089844 92.785156 C 166.339844 93.367188 166.613281 93.957031 166.921875 94.550781 C 166.835938 94.488281 166.75 94.429688 166.664062 94.371094 C 164.707031 93.101562 162.820312 92.464844 160.996094 92.464844 L 160.890625 92.464844 C 160.621094 92.46875 160.355469 92.484375 160.09375 92.515625 L 159.796875 92.59375 C 159.605469 92.648438 159.421875 92.710938 159.246094 92.78125 C 158.492188 93.121094 157.996094 93.464844 157.761719 93.804688 C 157.542969 94.105469 157.429688 94.285156 157.429688 94.335938 C 157.332031 94.5625 157.304688 94.769531 157.347656 94.964844 C 157.4375 95.324219 157.679688 95.648438 158.078125 95.945312 C 158.488281 96.210938 158.996094 96.425781 159.601562 96.59375 C 159.867188 96.691406 160.46875 96.820312 161.410156 96.972656 L 162.492188 97.113281 C 162.65625 97.132812 162.902344 97.152344 163.226562 97.171875 C 163.792969 97.207031 164.601562 97.242188 165.65625 97.28125 L 165.652344 97.28125 C 165.351562 97.453125 165.0625 97.648438 164.78125 97.867188 C 163.65625 98.929688 162.859375 100.09375 162.394531 101.355469 L 162.191406 101.996094 C 162.074219 102.429688 161.992188 102.871094 161.949219 103.324219 C 161.988281 103.972656 162.097656 104.523438 162.28125 104.976562 C 162.460938 105.433594 162.714844 105.792969 163.035156 106.058594 C 163.558594 106.507812 164.058594 106.734375 164.527344 106.734375 C 164.550781 106.734375 164.570312 106.734375 164.59375 106.734375 C 165.445312 106.683594 166.121094 106.367188 166.617188 105.785156 C 166.859375 105.582031 167.265625 105.015625 167.835938 104.085938 C 168.191406 103.472656 168.550781 102.761719 168.90625 101.945312 C 169.082031 101.539062 169.25 101.125 169.40625 100.695312 L 169.410156 100.699219 C 169.46875 100.820312 169.523438 100.921875 169.574219 101.007812 C 169.96875 101.695312 170.398438 102.316406 170.863281 102.871094 C 171.328125 103.464844 172.277344 104.117188 173.71875 104.828125 C 174.261719 105.074219 174.878906 105.195312 175.574219 105.195312 C 175.734375 105.195312 175.902344 105.1875 176.070312 105.175781 L 176.347656 105.132812 C 176.53125 105.097656 176.703125 105.046875 176.863281 104.976562 C 177.027344 104.90625 177.179688 104.820312 177.324219 104.714844 C 177.609375 104.507812 177.859375 104.234375 178.070312 103.890625 C 178.371094 103.160156 178.390625 102.441406 178.132812 101.730469 C 177.890625 101.070312 177.640625 100.558594 177.378906 100.195312 C 177.203125 99.871094 176.703125 99.257812 175.878906 98.351562 C 175.652344 98.042969 174.542969 97.136719 172.546875 95.636719 L 172.542969 95.636719 C 173.800781 94.742188 174.582031 94.171875 174.878906 93.921875 C 175.484375 93.457031 176 92.902344 176.4375 92.257812 C 176.484375 92.195312 176.5625 92.023438 176.664062 91.738281 C 176.699219 91.625 176.71875 91.515625 176.726562 91.40625 C 176.75 91.015625 176.691406 90.671875 176.539062 90.375 C 176.207031 89.851562 175.636719 89.578125 174.824219 89.554688 L 174.71875 89.554688 C 174.28125 89.570312 173.820312 89.671875 173.328125 89.855469 C 172.835938 90.050781 172.285156 90.382812 171.683594 90.84375 L 171.378906 91.085938 C 170.957031 91.492188 170.574219 91.90625 170.230469 92.320312 C 170.09375 92.488281 169.964844 92.652344 169.839844 92.820312 C 169.863281 92.492188 169.878906 92.167969 169.894531 91.855469 C 169.945312 90.863281 169.96875 89.949219 169.96875 89.109375 L 169.945312 87.910156 C 169.917969 87.148438 169.863281 86.464844 169.78125 85.855469 L 169.640625 85 L 169.460938 84.257812 L 169.289062 83.78125 C 168.816406 82.578125 168.203125 81.976562 167.460938 81.976562 Z M 89.585938 101.699219 L 89.28125 101.710938 C 89.269531 101.710938 89.257812 101.707031 89.246094 101.707031 C 88.941406 101.707031 88.441406 101.8125 87.742188 102.023438 C 87.4375 102.132812 86.90625 102.363281 86.15625 102.714844 C 85.652344 102.921875 84.292969 103.878906 82.085938 105.585938 C 81.847656 105.734375 81.546875 105.867188 81.179688 105.984375 C 80.921875 106.042969 80.683594 106.074219 80.464844 106.074219 C 80.441406 106.074219 80.421875 106.074219 80.402344 106.074219 C 78.667969 105.957031 77.351562 105.898438 76.441406 105.898438 C 76.101562 105.898438 75.816406 105.90625 75.59375 105.921875 C 74.476562 106 73.195312 106.289062 71.746094 106.796875 C 70.574219 107.320312 69.484375 107.917969 68.464844 108.59375 C 66.742188 109.828125 65.589844 110.789062 65.015625 111.480469 L 67.363281 111.730469 C 67.863281 111.453125 68.363281 111.195312 68.863281 110.957031 L 69.609375 110.609375 C 70.109375 110.386719 70.605469 110.179688 71.101562 109.992188 C 72.09375 109.617188 73.085938 109.3125 74.074219 109.078125 C 74.917969 108.882812 75.847656 108.757812 76.851562 108.707031 C 77.226562 108.671875 78.917969 108.632812 81.921875 108.585938 C 82.507812 108.542969 83.058594 108.425781 83.570312 108.234375 C 83.832031 108.125 84.109375 107.960938 84.398438 107.742188 C 85.636719 106.554688 86.753906 105.636719 87.75 104.984375 C 88.039062 104.792969 89.128906 104.332031 91.023438 103.601562 C 91.453125 103.402344 91.800781 103.195312 92.0625 102.988281 C 92.832031 102.273438 92.003906 101.847656 89.585938 101.699219 Z M 128.273438 120.75 L 128.34375 120.789062 C 128.527344 120.894531 128.726562 120.972656 128.945312 121.03125 L 128.277344 120.75 Z M 154.925781 111.53125 L 154.863281 111.53125 C 154.683594 111.550781 154.425781 111.632812 154.085938 111.777344 C 152.042969 112.804688 150.726562 113.441406 150.136719 113.683594 C 149.328125 114.007812 148.597656 114.253906 147.945312 114.417969 C 146.933594 114.683594 145.957031 114.882812 145.027344 115.003906 C 144.4375 115.085938 143.09375 115.152344 140.996094 115.203125 C 140.542969 115.242188 140.105469 115.332031 139.679688 115.46875 C 139.085938 115.695312 138.664062 115.914062 138.410156 116.117188 C 135.957031 118.21875 134.15625 119.59375 133.003906 120.234375 C 132.21875 120.621094 131.523438 120.871094 130.914062 120.992188 C 130.445312 121.082031 130.035156 121.128906 129.691406 121.128906 C 129.402344 121.128906 129.160156 121.097656 128.960938 121.035156 L 128.957031 121.035156 L 129.195312 121.132812 C 129.472656 121.726562 129.683594 122.066406 129.828125 122.148438 C 130.378906 122.628906 130.753906 122.902344 130.953125 122.960938 C 132.003906 123.488281 132.992188 123.753906 133.917969 123.753906 C 134.070312 123.753906 134.214844 123.746094 134.363281 123.730469 C 136.09375 123.597656 137.742188 123.109375 139.304688 122.269531 C 140.019531 121.886719 140.800781 121.390625 141.652344 120.777344 C 142.570312 120.046875 143.53125 119.199219 144.539062 118.230469 C 144.96875 117.882812 145.347656 117.644531 145.679688 117.519531 C 145.996094 117.394531 146.386719 117.300781 146.851562 117.242188 C 149.117188 117.140625 150.503906 117.035156 151.003906 116.921875 C 152.039062 116.695312 152.839844 116.414062 153.410156 116.070312 C 154.105469 115.554688 154.566406 115.140625 154.796875 114.832031 C 155.105469 114.476562 155.332031 114.132812 155.480469 113.804688 C 155.625 113.472656 155.691406 113.15625 155.675781 112.847656 L 155.59375 112.402344 L 155.394531 111.96875 L 155.070312 111.558594 C 155.042969 111.542969 154.996094 111.53125 154.925781 111.53125 Z M 49.714844 124.667969 Z M 49.714844 124.667969 C 49.882812 124.882812 49.984375 125.007812 50.023438 125.046875 C 50.09375 125.128906 50.164062 125.207031 50.238281 125.28125 C 50.382812 125.433594 50.535156 125.578125 50.691406 125.710938 C 50.65625 125.601562 50.613281 125.464844 50.570312 125.292969 L 49.71875 124.667969 Z M 79.921875 119.28125 C 79.917969 119.28125 79.917969 119.28125 79.914062 119.28125 L 79.898438 119.28125 L 76.753906 121.734375 C 76.476562 121.953125 75.9375 122.304688 75.136719 122.789062 C 73.742188 123.609375 72.609375 124.066406 71.742188 124.164062 C 71.011719 124.335938 70.085938 124.441406 68.960938 124.46875 C 68.914062 124.472656 68.863281 124.472656 68.800781 124.472656 C 68.167969 124.472656 66.679688 124.339844 64.335938 124.074219 C 64.171875 124.066406 64.015625 124.0625 63.871094 124.0625 C 63.472656 124.0625 63.136719 124.085938 62.855469 124.136719 C 62.472656 124.214844 62.078125 124.351562 61.679688 124.550781 C 59.035156 125.941406 57.632812 126.636719 57.480469 126.640625 C 56.992188 126.847656 56.285156 126.992188 55.363281 127.070312 C 55.160156 127.085938 54.960938 127.089844 54.765625 127.089844 C 53.105469 127.089844 51.75 126.632812 50.695312 125.714844 L 50.691406 125.714844 C 51.210938 127.3125 52.191406 128.617188 53.636719 129.632812 C 54.648438 130.335938 55.875 130.691406 57.316406 130.691406 C 57.460938 130.691406 57.613281 130.6875 57.765625 130.679688 C 58.785156 130.628906 59.953125 130.390625 61.265625 129.960938 C 61.429688 129.910156 61.589844 129.851562 61.746094 129.792969 L 65.738281 128.066406 C 65.929688 128.019531 66.207031 127.976562 66.570312 127.945312 C 68.5 127.886719 69.785156 127.808594 70.429688 127.707031 C 71.246094 127.597656 72.242188 127.246094 73.421875 126.644531 C 75.386719 125.265625 76.46875 124.441406 76.671875 124.171875 C 77.277344 123.625 77.800781 123.082031 78.25 122.539062 C 78.695312 121.996094 79.0625 121.457031 79.355469 120.917969 L 79.730469 120.113281 L 79.988281 119.308594 C 79.964844 119.289062 79.945312 119.28125 79.921875 119.28125 Z M 118.035156 101.019531 L 117.863281 101.042969 C 117.355469 101.164062 116.46875 101.789062 115.203125 102.910156 C 114.730469 103.414062 114.320312 103.957031 113.972656 104.535156 L 113.503906 105.433594 L 113.128906 106.386719 L 112.851562 107.394531 L 112.667969 108.460938 L 112.582031 109.582031 L 112.59375 110.757812 L 112.703125 111.992188 L 112.808594 112.640625 C 113.039062 113.933594 113.425781 115.195312 113.957031 116.429688 C 114.472656 117.640625 114.984375 118.542969 115.492188 119.136719 L 115.488281 119.136719 C 114.699219 119.984375 113.957031 121.023438 113.265625 122.242188 C 112.988281 122.800781 112.742188 123.367188 112.523438 123.9375 C 112.378906 124.214844 112.113281 125.089844 111.726562 126.558594 C 111.460938 127.746094 111.304688 128.957031 111.261719 130.199219 C 111.226562 130.957031 111.226562 131.683594 111.257812 132.382812 C 111.390625 134.074219 111.507812 135.050781 111.613281 135.320312 C 111.875 136.535156 112.261719 137.632812 112.785156 138.613281 L 113.265625 135.238281 C 113.265625 134.550781 113.320312 133.847656 113.429688 133.128906 L 113.632812 132.035156 C 113.796875 131.300781 114.011719 130.542969 114.28125 129.773438 C 115.054688 127.816406 115.582031 126.621094 115.863281 126.1875 C 116.542969 124.800781 117.585938 123.300781 118.996094 121.691406 C 119.683594 120.703125 121.816406 118.84375 125.382812 116.121094 C 125.660156 115.699219 125.605469 115.46875 125.222656 115.433594 L 125.023438 115.4375 C 122.261719 115.582031 119.964844 116.125 118.136719 117.070312 C 117.710938 116.367188 117.300781 115.421875 116.902344 114.234375 C 116.535156 113.160156 116.292969 111.808594 116.171875 110.179688 C 116.148438 108.863281 116.242188 107.695312 116.453125 106.679688 C 116.574219 106.097656 116.789062 105.371094 117.09375 104.511719 C 117.25 104.0625 117.667969 103.0625 118.339844 101.503906 C 118.40625 101.214844 118.304688 101.050781 118.035156 101.019531 Z M 37.898438 145.324219 L 37.945312 146.03125 C 38.066406 147.433594 38.359375 148.765625 38.820312 150.027344 C 39.195312 151.148438 39.902344 152.425781 40.941406 153.855469 C 41.96875 155.136719 43 156.128906 44.03125 156.832031 C 44.308594 157.078125 44.953125 157.445312 45.96875 157.933594 L 47.285156 158.523438 C 47.359375 158.554688 47.417969 158.570312 47.460938 158.570312 C 47.503906 158.570312 47.53125 158.550781 47.535156 158.515625 C 47.492188 158.359375 47.398438 158.1875 47.246094 158 C 45.929688 156.546875 45.035156 155.496094 44.5625 154.855469 C 43.707031 153.734375 43.117188 152.910156 42.792969 152.386719 C 42.03125 151.160156 41.554688 150.324219 41.363281 149.882812 C 41.1875 149.554688 41.035156 148.949219 40.898438 148.074219 Z M 116.078125 141.671875 L 116.070312 141.671875 C 113.007812 143.433594 110.691406 144.464844 109.125 144.761719 C 108.503906 144.929688 107.625 145.015625 106.480469 145.015625 C 105.40625 145.015625 104.097656 144.9375 102.554688 144.789062 C 101.992188 144.816406 101.53125 144.917969 101.167969 145.097656 C 100.921875 145.214844 100.617188 145.429688 100.253906 145.738281 C 99.042969 147.183594 97.667969 148.472656 96.121094 149.601562 C 95.660156 149.910156 95.023438 150.203125 94.203125 150.484375 C 93.71875 150.6875 92.386719 151.03125 90.207031 151.523438 C 89.964844 151.664062 89.699219 151.871094 89.414062 152.144531 C 88.679688 153.066406 88.039062 153.8125 87.484375 154.375 C 87.003906 154.816406 86.46875 155.152344 85.875 155.382812 C 85.527344 155.460938 85.183594 155.5 84.847656 155.5 C 84.121094 155.5 83.425781 155.320312 82.75 154.957031 C 82.453125 154.777344 82.179688 154.550781 81.933594 154.28125 C 81.363281 153.53125 81.054688 153.027344 81.003906 152.769531 C 80.769531 153.984375 80.675781 154.589844 80.722656 154.589844 C 80.726562 154.589844 80.730469 154.589844 80.734375 154.585938 C 80.773438 155.121094 81.066406 155.671875 81.613281 156.242188 C 83.34375 157.875 84.984375 158.6875 86.539062 158.6875 C 86.628906 158.6875 86.722656 158.6875 86.8125 158.679688 C 89.03125 158.585938 91.328125 157.195312 93.703125 154.503906 C 96.339844 154.378906 98.339844 153.949219 99.710938 153.214844 C 100.523438 152.753906 101.269531 152.1875 101.953125 151.519531 C 102.425781 151.097656 103.21875 150.097656 104.332031 148.511719 C 104.609375 148.191406 104.847656 147.984375 105.046875 147.882812 C 105.308594 147.753906 105.660156 147.671875 106.105469 147.632812 C 108.207031 147.578125 109.566406 147.496094 110.183594 147.382812 C 111.066406 147.273438 111.960938 146.972656 112.867188 146.480469 C 113.980469 145.859375 114.871094 145.066406 115.53125 144.105469 C 116.449219 142.820312 116.632812 142.007812 116.082031 141.671875 Z M 149.828125 128.816406 L 148.746094 129.96875 C 150.03125 130.253906 151.265625 130.699219 152.453125 131.304688 C 153.640625 131.914062 154.78125 132.679688 155.871094 133.609375 L 157.472656 135.128906 C 159.558594 137.308594 161.449219 140.140625 163.148438 143.613281 C 163.808594 145.042969 164.378906 146.503906 164.851562 147.996094 C 165.257812 149.097656 165.699219 151.007812 166.175781 153.730469 C 166.371094 154.898438 166.433594 156.347656 166.367188 158.082031 C 166.164062 161.3125 165.882812 163.921875 165.519531 165.914062 C 165.566406 166.222656 165.65625 166.375 165.800781 166.375 C 165.882812 166.375 165.980469 166.324219 166.09375 166.222656 C 166.980469 165.085938 167.703125 163.765625 168.265625 162.253906 C 168.550781 161.5 168.789062 160.695312 168.992188 159.847656 C 169.421875 157.644531 169.628906 156.265625 169.621094 155.710938 C 169.660156 154.917969 169.679688 154.140625 169.671875 153.382812 L 169.667969 153.382812 L 169.730469 153.195312 C 170.320312 151.414062 171.164062 149.417969 172.261719 147.207031 C 172.613281 146.484375 173.351562 145.445312 174.480469 144.082031 C 175.28125 143.171875 176.539062 141.992188 178.253906 140.550781 C 178.375 140.40625 178.5 140.21875 178.628906 139.980469 C 178.6875 139.851562 178.714844 139.742188 178.714844 139.65625 L 178.445312 139.472656 C 178.003906 139.28125 177.570312 139.1875 177.140625 139.1875 C 177.09375 139.1875 177.042969 139.191406 176.992188 139.191406 L 176.804688 139.195312 C 175.511719 139.296875 174.757812 139.425781 174.535156 139.582031 C 173.585938 139.941406 172.734375 140.453125 171.972656 141.121094 C 171.230469 141.773438 170.578125 142.515625 170.015625 143.34375 C 169.792969 143.601562 169.34375 144.425781 168.660156 145.816406 C 168.601562 145.605469 168.550781 145.453125 168.503906 145.359375 C 168.230469 144.488281 167.914062 143.652344 167.550781 142.847656 L 166.648438 140.972656 L 165.476562 139.175781 L 164.042969 137.457031 C 162.996094 136.339844 161.773438 135.273438 160.371094 134.257812 C 157.570312 132.234375 154.054688 130.417969 149.828125 128.816406 Z M 113.421875 154.109375 L 113.253906 154.84375 C 112.898438 156.769531 113.285156 158.402344 114.425781 159.746094 C 114.59375 159.976562 115.152344 160.445312 116.097656 161.148438 C 116.480469 161.40625 116.871094 161.625 117.273438 161.804688 C 118.027344 162.164062 118.902344 162.378906 119.898438 162.449219 C 120.058594 162.460938 120.21875 162.464844 120.375 162.464844 C 120.945312 162.464844 121.496094 162.40625 122.027344 162.292969 C 122.667969 162.152344 123.652344 161.84375 124.96875 161.363281 C 125.257812 161.28125 125.5625 161.234375 125.886719 161.226562 C 125.90625 161.222656 125.921875 161.222656 125.941406 161.222656 C 126.160156 161.222656 126.441406 161.269531 126.78125 161.359375 C 127.949219 161.773438 129 162.101562 129.933594 162.335938 C 130.101562 162.375 130.269531 162.414062 130.429688 162.445312 L 130.425781 162.449219 L 130.429688 162.558594 C 130.757812 167.101562 132.261719 170.136719 134.933594 171.667969 L 135.914062 172.167969 L 136.425781 172.347656 C 137.121094 172.546875 138.363281 172.816406 140.148438 173.152344 C 141.878906 174.230469 143.296875 174.847656 144.40625 175.011719 C 144.84375 175.074219 145.316406 175.109375 145.824219 175.109375 C 147.21875 175.109375 148.882812 174.867188 150.816406 174.382812 L 150.816406 174.386719 C 150.585938 174.40625 150.355469 174.414062 150.125 174.414062 C 149.28125 174.414062 148.429688 174.28125 147.5625 174.011719 C 147.1875 173.851562 146.824219 173.652344 146.472656 173.414062 L 143.453125 171.15625 C 143.199219 171.046875 142.902344 170.957031 142.5625 170.886719 C 141.050781 170.648438 140.109375 170.476562 139.742188 170.367188 C 138.910156 170.117188 138.234375 169.820312 137.707031 169.472656 C 136.695312 168.867188 135.90625 168.066406 135.339844 167.078125 C 134.589844 165.664062 134.164062 164.730469 134.0625 164.277344 C 133.910156 163.832031 133.761719 163.359375 133.625 162.859375 L 133.621094 162.859375 C 134.675781 162.847656 135.859375 162.695312 137.171875 162.410156 C 139.148438 161.882812 141.605469 160.054688 144.539062 156.929688 C 141.789062 158.6875 139.179688 159.664062 136.710938 159.859375 C 136.40625 159.886719 136.097656 159.902344 135.78125 159.902344 C 134.941406 159.902344 134.058594 159.796875 133.128906 159.585938 C 132.316406 159.410156 131.789062 159.277344 131.542969 159.191406 L 128.132812 158.050781 C 127.859375 157.96875 127.523438 157.910156 127.121094 157.871094 C 127.089844 157.871094 127.058594 157.871094 127.027344 157.871094 C 126.789062 157.871094 126.503906 157.90625 126.171875 157.976562 C 124.453125 158.480469 123.410156 158.753906 123.042969 158.789062 C 122.5625 158.863281 122.097656 158.902344 121.648438 158.902344 C 121.402344 158.902344 121.15625 158.890625 120.917969 158.867188 C 119.9375 158.777344 118.84375 158.386719 117.632812 157.695312 C 117.429688 157.613281 116.980469 157.257812 116.296875 156.628906 C 116.042969 156.363281 115.816406 156.082031 115.621094 155.777344 Z M 59.164062 164.042969 L 59.152344 164.046875 L 57.242188 166.542969 C 56.855469 167.023438 56.484375 167.464844 56.117188 167.867188 C 55.390625 168.667969 54.699219 169.320312 54.046875 169.8125 C 53.136719 170.464844 52.316406 170.941406 51.585938 171.246094 C 49.449219 171.90625 48.183594 172.375 47.796875 172.652344 C 47.472656 172.863281 46.390625 173.921875 44.542969 175.824219 C 43.914062 176.359375 43.339844 176.765625 42.824219 177.050781 C 42.082031 177.484375 41.3125 177.699219 40.515625 177.699219 C 39.460938 177.699219 38.359375 177.320312 37.207031 176.566406 L 37.203125 176.566406 L 37.476562 177.5 C 38.152344 178.285156 38.859375 178.890625 39.605469 179.328125 C 40.605469 179.875 41.574219 180.148438 42.515625 180.148438 C 42.683594 180.148438 42.851562 180.140625 43.015625 180.125 C 43.023438 180.125 43.027344 180.125 43.03125 180.125 C 44.085938 180.125 45.535156 179.578125 47.375 178.488281 C 48.699219 177.644531 50.167969 176.171875 51.78125 174.078125 L 54.914062 172.480469 C 55.507812 172.078125 55.976562 171.714844 56.320312 171.386719 C 57.277344 170.457031 58.035156 169.226562 58.597656 167.691406 C 58.996094 166.371094 59.199219 165.542969 59.210938 165.207031 L 59.332031 164.289062 C 59.304688 164.144531 59.25 164.0625 59.164062 164.042969 Z M 171.878906 180.324219 L 171.617188 180.328125 C 170.453125 180.363281 169.347656 180.496094 168.304688 180.734375 C 167.261719 181 166.0625 181.484375 164.714844 182.1875 C 164.054688 182.480469 162.761719 183.339844 160.839844 184.765625 C 160.097656 185.3125 159.070312 186.210938 157.75 187.453125 C 157.417969 187.703125 157.128906 187.871094 156.890625 187.960938 C 156.660156 188.046875 156.429688 188.089844 156.195312 188.089844 C 156.191406 188.089844 156.183594 188.089844 156.179688 188.089844 C 154.066406 187.84375 152.421875 187.71875 151.242188 187.71875 C 150.640625 187.71875 150.15625 187.75 149.796875 187.816406 C 148.914062 187.902344 147.59375 188.335938 145.839844 189.113281 C 144.457031 189.933594 143.34375 190.753906 142.496094 191.578125 C 142.074219 191.988281 141.71875 192.398438 141.429688 192.808594 C 141.203125 193.015625 140.921875 193.632812 140.585938 194.660156 L 142.34375 193.347656 L 142.953125 193.074219 C 143.777344 192.722656 144.652344 192.425781 145.578125 192.183594 C 145.792969 192.105469 146.519531 191.953125 147.753906 191.726562 C 148.839844 191.554688 150.019531 191.46875 151.289062 191.46875 C 151.464844 191.46875 151.644531 191.46875 151.828125 191.472656 L 158.742188 191.835938 C 158.769531 191.835938 158.792969 191.835938 158.816406 191.835938 C 159.410156 191.835938 160 191.71875 160.585938 191.480469 C 161.027344 191.210938 161.414062 190.882812 161.746094 190.488281 C 164.464844 186.847656 166.152344 184.828125 166.804688 184.433594 C 167.886719 183.511719 169.867188 182.289062 172.746094 180.761719 C 172.878906 180.574219 172.898438 180.453125 172.804688 180.390625 C 172.769531 180.371094 172.726562 180.355469 172.667969 180.347656 Z M 38.054688 190.210938 L 37.820312 190.804688 C 37.722656 190.839844 37.882812 191.140625 38.300781 191.710938 L 39.1875 192.558594 C 39.933594 193.1875 40.976562 193.945312 42.328125 194.835938 C 45.050781 196.261719 47.40625 197.203125 49.402344 197.667969 C 50.789062 197.964844 52.171875 198.132812 53.554688 198.171875 C 53.570312 198.175781 53.625 198.175781 53.722656 198.175781 C 53.933594 198.175781 54.347656 198.164062 54.953125 198.144531 C 55.609375 198.101562 56.21875 198.015625 56.789062 197.886719 C 58.503906 197.496094 59.839844 196.722656 60.804688 195.5625 C 60.925781 195.3125 60.789062 195.136719 60.386719 195.03125 C 59.582031 195.21875 58.292969 195.410156 56.511719 195.605469 C 55.503906 195.699219 54.511719 195.746094 53.542969 195.746094 C 51.925781 195.714844 50.792969 195.648438 50.136719 195.542969 C 49.25 195.433594 48.382812 195.285156 47.535156 195.089844 C 45.859375 194.707031 44.300781 194.175781 42.867188 193.492188 C 42.152344 193.148438 41.464844 192.769531 40.808594 192.347656 C 40.148438 191.929688 39.523438 191.476562 38.925781 190.980469 Z M 107.234375 100.117188 L 105.839844 100.246094 C 103.347656 100.992188 101.785156 101.652344 101.152344 102.21875 C 98.894531 103.625 96.414062 105.726562 93.707031 108.53125 C 91.777344 110.335938 90.4375 112.175781 89.683594 114.054688 C 89.234375 114.613281 89.078125 116.929688 89.21875 121.007812 C 89.140625 121.535156 89 121.914062 88.796875 122.152344 C 83.085938 124.320312 78.808594 127.363281 75.96875 131.28125 C 74.21875 133.152344 72.902344 136.980469 72.023438 142.769531 C 68.394531 148.46875 66.300781 152.957031 65.734375 156.230469 C 64.925781 160.125 65.390625 165.574219 67.132812 172.578125 C 65.875 176.890625 65.269531 179.625 65.324219 180.785156 C 65.304688 184.253906 65.648438 187.179688 66.355469 189.554688 C 66.792969 191.078125 67.371094 192.539062 68.082031 193.941406 C 68.796875 195.339844 69.644531 196.679688 70.632812 197.960938 L 72.210938 199.832031 C 74.457031 202.265625 77.246094 204.457031 80.578125 206.40625 L 74.84375 196.808594 C 73.777344 194.601562 73.035156 192.234375 72.621094 189.714844 C 72.308594 187.472656 72.464844 183.707031 73.09375 178.417969 C 73.46875 178.433594 73.839844 178.4375 74.214844 178.4375 C 75.824219 178.4375 77.457031 178.296875 79.117188 178.015625 C 79.917969 177.875 80.714844 177.699219 81.507812 177.488281 L 82.691406 177.148438 C 83.480469 176.902344 84.265625 176.621094 85.046875 176.304688 C 85.710938 176.039062 86.304688 175.746094 86.824219 175.425781 L 87.550781 174.929688 C 87.996094 174.582031 88.367188 174.207031 88.664062 173.808594 C 89.257812 173.007812 89.558594 172.101562 89.558594 171.085938 C 89.5 170.703125 89.308594 170.511719 88.988281 170.511719 C 88.953125 170.511719 88.917969 170.511719 88.878906 170.515625 C 85.46875 171.53125 83.382812 172.101562 82.628906 172.21875 C 81.382812 172.410156 80.21875 172.503906 79.140625 172.503906 C 78.59375 172.503906 78.070312 172.480469 77.566406 172.433594 C 76.347656 172.320312 75.195312 172.046875 74.109375 171.617188 C 73.566406 171.40625 73.042969 171.152344 72.535156 170.855469 L 72.027344 170.539062 L 71.039062 164.992188 C 70.859375 161.304688 71.035156 158.601562 71.566406 156.882812 C 71.652344 155.371094 73.515625 152.046875 77.15625 146.910156 L 77.773438 139.125 C 77.941406 137.839844 78.546875 136.328125 79.578125 134.582031 C 80.25 133.359375 81.355469 132.148438 82.898438 130.949219 C 83.808594 130.042969 86.417969 128.554688 90.71875 126.484375 C 94.1875 117.550781 96.441406 112.3125 97.476562 110.777344 C 100.363281 106.210938 104.050781 102.703125 108.539062 100.246094 Z M 104.730469 183.324219 L 104.699219 183.328125 C 104.613281 183.34375 104.519531 183.421875 104.417969 183.5625 C 104.21875 183.878906 103.757812 184.675781 103.035156 185.953125 C 102.214844 187.4375 101.597656 188.699219 101.179688 189.746094 C 100.691406 191.039062 100.308594 192.378906 100.03125 193.757812 C 99.9375 194.21875 99.859375 194.683594 99.789062 195.15625 L 99.695312 195.863281 C 99.65625 196.230469 99.632812 196.621094 99.621094 197.03125 L 99.613281 197.664062 C 99.617188 198.09375 99.628906 198.550781 99.65625 199.027344 C 99.707031 199.976562 99.804688 201.015625 99.957031 202.144531 C 100.15625 203.375 100.460938 204.578125 100.875 205.753906 C 101.910156 208.597656 103.0625 210.34375 104.332031 210.992188 L 105.003906 209.246094 C 104.707031 208.699219 104.4375 208.097656 104.195312 207.441406 L 103.859375 206.410156 C 103.648438 205.695312 103.464844 204.925781 103.308594 204.101562 C 103.15625 203.273438 103.027344 202.390625 102.929688 201.449219 L 102.804688 200 L 102.722656 198.464844 L 102.726562 197.761719 C 102.734375 196.046875 102.90625 194.070312 103.25 191.839844 C 103.363281 191.148438 103.558594 190.203125 103.828125 188.996094 C 104.101562 187.792969 104.453125 186.328125 104.882812 184.605469 L 104.972656 184.105469 C 105.003906 183.9375 105.011719 183.785156 105.003906 183.644531 C 104.9375 183.441406 104.84375 183.332031 104.730469 183.324219 Z M 104.730469 183.324219 " fill-opacity="1" fill-rule="nonzero"/><g clip-path="url(#92e29bfcd9)"><path fill="#36560e" d="M 170.335938 60.992188 C 170.328125 60.992188 170.324219 60.992188 170.320312 60.992188 L 170.25 60.992188 C 170.109375 60.992188 169.914062 61.023438 169.667969 61.085938 C 169.433594 61.171875 169.183594 61.324219 168.921875 61.546875 C 168.859375 61.585938 168.738281 61.730469 168.558594 61.972656 C 168.496094 62.070312 168.441406 62.175781 168.402344 62.277344 C 168.316406 62.488281 168.273438 62.710938 168.277344 62.941406 C 168.289062 63.167969 168.339844 63.375 168.4375 63.554688 C 168.492188 63.667969 168.574219 63.785156 168.679688 63.910156 C 168.714844 64.042969 168.792969 64.21875 168.917969 64.429688 C 169.015625 64.574219 169.113281 64.703125 169.214844 64.8125 C 169.53125 65.15625 169.898438 65.324219 170.324219 65.324219 L 170.328125 65.328125 C 170.414062 65.328125 170.523438 65.308594 170.664062 65.273438 L 170.863281 65.175781 C 171.085938 65.042969 171.28125 64.867188 171.445312 64.640625 C 171.792969 64.144531 171.96875 63.585938 171.972656 62.964844 C 171.984375 62.894531 171.96875 62.71875 171.929688 62.429688 C 171.910156 62.320312 171.882812 62.214844 171.847656 62.113281 C 171.792969 61.933594 171.679688 61.730469 171.503906 61.507812 C 171.183594 61.164062 170.792969 60.992188 170.335938 60.992188 Z M 59.5 62.15625 C 59.207031 62.15625 58.925781 62.203125 58.660156 62.300781 C 58.46875 62.371094 58.324219 62.433594 58.226562 62.488281 C 57.949219 62.648438 57.796875 62.753906 57.761719 62.796875 C 57.671875 62.875 57.589844 62.957031 57.515625 63.042969 C 57.460938 63.097656 57.378906 63.222656 57.273438 63.414062 C 57.148438 63.671875 57.085938 63.957031 57.09375 64.269531 L 57.117188 64.542969 L 57.128906 64.597656 C 57.167969 64.75 57.214844 64.890625 57.273438 65.023438 C 57.515625 65.554688 57.914062 65.9375 58.472656 66.167969 L 58.492188 66.175781 C 58.742188 66.273438 59 66.324219 59.269531 66.324219 C 59.523438 66.324219 59.785156 66.28125 60.058594 66.1875 C 60.328125 66.089844 60.578125 65.957031 60.808594 65.789062 C 61.003906 65.621094 61.128906 65.503906 61.179688 65.425781 C 61.261719 65.328125 61.328125 65.226562 61.378906 65.125 C 61.46875 64.949219 61.515625 64.757812 61.519531 64.542969 C 61.519531 64.433594 61.503906 64.320312 61.472656 64.207031 C 61.496094 64.121094 61.5 63.972656 61.484375 63.765625 C 61.46875 63.632812 61.441406 63.503906 61.398438 63.382812 C 61.214844 62.925781 60.882812 62.582031 60.394531 62.34375 C 60.101562 62.222656 59.804688 62.15625 59.5 62.15625 Z M 139.445312 73.660156 L 139.296875 73.667969 C 138.996094 73.675781 138.59375 73.796875 138.097656 74.03125 C 137.910156 74.113281 137.613281 74.34375 137.203125 74.722656 C 136.960938 74.980469 136.785156 75.285156 136.675781 75.632812 C 136.519531 76.0625 136.433594 76.4375 136.421875 76.761719 L 136.429688 77.171875 L 136.5 77.566406 L 136.628906 77.945312 L 136.820312 78.304688 C 137.035156 78.605469 137.152344 78.761719 137.167969 78.761719 C 137.710938 79.386719 138.339844 79.695312 139.046875 79.695312 C 139.058594 79.695312 139.070312 79.695312 139.082031 79.695312 C 139.503906 79.691406 139.964844 79.585938 140.464844 79.378906 C 140.863281 79.15625 141.226562 78.886719 141.558594 78.566406 C 142.207031 77.945312 142.570312 77.148438 142.648438 76.171875 C 142.648438 75.457031 142.351562 74.839844 141.761719 74.3125 C 141.617188 74.210938 141.441406 74.105469 141.230469 73.992188 C 141.109375 73.9375 140.984375 73.890625 140.851562 73.851562 C 140.585938 73.785156 140.34375 73.75 140.136719 73.75 C 139.996094 73.75 139.871094 73.765625 139.757812 73.792969 L 139.769531 73.6875 C 139.714844 73.675781 139.605469 73.664062 139.445312 73.660156 Z M 78.628906 82.273438 L 78.589844 82.273438 L 78.589844 82.277344 C 78.511719 82.273438 78.410156 82.285156 78.277344 82.308594 C 78.164062 82.34375 78.085938 82.375 78.046875 82.390625 L 78.023438 82.339844 L 77.882812 82.46875 C 77.832031 82.488281 77.730469 82.550781 77.582031 82.664062 C 77.503906 82.730469 77.457031 82.773438 77.4375 82.792969 C 77.316406 82.910156 77.207031 83.09375 77.113281 83.347656 C 77.097656 83.40625 77.085938 83.46875 77.078125 83.527344 C 77.070312 83.601562 77.074219 83.679688 77.082031 83.753906 C 77.070312 83.765625 77.058594 83.847656 77.046875 83.996094 C 77.042969 84.152344 77.074219 84.304688 77.144531 84.460938 C 77.242188 84.652344 77.3125 84.769531 77.355469 84.804688 C 77.414062 84.882812 77.484375 84.960938 77.5625 85.039062 C 77.734375 85.191406 77.835938 85.273438 77.875 85.285156 C 77.949219 85.328125 78.023438 85.363281 78.097656 85.390625 C 78.234375 85.441406 78.378906 85.464844 78.53125 85.464844 C 78.546875 85.464844 78.566406 85.464844 78.585938 85.464844 C 78.601562 85.464844 78.617188 85.464844 78.632812 85.464844 C 78.773438 85.464844 78.945312 85.433594 79.148438 85.367188 C 79.371094 85.277344 79.539062 85.167969 79.65625 85.039062 C 79.972656 84.722656 80.128906 84.355469 80.132812 83.933594 C 80.132812 83.449219 80.03125 83.085938 79.828125 82.84375 C 79.519531 82.472656 79.117188 82.285156 78.628906 82.273438 Z M 169.75 94.453125 C 169.730469 94.453125 169.710938 94.453125 169.691406 94.453125 L 169.597656 94.457031 L 169.59375 94.457031 C 169.394531 94.457031 169.113281 94.515625 168.742188 94.632812 C 168.296875 94.847656 167.996094 95.023438 167.847656 95.164062 C 167.609375 95.371094 167.425781 95.558594 167.308594 95.726562 C 167.136719 95.976562 167.011719 96.285156 166.929688 96.648438 C 166.894531 96.878906 166.886719 97.039062 166.902344 97.132812 C 166.914062 97.257812 166.941406 97.382812 166.980469 97.507812 C 167.0625 97.75 167.207031 97.996094 167.410156 98.246094 C 167.589844 98.46875 167.796875 98.628906 168.019531 98.726562 C 168.199219 98.8125 168.410156 98.855469 168.652344 98.855469 C 168.664062 98.855469 168.675781 98.855469 168.683594 98.855469 C 168.929688 98.832031 169.171875 98.777344 169.410156 98.691406 C 169.53125 98.644531 169.648438 98.59375 169.769531 98.53125 C 170.0625 98.363281 170.238281 98.253906 170.296875 98.203125 C 170.519531 98.03125 170.726562 97.808594 170.925781 97.535156 C 171.066406 97.367188 171.191406 97.085938 171.300781 96.683594 C 171.328125 96.5625 171.347656 96.441406 171.355469 96.324219 C 171.359375 96.035156 171.351562 95.867188 171.328125 95.816406 C 171.300781 95.625 171.199219 95.398438 171.019531 95.128906 C 170.890625 94.9375 170.683594 94.757812 170.398438 94.597656 C 170.148438 94.5 169.929688 94.453125 169.75 94.453125 Z M 120.285156 0.914062 L 120.359375 1.996094 C 120.515625 4.632812 121.335938 7.519531 122.820312 10.652344 C 123.671875 12.355469 124.523438 13.886719 125.378906 15.246094 C 129.945312 21.929688 132.585938 25.910156 133.308594 27.191406 C 134.863281 30.066406 135.753906 32.140625 135.984375 33.414062 L 136.339844 35.667969 L 136.394531 37.460938 C 136.363281 38.667969 136.183594 39.898438 135.859375 41.152344 C 135.539062 42.40625 135.070312 43.679688 134.460938 44.976562 C 134.074219 45.800781 133.628906 46.632812 133.128906 47.472656 L 133.125 47.472656 L 117.921875 63.261719 C 116.054688 65.5625 114.269531 68.472656 112.558594 71.992188 C 109.75 78.554688 108.996094 88.738281 110.296875 102.542969 L 111.875 99.476562 C 111.859375 96.984375 111.933594 94.601562 112.101562 92.320312 L 112.414062 88.984375 C 112.667969 86.8125 113.007812 84.746094 113.441406 82.789062 C 114.300781 78.875 115.519531 75.386719 117.09375 72.324219 C 118.445312 69.425781 120.09375 66.773438 122.039062 64.367188 C 132.296875 53.777344 137.894531 47.714844 138.832031 46.175781 C 138.988281 45.925781 139.140625 45.679688 139.285156 45.441406 L 139.28125 45.441406 C 140.5625 44.832031 141.820312 44.429688 143.046875 44.242188 C 144.113281 44.015625 145.1875 43.851562 146.273438 43.742188 C 150.488281 43.511719 154.066406 43.242188 157.011719 42.925781 C 159.246094 42.582031 161.117188 42.203125 162.625 41.785156 C 164.007812 41.441406 165.554688 40.871094 167.269531 40.066406 C 168.4375 39.507812 169.554688 38.878906 170.625 38.171875 C 173.828125 36.0625 176.59375 33.292969 178.910156 29.867188 C 179.851562 28.632812 181.335938 25.949219 183.363281 21.820312 L 185.171875 17.875 C 185.332031 17.40625 185.28125 17.171875 185.015625 17.171875 L 184.980469 17.171875 L 184.644531 17.261719 C 181.210938 19.089844 178.945312 20.210938 177.847656 20.632812 C 176.398438 21.253906 174.835938 21.839844 173.167969 22.386719 C 171.488281 22.980469 165.507812 24.132812 155.21875 25.84375 C 152.589844 26.515625 150.5625 27.304688 149.140625 28.207031 C 147.660156 29.085938 146.371094 30.078125 145.269531 31.171875 C 145.316406 30.042969 145.277344 28.734375 145.160156 27.246094 C 144.933594 23.1875 144.191406 19.507812 142.929688 16.210938 C 142.304688 14.601562 141.558594 13.128906 140.683594 11.792969 C 139.890625 10.570312 139.136719 9.613281 138.425781 8.917969 C 137.238281 7.726562 135.792969 6.679688 134.089844 5.78125 C 129.351562 4.5 124.75 2.878906 120.289062 0.914062 Z M 61.914062 28.238281 L 61.863281 28.246094 C 61.734375 28.289062 61.664062 28.492188 61.65625 28.859375 C 61.691406 30.125 61.828125 31.375 62.066406 32.613281 C 62.308594 33.847656 62.648438 35.070312 63.09375 36.28125 L 63.835938 38.082031 C 64.382812 39.277344 65.035156 40.457031 65.785156 41.625 C 66.535156 42.789062 67.390625 43.941406 68.347656 45.082031 C 69.074219 46.035156 70.675781 47.519531 73.152344 49.535156 C 79.867188 54.113281 83.816406 56.914062 84.996094 57.945312 C 88.300781 60.71875 90.53125 62.714844 91.679688 63.941406 L 91.675781 63.941406 C 91.644531 64.394531 91.621094 64.859375 91.605469 65.339844 L 91.589844 66.628906 C 91.59375 67.507812 91.625 68.429688 91.683594 69.390625 C 91.746094 70.269531 91.828125 71.144531 91.933594 72.007812 C 92.40625 75.597656 93.152344 78.820312 94.171875 81.679688 C 94.398438 82.371094 94.800781 83.480469 95.382812 85.007812 C 98.195312 91.363281 99.859375 95.382812 100.371094 97.0625 C 100.972656 98.964844 101.214844 101.058594 101.097656 103.34375 L 103.566406 104.132812 C 103.746094 102.167969 103.617188 100.332031 103.183594 98.621094 C 102.914062 97.589844 102.625 96.660156 102.316406 95.832031 C 100.40625 91.222656 99.367188 88.632812 99.199219 88.0625 C 98.832031 87.035156 98.101562 84.839844 97.003906 81.46875 C 95.800781 77.53125 95.03125 73.90625 94.703125 70.597656 C 94.542969 69.164062 94.507812 67.351562 94.601562 65.148438 L 94.597656 65.148438 C 94.914062 64.46875 95.480469 63.441406 96.300781 62.070312 C 97.21875 60.609375 98.722656 59.011719 100.8125 57.273438 C 102.175781 56.136719 104.046875 54.941406 106.433594 53.691406 C 113.804688 50.410156 117.820312 48.496094 118.480469 47.953125 C 120 47.054688 121.421875 45.90625 122.742188 44.511719 C 124.449219 42.5 125.382812 41.261719 125.546875 40.792969 C 126.054688 39.921875 126.488281 39.023438 126.847656 38.097656 C 127.613281 35.730469 127.984375 34.277344 127.957031 33.734375 L 128.101562 32.191406 C 128.050781 31.945312 127.917969 31.804688 127.703125 31.773438 L 127.683594 31.773438 L 121.9375 35.34375 C 121.457031 35.65625 120.441406 36.1875 118.890625 36.941406 L 105.984375 41.457031 C 105.558594 41.640625 105.140625 41.839844 104.722656 42.046875 C 102.519531 43.164062 100.664062 44.5 99.152344 46.046875 C 97.425781 47.84375 96 49.992188 94.871094 52.496094 L 94.082031 54.441406 C 94.050781 54.523438 94.023438 54.605469 93.992188 54.6875 C 94.003906 53.9375 93.988281 53.175781 93.949219 52.40625 C 93.941406 49.523438 93.015625 46.808594 91.179688 44.269531 C 89.992188 42.589844 88.011719 41.144531 85.242188 39.929688 C 83.921875 39.363281 80.179688 38.207031 74.007812 36.457031 C 72.511719 35.933594 70.871094 35.210938 69.085938 34.28125 C 68.152344 33.78125 67.105469 33.039062 65.957031 32.050781 C 64.804688 31.066406 63.546875 29.835938 62.179688 28.367188 C 62.097656 28.292969 62.007812 28.25 61.914062 28.238281 Z M 29.925781 97.363281 L 29.726562 97.367188 C 29.351562 97.382812 28.988281 97.429688 28.632812 97.507812 C 28.441406 97.507812 27.933594 97.691406 27.101562 98.058594 C 26.449219 98.394531 25.839844 98.851562 25.269531 99.425781 C 23.996094 100.738281 23.371094 102.144531 23.394531 103.652344 C 23.425781 104.347656 23.566406 104.960938 23.820312 105.480469 C 24.363281 106.464844 24.804688 107.089844 25.140625 107.355469 C 25.59375 107.796875 26.355469 108.25 27.425781 108.710938 C 28.402344 108.992188 29.140625 109.136719 29.632812 109.136719 C 29.730469 109.136719 29.8125 109.132812 29.890625 109.121094 C 30.519531 109.050781 31.207031 108.777344 31.949219 108.296875 C 32.171875 108.148438 32.386719 107.984375 32.59375 107.804688 C 32.953125 107.457031 33.269531 107.097656 33.542969 106.726562 C 34.449219 105.488281 34.886719 104.105469 34.851562 102.578125 C 34.851562 101.972656 34.746094 101.371094 34.535156 100.777344 C 34.355469 100.246094 33.957031 99.621094 33.347656 98.910156 C 32.425781 97.953125 31.285156 97.4375 29.925781 97.363281 Z M 203.308594 103.734375 L 203.195312 103.734375 C 202.78125 103.753906 202.382812 103.839844 202 103.996094 C 201.808594 104.074219 201.621094 104.171875 201.441406 104.285156 C 201.34375 104.320312 201.078125 104.527344 200.648438 104.910156 C 200.367188 105.160156 200.117188 105.484375 199.894531 105.886719 C 199.65625 106.332031 199.507812 106.789062 199.449219 107.265625 C 199.433594 107.554688 199.433594 107.742188 199.445312 107.820312 L 199.695312 108.847656 C 199.832031 109.210938 199.996094 109.484375 200.1875 109.667969 C 200.816406 110.292969 201.601562 110.609375 202.542969 110.613281 C 203.640625 110.570312 204.613281 110.265625 205.464844 109.695312 C 206.265625 109.15625 206.761719 108.390625 206.953125 107.402344 C 207.007812 106.507812 206.710938 105.707031 206.050781 104.992188 C 205.355469 104.210938 204.441406 103.792969 203.308594 103.734375 Z M 5.34375 121.417969 L 5.253906 121.4375 C 5.0625 121.609375 4.941406 121.851562 4.894531 122.160156 L 4.402344 125.238281 C 4.09375 127.300781 3.902344 129.097656 3.828125 130.628906 C 3.667969 133.222656 3.894531 135.476562 4.511719 137.390625 C 4.992188 138.667969 5.679688 139.9375 6.566406 141.203125 C 10.203125 145.472656 12.378906 148.292969 13.09375 149.660156 C 13.71875 150.757812 14.347656 151.953125 14.980469 153.253906 C 15.292969 154.046875 15.613281 154.851562 15.945312 155.664062 L 15.957031 156.15625 L 16.460938 160.945312 L 17.332031 165.78125 L 17.421875 166.132812 C 17.117188 165.714844 16.828125 165.339844 16.550781 165.003906 C 15.933594 164.175781 14.898438 163.179688 13.441406 162.015625 L 12.667969 161.496094 C 9.972656 160.164062 7.882812 159.058594 6.40625 158.175781 C 5.632812 157.636719 5.015625 157.15625 4.546875 156.734375 C 3.386719 155.683594 2.414062 154.753906 1.625 153.945312 L 1.417969 153.875 L 1.316406 153.894531 C 1.058594 154.003906 0.902344 154.542969 0.84375 155.511719 C 0.90625 156.066406 1.019531 156.621094 1.179688 157.171875 C 1.660156 158.824219 2.574219 160.457031 3.921875 162.066406 C 4.917969 163.226562 5.875 164.160156 6.792969 164.863281 C 11.355469 168.074219 14 170.035156 14.714844 170.734375 C 15.71875 171.695312 16.476562 172.445312 16.980469 172.992188 C 18.828125 175.101562 20.257812 176.707031 21.269531 177.804688 C 21.847656 179.074219 22.472656 180.339844 23.148438 181.59375 C 22.882812 181.554688 22.496094 181.503906 21.996094 181.441406 C 19.019531 181.300781 17.171875 181.164062 16.453125 181.042969 C 15.527344 180.949219 13.242188 180.429688 9.597656 179.476562 C 9.175781 179.390625 8.808594 179.347656 8.496094 179.347656 L 8.464844 179.347656 C 7.726562 179.953125 7.902344 181.117188 8.996094 182.839844 C 10.128906 184.660156 11.550781 186.074219 13.261719 187.074219 C 14.554688 187.792969 15.738281 188.28125 16.820312 188.539062 L 17.664062 188.757812 C 20.046875 189.183594 22.007812 189.558594 23.542969 189.886719 C 25.082031 190.214844 26.195312 190.492188 26.890625 190.722656 C 28.023438 191.109375 29.121094 191.621094 30.191406 192.253906 L 30.1875 192.253906 C 31.035156 193.351562 31.960938 194.515625 32.960938 195.746094 C 36.863281 200.445312 40.546875 202.988281 44.015625 203.371094 L 37.796875 197.109375 C 36.21875 195.296875 34.738281 193.359375 33.355469 191.289062 C 31.972656 189.222656 30.6875 187.023438 29.503906 184.699219 C 28.316406 182.371094 27.226562 179.917969 26.238281 177.332031 L 24.828125 173.359375 C 24.390625 172.003906 23.980469 170.65625 23.597656 169.316406 C 23.480469 168.542969 23.390625 167.785156 23.320312 167.035156 L 23.1875 164.851562 C 23.144531 163.414062 23.195312 162.027344 23.335938 160.683594 C 23.480469 159.339844 23.714844 158.042969 24.046875 156.789062 C 24.65625 154.382812 25.554688 152.265625 26.746094 150.441406 C 27.703125 148.746094 29.914062 146.273438 33.382812 143.023438 C 33.984375 142.253906 34.398438 141.59375 34.628906 141.03125 C 34.949219 140.164062 35.234375 139.300781 35.484375 138.441406 L 35.828125 137.164062 C 36.042969 136.316406 36.214844 135.472656 36.351562 134.640625 L 36.53125 133.394531 C 36.632812 132.566406 36.695312 131.746094 36.71875 130.933594 L 36.730469 129.71875 C 36.695312 129.582031 36.625 129.515625 36.527344 129.515625 C 36.519531 129.515625 36.507812 129.515625 36.5 129.515625 L 36.449219 129.519531 C 36.308594 129.535156 36.125 129.609375 35.886719 129.75 C 34.730469 130.828125 32.851562 132.304688 30.253906 134.1875 C 28.777344 135.210938 27.324219 136.109375 25.890625 136.882812 C 24.945312 137.59375 24.199219 138.242188 23.660156 138.828125 C 21.992188 141.039062 20.675781 143.789062 19.699219 147.085938 C 19.582031 144.933594 19.546875 142.785156 19.589844 140.636719 L 19.757812 136.601562 C 19.933594 133.914062 20.234375 131.230469 20.652344 128.542969 L 18.953125 133.011719 L 17.914062 136.53125 C 17.480469 135.464844 16.800781 134.421875 15.878906 133.398438 C 11.257812 130.078125 8.753906 128.003906 8.363281 127.171875 C 7.710938 126.320312 6.769531 124.429688 5.542969 121.503906 C 5.488281 121.453125 5.417969 121.421875 5.34375 121.417969 Z M 191.371094 129.105469 L 191.21875 129.136719 C 190.53125 129.394531 189.644531 131.875 188.558594 136.578125 C 188.363281 137.585938 188.230469 138.554688 188.160156 139.480469 C 188.085938 140.40625 188.078125 141.289062 188.128906 142.128906 L 188.253906 143.355469 C 188.628906 145.371094 189.082031 146.859375 189.613281 147.824219 C 193.679688 154.023438 195.996094 157.9375 196.566406 159.574219 C 197.351562 161.777344 197.921875 163.777344 198.277344 165.566406 C 198.480469 166.550781 198.65625 167.578125 198.804688 168.644531 C 198.804688 168.648438 198.804688 168.648438 198.804688 168.652344 L 198.800781 168.652344 C 198.546875 169.394531 198.285156 170.121094 198.015625 170.835938 C 197.695312 172.171875 195.800781 176.3125 192.332031 183.25 C 191.789062 184.300781 191.238281 185.324219 190.675781 186.324219 C 191.289062 184.90625 191.710938 183.859375 191.945312 183.191406 C 192.300781 182.164062 192.511719 181.359375 192.574219 180.785156 C 192.746094 179.722656 192.722656 178.757812 192.507812 177.890625 L 192.363281 177.242188 C 191.609375 175.089844 191.054688 173.421875 190.699219 172.230469 C 190.425781 171.019531 190.289062 170.085938 190.28125 169.4375 C 190.246094 167.878906 190.289062 166.640625 190.414062 165.714844 L 192.078125 156.15625 L 191.933594 156.121094 L 191.746094 156.167969 C 191.074219 156.28125 189.351562 159.175781 186.585938 164.855469 C 186.488281 164.886719 186.011719 166.257812 185.152344 168.972656 C 184.828125 170.113281 184.578125 171.195312 184.402344 172.226562 C 184.023438 174.417969 183.941406 176.9375 184.148438 179.777344 C 184.410156 182.179688 184.980469 185.691406 185.859375 190.3125 C 186.046875 191.53125 186.167969 192.574219 186.226562 193.441406 L 186.222656 193.441406 C 180.835938 201.148438 174.71875 206.867188 167.875 210.589844 C 167.910156 210.664062 167.996094 210.703125 168.121094 210.703125 C 168.140625 210.703125 168.164062 210.703125 168.183594 210.699219 L 177.976562 205.589844 L 182.050781 202.867188 C 182.894531 202.269531 183.714844 201.664062 184.511719 201.054688 L 184.507812 201.054688 C 187.121094 199.5625 189.160156 198.566406 190.625 198.066406 C 192.664062 197.300781 194.019531 196.832031 194.691406 196.660156 C 196.558594 196.128906 199.476562 195.453125 203.441406 194.628906 C 204 194.476562 204.5625 194.304688 205.125 194.117188 C 207.929688 193.148438 209.898438 192.183594 211.03125 191.226562 C 214.042969 189.089844 216.492188 186.429688 218.386719 183.253906 C 219.433594 181.554688 220.410156 179.460938 221.304688 176.976562 C 221.949219 175.148438 222 174.230469 221.46875 174.226562 L 221.441406 174.226562 C 221.375 174.230469 221.304688 174.246094 221.226562 174.273438 C 217.253906 178.066406 214.644531 180.4375 213.398438 181.386719 C 211.574219 182.890625 209.964844 184.078125 208.566406 184.949219 C 206.5625 186.046875 204.90625 186.828125 203.59375 187.292969 L 196.085938 189.640625 L 197.34375 187.976562 C 198.816406 185.851562 200.066406 183.667969 201.085938 181.429688 C 201.773438 179.875 202.394531 178.28125 202.949219 176.65625 C 204.992188 173.980469 207.300781 171.324219 209.871094 168.683594 C 212.464844 165.9375 217.007812 162.101562 223.496094 157.175781 C 224.273438 156.496094 225.054688 155.71875 225.835938 154.84375 C 226.078125 154.566406 226.304688 154.265625 226.507812 153.941406 C 227.347656 152.542969 227.871094 150.9375 228.085938 149.125 C 228.226562 147.566406 228.371094 144.507812 228.519531 139.945312 C 228.515625 138.929688 228.351562 138.351562 228.03125 138.214844 L 228.007812 138.214844 L 220.394531 144.835938 L 211.769531 150.5625 L 210.0625 152.308594 C 208.960938 153.539062 207.933594 154.902344 206.980469 156.402344 C 206.800781 156.683594 206.625 156.972656 206.449219 157.261719 C 207.171875 147.777344 207.441406 142.480469 207.261719 141.371094 C 207.332031 140.242188 207.144531 138.257812 206.710938 135.417969 C 206.488281 134.441406 206.203125 133.703125 205.855469 133.195312 L 205.140625 139.523438 C 204.519531 144.457031 203.765625 149.082031 202.882812 153.40625 L 202.410156 152.433594 C 201.640625 151.046875 200.160156 148.8125 197.964844 145.730469 C 197.300781 144.570312 196.460938 142.964844 195.449219 140.90625 C 194.886719 139.679688 193.679688 135.855469 191.835938 129.433594 C 191.722656 129.242188 191.566406 129.132812 191.371094 129.105469 Z M 191.371094 129.105469 " fill-opacity="1" fill-rule="nonzero"/></g></g></g></g></svg>