<svg xmlns="http://www.w3.org/2000/svg" xmlns:xlink="http://www.w3.org/1999/xlink" width="1366" zoomAndPan="magnify" viewBox="0 0 1024.5 449.999984" height="600" preserveAspectRatio="xMidYMid meet" version="1.0"><defs><filter x="0%" y="0%" width="100%" height="100%" id="31664fc782"><feColorMatrix values="0 0 0 0 1 0 0 0 0 1 0 0 0 0 1 0 0 0 1 0" color-interpolation-filters="sRGB"/></filter><clipPath id="2dc27ea78b"><path d="M 0 0.109375 L 1024 0.109375 L 1024 449.890625 L 0 449.890625 Z M 0 0.109375 " clip-rule="nonzero"/></clipPath><clipPath id="e1e1048e6d"><path d="M 877 384 L 1024 384 L 1024 412.449219 L 877 412.449219 Z M 877 384 " clip-rule="nonzero"/></clipPath><clipPath id="d9b180ce39"><path d="M 936 14 L 1024 14 L 1024 371 L 936 371 Z M 936 14 " clip-rule="nonzero"/></clipPath><clipPath id="5c74b4842b"><path d="M 1022 78 L 1024 78 L 1024 374 L 1022 374 Z M 1022 78 " clip-rule="nonzero"/></clipPath><clipPath id="5c652b7ee1"><path d="M 1022 192 L 1024 192 L 1024 393 L 1022 393 Z M 1022 192 " clip-rule="nonzero"/></clipPath><clipPath id="532a3670cf"><path d="M 703.464844 87 L 1024 87 L 1024 205 L 703.464844 205 Z M 703.464844 87 " clip-rule="nonzero"/></clipPath><clipPath id="21b2ced0fe"><path d="M 703.464844 105 L 1024 105 L 1024 223 L 703.464844 223 Z M 703.464844 105 " clip-rule="nonzero"/></clipPath><clipPath id="dfecbf3943"><path d="M 703.464844 123 L 1024 123 L 1024 240 L 703.464844 240 Z M 703.464844 123 " clip-rule="nonzero"/></clipPath><clipPath id="5dd2a48550"><path d="M 703.464844 140 L 1024 140 L 1024 258 L 703.464844 258 Z M 703.464844 140 " clip-rule="nonzero"/></clipPath><clipPath id="dbd2c17627"><path d="M 703.464844 158 L 1024 158 L 1024 276 L 703.464844 276 Z M 703.464844 158 " clip-rule="nonzero"/></clipPath><clipPath id="8c701b6e2f"><path d="M 961 117 L 1024 117 L 1024 369 L 961 369 Z M 961 117 " clip-rule="nonzero"/></clipPath><clipPath id="99da967568"><path d="M 1022 162 L 1024 162 L 1024 371 L 1022 371 Z M 1022 162 " clip-rule="nonzero"/></clipPath><clipPath id="90444a6510"><path d="M 1022 243 L 1024 243 L 1024 385 L 1022 385 Z M 1022 243 " clip-rule="nonzero"/></clipPath><clipPath id="7498135f2a"><path d="M 958 175 L 1024 175 L 1024 232 L 958 232 Z M 958 175 " clip-rule="nonzero"/></clipPath><clipPath id="59b1234624"><path d="M 972 175 L 1024 175 L 1024 344 L 972 344 Z M 972 175 " clip-rule="nonzero"/></clipPath><clipPath id="0c96303dc1"><path d="M 1009 151 L 1024 151 L 1024 194 L 1009 194 Z M 1009 151 " clip-rule="nonzero"/></clipPath><clipPath id="dc9de09eb9"><path d="M 1010 156 L 1024 156 L 1024 174 L 1010 174 Z M 1010 156 " clip-rule="nonzero"/></clipPath><clipPath id="4f8dab15fa"><path d="M 994 91 L 1024 91 L 1024 170 L 994 170 Z M 994 91 " clip-rule="nonzero"/></clipPath><clipPath id="a619f23fd6"><path d="M 992 91 L 1024 91 L 1024 128 L 992 128 Z M 992 91 " clip-rule="nonzero"/></clipPath><clipPath id="ebd3f065af"><path d="M 982 70 L 1024 70 L 1024 123 L 982 123 Z M 982 70 " clip-rule="nonzero"/></clipPath><clipPath id="11c80d41c3"><path d="M 1020 144 L 1024 144 L 1024 147 L 1020 147 Z M 1020 144 " clip-rule="nonzero"/></clipPath><clipPath id="74ba762cdb"><path d="M 1018 155 L 1024 155 L 1024 159 L 1018 159 Z M 1018 155 " clip-rule="nonzero"/></clipPath><clipPath id="618fd063df"><path d="M 985 80 L 1024 80 L 1024 125 L 985 125 Z M 985 80 " clip-rule="nonzero"/></clipPath><clipPath id="a9dc229712"><path d="M 916 316 L 1024 316 L 1024 387 L 916 387 Z M 916 316 " clip-rule="nonzero"/></clipPath><clipPath id="4ccf645212"><path d="M 949 365 L 1024 365 L 1024 402 L 949 402 Z M 949 365 " clip-rule="nonzero"/></clipPath><clipPath id="49bcd48850"><path d="M 1012 309 L 1024 309 L 1024 399 L 1012 399 Z M 1012 309 " clip-rule="nonzero"/></clipPath><clipPath id="943d03dba4"><path d="M 1009 365 L 1024 365 L 1024 402 L 1009 402 Z M 1009 365 " clip-rule="nonzero"/></clipPath><clipPath id="1652c368dd"><path d="M 869 309 L 1024 309 L 1024 399 L 869 399 Z M 869 309 " clip-rule="nonzero"/></clipPath><mask id="839e6f92a3"><g filter="url(#31664fc782)"><rect x="-102.45" width="1229.4" fill="#000000" y="-44.999998" height="539.99998" fill-opacity="0.1882"/></g></mask><clipPath id="958c420e80"><path d="M 0.960938 0.453125 L 39.878906 0.453125 L 39.878906 447.769531 L 0.960938 447.769531 Z M 0.960938 0.453125 " clip-rule="nonzero"/></clipPath><clipPath id="b5ebcf9bb3"><rect x="0" width="41" y="0" height="448"/></clipPath><mask id="b7d7055098"><g filter="url(#31664fc782)"><rect x="-102.45" width="1229.4" fill="#000000" y="-44.999998" height="539.99998" fill-opacity="0.1882"/></g></mask><clipPath id="d15b2ea83f"><path d="M 0.574219 0.453125 L 39.492188 0.453125 L 39.492188 447.769531 L 0.574219 447.769531 Z M 0.574219 0.453125 " clip-rule="nonzero"/></clipPath><clipPath id="dd5099df50"><rect x="0" width="40" y="0" height="448"/></clipPath><mask id="e762d60993"><g filter="url(#31664fc782)"><rect x="-102.45" width="1229.4" fill="#000000" y="-44.999998" height="539.99998" fill-opacity="0.1882"/></g></mask><clipPath id="2427a65be9"><path d="M 1.183594 0.453125 L 40.101562 0.453125 L 40.101562 447.769531 L 1.183594 447.769531 Z M 1.183594 0.453125 " clip-rule="nonzero"/></clipPath><clipPath id="e33569474f"><rect x="0" width="41" y="0" height="448"/></clipPath><clipPath id="2d72ad8f19"><path d="M 0 0.109375 L 164 0.109375 L 164 172 L 0 172 Z M 0 0.109375 " clip-rule="nonzero"/></clipPath><mask id="5f5839a039"><g filter="url(#31664fc782)"><rect x="-102.45" width="1229.4" fill="#000000" y="-44.999998" height="539.99998" fill-opacity="0.1882"/></g></mask><clipPath id="7c1704e76b"><path d="M 0 0.109375 L 56.519531 0.109375 L 56.519531 64.816406 L 0 64.816406 Z M 0 0.109375 " clip-rule="nonzero"/></clipPath><clipPath id="3ef80f199d"><path d="M -10.578125 -69.378906 C -47.632812 -69.378906 -77.675781 -39.339844 -77.675781 -2.28125 C -77.675781 34.777344 -47.632812 64.816406 -10.578125 64.816406 C 26.480469 64.816406 56.519531 34.777344 56.519531 -2.28125 C 56.519531 -39.339844 26.480469 -69.378906 -10.578125 -69.378906 " clip-rule="nonzero"/></clipPath><clipPath id="e7b10ae324"><path d="M 0 0.109375 L 56.574219 0.109375 L 56.574219 64.871094 L 0 64.871094 Z M 0 0.109375 " clip-rule="nonzero"/></clipPath><clipPath id="5652881fd4"><path d="M -10.550781 -69.378906 C -47.621094 -69.378906 -77.675781 -39.324219 -77.675781 -2.253906 C -77.675781 34.816406 -47.621094 64.871094 -10.550781 64.871094 C 26.523438 64.871094 56.574219 34.816406 56.574219 -2.253906 C 56.574219 -39.324219 26.523438 -69.378906 -10.550781 -69.378906 " clip-rule="nonzero"/></clipPath><clipPath id="437016a192"><rect x="0" width="164" y="0" height="172"/></clipPath><clipPath id="bff2698462"><path d="M 0 274 L 164 274 L 164 449.890625 L 0 449.890625 Z M 0 274 " clip-rule="nonzero"/></clipPath><mask id="06b46a4ae7"><g filter="url(#31664fc782)"><rect x="-102.45" width="1229.4" fill="#000000" y="-44.999998" height="539.99998" fill-opacity="0.1882"/></g></mask><clipPath id="25a3b945db"><path d="M 0 107.671875 L 56.519531 107.671875 L 56.519531 175.890625 L 0 175.890625 Z M 0 107.671875 " clip-rule="nonzero"/></clipPath><clipPath id="c4061547df"><path d="M -10.578125 107.671875 C -47.632812 107.671875 -77.675781 137.710938 -77.675781 174.769531 C -77.675781 211.824219 -47.632812 241.867188 -10.578125 241.867188 C 26.480469 241.867188 56.519531 211.824219 56.519531 174.769531 C 56.519531 137.710938 26.480469 107.671875 -10.578125 107.671875 " clip-rule="nonzero"/></clipPath><clipPath id="9910cc10c3"><path d="M 0 107.671875 L 56.574219 107.671875 L 56.574219 175.890625 L 0 175.890625 Z M 0 107.671875 " clip-rule="nonzero"/></clipPath><clipPath id="9310c65508"><path d="M -10.550781 107.671875 C -47.621094 107.671875 -77.675781 137.722656 -77.675781 174.796875 C -77.675781 211.867188 -47.621094 241.921875 -10.550781 241.921875 C 26.523438 241.921875 56.574219 211.867188 56.574219 174.796875 C 56.574219 137.722656 26.523438 107.671875 -10.550781 107.671875 " clip-rule="nonzero"/></clipPath><clipPath id="5e234eef0c"><rect x="0" width="164" y="0" height="176"/></clipPath></defs><g clip-path="url(#2dc27ea78b)"><path fill="#ffffff" d="M 0 0.109375 L 1024.5 0.109375 L 1024.5 457.609375 L 0 457.609375 Z M 0 0.109375 " fill-opacity="1" fill-rule="nonzero"/><path fill="#ffffff" d="M 0 0.109375 L 1024.5 0.109375 L 1024.5 450.109375 L 0 450.109375 Z M 0 0.109375 " fill-opacity="1" fill-rule="nonzero"/><path fill="#e7f3ff" d="M 0 0.109375 L 1024.5 0.109375 L 1024.5 450.109375 L 0 450.109375 Z M 0 0.109375 " fill-opacity="1" fill-rule="nonzero"/></g><g clip-path="url(#e1e1048e6d)"><path fill="#bce9ee" d="M 877.558594 398.246094 C 877.558594 390.386719 942.042969 384.019531 1021.585938 384.019531 C 1101.132812 384.019531 1165.617188 390.386719 1165.617188 398.246094 C 1165.617188 406.09375 1101.132812 412.460938 1021.585938 412.460938 C 942.042969 412.460938 877.558594 406.09375 877.558594 398.246094 " fill-opacity="1" fill-rule="nonzero"/></g><path fill="#bce9ee" d="M 1020.03125 369.507812 C 1021.792969 373.355469 1019.617188 377.847656 1015.515625 378.878906 C 988.988281 385.554688 900.546875 404.757812 845.089844 379.945312 C 765.796875 344.46875 722.261719 233.878906 711.339844 202.664062 C 709.863281 198.445312 712.792969 193.988281 717.25 193.683594 C 748.363281 191.550781 855.875 187.636719 919.078125 228.785156 C 967.53125 260.339844 1008.484375 344.226562 1020.03125 369.507812 " fill-opacity="1" fill-rule="nonzero"/><path fill="#bce9ee" d="M 1022.515625 366.359375 C 1022.484375 370.589844 1018.617188 373.742188 1014.464844 372.941406 C 987.597656 367.78125 899.332031 347.792969 859.554688 301.855469 C 802.675781 236.179688 809.945312 117.546875 813.226562 84.640625 C 813.667969 80.191406 818.210938 77.386719 822.378906 79 C 851.476562 90.21875 950.570312 132.125 990.464844 196.140625 C 1021.046875 245.21875 1022.730469 338.5625 1022.515625 366.359375 " fill-opacity="1" fill-rule="nonzero"/><g clip-path="url(#d9b180ce39)"><path fill="#bce9ee" d="M 1035.460938 367.597656 C 1033.042969 371.078125 1028.078125 371.496094 1025.09375 368.496094 C 1005.8125 349.082031 944.175781 282.796875 937.203125 222.421875 C 927.234375 136.101562 1000.082031 42.210938 1021.339844 16.882812 C 1024.210938 13.453125 1029.539062 13.699219 1032.082031 17.382812 C 1049.789062 43.058594 1108.027344 133.554688 1104.902344 208.929688 C 1102.511719 266.71875 1051.296875 344.761719 1035.460938 367.597656 " fill-opacity="1" fill-rule="nonzero"/></g><g clip-path="url(#5c74b4842b)"><path fill="#bce9ee" d="M 1022.546875 366.359375 C 1022.578125 370.589844 1026.445312 373.742188 1030.597656 372.941406 C 1057.460938 367.78125 1145.730469 347.792969 1185.507812 301.855469 C 1242.382812 236.179688 1235.121094 117.546875 1231.832031 84.640625 C 1231.386719 80.191406 1226.851562 77.386719 1222.679688 79 C 1193.585938 90.21875 1094.484375 132.125 1054.597656 196.140625 C 1024.011719 245.21875 1022.332031 338.5625 1022.546875 366.359375 " fill-opacity="1" fill-rule="nonzero"/></g><g clip-path="url(#5c652b7ee1)"><path fill="#bce9ee" d="M 1023.144531 369.507812 C 1021.386719 373.355469 1023.558594 377.847656 1027.660156 378.878906 C 1054.1875 385.554688 1142.632812 404.757812 1198.089844 379.945312 C 1277.378906 344.46875 1320.910156 233.878906 1331.839844 202.664062 C 1333.316406 198.445312 1330.390625 193.988281 1325.929688 193.683594 C 1294.8125 191.550781 1187.296875 187.636719 1124.097656 228.785156 C 1075.644531 260.339844 1034.691406 344.226562 1023.144531 369.507812 " fill-opacity="1" fill-rule="nonzero"/></g><g clip-path="url(#532a3670cf)"><path fill="#ffffff" d="M 1345.027344 87.347656 L 1345.027344 89.628906 C 1320.199219 93.277344 1290.667969 93.050781 1262.097656 92.832031 C 1258.316406 92.804688 1254.539062 92.773438 1250.765625 92.75 C 1219.316406 92.457031 1186.152344 92.6875 1156.671875 96.335938 C 1128.851562 99.632812 1103.15625 106.132812 1080.289062 115.652344 C 1063.796875 122.386719 1048.628906 130.710938 1033.964844 138.75 C 1028.648438 141.667969 1023.148438 144.6875 1017.660156 147.585938 C 1012.347656 150.4375 1007.003906 153.398438 1001.832031 156.265625 C 987.054688 164.464844 971.773438 172.941406 955.066406 179.8125 C 932.089844 189.449219 906.214844 196.027344 878.179688 199.367188 C 848.570312 203.042969 815.328125 203.273438 783.8125 202.980469 C 780.046875 202.960938 776.269531 202.933594 772.488281 202.902344 C 749.300781 202.726562 725.324219 202.539062 704.074219 204.433594 L 703.976562 203.308594 L 703.976562 202.179688 C 725.308594 200.285156 749.300781 200.46875 772.507812 200.648438 C 776.285156 200.679688 780.0625 200.707031 783.832031 200.726562 C 815.265625 201.019531 848.421875 200.789062 877.90625 197.132812 C 905.742188 193.8125 931.410156 187.289062 954.203125 177.726562 C 970.792969 170.90625 986.015625 162.457031 1000.742188 154.292969 C 1005.914062 151.421875 1011.265625 148.457031 1016.601562 145.597656 C 1022.078125 142.699219 1027.570312 139.6875 1032.882812 136.773438 C 1047.601562 128.699219 1062.820312 120.347656 1079.429688 113.566406 C 1102.480469 103.96875 1128.378906 97.414062 1156.402344 94.09375 C 1186.003906 90.433594 1219.261719 90.203125 1250.78125 90.5 C 1254.554688 90.519531 1258.332031 90.546875 1262.117188 90.578125 C 1290.726562 90.796875 1320.308594 91.023438 1345.027344 87.347656 " fill-opacity="1" fill-rule="nonzero"/></g><g clip-path="url(#21b2ced0fe)"><path fill="#ffffff" d="M 1345.027344 106.339844 L 1345.027344 107.476562 C 1320.597656 110.925781 1291.683594 110.699219 1263.726562 110.484375 C 1259.976562 110.460938 1256.222656 110.429688 1252.480469 110.40625 C 1221.199219 110.113281 1188.203125 110.339844 1158.84375 113.980469 C 1131.144531 117.269531 1105.574219 123.746094 1082.828125 133.234375 C 1066.414062 139.945312 1051.328125 148.242188 1036.734375 156.253906 C 1031.4375 159.164062 1025.96875 162.171875 1020.503906 165.0625 C 1015.210938 167.898438 1009.894531 170.847656 1004.753906 173.710938 C 990.046875 181.878906 974.835938 190.328125 958.210938 197.171875 C 935.34375 206.785156 909.601562 213.339844 881.691406 216.667969 C 852.257812 220.328125 819.164062 220.5625 787.785156 220.269531 C 784.023438 220.253906 780.246094 220.222656 776.46875 220.195312 C 751.816406 220 726.328125 219.808594 704.09375 222.140625 L 703.976562 221.019531 L 703.976562 219.882812 C 726.3125 217.554688 751.816406 217.75 776.484375 217.9375 C 780.261719 217.96875 784.039062 217.996094 787.800781 218.015625 C 819.105469 218.308594 852.109375 218.074219 881.421875 214.429688 C 909.121094 211.128906 934.667969 204.621094 957.34375 195.09375 C 973.859375 188.296875 989.007812 179.878906 1003.660156 171.738281 C 1008.808594 168.878906 1014.132812 165.917969 1019.445312 163.070312 C 1024.898438 160.183594 1030.363281 157.1875 1035.648438 154.277344 C 1050.296875 146.234375 1065.441406 137.90625 1081.96875 131.152344 C 1104.898438 121.582031 1130.679688 115.050781 1158.570312 111.738281 C 1188.0625 108.089844 1221.140625 107.859375 1252.496094 108.152344 C 1256.234375 108.175781 1259.984375 108.207031 1263.742188 108.234375 C 1291.679688 108.449219 1320.570312 108.671875 1344.867188 105.21875 L 1345.027344 106.339844 " fill-opacity="1" fill-rule="nonzero"/></g><g clip-path="url(#dfecbf3943)"><path fill="#ffffff" d="M 1345.027344 124.203125 L 1345.027344 125.332031 C 1321.59375 128.183594 1294.371094 127.976562 1268.054688 127.769531 C 1264.3125 127.742188 1260.574219 127.710938 1256.835938 127.691406 C 1225.558594 127.398438 1192.558594 127.628906 1163.199219 131.261719 C 1135.503906 134.550781 1109.933594 141.027344 1087.1875 150.519531 C 1070.777344 157.226562 1055.695312 165.515625 1041.113281 173.53125 C 1035.8125 176.441406 1030.332031 179.449219 1024.863281 182.347656 C 1019.582031 185.175781 1014.273438 188.128906 1009.140625 190.980469 C 994.425781 199.152344 979.207031 207.613281 962.566406 214.457031 C 939.695312 224.070312 913.949219 230.625 886.050781 233.953125 C 856.59375 237.617188 823.511719 237.847656 792.148438 237.558594 C 788.40625 237.539062 784.652344 237.507812 780.894531 237.480469 C 754.601562 237.273438 727.417969 237.070312 704.117188 239.921875 L 703.976562 238.800781 L 703.976562 237.664062 C 727.398438 234.8125 754.601562 235.023438 780.910156 235.226562 C 784.667969 235.253906 788.417969 235.285156 792.15625 235.304688 C 823.453125 235.59375 856.453125 235.363281 885.777344 231.714844 C 913.476562 228.414062 939.019531 221.910156 961.710938 212.375 C 978.226562 205.574219 993.386719 197.152344 1008.046875 189.007812 C 1013.183594 186.152344 1018.503906 183.203125 1023.804688 180.355469 C 1029.261719 177.460938 1034.730469 174.460938 1040.027344 171.550781 C 1054.671875 163.511719 1069.808594 155.191406 1086.328125 148.433594 C 1109.257812 138.871094 1135.03125 132.335938 1162.929688 129.023438 C 1192.410156 125.375 1225.5 125.144531 1256.859375 125.4375 C 1260.582031 125.460938 1264.328125 125.484375 1268.070312 125.515625 C 1294.371094 125.722656 1321.570312 125.925781 1344.890625 123.078125 L 1345.027344 124.203125 " fill-opacity="1" fill-rule="nonzero"/></g><g clip-path="url(#5dd2a48550)"><path fill="#ffffff" d="M 1345.027344 141.976562 L 1345.027344 143.113281 C 1322.683594 145.441406 1297.15625 145.25 1272.46875 145.054688 C 1268.707031 145.027344 1264.945312 144.996094 1261.203125 144.976562 C 1229.898438 144.683594 1196.894531 144.914062 1167.558594 148.542969 C 1139.871094 151.832031 1114.300781 158.3125 1091.546875 167.804688 C 1075.144531 174.507812 1060.066406 182.792969 1045.480469 190.804688 C 1040.179688 193.71875 1034.695312 196.734375 1029.21875 199.632812 C 1023.941406 202.460938 1018.632812 205.410156 1013.5 208.261719 C 998.785156 216.445312 983.566406 224.898438 966.925781 231.746094 C 944.054688 241.351562 918.304688 247.914062 890.410156 251.238281 C 860.957031 254.894531 827.871094 255.128906 796.507812 254.84375 C 792.753906 254.820312 788.992188 254.789062 785.234375 254.761719 C 757.304688 254.546875 728.425781 254.324219 704.132812 257.773438 L 703.976562 256.660156 L 703.976562 255.519531 C 728.398438 252.070312 757.300781 252.289062 785.253906 252.511719 C 789.007812 252.535156 792.769531 252.566406 796.523438 252.589844 C 827.8125 252.878906 860.8125 252.644531 890.144531 249 C 917.828125 245.695312 943.378906 239.195312 966.066406 229.660156 C 982.589844 222.863281 997.746094 214.4375 1012.402344 206.292969 C 1017.542969 203.4375 1022.859375 200.484375 1028.164062 197.640625 C 1033.625 194.746094 1039.101562 191.738281 1044.398438 188.828125 C 1059.035156 180.785156 1074.175781 172.46875 1090.6875 165.71875 C 1113.625 156.148438 1139.402344 149.613281 1167.285156 146.308594 C 1196.75 142.660156 1229.84375 142.429688 1261.21875 142.722656 C 1264.960938 142.742188 1268.722656 142.773438 1272.484375 142.800781 C 1297.15625 142.996094 1322.660156 143.1875 1344.910156 140.855469 L 1345.027344 141.976562 " fill-opacity="1" fill-rule="nonzero"/></g><g clip-path="url(#dbd2c17627)"><path fill="#ffffff" d="M 1345.027344 159.679688 L 1345.027344 160.8125 C 1323.652344 162.710938 1299.613281 162.515625 1276.351562 162.332031 C 1272.578125 162.300781 1268.808594 162.269531 1265.046875 162.25 C 1233.570312 161.945312 1200.378906 162.164062 1170.902344 165.808594 C 1143.0625 169.097656 1117.351562 175.609375 1094.480469 185.144531 C 1077.980469 191.886719 1062.8125 200.21875 1048.148438 208.273438 C 1042.820312 211.199219 1037.320312 214.222656 1031.824219 217.128906 C 1026.515625 219.976562 1021.179688 222.9375 1016.023438 225.804688 C 1001.226562 234.015625 985.925781 242.515625 969.207031 249.398438 C 946.207031 259.050781 920.324219 265.636719 892.273438 268.972656 C 862.644531 272.644531 829.382812 272.871094 797.863281 272.5625 C 794.074219 272.539062 790.273438 272.507812 786.472656 272.476562 C 758.085938 272.257812 728.726562 272.019531 704.136719 275.605469 L 703.976562 274.488281 L 703.976562 273.351562 C 728.703125 269.761719 758.082031 270 786.488281 270.222656 C 790.289062 270.253906 794.089844 270.285156 797.878906 270.308594 C 829.328125 270.613281 862.5 270.390625 892.007812 266.726562 C 919.847656 263.421875 945.527344 256.886719 968.339844 247.316406 C 984.949219 240.484375 1000.1875 232.011719 1014.929688 223.832031 C 1020.09375 220.960938 1025.433594 217.996094 1030.765625 215.136719 C 1036.25 212.234375 1041.746094 209.214844 1047.058594 206.296875 C 1061.785156 198.210938 1077.007812 189.847656 1093.621094 183.058594 C 1116.679688 173.449219 1142.589844 166.886719 1170.628906 163.570312 C 1200.238281 159.910156 1233.515625 159.6875 1265.0625 159.996094 C 1268.824219 160.015625 1272.59375 160.046875 1276.367188 160.078125 C 1299.613281 160.261719 1323.640625 160.457031 1344.925781 158.558594 L 1345.027344 159.679688 " fill-opacity="1" fill-rule="nonzero"/></g><path fill="#ffffff" d="M 1020.828125 368.074219 C 1022.070312 370.792969 1020.535156 373.964844 1017.636719 374.699219 C 998.898438 379.410156 936.433594 392.972656 897.261719 375.445312 C 841.253906 350.390625 810.507812 272.277344 802.792969 250.230469 C 801.75 247.253906 803.820312 244.105469 806.96875 243.890625 C 828.945312 242.386719 904.886719 239.617188 949.519531 268.683594 C 983.742188 290.964844 1012.671875 350.21875 1020.828125 368.074219 " fill-opacity="1" fill-rule="nonzero"/><path fill="#ffffff" d="M 1022.578125 365.851562 C 1022.558594 368.84375 1019.828125 371.066406 1016.894531 370.503906 C 997.917969 366.851562 935.574219 352.738281 907.476562 320.292969 C 867.308594 273.90625 872.4375 190.113281 874.757812 166.871094 C 875.070312 163.726562 878.277344 161.75 881.222656 162.882812 C 901.773438 170.8125 971.765625 200.410156 999.941406 245.625 C 1021.546875 280.292969 1022.730469 346.21875 1022.578125 365.851562 " fill-opacity="1" fill-rule="nonzero"/><g clip-path="url(#8c701b6e2f)"><path fill="#ffffff" d="M 1031.722656 366.726562 C 1030.015625 369.183594 1026.507812 369.484375 1024.402344 367.359375 C 1010.785156 353.644531 967.246094 306.832031 962.320312 264.1875 C 955.28125 203.214844 1006.734375 136.90625 1021.75 119.011719 C 1023.78125 116.589844 1027.539062 116.765625 1029.335938 119.363281 C 1041.839844 137.503906 1082.976562 201.421875 1080.769531 254.660156 C 1079.078125 295.472656 1042.910156 350.59375 1031.722656 366.726562 " fill-opacity="1" fill-rule="nonzero"/></g><g clip-path="url(#99da967568)"><path fill="#ffffff" d="M 1022.605469 365.851562 C 1022.625 368.84375 1025.355469 371.066406 1028.289062 370.503906 C 1047.261719 366.851562 1109.609375 352.738281 1137.703125 320.292969 C 1177.875 273.90625 1172.746094 190.113281 1170.425781 166.871094 C 1170.109375 163.726562 1166.90625 161.75 1163.960938 162.882812 C 1143.410156 170.8125 1073.414062 200.410156 1045.242188 245.625 C 1023.636719 280.292969 1022.445312 346.21875 1022.605469 365.851562 " fill-opacity="1" fill-rule="nonzero"/></g><g clip-path="url(#90444a6510)"><path fill="#ffffff" d="M 1023.023438 368.074219 C 1021.78125 370.792969 1023.316406 373.964844 1026.214844 374.699219 C 1044.953125 379.410156 1107.417969 392.972656 1146.589844 375.445312 C 1202.59375 350.390625 1233.339844 272.277344 1241.058594 250.230469 C 1242.101562 247.253906 1240.03125 244.105469 1236.882812 243.890625 C 1214.90625 242.386719 1138.964844 239.617188 1094.332031 268.683594 C 1060.109375 290.964844 1031.179688 350.21875 1023.023438 368.074219 " fill-opacity="1" fill-rule="nonzero"/></g><path fill="#42ab3b" d="M 818.070312 244.617188 C 815.453125 243.898438 813.742188 241.859375 814.234375 240.070312 C 814.726562 238.269531 817.242188 237.394531 819.851562 238.113281 C 822.453125 238.828125 824.171875 240.859375 823.679688 242.664062 C 823.1875 244.457031 820.671875 245.332031 818.070312 244.617188 Z M 832.199219 214.824219 L 825.628906 238.789062 C 824.519531 237.3125 822.738281 236.089844 820.566406 235.492188 C 816.28125 234.320312 812.085938 236.011719 811.195312 239.261719 C 810.300781 242.519531 813.050781 246.109375 817.335938 247.285156 C 821.621094 248.460938 825.816406 246.777344 826.710938 243.523438 L 834.414062 215.433594 L 832.199219 214.824219 " fill-opacity="1" fill-rule="nonzero"/><path fill="#f14a1c" d="M 899.132812 173.195312 C 897.878906 170.863281 895.820312 171.507812 893.652344 168.324219 C 891.925781 165.785156 892.019531 163.585938 890.503906 163.253906 L 890.46875 163.25 L 890.472656 163.246094 L 888.195312 162.941406 L 888.003906 164.386719 L 887.765625 166.230469 L 884.960938 187.589844 C 883.65625 186.273438 881.730469 185.308594 879.496094 185.015625 C 875.09375 184.433594 871.164062 186.675781 870.722656 190.023438 C 870.28125 193.367188 873.5 196.550781 877.90625 197.132812 C 882.3125 197.707031 886.234375 195.464844 886.675781 192.121094 C 886.675781 192.117188 886.675781 192.117188 886.675781 192.117188 L 889.628906 169.648438 C 890.144531 170.296875 890.609375 170.796875 890.808594 171.011719 C 893.851562 174.261719 895.894531 173.746094 897.148438 176.195312 C 898.785156 179.414062 896.703125 183.074219 897.027344 183.164062 C 897.445312 183.289062 901.285156 177.210938 899.132812 173.195312 " fill-opacity="1" fill-rule="nonzero"/><path fill="#2858a6" d="M 774.089844 181.90625 L 749.472656 184.636719 L 747.1875 184.890625 L 747.984375 192.085938 L 749.929688 209.589844 C 748.351562 208.628906 746.246094 208.148438 744.007812 208.394531 C 739.59375 208.886719 736.3125 212.003906 736.683594 215.359375 C 737.058594 218.710938 740.9375 221.035156 745.355469 220.546875 C 749.773438 220.054688 753.050781 216.941406 752.679688 213.582031 L 750.269531 191.832031 L 774.886719 189.101562 L 776.824219 206.605469 C 775.253906 205.640625 773.148438 205.164062 770.910156 205.410156 C 766.492188 205.90625 763.214844 209.023438 763.585938 212.375 C 763.957031 215.730469 767.839844 218.050781 772.257812 217.566406 C 776.671875 217.074219 779.953125 213.960938 779.578125 210.601562 L 777.171875 188.851562 L 776.375 181.65625 L 774.089844 181.90625 " fill-opacity="1" fill-rule="nonzero"/><g clip-path="url(#7498135f2a)"><path fill="#f58615" d="M 1089.902344 231.242188 L 958.234375 231.242188 C 958.289062 230.519531 958.355469 229.78125 958.441406 229.046875 C 959.71875 223.695312 963.238281 210.300781 970.148438 198.515625 C 970.144531 198.507812 970.148438 198.507812 970.160156 198.503906 C 970.222656 198.40625 970.914062 197.226562 972.054688 195.53125 C 973.5625 193.3125 975.84375 190.199219 978.484375 187.441406 C 979.746094 186.136719 981.078125 184.914062 982.445312 183.902344 C 984.078125 182.703125 985.765625 181.761719 985.765625 181.761719 C 986.675781 181.257812 987.6875 180.765625 988.828125 180.296875 C 989.714844 179.925781 990.679688 179.585938 991.753906 179.25 C 994.09375 178.511719 996.941406 177.859375 1000.5 177.304688 C 1003.085938 176.90625 1006.039062 176.5625 1009.464844 176.285156 C 1009.828125 176.253906 1010.1875 176.226562 1010.566406 176.195312 C 1011.53125 176.125 1012.53125 176.0625 1013.566406 175.996094 C 1014.929688 175.917969 1016.355469 175.839844 1017.851562 175.773438 L 1017.859375 175.773438 C 1020.347656 175.671875 1023.035156 175.597656 1025.929688 175.542969 C 1028.703125 175.496094 1031.277344 175.480469 1033.671875 175.503906 L 1033.710938 175.503906 C 1034.125 175.503906 1034.53125 175.507812 1034.929688 175.519531 C 1036.597656 175.535156 1037.839844 175.570312 1037.894531 175.570312 C 1038.429688 175.59375 1038.976562 175.617188 1039.507812 175.648438 C 1043.5 175.902344 1047.253906 176.6875 1050.679688 177.773438 C 1052.300781 178.285156 1053.859375 178.867188 1055.339844 179.492188 C 1056.785156 180.105469 1058.164062 180.753906 1059.453125 181.429688 C 1064.765625 184.195312 1068.71875 187.289062 1070.863281 189.140625 C 1070.898438 189.171875 1070.941406 189.203125 1070.972656 189.238281 C 1072.203125 190.40625 1076.285156 195.574219 1078.40625 199.003906 C 1078.476562 199.113281 1078.542969 199.226562 1078.609375 199.335938 C 1079.367188 200.589844 1080.335938 202.273438 1081.386719 204.347656 C 1082.519531 206.582031 1083.753906 209.261719 1084.945312 212.359375 C 1085.085938 212.722656 1085.226562 213.09375 1085.363281 213.480469 C 1085.5625 214.011719 1085.761719 214.566406 1085.957031 215.144531 C 1086.300781 216.117188 1086.640625 217.152344 1086.972656 218.257812 C 1087.113281 218.726562 1087.261719 219.214844 1087.402344 219.714844 C 1087.40625 219.75 1087.421875 219.785156 1087.4375 219.835938 C 1088.214844 222.550781 1088.9375 225.605469 1089.523438 228.972656 C 1089.523438 228.980469 1089.523438 228.980469 1089.523438 228.980469 C 1089.660156 229.71875 1089.78125 230.476562 1089.902344 231.242188 " fill-opacity="1" fill-rule="nonzero"/></g><path fill="#f9b156" d="M 901.578125 290.160156 C 901.066406 289.292969 899.613281 287 896.660156 284.445312 C 891.761719 280.222656 884.894531 277.164062 883.820312 278.523438 C 882.734375 279.898438 888.8125 284.105469 887.597656 288.738281 C 886.75 291.988281 882.574219 294.472656 880.996094 293.535156 C 877.664062 291.542969 886.691406 274.6875 884.117188 273.195312 C 881.773438 271.828125 867.941406 282.152344 869.304688 295.191406 C 870.019531 302.039062 874.914062 309.511719 882.527344 311.394531 C 893.117188 314.015625 904.335938 304.648438 904.335938 297.726562 C 904.335938 294.769531 902.28125 291.332031 901.578125 290.160156 " fill-opacity="1" fill-rule="nonzero"/><path fill="#f9b156" d="M 989.332031 192.597656 C 989.222656 187.578125 989.011719 183.359375 988.828125 180.292969 C 987.683594 180.757812 981.863281 182.699219 979.359375 183.941406 C 978.578125 184.328125 976.449219 185.390625 974.597656 187 C 971.3125 189.851562 970.007812 193.425781 969.152344 195.847656 C 964.5625 208.890625 962.269531 215.417969 961.105469 219.425781 C 958.535156 228.304688 958.433594 229.050781 957.328125 231.777344 C 954.4375 238.914062 951.085938 243.746094 949.179688 246.5 C 939.003906 261.167969 922.125 273.8125 918.601562 276.417969 L 918.59375 276.414062 C 904.6875 287.640625 892.683594 295.320312 892.683594 295.320312 L 893.808594 306.640625 C 895.980469 306.164062 898.398438 305.59375 901.039062 304.902344 C 905.542969 303.726562 913.367188 301.515625 922.871094 297.8125 C 934.945312 293.105469 944.382812 288.085938 947.0625 286.453125 C 947.40625 286.246094 962.664062 277.058594 967.378906 273.046875 C 969.699219 271.078125 976.960938 264.804688 982.09375 255.878906 C 987.011719 247.335938 987.644531 237.589844 988.914062 218.089844 C 989.632812 207 989.425781 196.84375 989.332031 192.597656 " fill-opacity="1" fill-rule="nonzero"/><g clip-path="url(#59b1234624)"><path fill="#42ab3b" d="M 1073.53125 336.816406 C 1061.90625 340.121094 1044.8125 343.574219 1024.050781 342.933594 C 1002.074219 342.257812 984.398438 337.257812 972.730469 332.960938 C 976.417969 307.46875 977.792969 290.53125 978.335938 279.519531 C 978.40625 278.226562 978.960938 266.097656 980.25 250.585938 C 980.664062 245.566406 981.195312 239.933594 981.90625 233.601562 C 982.53125 227.972656 983.140625 225.300781 984.457031 215.742188 C 986.53125 200.707031 987.949219 188.4375 988.828125 180.292969 C 991.035156 179.570312 996.027344 177.996094 1000.5 177.304688 C 1002.449219 177 1004.746094 176.738281 1004.746094 176.738281 C 1004.746094 176.738281 1005.058594 176.703125 1005.566406 176.652344 C 1006.457031 176.554688 1007.960938 176.402344 1009.46875 176.285156 C 1009.519531 176.277344 1010.566406 176.195312 1010.566406 176.195312 C 1011.53125 176.125 1012.535156 176.0625 1013.566406 175.996094 C 1014.929688 175.917969 1016.355469 175.839844 1017.851562 175.773438 L 1017.859375 175.773438 C 1020.347656 175.671875 1023.035156 175.597656 1025.929688 175.550781 C 1028.703125 175.496094 1031.277344 175.476562 1033.671875 175.503906 L 1033.710938 175.503906 C 1034.125 175.503906 1034.53125 175.507812 1034.929688 175.511719 C 1036.597656 175.535156 1037.839844 175.570312 1037.890625 175.570312 C 1037.890625 175.570312 1038.707031 175.597656 1039.507812 175.644531 C 1040.199219 175.691406 1040.949219 175.769531 1041.730469 175.878906 C 1041.804688 175.890625 1041.882812 175.902344 1041.960938 175.917969 C 1046.027344 176.503906 1050.679688 177.773438 1050.679688 177.773438 C 1052.972656 178.394531 1055.921875 179.265625 1059.34375 180.445312 C 1059.621094 182.890625 1060.0625 186.71875 1060.617188 191.082031 C 1061.199219 195.683594 1061.664062 199.027344 1061.785156 199.917969 C 1063.871094 215.054688 1066.605469 244.203125 1066.605469 244.203125 C 1066.605469 260.859375 1068.871094 269.082031 1069.625 278.5 C 1070.875 294.058594 1072.289062 313.78125 1073.53125 336.816406 " fill-opacity="1" fill-rule="nonzero"/></g><g clip-path="url(#0c96303dc1)"><path fill="#fbbe44" d="M 1038.585938 180.03125 C 1038.027344 187.292969 1032.453125 193.042969 1025.742188 193.761719 C 1018.15625 194.570312 1010.785156 188.78125 1009.785156 180.542969 C 1009.785156 180.542969 1010.136719 175.949219 1010.519531 171.125 C 1010.582031 170.351562 1010.644531 169.566406 1010.703125 168.789062 C 1010.816406 167.375 1010.925781 165.96875 1011.035156 164.550781 C 1011.242188 161.945312 1011.445312 159.335938 1011.660156 156.726562 C 1011.792969 155.03125 1011.925781 153.328125 1012.058594 151.632812 L 1036.273438 151.632812 C 1036.40625 153.328125 1036.550781 155.03125 1036.691406 156.726562 C 1036.894531 159.34375 1037.109375 161.964844 1037.320312 164.570312 C 1037.433594 165.992188 1037.554688 167.417969 1037.671875 168.832031 C 1037.753906 169.882812 1037.828125 170.8125 1037.863281 171.246094 C 1037.988281 172.863281 1038.203125 175.523438 1038.585938 180.03125 " fill-opacity="1" fill-rule="nonzero"/></g><g clip-path="url(#dc9de09eb9)"><path fill="#eaaa37" d="M 1010.703125 168.789062 C 1010.703125 168.789062 1010.800781 167.589844 1011.035156 164.550781 C 1011.242188 161.945312 1011.445312 159.335938 1011.660156 156.726562 L 1036.691406 156.726562 C 1036.894531 159.34375 1037.109375 161.964844 1037.320312 164.570312 C 1037.558594 167.457031 1037.671875 168.832031 1037.671875 168.832031 C 1036.414062 169.894531 1031.53125 173.761719 1024.191406 173.757812 C 1016.835938 173.753906 1011.953125 169.851562 1010.703125 168.789062 " fill-opacity="1" fill-rule="nonzero"/></g><g clip-path="url(#4f8dab15fa)"><path fill="#fbbe44" d="M 1054.136719 121.816406 C 1054.183594 126.851562 1053.066406 131.597656 1052.0625 135.914062 C 1051.820312 136.941406 1049.824219 145.074219 1045.472656 153.035156 C 1044.84375 154.183594 1044.167969 155.332031 1043.433594 156.453125 C 1039.484375 162.515625 1034.035156 167.835938 1026.792969 168.914062 C 1025.523438 169.105469 1023.703125 169.234375 1021.53125 168.914062 C 1007.066406 166.765625 998.175781 147.597656 995.914062 133.808594 C 995.597656 131.878906 995.238281 129.65625 995.027344 127.230469 C 994.554688 121.632812 994.933594 114.9375 998.71875 108.179688 C 999.527344 106.746094 1008.539062 91.292969 1025.390625 91.683594 C 1042.636719 92.074219 1050.914062 108.65625 1051.359375 109.585938 C 1053.371094 113.796875 1054.105469 117.902344 1054.136719 121.816406 " fill-opacity="1" fill-rule="nonzero"/></g><g clip-path="url(#a619f23fd6)"><path fill="#eaaa37" d="M 1057.550781 121.816406 C 1053.507812 123.164062 1048.621094 121.089844 1047.15625 120.46875 C 1042.34375 118.421875 1041.910156 115.890625 1038.890625 115.90625 C 1035.269531 115.925781 1034.390625 119.578125 1029.546875 121.523438 C 1025.378906 123.191406 1021.671875 122.261719 1019.121094 121.875 C 1013.722656 121.050781 1005.394531 121.480469 992.742188 127.21875 C 993.476562 122.953125 995.351562 115.515625 1000.789062 108.179688 C 1004.144531 103.664062 1013.253906 91.351562 1028.109375 91.683594 C 1045.769531 92.074219 1054.25 108.65625 1054.707031 109.585938 C 1056.769531 113.796875 1057.519531 117.902344 1057.550781 121.816406 " fill-opacity="1" fill-rule="nonzero"/></g><g clip-path="url(#ebd3f065af)"><path fill="#fbc924" d="M 1057.550781 117.660156 C 1058.164062 117.414062 1061.957031 115.828125 1063.050781 112.300781 C 1063.980469 109.308594 1062.230469 107.273438 1060.585938 102.605469 C 1057.976562 95.179688 1059.996094 93.484375 1058 87.617188 C 1057.421875 85.890625 1054.890625 78.4375 1048.707031 74.953125 C 1039.980469 70.039062 1033.46875 78.375 1018.953125 74.832031 C 1011.566406 73.03125 1010.921875 70.316406 1005.964844 70.972656 C 1000.785156 71.652344 996.898438 75.519531 989.125 83.253906 C 984.003906 88.34375 983.414062 90.011719 983.15625 90.980469 C 981.777344 96.148438 985.472656 97.917969 985.261719 105.019531 C 985.078125 111.210938 982.191406 112.9375 983.507812 117.660156 C 983.570312 117.882812 983.617188 118.101562 983.71875 118.347656 C 984.84375 121.230469 988.679688 122.15625 990.078125 122.5 C 998.195312 124.464844 1006.113281 117.339844 1019.304688 118.011719 C 1023.519531 118.226562 1025.914062 119.121094 1029.476562 117.660156 C 1034.203125 115.722656 1035.066406 112.0625 1038.601562 112.042969 C 1041.546875 112.027344 1041.972656 114.558594 1046.671875 116.609375 C 1048.738281 117.507812 1053.167969 119.417969 1057.550781 117.660156 " fill-opacity="1" fill-rule="nonzero"/></g><path fill="#291524" d="M 1016.722656 132.042969 C 1016.882812 132.492188 1014.226562 134.558594 1011.132812 134.476562 C 1008.230469 134.410156 1005.804688 132.488281 1005.964844 132.042969 C 1006.097656 131.675781 1007.941406 132.476562 1011.414062 132.472656 C 1014.828125 132.472656 1016.59375 131.695312 1016.722656 132.042969 " fill-opacity="1" fill-rule="nonzero"/><g clip-path="url(#11c80d41c3)"><path fill="#ef9c48" d="M 1020.480469 144.761719 C 1020.332031 145.226562 1022.3125 146.800781 1024.558594 146.800781 C 1026.804688 146.800781 1028.785156 145.226562 1028.632812 144.761719 C 1028.527344 144.445312 1027.492188 144.761719 1024.558594 144.761719 C 1021.625 144.761719 1020.585938 144.445312 1020.480469 144.761719 " fill-opacity="1" fill-rule="nonzero"/></g><g clip-path="url(#74ba762cdb)"><path fill="#ffffff" d="M 1018.445312 155.574219 C 1018.78125 155.175781 1020.210938 155.574219 1024.558594 155.574219 C 1028.90625 155.574219 1030.335938 155.175781 1030.671875 155.574219 C 1031.238281 156.25 1028.246094 158.707031 1024.558594 158.707031 C 1020.871094 158.707031 1017.878906 156.25 1018.445312 155.574219 " fill-opacity="1" fill-rule="nonzero"/></g><g clip-path="url(#618fd063df)"><path fill="#f14a1c" d="M 1061.140625 119.171875 C 1058.703125 100.625 1047.042969 85.78125 1031.636719 81.605469 C 1029.507812 81.027344 1017.953125 78.113281 1006.15625 84.289062 C 992.710938 91.316406 984.75 107.101562 986.039062 124.535156 L 992.742188 124.535156 C 992.742188 124.535156 992.742188 92.335938 1018.222656 89.65625 C 1021.75 89.207031 1028.550781 88.898438 1035.660156 92.335938 C 1051.410156 99.953125 1053.632812 118.710938 1053.785156 120.148438 L 1061.140625 119.171875 " fill-opacity="1" fill-rule="nonzero"/></g><path fill="#f14a1c" d="M 991.355469 111.339844 C 987.859375 110.160156 979.988281 117.433594 979.773438 125.386719 C 979.480469 136.199219 993.460938 144.652344 996.613281 142.585938 C 997.671875 141.894531 997.160156 140.257812 995.214844 127.84375 C 993.066406 114.179688 993.015625 111.90625 991.355469 111.339844 " fill-opacity="1" fill-rule="nonzero"/><g clip-path="url(#a9dc229712)"><path fill="#22518b" d="M 916.683594 316.136719 C 919.5625 318.023438 923.980469 320.699219 929.652344 323.28125 C 944.253906 329.9375 957.175781 331.453125 965.707031 332.378906 C 978.574219 333.785156 982.0625 332.476562 995.039062 334.183594 C 996.773438 334.40625 1001.925781 335.113281 1008.878906 335.648438 C 1013.492188 336.003906 1017.152344 336.152344 1019.15625 336.214844 C 1023.105469 336.347656 1026.707031 336.363281 1029.96875 336.316406 C 1038.011719 336.195312 1044.203125 335.703125 1047.515625 335.441406 C 1076.515625 333.132812 1073.875 333.683594 1076.726562 333.203125 C 1089.726562 331.015625 1099.675781 327.207031 1107.875 324.078125 C 1115.402344 321.199219 1121.535156 318.355469 1125.921875 316.191406 C 1107.621094 360.355469 1063.964844 388.585938 1017.078125 386.839844 C 973.113281 385.199219 933.71875 357.476562 916.683594 316.136719 " fill-opacity="1" fill-rule="nonzero"/></g><g clip-path="url(#4ccf645212)"><path fill="#f9b156" d="M 1031.820312 389.917969 C 1031.042969 391.378906 1029.960938 392.710938 1028.320312 393.875 C 1027.015625 394.820312 1025.34375 395.675781 1023.191406 396.421875 C 1019.171875 397.824219 1013.476562 398.875 1005.28125 399.566406 C 978.476562 401.796875 960.929688 403.261719 953.234375 392.257812 C 952.773438 391.597656 952.347656 390.902344 951.96875 390.179688 C 951.605469 389.476562 951.273438 388.742188 950.980469 387.992188 C 950.140625 385.859375 949.613281 383.574219 949.347656 381.300781 C 949.335938 381.179688 949.3125 381.054688 949.308594 380.941406 C 948.519531 373.582031 950.433594 366.515625 953.417969 365.433594 C 955.3125 364.726562 957.371094 366.636719 959.535156 368.1875 C 967.566406 373.949219 979.804688 374.230469 1003.964844 374.582031 C 1006.664062 374.625 1009.121094 374.636719 1011.339844 374.636719 C 1024.109375 374.636719 1029.460938 374.367188 1032.035156 378.386719 C 1032.640625 379.335938 1033.035156 380.410156 1033.234375 381.519531 C 1033.757812 384.410156 1033.035156 387.59375 1031.820312 389.917969 " fill-opacity="1" fill-rule="nonzero"/></g><g clip-path="url(#49bcd48850)"><path fill="#2858a6" d="M 1173.65625 335.9375 C 1172.046875 358.171875 1130.253906 371.910156 1098.507812 382.148438 C 1098.125 382.269531 1097.75 382.390625 1097.367188 382.515625 C 1095.925781 382.984375 1094.449219 383.449219 1092.9375 383.910156 C 1084.46875 386.519531 1075.042969 389.082031 1064.707031 391.363281 C 1052.644531 394.027344 1039.332031 396.3125 1024.847656 397.863281 C 1023.636719 397.992188 1022.410156 398.117188 1021.183594 398.238281 C 1021.011719 397.757812 1020.828125 397.269531 1020.65625 396.792969 C 1018.125 389.917969 1015.59375 383.046875 1013.070312 376.171875 C 1012.859375 375.605469 1012.648438 375.039062 1012.445312 374.472656 C 1057.429688 354.097656 1090.121094 336.53125 1113.0625 323.28125 C 1125.90625 315.859375 1144.488281 304.714844 1159.007812 311.949219 C 1167.316406 316.097656 1174.363281 326.230469 1173.65625 335.9375 " fill-opacity="1" fill-rule="nonzero"/></g><path fill="#e99e50" d="M 1016.542969 394.28125 C 1015.757812 398.375 988.609375 397.777344 966.773438 392.699219 C 960.46875 391.226562 955.132812 389.507812 950.980469 387.992188 C 950.980469 387.992188 949.726562 384.917969 949.347656 381.300781 C 949.335938 381.179688 949.3125 381.054688 949.308594 380.941406 C 949.59375 380.476562 949.828125 380.164062 949.90625 380.058594 C 950.335938 379.5 1017.789062 387.757812 1016.542969 394.28125 " fill-opacity="1" fill-rule="nonzero"/><g clip-path="url(#943d03dba4)"><path fill="#f9b156" d="M 1093.363281 381.300781 C 1093.265625 382.171875 1093.121094 383.046875 1092.9375 383.910156 C 1092.644531 385.304688 1092.246094 386.679688 1091.730469 387.992188 C 1091.238281 389.246094 1090.640625 390.453125 1089.933594 391.574219 C 1089.785156 391.808594 1089.632812 392.039062 1089.476562 392.257812 C 1081.785156 403.261719 1064.230469 401.796875 1037.429688 399.566406 C 1032.332031 399.136719 1028.203125 398.570312 1024.847656 397.863281 C 1023.289062 397.535156 1021.902344 397.175781 1020.65625 396.792969 C 1020.261719 396.671875 1019.878906 396.546875 1019.519531 396.421875 C 1017.363281 395.675781 1015.695312 394.820312 1014.390625 393.875 C 1012.75 392.710938 1011.664062 391.378906 1010.894531 389.917969 C 1009.675781 387.59375 1008.953125 384.410156 1009.476562 381.519531 C 1009.675781 380.410156 1010.0625 379.335938 1010.675781 378.386719 C 1011.292969 377.417969 1012.0625 376.699219 1013.070312 376.171875 C 1016.238281 374.476562 1021.660156 374.636719 1031.367188 374.636719 C 1032.882812 374.636719 1034.496094 374.636719 1036.222656 374.613281 C 1037.042969 374.609375 1037.875 374.597656 1038.746094 374.582031 C 1062.90625 374.230469 1075.144531 373.949219 1083.175781 368.1875 C 1085.335938 366.636719 1087.394531 364.726562 1089.292969 365.433594 C 1092.320312 366.539062 1094.253906 373.8125 1093.363281 381.300781 " fill-opacity="1" fill-rule="nonzero"/></g><g clip-path="url(#1652c368dd)"><path fill="#2858a6" d="M 883.703125 311.957031 C 875.394531 316.101562 868.390625 326.226562 869.050781 335.9375 C 870.613281 358.914062 914.570312 373.125 944.929688 382.941406 C 964.222656 389.179688 990.019531 395.582031 1021.53125 398.234375 C 1024.441406 390.316406 1027.355469 382.390625 1030.269531 374.472656 C 985.277344 354.097656 952.582031 336.53125 929.652344 323.28125 C 916.804688 315.859375 898.222656 304.71875 883.703125 311.957031 " fill-opacity="1" fill-rule="nonzero"/></g><g mask="url(#839e6f92a3)"><g transform="matrix(1, 0, 0, 1, 76, 1)"><g clip-path="url(#b5ebcf9bb3)"><g clip-path="url(#958c420e80)"><path fill="#47b7f0" d="M 0.960938 0.453125 L 40.101562 0.453125 L 40.101562 447.769531 L 0.960938 447.769531 Z M 0.960938 0.453125 " fill-opacity="1" fill-rule="nonzero"/></g></g></g></g><g mask="url(#b7d7055098)"><g transform="matrix(1, 0, 0, 1, 136, 1)"><g clip-path="url(#dd5099df50)"><g clip-path="url(#d15b2ea83f)"><path fill="#47b7f0" d="M 0.574219 0.453125 L 39.714844 0.453125 L 39.714844 447.769531 L 0.574219 447.769531 Z M 0.574219 0.453125 " fill-opacity="1" fill-rule="nonzero"/></g></g></g></g><g mask="url(#e762d60993)"><g transform="matrix(1, 0, 0, 1, 195, 1)"><g clip-path="url(#e33569474f)"><g clip-path="url(#2427a65be9)"><path fill="#47b7f0" d="M 1.183594 0.453125 L 40.324219 0.453125 L 40.324219 447.769531 L 1.183594 447.769531 Z M 1.183594 0.453125 " fill-opacity="1" fill-rule="nonzero"/></g></g></g></g><g clip-path="url(#2d72ad8f19)"><g mask="url(#5f5839a039)"><g transform="matrix(1, 0, 0, 1, 0, 0.000000000000034417)"><g clip-path="url(#437016a192)"><g clip-path="url(#7c1704e76b)"><g clip-path="url(#3ef80f199d)"><path fill="#47b7f0" d="M -77.675781 -69.378906 L 56.519531 -69.378906 L 56.519531 64.816406 L -77.675781 64.816406 Z M -77.675781 -69.378906 " fill-opacity="1" fill-rule="nonzero"/></g></g><g clip-path="url(#e7b10ae324)"><g clip-path="url(#5652881fd4)"><path stroke-linecap="butt" transform="matrix(0.750327, 0, 0, 0.750327, -77.674158, -69.378955)" fill="none" stroke-linejoin="miter" d="M 89.458784 0.0000648174 C 40.053268 0.0000648174 -0.00216334 40.055496 -0.00216334 89.461012 C -0.00216334 138.866528 40.053268 178.921959 89.458784 178.921959 C 138.869506 178.921959 178.919731 138.866528 178.919731 89.461012 C 178.919731 40.055496 138.869506 0.0000648174 89.458784 0.0000648174 " stroke="#47b7f0" stroke-width="70" stroke-opacity="1" stroke-miterlimit="4"/></g></g></g></g></g></g><g clip-path="url(#bff2698462)"><g mask="url(#06b46a4ae7)"><g transform="matrix(1, 0, 0, 1, 0, 274)"><g clip-path="url(#5e234eef0c)"><g clip-path="url(#25a3b945db)"><g clip-path="url(#c4061547df)"><path fill="#47b7f0" d="M -77.675781 107.671875 L 56.519531 107.671875 L 56.519531 241.867188 L -77.675781 241.867188 Z M -77.675781 107.671875 " fill-opacity="1" fill-rule="nonzero"/></g></g><g clip-path="url(#9910cc10c3)"><g clip-path="url(#9310c65508)"><path stroke-linecap="butt" transform="matrix(0.750327, 0, 0, 0.750327, -77.674158, 107.670615)" fill="none" stroke-linejoin="miter" d="M 89.458784 0.0016796 C 40.053268 0.0016796 -0.00216334 40.051905 -0.00216334 89.462627 C -0.00216334 138.868143 40.053268 178.923574 89.458784 178.923574 C 138.869506 178.923574 178.919731 138.868143 178.919731 89.462627 C 178.919731 40.051905 138.869506 0.0016796 89.458784 0.0016796 " stroke="#47b7f0" stroke-width="70" stroke-opacity="1" stroke-miterlimit="4"/></g></g></g></g></g></g></svg>